<?xml version="1.0" standalone="no"?>
 <!DOCTYPE svg PUBLIC "-//W3C//DTD SVG 1.1//EN" 
 "http://www.w3.org/Graphics/SVG/1.1/DTD/svg11.dtd"> 
<svg
  xmlns:svg="http://www.w3.org/2000/svg"
  xmlns="http://www.w3.org/2000/svg"
  xmlns:xlink="http://www.w3.org/1999/xlink"
  version="1.1"
  width="29.700220cm" height="21.000720cm" viewBox="0 0 116930 82680">
<title>SVG Picture created as ring_light_controller-B_Cu.svg date 2021/09/07 15:05:36 </title>
  <desc>Picture generated by PCBNEW </desc>
<g style="fill:#000000; fill-opacity:1;stroke:#000000; stroke-opacity:1;
stroke-linecap:round; stroke-linejoin:round;"
 transform="translate(0 0) scale(1 1)">
</g>
<g style="fill:#000000; fill-opacity:0.0; 
stroke:#000000; stroke-width:-0.000393701; stroke-opacity:1; 
stroke-linecap:round; stroke-linejoin:round;">
<g >
</g>
<g >
</g>
<g >
</g>
<g style="fill:#000000; fill-opacity:0.0; 
stroke:#000000; stroke-width:-0.000393701; stroke-opacity:1; 
stroke-linecap:round; stroke-linejoin:round;">
</g>
<g style="fill:#000000; fill-opacity:1.0; 
stroke:#000000; stroke-width:0; stroke-opacity:1; 
stroke-linecap:round; stroke-linejoin:round;">
<circle cx="39812.6" cy="42000" r="295.276" /> 
</g>
<g style="fill:#000000; fill-opacity:1.0; 
stroke:#000000; stroke-width:39.3701; stroke-opacity:1; 
stroke-linecap:round; stroke-linejoin:round;">
</g>
<g style="fill:#000000; fill-opacity:1.0; 
stroke:#000000; stroke-width:0; stroke-opacity:1; 
stroke-linecap:round; stroke-linejoin:round;">
<circle cx="42174.8" cy="42000" r="295.276" /> 
</g>
<g style="fill:#000000; fill-opacity:1.0; 
stroke:#000000; stroke-width:39.3701; stroke-opacity:1; 
stroke-linecap:round; stroke-linejoin:round;">
</g>
<g >
</g>
<g >
</g>
<g style="fill:#000000; fill-opacity:1.0; 
stroke:#000000; stroke-width:39.3701; stroke-opacity:1; 
stroke-linecap:round; stroke-linejoin:round;">
</g>
<g style="fill:#000000; fill-opacity:1.0; 
stroke:#000000; stroke-width:0; stroke-opacity:1; 
stroke-linecap:round; stroke-linejoin:round;">
<path style="fill:#000000; fill-opacity:1.0; 
stroke:#000000; stroke-width:0; stroke-opacity:1; 
stroke-linecap:round; stroke-linejoin:round;fill-rule:evenodd;"
d="M 70304.9,40465.8
70314.5,40467.2
70323.8,40469.6
70332.9,40472.8
70341.7,40477
70350,40481.9
70357.7,40487.7
70364.9,40494.2
70371.4,40501.3
70377.1,40509.1
70382.1,40517.4
70386.2,40526.1
70389.5,40535.2
70391.8,40544.6
70393.2,40554.1
70393.7,40563.8
70393.7,41036.2
70393.2,41045.9
70391.8,41055.4
70389.5,41064.8
70386.2,41073.9
70382.1,41082.6
70377.1,41090.9
70371.4,41098.7
70364.9,41105.8
70357.7,41112.3
70350,41118.1
70341.7,41123
70332.9,41127.2
70323.8,41130.4
70314.5,41132.8
70304.9,41134.2
70295.3,41134.6
69704.7,41134.6
69695.1,41134.2
69685.5,41132.8
69676.2,41130.4
69667.1,41127.2
69658.3,41123
69650,41118.1
69642.3,41112.3
69635.1,41105.8
69628.6,41098.7
69622.9,41090.9
69617.9,41082.6
69613.8,41073.9
69610.5,41064.8
69608.2,41055.4
69606.8,41045.9
69606.3,41036.2
69606.3,40563.8
69606.8,40554.1
69608.2,40544.6
69610.5,40535.2
69613.8,40526.1
69617.9,40517.4
69622.9,40509.1
69628.6,40501.3
69635.1,40494.2
69642.3,40487.7
69650,40481.9
69658.3,40477
69667.1,40472.8
69676.2,40469.6
69685.5,40467.2
69695.1,40465.8
69704.7,40465.4
70295.3,40465.4
Z" /> 
</g>
<g style="fill:#000000; fill-opacity:1.0; 
stroke:#000000; stroke-width:669.291; stroke-opacity:1; 
stroke-linecap:round; stroke-linejoin:round;">
</g>
<g style="fill:#000000; fill-opacity:0.0; 
stroke:#000000; stroke-width:669.291; stroke-opacity:1; 
stroke-linecap:round; stroke-linejoin:round;">
<path d="M70059 41784
L69940 41784
" />
</g>
<g >
</g>
<g >
</g>
<g >
</g>
<g >
</g>
<g >
</g>
<g >
</g>
<g >
</g>
<g >
</g>
<g >
</g>
<g >
</g>
<g >
</g>
<g >
</g>
<g >
</g>
<g style="fill:#000000; fill-opacity:0.0; 
stroke:#000000; stroke-width:669.291; stroke-opacity:1; 
stroke-linecap:round; stroke-linejoin:round;">
</g>
<g style="fill:#000000; fill-opacity:1.0; 
stroke:#000000; stroke-width:0; stroke-opacity:1; 
stroke-linecap:round; stroke-linejoin:round;">
<circle cx="69606.6" cy="51893.4" r="177.165" /> 
</g>
<g style="fill:#000000; fill-opacity:1.0; 
stroke:#000000; stroke-width:39.3701; stroke-opacity:1; 
stroke-linecap:round; stroke-linejoin:round;">
</g>
<g style="fill:#000000; fill-opacity:1.0; 
stroke:#000000; stroke-width:0; stroke-opacity:1; 
stroke-linecap:round; stroke-linejoin:round;">
<circle cx="68500" cy="51435" r="177.165" /> 
</g>
<g style="fill:#000000; fill-opacity:1.0; 
stroke:#000000; stroke-width:39.3701; stroke-opacity:1; 
stroke-linecap:round; stroke-linejoin:round;">
</g>
<g style="fill:#000000; fill-opacity:1.0; 
stroke:#000000; stroke-width:0; stroke-opacity:1; 
stroke-linecap:round; stroke-linejoin:round;">
<circle cx="67393.4" cy="51893.4" r="177.165" /> 
</g>
<g style="fill:#000000; fill-opacity:1.0; 
stroke:#000000; stroke-width:39.3701; stroke-opacity:1; 
stroke-linecap:round; stroke-linejoin:round;">
</g>
<g style="fill:#000000; fill-opacity:1.0; 
stroke:#000000; stroke-width:0; stroke-opacity:1; 
stroke-linecap:round; stroke-linejoin:round;">
<circle cx="66935" cy="53000" r="177.165" /> 
</g>
<g style="fill:#000000; fill-opacity:1.0; 
stroke:#000000; stroke-width:39.3701; stroke-opacity:1; 
stroke-linecap:round; stroke-linejoin:round;">
</g>
<g style="fill:#000000; fill-opacity:1.0; 
stroke:#000000; stroke-width:0; stroke-opacity:1; 
stroke-linecap:round; stroke-linejoin:round;">
<circle cx="67393.4" cy="54106.6" r="177.165" /> 
</g>
<g style="fill:#000000; fill-opacity:1.0; 
stroke:#000000; stroke-width:39.3701; stroke-opacity:1; 
stroke-linecap:round; stroke-linejoin:round;">
</g>
<g style="fill:#000000; fill-opacity:1.0; 
stroke:#000000; stroke-width:0; stroke-opacity:1; 
stroke-linecap:round; stroke-linejoin:round;">
<circle cx="68500" cy="54565" r="177.165" /> 
</g>
<g style="fill:#000000; fill-opacity:1.0; 
stroke:#000000; stroke-width:39.3701; stroke-opacity:1; 
stroke-linecap:round; stroke-linejoin:round;">
</g>
<g style="fill:#000000; fill-opacity:1.0; 
stroke:#000000; stroke-width:0; stroke-opacity:1; 
stroke-linecap:round; stroke-linejoin:round;">
<circle cx="69606.6" cy="54106.6" r="177.165" /> 
</g>
<g style="fill:#000000; fill-opacity:1.0; 
stroke:#000000; stroke-width:39.3701; stroke-opacity:1; 
stroke-linecap:round; stroke-linejoin:round;">
</g>
<g style="fill:#000000; fill-opacity:1.0; 
stroke:#000000; stroke-width:0; stroke-opacity:1; 
stroke-linecap:round; stroke-linejoin:round;">
<circle cx="70065" cy="53000" r="177.165" /> 
</g>
<g style="fill:#000000; fill-opacity:1.0; 
stroke:#000000; stroke-width:39.3701; stroke-opacity:1; 
stroke-linecap:round; stroke-linejoin:round;">
</g>
<g style="fill:#000000; fill-opacity:1.0; 
stroke:#000000; stroke-width:0; stroke-opacity:1; 
stroke-linecap:round; stroke-linejoin:round;">
<circle cx="68500" cy="53000" r="2086.61" /> 
</g>
<g style="fill:#000000; fill-opacity:1.0; 
stroke:#000000; stroke-width:39.3701; stroke-opacity:1; 
stroke-linecap:round; stroke-linejoin:round;">
</g>
<g >
</g>
<g style="fill:#000000; fill-opacity:1.0; 
stroke:#000000; stroke-width:39.3701; stroke-opacity:1; 
stroke-linecap:round; stroke-linejoin:round;">
</g>
<g style="fill:#000000; fill-opacity:1.0; 
stroke:#000000; stroke-width:0; stroke-opacity:1; 
stroke-linecap:round; stroke-linejoin:round;">
<circle cx="68500" cy="26000" r="2086.61" /> 
</g>
<g style="fill:#000000; fill-opacity:1.0; 
stroke:#000000; stroke-width:39.3701; stroke-opacity:1; 
stroke-linecap:round; stroke-linejoin:round;">
</g>
<g style="fill:#000000; fill-opacity:1.0; 
stroke:#000000; stroke-width:0; stroke-opacity:1; 
stroke-linecap:round; stroke-linejoin:round;">
<circle cx="70065" cy="26000" r="177.165" /> 
</g>
<g style="fill:#000000; fill-opacity:1.0; 
stroke:#000000; stroke-width:39.3701; stroke-opacity:1; 
stroke-linecap:round; stroke-linejoin:round;">
</g>
<g style="fill:#000000; fill-opacity:1.0; 
stroke:#000000; stroke-width:0; stroke-opacity:1; 
stroke-linecap:round; stroke-linejoin:round;">
<circle cx="69606.6" cy="27106.6" r="177.165" /> 
</g>
<g style="fill:#000000; fill-opacity:1.0; 
stroke:#000000; stroke-width:39.3701; stroke-opacity:1; 
stroke-linecap:round; stroke-linejoin:round;">
</g>
<g style="fill:#000000; fill-opacity:1.0; 
stroke:#000000; stroke-width:0; stroke-opacity:1; 
stroke-linecap:round; stroke-linejoin:round;">
<circle cx="68500" cy="27565" r="177.165" /> 
</g>
<g style="fill:#000000; fill-opacity:1.0; 
stroke:#000000; stroke-width:39.3701; stroke-opacity:1; 
stroke-linecap:round; stroke-linejoin:round;">
</g>
<g style="fill:#000000; fill-opacity:1.0; 
stroke:#000000; stroke-width:0; stroke-opacity:1; 
stroke-linecap:round; stroke-linejoin:round;">
<circle cx="67393.4" cy="27106.6" r="177.165" /> 
</g>
<g style="fill:#000000; fill-opacity:1.0; 
stroke:#000000; stroke-width:39.3701; stroke-opacity:1; 
stroke-linecap:round; stroke-linejoin:round;">
</g>
<g style="fill:#000000; fill-opacity:1.0; 
stroke:#000000; stroke-width:0; stroke-opacity:1; 
stroke-linecap:round; stroke-linejoin:round;">
<circle cx="66935" cy="26000" r="177.165" /> 
</g>
<g style="fill:#000000; fill-opacity:1.0; 
stroke:#000000; stroke-width:39.3701; stroke-opacity:1; 
stroke-linecap:round; stroke-linejoin:round;">
</g>
<g style="fill:#000000; fill-opacity:1.0; 
stroke:#000000; stroke-width:0; stroke-opacity:1; 
stroke-linecap:round; stroke-linejoin:round;">
<circle cx="67393.4" cy="24893.4" r="177.165" /> 
</g>
<g style="fill:#000000; fill-opacity:1.0; 
stroke:#000000; stroke-width:39.3701; stroke-opacity:1; 
stroke-linecap:round; stroke-linejoin:round;">
</g>
<g style="fill:#000000; fill-opacity:1.0; 
stroke:#000000; stroke-width:0; stroke-opacity:1; 
stroke-linecap:round; stroke-linejoin:round;">
<circle cx="68500" cy="24435" r="177.165" /> 
</g>
<g style="fill:#000000; fill-opacity:1.0; 
stroke:#000000; stroke-width:39.3701; stroke-opacity:1; 
stroke-linecap:round; stroke-linejoin:round;">
</g>
<g style="fill:#000000; fill-opacity:1.0; 
stroke:#000000; stroke-width:0; stroke-opacity:1; 
stroke-linecap:round; stroke-linejoin:round;">
<circle cx="69606.6" cy="24893.4" r="177.165" /> 
</g>
<g style="fill:#000000; fill-opacity:1.0; 
stroke:#000000; stroke-width:39.3701; stroke-opacity:1; 
stroke-linecap:round; stroke-linejoin:round;">
</g>
<g >
</g>
<g style="fill:#000000; fill-opacity:1.0; 
stroke:#000000; stroke-width:39.3701; stroke-opacity:1; 
stroke-linecap:round; stroke-linejoin:round;">
</g>
<g style="fill:#000000; fill-opacity:1.0; 
stroke:#000000; stroke-width:0; stroke-opacity:1; 
stroke-linecap:round; stroke-linejoin:round;">
<circle cx="42856.6" cy="24893.4" r="177.165" /> 
</g>
<g style="fill:#000000; fill-opacity:1.0; 
stroke:#000000; stroke-width:39.3701; stroke-opacity:1; 
stroke-linecap:round; stroke-linejoin:round;">
</g>
<g style="fill:#000000; fill-opacity:1.0; 
stroke:#000000; stroke-width:0; stroke-opacity:1; 
stroke-linecap:round; stroke-linejoin:round;">
<circle cx="41750" cy="24435" r="177.165" /> 
</g>
<g style="fill:#000000; fill-opacity:1.0; 
stroke:#000000; stroke-width:39.3701; stroke-opacity:1; 
stroke-linecap:round; stroke-linejoin:round;">
</g>
<g style="fill:#000000; fill-opacity:1.0; 
stroke:#000000; stroke-width:0; stroke-opacity:1; 
stroke-linecap:round; stroke-linejoin:round;">
<circle cx="40643.4" cy="24893.4" r="177.165" /> 
</g>
<g style="fill:#000000; fill-opacity:1.0; 
stroke:#000000; stroke-width:39.3701; stroke-opacity:1; 
stroke-linecap:round; stroke-linejoin:round;">
</g>
<g style="fill:#000000; fill-opacity:1.0; 
stroke:#000000; stroke-width:0; stroke-opacity:1; 
stroke-linecap:round; stroke-linejoin:round;">
<circle cx="40185" cy="26000" r="177.165" /> 
</g>
<g style="fill:#000000; fill-opacity:1.0; 
stroke:#000000; stroke-width:39.3701; stroke-opacity:1; 
stroke-linecap:round; stroke-linejoin:round;">
</g>
<g style="fill:#000000; fill-opacity:1.0; 
stroke:#000000; stroke-width:0; stroke-opacity:1; 
stroke-linecap:round; stroke-linejoin:round;">
<circle cx="40643.4" cy="27106.6" r="177.165" /> 
</g>
<g style="fill:#000000; fill-opacity:1.0; 
stroke:#000000; stroke-width:39.3701; stroke-opacity:1; 
stroke-linecap:round; stroke-linejoin:round;">
</g>
<g style="fill:#000000; fill-opacity:1.0; 
stroke:#000000; stroke-width:0; stroke-opacity:1; 
stroke-linecap:round; stroke-linejoin:round;">
<circle cx="41750" cy="27565" r="177.165" /> 
</g>
<g style="fill:#000000; fill-opacity:1.0; 
stroke:#000000; stroke-width:39.3701; stroke-opacity:1; 
stroke-linecap:round; stroke-linejoin:round;">
</g>
<g style="fill:#000000; fill-opacity:1.0; 
stroke:#000000; stroke-width:0; stroke-opacity:1; 
stroke-linecap:round; stroke-linejoin:round;">
<circle cx="42856.6" cy="27106.6" r="177.165" /> 
</g>
<g style="fill:#000000; fill-opacity:1.0; 
stroke:#000000; stroke-width:39.3701; stroke-opacity:1; 
stroke-linecap:round; stroke-linejoin:round;">
</g>
<g style="fill:#000000; fill-opacity:1.0; 
stroke:#000000; stroke-width:0; stroke-opacity:1; 
stroke-linecap:round; stroke-linejoin:round;">
<circle cx="43315" cy="26000" r="177.165" /> 
</g>
<g style="fill:#000000; fill-opacity:1.0; 
stroke:#000000; stroke-width:39.3701; stroke-opacity:1; 
stroke-linecap:round; stroke-linejoin:round;">
</g>
<g style="fill:#000000; fill-opacity:1.0; 
stroke:#000000; stroke-width:0; stroke-opacity:1; 
stroke-linecap:round; stroke-linejoin:round;">
<circle cx="41750" cy="26000" r="2086.61" /> 
</g>
<g style="fill:#000000; fill-opacity:1.0; 
stroke:#000000; stroke-width:39.3701; stroke-opacity:1; 
stroke-linecap:round; stroke-linejoin:round;">
</g>
<g >
</g>
<g style="fill:#000000; fill-opacity:1.0; 
stroke:#000000; stroke-width:39.3701; stroke-opacity:1; 
stroke-linecap:round; stroke-linejoin:round;">
</g>
<g style="fill:#000000; fill-opacity:1.0; 
stroke:#000000; stroke-width:0; stroke-opacity:1; 
stroke-linecap:round; stroke-linejoin:round;">
<circle cx="41750" cy="53000" r="2086.61" /> 
</g>
<g style="fill:#000000; fill-opacity:1.0; 
stroke:#000000; stroke-width:39.3701; stroke-opacity:1; 
stroke-linecap:round; stroke-linejoin:round;">
</g>
<g style="fill:#000000; fill-opacity:1.0; 
stroke:#000000; stroke-width:0; stroke-opacity:1; 
stroke-linecap:round; stroke-linejoin:round;">
<circle cx="43315" cy="53000" r="177.165" /> 
</g>
<g style="fill:#000000; fill-opacity:1.0; 
stroke:#000000; stroke-width:39.3701; stroke-opacity:1; 
stroke-linecap:round; stroke-linejoin:round;">
</g>
<g style="fill:#000000; fill-opacity:1.0; 
stroke:#000000; stroke-width:0; stroke-opacity:1; 
stroke-linecap:round; stroke-linejoin:round;">
<circle cx="42856.6" cy="54106.6" r="177.165" /> 
</g>
<g style="fill:#000000; fill-opacity:1.0; 
stroke:#000000; stroke-width:39.3701; stroke-opacity:1; 
stroke-linecap:round; stroke-linejoin:round;">
</g>
<g style="fill:#000000; fill-opacity:1.0; 
stroke:#000000; stroke-width:0; stroke-opacity:1; 
stroke-linecap:round; stroke-linejoin:round;">
<circle cx="41750" cy="54565" r="177.165" /> 
</g>
<g style="fill:#000000; fill-opacity:1.0; 
stroke:#000000; stroke-width:39.3701; stroke-opacity:1; 
stroke-linecap:round; stroke-linejoin:round;">
</g>
<g style="fill:#000000; fill-opacity:1.0; 
stroke:#000000; stroke-width:0; stroke-opacity:1; 
stroke-linecap:round; stroke-linejoin:round;">
<circle cx="40643.4" cy="54106.6" r="177.165" /> 
</g>
<g style="fill:#000000; fill-opacity:1.0; 
stroke:#000000; stroke-width:39.3701; stroke-opacity:1; 
stroke-linecap:round; stroke-linejoin:round;">
</g>
<g style="fill:#000000; fill-opacity:1.0; 
stroke:#000000; stroke-width:0; stroke-opacity:1; 
stroke-linecap:round; stroke-linejoin:round;">
<circle cx="40185" cy="53000" r="177.165" /> 
</g>
<g style="fill:#000000; fill-opacity:1.0; 
stroke:#000000; stroke-width:39.3701; stroke-opacity:1; 
stroke-linecap:round; stroke-linejoin:round;">
</g>
<g style="fill:#000000; fill-opacity:1.0; 
stroke:#000000; stroke-width:0; stroke-opacity:1; 
stroke-linecap:round; stroke-linejoin:round;">
<circle cx="40643.4" cy="51893.4" r="177.165" /> 
</g>
<g style="fill:#000000; fill-opacity:1.0; 
stroke:#000000; stroke-width:39.3701; stroke-opacity:1; 
stroke-linecap:round; stroke-linejoin:round;">
</g>
<g style="fill:#000000; fill-opacity:1.0; 
stroke:#000000; stroke-width:0; stroke-opacity:1; 
stroke-linecap:round; stroke-linejoin:round;">
<circle cx="41750" cy="51435" r="177.165" /> 
</g>
<g style="fill:#000000; fill-opacity:1.0; 
stroke:#000000; stroke-width:39.3701; stroke-opacity:1; 
stroke-linecap:round; stroke-linejoin:round;">
</g>
<g style="fill:#000000; fill-opacity:1.0; 
stroke:#000000; stroke-width:0; stroke-opacity:1; 
stroke-linecap:round; stroke-linejoin:round;">
<circle cx="42856.6" cy="51893.4" r="177.165" /> 
</g>
<g style="fill:#000000; fill-opacity:1.0; 
stroke:#000000; stroke-width:39.3701; stroke-opacity:1; 
stroke-linecap:round; stroke-linejoin:round;">
</g>
<g >
</g>
<g style="fill:#000000; fill-opacity:1.0; 
stroke:#000000; stroke-width:39.3701; stroke-opacity:1; 
stroke-linecap:round; stroke-linejoin:round;">
</g>
<g style="fill:#000000; fill-opacity:1.0; 
stroke:#000000; stroke-width:669.291; stroke-opacity:1; 
stroke-linecap:round; stroke-linejoin:round;">
</g>
<g style="fill:#000000; fill-opacity:0.0; 
stroke:#000000; stroke-width:669.291; stroke-opacity:1; 
stroke-linecap:round; stroke-linejoin:round;">
<path d="M70059 48784
L69940 48784
" />
</g>
<g style="fill:#000000; fill-opacity:0.0; 
stroke:#000000; stroke-width:0; stroke-opacity:1; 
stroke-linecap:round; stroke-linejoin:round;">
</g>
<g style="fill:#000000; fill-opacity:1.0; 
stroke:#000000; stroke-width:0; stroke-opacity:1; 
stroke-linecap:round; stroke-linejoin:round;">
<path style="fill:#000000; fill-opacity:1.0; 
stroke:#000000; stroke-width:0; stroke-opacity:1; 
stroke-linecap:round; stroke-linejoin:round;fill-rule:evenodd;"
d="M 70304.9,47465.8
70314.5,47467.2
70323.8,47469.6
70332.9,47472.8
70341.7,47477
70350,47481.9
70357.7,47487.7
70364.9,47494.2
70371.4,47501.3
70377.1,47509.1
70382.1,47517.4
70386.2,47526.1
70389.5,47535.2
70391.8,47544.6
70393.2,47554.1
70393.7,47563.8
70393.7,48036.2
70393.2,48045.9
70391.8,48055.4
70389.5,48064.8
70386.2,48073.9
70382.1,48082.6
70377.1,48090.9
70371.4,48098.7
70364.9,48105.8
70357.7,48112.3
70350,48118.1
70341.7,48123
70332.9,48127.2
70323.8,48130.4
70314.5,48132.8
70304.9,48134.2
70295.3,48134.6
69704.7,48134.6
69695.1,48134.2
69685.5,48132.8
69676.2,48130.4
69667.1,48127.2
69658.3,48123
69650,48118.1
69642.3,48112.3
69635.1,48105.8
69628.6,48098.7
69622.9,48090.9
69617.9,48082.6
69613.8,48073.9
69610.5,48064.8
69608.2,48055.4
69606.8,48045.9
69606.3,48036.2
69606.3,47563.8
69606.8,47554.1
69608.2,47544.6
69610.5,47535.2
69613.8,47526.1
69617.9,47517.4
69622.9,47509.1
69628.6,47501.3
69635.1,47494.2
69642.3,47487.7
69650,47481.9
69658.3,47477
69667.1,47472.8
69676.2,47469.6
69685.5,47467.2
69695.1,47465.8
69704.7,47465.4
70295.3,47465.4
Z" /> 
</g>
<g >
</g>
<g style="fill:#000000; fill-opacity:1.0; 
stroke:#000000; stroke-width:0; stroke-opacity:1; 
stroke-linecap:round; stroke-linejoin:round;">
<path style="fill:#000000; fill-opacity:1.0; 
stroke:#000000; stroke-width:0; stroke-opacity:1; 
stroke-linecap:round; stroke-linejoin:round;fill-rule:evenodd;"
d="M 70304.9,44065.8
70314.5,44067.2
70323.8,44069.6
70332.9,44072.8
70341.7,44077
70350,44081.9
70357.7,44087.7
70364.9,44094.2
70371.4,44101.3
70377.1,44109.1
70382.1,44117.4
70386.2,44126.1
70389.5,44135.2
70391.8,44144.6
70393.2,44154.1
70393.7,44163.8
70393.7,44636.2
70393.2,44645.9
70391.8,44655.4
70389.5,44664.8
70386.2,44673.9
70382.1,44682.6
70377.1,44690.9
70371.4,44698.7
70364.9,44705.8
70357.7,44712.3
70350,44718.1
70341.7,44723
70332.9,44727.2
70323.8,44730.4
70314.5,44732.8
70304.9,44734.2
70295.3,44734.6
69704.7,44734.6
69695.1,44734.2
69685.5,44732.8
69676.2,44730.4
69667.1,44727.2
69658.3,44723
69650,44718.1
69642.3,44712.3
69635.1,44705.8
69628.6,44698.7
69622.9,44690.9
69617.9,44682.6
69613.8,44673.9
69610.5,44664.8
69608.2,44655.4
69606.8,44645.9
69606.3,44636.2
69606.3,44163.8
69606.8,44154.1
69608.2,44144.6
69610.5,44135.2
69613.8,44126.1
69617.9,44117.4
69622.9,44109.1
69628.6,44101.3
69635.1,44094.2
69642.3,44087.7
69650,44081.9
69658.3,44077
69667.1,44072.8
69676.2,44069.6
69685.5,44067.2
69695.1,44065.8
69704.7,44065.4
70295.3,44065.4
Z" /> 
</g>
<g style="fill:#000000; fill-opacity:1.0; 
stroke:#000000; stroke-width:669.291; stroke-opacity:1; 
stroke-linecap:round; stroke-linejoin:round;">
</g>
<g style="fill:#000000; fill-opacity:0.0; 
stroke:#000000; stroke-width:669.291; stroke-opacity:1; 
stroke-linecap:round; stroke-linejoin:round;">
<path d="M70059 45384
L69940 45384
" />
</g>
<g >
</g>
<g style="fill:#000000; fill-opacity:0.0; 
stroke:#000000; stroke-width:669.291; stroke-opacity:1; 
stroke-linecap:round; stroke-linejoin:round;">
<path d="M70059 38384
L69940 38384
" />
</g>
<g style="fill:#000000; fill-opacity:0.0; 
stroke:#000000; stroke-width:0; stroke-opacity:1; 
stroke-linecap:round; stroke-linejoin:round;">
</g>
<g style="fill:#000000; fill-opacity:1.0; 
stroke:#000000; stroke-width:0; stroke-opacity:1; 
stroke-linecap:round; stroke-linejoin:round;">
<path style="fill:#000000; fill-opacity:1.0; 
stroke:#000000; stroke-width:0; stroke-opacity:1; 
stroke-linecap:round; stroke-linejoin:round;fill-rule:evenodd;"
d="M 70304.9,37065.8
70314.5,37067.2
70323.8,37069.6
70332.9,37072.8
70341.7,37077
70350,37081.9
70357.7,37087.7
70364.9,37094.2
70371.4,37101.3
70377.1,37109.1
70382.1,37117.4
70386.2,37126.1
70389.5,37135.2
70391.8,37144.6
70393.2,37154.1
70393.7,37163.8
70393.7,37636.2
70393.2,37645.9
70391.8,37655.4
70389.5,37664.8
70386.2,37673.9
70382.1,37682.6
70377.1,37690.9
70371.4,37698.7
70364.9,37705.8
70357.7,37712.3
70350,37718.1
70341.7,37723
70332.9,37727.2
70323.8,37730.4
70314.5,37732.8
70304.9,37734.2
70295.3,37734.6
69704.7,37734.6
69695.1,37734.2
69685.5,37732.8
69676.2,37730.4
69667.1,37727.2
69658.3,37723
69650,37718.1
69642.3,37712.3
69635.1,37705.8
69628.6,37698.7
69622.9,37690.9
69617.9,37682.6
69613.8,37673.9
69610.5,37664.8
69608.2,37655.4
69606.8,37645.9
69606.3,37636.2
69606.3,37163.8
69606.8,37154.1
69608.2,37144.6
69610.5,37135.2
69613.8,37126.1
69617.9,37117.4
69622.9,37109.1
69628.6,37101.3
69635.1,37094.2
69642.3,37087.7
69650,37081.9
69658.3,37077
69667.1,37072.8
69676.2,37069.6
69685.5,37067.2
69695.1,37065.8
69704.7,37065.4
70295.3,37065.4
Z" /> 
</g>
<g >
</g>
<g style="fill:#000000; fill-opacity:1.0; 
stroke:#000000; stroke-width:0; stroke-opacity:1; 
stroke-linecap:round; stroke-linejoin:round;">
<path style="fill:#000000; fill-opacity:1.0; 
stroke:#000000; stroke-width:0; stroke-opacity:1; 
stroke-linecap:round; stroke-linejoin:round;fill-rule:evenodd;"
d="M 43311,33689
43311,32311
44689,32311
44689,33689
Z" /> 
<path style="fill:#000000; fill-opacity:1.0; 
stroke:#000000; stroke-width:0; stroke-opacity:1; 
stroke-linecap:round; stroke-linejoin:round;fill-rule:evenodd;"
d="M 41962,32312.4
41990.7,32316.7
42018.8,32323.7
42046.1,32333.5
42072.3,32345.9
42097.1,32360.8
42120.4,32378
42141.9,32397.5
42161.3,32419
42178.6,32442.3
42193.5,32467.1
42205.9,32493.3
42215.6,32520.6
42222.7,32548.7
42226.9,32577.4
42228.3,32606.3
42228.3,33393.7
42226.9,33422.6
42222.7,33451.3
42215.6,33479.4
42205.9,33506.7
42193.5,33532.9
42178.6,33557.7
42161.3,33581
42141.9,33602.5
42120.4,33622
42097.1,33639.2
42072.3,33654.1
42046.1,33666.5
42018.8,33676.3
41990.7,33683.3
41962,33687.6
41933.1,33689
41342.5,33689
41313.6,33687.6
41284.9,33683.3
41256.8,33676.3
41229.5,33666.5
41203.3,33654.1
41178.5,33639.2
41155.2,33622
41133.7,33602.5
41114.3,33581
41097,33557.7
41082.1,33532.9
41069.7,33506.7
41060,33479.4
41052.9,33451.3
41048.7,33422.6
41047.2,33393.7
41047.2,32606.3
41048.7,32577.4
41052.9,32548.7
41060,32520.6
41069.7,32493.3
41082.1,32467.1
41097,32442.3
41114.3,32419
41133.7,32397.5
41155.2,32378
41178.5,32360.8
41203.3,32345.9
41229.5,32333.5
41256.8,32323.7
41284.9,32316.7
41313.6,32312.4
41342.5,32311
41933.1,32311
Z" /> 
<path style="fill:#000000; fill-opacity:1.0; 
stroke:#000000; stroke-width:0; stroke-opacity:1; 
stroke-linecap:round; stroke-linejoin:round;fill-rule:evenodd;"
d="M 43197.2,34163.1
43230.6,34168
43263.4,34176.3
43295.2,34187.6
43325.8,34202.1
43354.8,34219.5
43381.9,34239.6
43407,34262.3
43429.7,34287.4
43449.8,34314.5
43467.2,34343.5
43481.7,34374.1
43493,34405.9
43501.3,34438.7
43506.2,34472.1
43507.9,34505.9
43507.9,35194.9
43506.2,35228.6
43501.3,35262.1
43493,35294.9
43481.7,35326.7
43467.2,35357.3
43449.8,35386.3
43429.7,35413.4
43407,35438.5
43381.9,35461.2
43354.8,35481.3
43325.8,35498.7
43295.2,35513.1
43263.4,35524.5
43230.6,35532.8
43197.2,35537.7
43163.4,35539.4
42474.4,35539.4
42440.6,35537.7
42407.2,35532.8
42374.4,35524.5
42342.6,35513.1
42312,35498.7
42283,35481.3
42255.9,35461.2
42230.8,35438.5
42208.1,35413.4
42188,35386.3
42170.6,35357.3
42156.1,35326.7
42144.8,35294.9
42136.5,35262.1
42131.6,35228.6
42129.9,35194.9
42129.9,34505.9
42131.6,34472.1
42136.5,34438.7
42144.8,34405.9
42156.1,34374.1
42170.6,34343.5
42188,34314.5
42208.1,34287.4
42230.8,34262.3
42255.9,34239.6
42283,34219.5
42312,34202.1
42342.6,34187.6
42374.4,34176.3
42407.2,34168
42440.6,34163.1
42474.4,34161.4
43163.4,34161.4
Z" /> 
</g>
<g >
</g>
<g style="fill:#000000; fill-opacity:1.0; 
stroke:#000000; stroke-width:0; stroke-opacity:1; 
stroke-linecap:round; stroke-linejoin:round;">
</g>
<g style="fill:#000000; fill-opacity:1.0; 
stroke:#000000; stroke-width:669.291; stroke-opacity:1; 
stroke-linecap:round; stroke-linejoin:round;">
</g>
<g style="fill:#000000; fill-opacity:0.0; 
stroke:#000000; stroke-width:669.291; stroke-opacity:1; 
stroke-linecap:round; stroke-linejoin:round;">
<path d="M70059 34784
L69940 34784
" />
</g>
<g style="fill:#000000; fill-opacity:0.0; 
stroke:#000000; stroke-width:0; stroke-opacity:1; 
stroke-linecap:round; stroke-linejoin:round;">
</g>
<g style="fill:#000000; fill-opacity:1.0; 
stroke:#000000; stroke-width:0; stroke-opacity:1; 
stroke-linecap:round; stroke-linejoin:round;">
<path style="fill:#000000; fill-opacity:1.0; 
stroke:#000000; stroke-width:0; stroke-opacity:1; 
stroke-linecap:round; stroke-linejoin:round;fill-rule:evenodd;"
d="M 70304.9,33465.8
70314.5,33467.2
70323.8,33469.6
70332.9,33472.8
70341.7,33477
70350,33481.9
70357.7,33487.7
70364.9,33494.2
70371.4,33501.3
70377.1,33509.1
70382.1,33517.4
70386.2,33526.1
70389.5,33535.2
70391.8,33544.6
70393.2,33554.1
70393.7,33563.8
70393.7,34036.2
70393.2,34045.9
70391.8,34055.4
70389.5,34064.8
70386.2,34073.9
70382.1,34082.6
70377.1,34090.9
70371.4,34098.7
70364.9,34105.8
70357.7,34112.3
70350,34118.1
70341.7,34123
70332.9,34127.2
70323.8,34130.4
70314.5,34132.8
70304.9,34134.2
70295.3,34134.6
69704.7,34134.6
69695.1,34134.2
69685.5,34132.8
69676.2,34130.4
69667.1,34127.2
69658.3,34123
69650,34118.1
69642.3,34112.3
69635.1,34105.8
69628.6,34098.7
69622.9,34090.9
69617.9,34082.6
69613.8,34073.9
69610.5,34064.8
69608.2,34055.4
69606.8,34045.9
69606.3,34036.2
69606.3,33563.8
69606.8,33554.1
69608.2,33544.6
69610.5,33535.2
69613.8,33526.1
69617.9,33517.4
69622.9,33509.1
69628.6,33501.3
69635.1,33494.2
69642.3,33487.7
69650,33481.9
69658.3,33477
69667.1,33472.8
69676.2,33469.6
69685.5,33467.2
69695.1,33465.8
69704.7,33465.4
70295.3,33465.4
Z" /> 
</g>
<g >
</g>
<g style="fill:#000000; fill-opacity:1.0; 
stroke:#000000; stroke-width:0; stroke-opacity:1; 
stroke-linecap:round; stroke-linejoin:round;">
<path style="fill:#000000; fill-opacity:1.0; 
stroke:#000000; stroke-width:0; stroke-opacity:1; 
stroke-linecap:round; stroke-linejoin:round;fill-rule:evenodd;"
d="M 70304.9,30065.8
70314.5,30067.2
70323.8,30069.6
70332.9,30072.8
70341.7,30077
70350,30081.9
70357.7,30087.7
70364.9,30094.2
70371.4,30101.3
70377.1,30109.1
70382.1,30117.4
70386.2,30126.1
70389.5,30135.2
70391.8,30144.6
70393.2,30154.1
70393.7,30163.8
70393.7,30636.2
70393.2,30645.9
70391.8,30655.4
70389.5,30664.8
70386.2,30673.9
70382.1,30682.6
70377.1,30690.9
70371.4,30698.7
70364.9,30705.8
70357.7,30712.3
70350,30718.1
70341.7,30723
70332.9,30727.2
70323.8,30730.4
70314.5,30732.8
70304.9,30734.2
70295.3,30734.6
69704.7,30734.6
69695.1,30734.2
69685.5,30732.8
69676.2,30730.4
69667.1,30727.2
69658.3,30723
69650,30718.1
69642.3,30712.3
69635.1,30705.8
69628.6,30698.7
69622.9,30690.9
69617.9,30682.6
69613.8,30673.9
69610.5,30664.8
69608.2,30655.4
69606.8,30645.9
69606.3,30636.2
69606.3,30163.8
69606.8,30154.1
69608.2,30144.6
69610.5,30135.2
69613.8,30126.1
69617.9,30117.4
69622.9,30109.1
69628.6,30101.3
69635.1,30094.2
69642.3,30087.7
69650,30081.9
69658.3,30077
69667.1,30072.8
69676.2,30069.6
69685.5,30067.2
69695.1,30065.8
69704.7,30065.4
70295.3,30065.4
Z" /> 
</g>
<g style="fill:#000000; fill-opacity:1.0; 
stroke:#000000; stroke-width:669.291; stroke-opacity:1; 
stroke-linecap:round; stroke-linejoin:round;">
</g>
<g style="fill:#000000; fill-opacity:0.0; 
stroke:#000000; stroke-width:669.291; stroke-opacity:1; 
stroke-linecap:round; stroke-linejoin:round;">
<path d="M70059 31384
L69940 31384
" />
</g>
<g >
</g>
<g style="fill:#000000; fill-opacity:0.0; 
stroke:#000000; stroke-width:669.291; stroke-opacity:1; 
stroke-linecap:round; stroke-linejoin:round;">
</g>
<g style="fill:#000000; fill-opacity:0.0; 
stroke:#000000; stroke-width:0; stroke-opacity:1; 
stroke-linecap:round; stroke-linejoin:round;">
</g>
<g style="fill:#000000; fill-opacity:1.0; 
stroke:#000000; stroke-width:0; stroke-opacity:1; 
stroke-linecap:round; stroke-linejoin:round;">
<path style="fill:#000000; fill-opacity:1.0; 
stroke:#000000; stroke-width:0; stroke-opacity:1; 
stroke-linecap:round; stroke-linejoin:round;fill-rule:evenodd;"
d="M 49230.1,54016.6
49239.7,54018
49249,54020.4
49258.1,54023.6
49266.9,54027.8
49275.2,54032.7
49282.9,54038.5
49290.1,54045
49296.6,54052.1
49302.3,54059.9
49307.3,54068.2
49311.4,54076.9
49314.7,54086
49317,54095.4
49318.4,54104.9
49318.9,54114.6
49318.9,54685.4
49318.4,54695.1
49317,54704.6
49314.7,54714
49311.4,54723.1
49307.3,54731.8
49302.3,54740.1
49296.6,54747.9
49290.1,54755
49282.9,54761.5
49275.2,54767.3
49266.9,54772.2
49258.1,54776.4
49249,54779.6
49239.7,54782
49230.1,54783.4
49220.5,54783.9
48748,54783.9
48738.4,54783.4
48728.8,54782
48719.5,54779.6
48710.4,54776.4
48701.6,54772.2
48693.3,54767.3
48685.6,54761.5
48678.4,54755
48671.9,54747.9
48666.2,54740.1
48661.2,54731.8
48657.1,54723.1
48653.8,54714
48651.5,54704.6
48650.1,54695.1
48649.6,54685.4
48649.6,54114.6
48650.1,54104.9
48651.5,54095.4
48653.8,54086
48657.1,54076.9
48661.2,54068.2
48666.2,54059.9
48671.9,54052.1
48678.4,54045
48685.6,54038.5
48693.3,54032.7
48701.6,54027.8
48710.4,54023.6
48719.5,54020.4
48728.8,54018
48738.4,54016.6
48748,54016.1
49220.5,54016.1
Z" /> 
</g>
<g style="fill:#000000; fill-opacity:1.0; 
stroke:#000000; stroke-width:669.291; stroke-opacity:1; 
stroke-linecap:round; stroke-linejoin:round;">
</g>
<g style="fill:#000000; fill-opacity:0.0; 
stroke:#000000; stroke-width:669.291; stroke-opacity:1; 
stroke-linecap:round; stroke-linejoin:round;">
<path d="M48000 54449
L48000 54350
" />
<path d="M47015 54449
L47015 54350
" />
</g>
<g >
</g>
<g >
</g>
<g >
</g>
<g >
</g>
<g >
</g>
<g >
</g>
<g >
</g>
<g >
</g>
<g >
</g>
<g >
</g>
<g >
</g>
<g >
</g>
<g >
</g>
<g >
</g>
<g >
</g>
<g >
</g>
<g >
</g>
<g >
</g>
<g >
</g>
<g >
</g>
<g >
</g>
<g >
</g>
<g >
</g>
<g >
</g>
<g >
</g>
<g >
</g>
<g >
</g>
<g >
</g>
<g >
</g>
<g >
</g>
<g >
</g>
<g >
</g>
<g >
</g>
<g >
</g>
<g >
</g>
<g >
</g>
<g >
</g>
<g >
</g>
<g >
</g>
<g >
</g>
<g >
</g>
<g >
</g>
<g >
</g>
<g >
</g>
<g >
</g>
<g >
</g>
<g >
</g>
<g >
</g>
<g >
</g>
<g style="fill:#000000; fill-opacity:0.0; 
stroke:#000000; stroke-width:669.291; stroke-opacity:1; 
stroke-linecap:round; stroke-linejoin:round;">
</g>
<g style="fill:#000000; fill-opacity:0.0; 
stroke:#000000; stroke-width:0; stroke-opacity:1; 
stroke-linecap:round; stroke-linejoin:round;">
</g>
<g style="fill:#000000; fill-opacity:1.0; 
stroke:#000000; stroke-width:0; stroke-opacity:1; 
stroke-linecap:round; stroke-linejoin:round;">
<path style="fill:#000000; fill-opacity:1.0; 
stroke:#000000; stroke-width:0; stroke-opacity:1; 
stroke-linecap:round; stroke-linejoin:round;fill-rule:evenodd;"
d="M 50054.9,39165.8
50064.5,39167.2
50073.8,39169.6
50082.9,39172.8
50091.7,39177
50100,39181.9
50107.7,39187.7
50114.9,39194.2
50121.4,39201.3
50127.1,39209.1
50132.1,39217.4
50136.2,39226.1
50139.5,39235.2
50141.8,39244.6
50143.2,39254.1
50143.7,39263.8
50143.7,39736.2
50143.2,39745.9
50141.8,39755.4
50139.5,39764.8
50136.2,39773.9
50132.1,39782.6
50127.1,39790.9
50121.4,39798.7
50114.9,39805.8
50107.7,39812.3
50100,39818.1
50091.7,39823
50082.9,39827.2
50073.8,39830.4
50064.5,39832.8
50054.9,39834.2
50045.3,39834.6
49454.7,39834.6
49445.1,39834.2
49435.5,39832.8
49426.2,39830.4
49417.1,39827.2
49408.3,39823
49400,39818.1
49392.3,39812.3
49385.1,39805.8
49378.6,39798.7
49372.9,39790.9
49367.9,39782.6
49363.8,39773.9
49360.5,39764.8
49358.2,39755.4
49356.8,39745.9
49356.3,39736.2
49356.3,39263.8
49356.8,39254.1
49358.2,39244.6
49360.5,39235.2
49363.8,39226.1
49367.9,39217.4
49372.9,39209.1
49378.6,39201.3
49385.1,39194.2
49392.3,39187.7
49400,39181.9
49408.3,39177
49417.1,39172.8
49426.2,39169.6
49435.5,39167.2
49445.1,39165.8
49454.7,39165.4
50045.3,39165.4
Z" /> 
</g>
<g style="fill:#000000; fill-opacity:1.0; 
stroke:#000000; stroke-width:669.291; stroke-opacity:1; 
stroke-linecap:round; stroke-linejoin:round;">
</g>
<g style="fill:#000000; fill-opacity:0.0; 
stroke:#000000; stroke-width:669.291; stroke-opacity:1; 
stroke-linecap:round; stroke-linejoin:round;">
<path d="M49690 38515
L49809 38515
" />
</g>
<g >
</g>
<g >
</g>
<g >
</g>
<g >
</g>
<g >
</g>
<g >
</g>
<g >
</g>
<g >
</g>
<g >
</g>
<g style="fill:#000000; fill-opacity:0.0; 
stroke:#000000; stroke-width:669.291; stroke-opacity:1; 
stroke-linecap:round; stroke-linejoin:round;">
</g>
<g style="fill:#000000; fill-opacity:0.0; 
stroke:#000000; stroke-width:0; stroke-opacity:1; 
stroke-linecap:round; stroke-linejoin:round;">
</g>
<g style="fill:#000000; fill-opacity:1.0; 
stroke:#000000; stroke-width:0; stroke-opacity:1; 
stroke-linecap:round; stroke-linejoin:round;">
<path style="fill:#000000; fill-opacity:1.0; 
stroke:#000000; stroke-width:0; stroke-opacity:1; 
stroke-linecap:round; stroke-linejoin:round;fill-rule:evenodd;"
d="M 58734.6,41065.4
58734.6,41734.6
58065.4,41734.6
58065.4,41065.4
Z" /> 
<circle cx="58400" cy="40400" r="334.646" /> 
<circle cx="58400" cy="39400" r="334.646" /> 
</g>
<g >
</g>
<g style="fill:#000000; fill-opacity:1.0; 
stroke:#000000; stroke-width:0; stroke-opacity:1; 
stroke-linecap:round; stroke-linejoin:round;">
<circle cx="42174.8" cy="47200" r="295.276" /> 
</g>
<g style="fill:#000000; fill-opacity:1.0; 
stroke:#000000; stroke-width:39.3701; stroke-opacity:1; 
stroke-linecap:round; stroke-linejoin:round;">
</g>
<g style="fill:#000000; fill-opacity:1.0; 
stroke:#000000; stroke-width:0; stroke-opacity:1; 
stroke-linecap:round; stroke-linejoin:round;">
<circle cx="39812.6" cy="47200" r="295.276" /> 
</g>
<g style="fill:#000000; fill-opacity:1.0; 
stroke:#000000; stroke-width:39.3701; stroke-opacity:1; 
stroke-linecap:round; stroke-linejoin:round;">
</g>
<g >
</g>
<g >
</g>
<g >
</g>
<g >
</g>
<g >
</g>
<g >
</g>
<g >
</g>
<g >
</g>
<g >
</g>
<g >
</g>
<g >
</g>
<g >
</g>
<g >
</g>
<g >
</g>
<g >
</g>
<g >
</g>
<g style="fill:#000000; fill-opacity:1.0; 
stroke:#000000; stroke-width:39.3701; stroke-opacity:1; 
stroke-linecap:round; stroke-linejoin:round;">
</g>
<g style="fill:#000000; fill-opacity:1.0; 
stroke:#000000; stroke-width:0; stroke-opacity:1; 
stroke-linecap:round; stroke-linejoin:round;">
<circle cx="59250" cy="33250" r="157.48" /> 
</g>
<g style="fill:#000000; fill-opacity:1.0; 
stroke:#000000; stroke-width:39.3701; stroke-opacity:1; 
stroke-linecap:round; stroke-linejoin:round;">
</g>
<g style="fill:#000000; fill-opacity:1.0; 
stroke:#000000; stroke-width:0; stroke-opacity:1; 
stroke-linecap:round; stroke-linejoin:round;">
<circle cx="58250" cy="37250" r="118.11" /> 
</g>
<g style="fill:#000000; fill-opacity:1.0; 
stroke:#000000; stroke-width:39.3701; stroke-opacity:1; 
stroke-linecap:round; stroke-linejoin:round;">
</g>
<g style="fill:#000000; fill-opacity:1.0; 
stroke:#000000; stroke-width:0; stroke-opacity:1; 
stroke-linecap:round; stroke-linejoin:round;">
<circle cx="46800" cy="46200" r="157.48" /> 
</g>
<g style="fill:#000000; fill-opacity:1.0; 
stroke:#000000; stroke-width:39.3701; stroke-opacity:1; 
stroke-linecap:round; stroke-linejoin:round;">
</g>
<g style="fill:#000000; fill-opacity:1.0; 
stroke:#000000; stroke-width:0; stroke-opacity:1; 
stroke-linecap:round; stroke-linejoin:round;">
<circle cx="47000" cy="48000" r="157.48" /> 
</g>
<g style="fill:#000000; fill-opacity:1.0; 
stroke:#000000; stroke-width:39.3701; stroke-opacity:1; 
stroke-linecap:round; stroke-linejoin:round;">
</g>
<g style="fill:#000000; fill-opacity:1.0; 
stroke:#000000; stroke-width:0; stroke-opacity:1; 
stroke-linecap:round; stroke-linejoin:round;">
<circle cx="53000" cy="35000" r="157.48" /> 
</g>
<g style="fill:#000000; fill-opacity:1.0; 
stroke:#000000; stroke-width:39.3701; stroke-opacity:1; 
stroke-linecap:round; stroke-linejoin:round;">
</g>
<g style="fill:#000000; fill-opacity:1.0; 
stroke:#000000; stroke-width:0; stroke-opacity:1; 
stroke-linecap:round; stroke-linejoin:round;">
<circle cx="52250" cy="27000" r="157.48" /> 
</g>
<g style="fill:#000000; fill-opacity:1.0; 
stroke:#000000; stroke-width:39.3701; stroke-opacity:1; 
stroke-linecap:round; stroke-linejoin:round;">
</g>
<g style="fill:#000000; fill-opacity:1.0; 
stroke:#000000; stroke-width:0; stroke-opacity:1; 
stroke-linecap:round; stroke-linejoin:round;">
<circle cx="51750" cy="27000" r="157.48" /> 
</g>
<g style="fill:#000000; fill-opacity:1.0; 
stroke:#000000; stroke-width:39.3701; stroke-opacity:1; 
stroke-linecap:round; stroke-linejoin:round;">
</g>
<g style="fill:#000000; fill-opacity:1.0; 
stroke:#000000; stroke-width:0; stroke-opacity:1; 
stroke-linecap:round; stroke-linejoin:round;">
<circle cx="51250" cy="27000" r="157.48" /> 
</g>
<g style="fill:#000000; fill-opacity:1.0; 
stroke:#000000; stroke-width:39.3701; stroke-opacity:1; 
stroke-linecap:round; stroke-linejoin:round;">
</g>
<g style="fill:#000000; fill-opacity:1.0; 
stroke:#000000; stroke-width:0; stroke-opacity:1; 
stroke-linecap:round; stroke-linejoin:round;">
<circle cx="50750" cy="27000" r="157.48" /> 
</g>
<g style="fill:#000000; fill-opacity:1.0; 
stroke:#000000; stroke-width:39.3701; stroke-opacity:1; 
stroke-linecap:round; stroke-linejoin:round;">
</g>
<g style="fill:#000000; fill-opacity:1.0; 
stroke:#000000; stroke-width:0; stroke-opacity:1; 
stroke-linecap:round; stroke-linejoin:round;">
<circle cx="53000" cy="32500" r="157.48" /> 
</g>
<g style="fill:#000000; fill-opacity:1.0; 
stroke:#000000; stroke-width:39.3701; stroke-opacity:1; 
stroke-linecap:round; stroke-linejoin:round;">
</g>
<g style="fill:#000000; fill-opacity:1.0; 
stroke:#000000; stroke-width:0; stroke-opacity:1; 
stroke-linecap:round; stroke-linejoin:round;">
<circle cx="50500" cy="35750" r="157.48" /> 
</g>
<g style="fill:#000000; fill-opacity:1.0; 
stroke:#000000; stroke-width:39.3701; stroke-opacity:1; 
stroke-linecap:round; stroke-linejoin:round;">
</g>
<g style="fill:#000000; fill-opacity:1.0; 
stroke:#000000; stroke-width:0; stroke-opacity:1; 
stroke-linecap:round; stroke-linejoin:round;">
<circle cx="59000" cy="30000" r="157.48" /> 
</g>
<g style="fill:#000000; fill-opacity:1.0; 
stroke:#000000; stroke-width:39.3701; stroke-opacity:1; 
stroke-linecap:round; stroke-linejoin:round;">
</g>
<g style="fill:#000000; fill-opacity:1.0; 
stroke:#000000; stroke-width:0; stroke-opacity:1; 
stroke-linecap:round; stroke-linejoin:round;">
<circle cx="62000" cy="31000" r="118.11" /> 
</g>
<g style="fill:#000000; fill-opacity:1.0; 
stroke:#000000; stroke-width:39.3701; stroke-opacity:1; 
stroke-linecap:round; stroke-linejoin:round;">
</g>
<g style="fill:#000000; fill-opacity:1.0; 
stroke:#000000; stroke-width:0; stroke-opacity:1; 
stroke-linecap:round; stroke-linejoin:round;">
<circle cx="61750" cy="33250" r="118.11" /> 
</g>
<g style="fill:#000000; fill-opacity:1.0; 
stroke:#000000; stroke-width:39.3701; stroke-opacity:1; 
stroke-linecap:round; stroke-linejoin:round;">
</g>
<g style="fill:#000000; fill-opacity:1.0; 
stroke:#000000; stroke-width:0; stroke-opacity:1; 
stroke-linecap:round; stroke-linejoin:round;">
<circle cx="63500" cy="33500" r="118.11" /> 
</g>
<g style="fill:#000000; fill-opacity:1.0; 
stroke:#000000; stroke-width:39.3701; stroke-opacity:1; 
stroke-linecap:round; stroke-linejoin:round;">
</g>
<g style="fill:#000000; fill-opacity:1.0; 
stroke:#000000; stroke-width:0; stroke-opacity:1; 
stroke-linecap:round; stroke-linejoin:round;">
<circle cx="62250" cy="39500" r="118.11" /> 
</g>
<g style="fill:#000000; fill-opacity:1.0; 
stroke:#000000; stroke-width:39.3701; stroke-opacity:1; 
stroke-linecap:round; stroke-linejoin:round;">
</g>
<g style="fill:#000000; fill-opacity:1.0; 
stroke:#000000; stroke-width:0; stroke-opacity:1; 
stroke-linecap:round; stroke-linejoin:round;">
<circle cx="63500" cy="38000" r="118.11" /> 
</g>
<g style="fill:#000000; fill-opacity:1.0; 
stroke:#000000; stroke-width:39.3701; stroke-opacity:1; 
stroke-linecap:round; stroke-linejoin:round;">
</g>
<g style="fill:#000000; fill-opacity:1.0; 
stroke:#000000; stroke-width:0; stroke-opacity:1; 
stroke-linecap:round; stroke-linejoin:round;">
<circle cx="62000" cy="45750" r="118.11" /> 
</g>
<g style="fill:#000000; fill-opacity:1.0; 
stroke:#000000; stroke-width:39.3701; stroke-opacity:1; 
stroke-linecap:round; stroke-linejoin:round;">
</g>
<g style="fill:#000000; fill-opacity:1.0; 
stroke:#000000; stroke-width:0; stroke-opacity:1; 
stroke-linecap:round; stroke-linejoin:round;">
<circle cx="62000" cy="46750" r="118.11" /> 
</g>
<g style="fill:#000000; fill-opacity:1.0; 
stroke:#000000; stroke-width:39.3701; stroke-opacity:1; 
stroke-linecap:round; stroke-linejoin:round;">
</g>
<g style="fill:#000000; fill-opacity:1.0; 
stroke:#000000; stroke-width:0; stroke-opacity:1; 
stroke-linecap:round; stroke-linejoin:round;">
<circle cx="55500" cy="44500" r="118.11" /> 
</g>
<g style="fill:#000000; fill-opacity:1.0; 
stroke:#000000; stroke-width:39.3701; stroke-opacity:1; 
stroke-linecap:round; stroke-linejoin:round;">
</g>
<g style="fill:#000000; fill-opacity:1.0; 
stroke:#000000; stroke-width:0; stroke-opacity:1; 
stroke-linecap:round; stroke-linejoin:round;">
<circle cx="53750" cy="47000" r="118.11" /> 
</g>
<g style="fill:#000000; fill-opacity:1.0; 
stroke:#000000; stroke-width:39.3701; stroke-opacity:1; 
stroke-linecap:round; stroke-linejoin:round;">
</g>
<g style="fill:#000000; fill-opacity:1.0; 
stroke:#000000; stroke-width:0; stroke-opacity:1; 
stroke-linecap:round; stroke-linejoin:round;">
<circle cx="46350" cy="44950" r="118.11" /> 
</g>
<g style="fill:#000000; fill-opacity:1.0; 
stroke:#000000; stroke-width:39.3701; stroke-opacity:1; 
stroke-linecap:round; stroke-linejoin:round;">
</g>
<g style="fill:#000000; fill-opacity:1.0; 
stroke:#000000; stroke-width:0; stroke-opacity:1; 
stroke-linecap:round; stroke-linejoin:round;">
<circle cx="46850" cy="43700" r="118.11" /> 
</g>
<g style="fill:#000000; fill-opacity:1.0; 
stroke:#000000; stroke-width:39.3701; stroke-opacity:1; 
stroke-linecap:round; stroke-linejoin:round;">
</g>
<g style="fill:#000000; fill-opacity:1.0; 
stroke:#000000; stroke-width:0; stroke-opacity:1; 
stroke-linecap:round; stroke-linejoin:round;">
<circle cx="56000" cy="38000" r="118.11" /> 
</g>
<g style="fill:#000000; fill-opacity:1.0; 
stroke:#000000; stroke-width:39.3701; stroke-opacity:1; 
stroke-linecap:round; stroke-linejoin:round;">
</g>
<g style="fill:#000000; fill-opacity:1.0; 
stroke:#000000; stroke-width:0; stroke-opacity:1; 
stroke-linecap:round; stroke-linejoin:round;">
<circle cx="41400" cy="36800" r="157.48" /> 
</g>
<g style="fill:#000000; fill-opacity:1.0; 
stroke:#000000; stroke-width:39.3701; stroke-opacity:1; 
stroke-linecap:round; stroke-linejoin:round;">
</g>
<g style="fill:#000000; fill-opacity:1.0; 
stroke:#000000; stroke-width:0; stroke-opacity:1; 
stroke-linecap:round; stroke-linejoin:round;">
<circle cx="52750" cy="40500" r="118.11" /> 
</g>
<g style="fill:#000000; fill-opacity:1.0; 
stroke:#000000; stroke-width:39.3701; stroke-opacity:1; 
stroke-linecap:round; stroke-linejoin:round;">
</g>
<g style="fill:#000000; fill-opacity:1.0; 
stroke:#000000; stroke-width:0; stroke-opacity:1; 
stroke-linecap:round; stroke-linejoin:round;">
<circle cx="52500" cy="42500" r="118.11" /> 
</g>
<g style="fill:#000000; fill-opacity:1.0; 
stroke:#000000; stroke-width:39.3701; stroke-opacity:1; 
stroke-linecap:round; stroke-linejoin:round;">
</g>
<g >
</g>
<g style="fill:#000000; fill-opacity:1.0; 
stroke:#000000; stroke-width:39.3701; stroke-opacity:1; 
stroke-linecap:round; stroke-linejoin:round;">
</g>
<g style="fill:#000000; fill-opacity:1.0; 
stroke:#000000; stroke-width:295.276; stroke-opacity:1; 
stroke-linecap:round; stroke-linejoin:round;">
</g>
<g style="fill:#000000; fill-opacity:0.0; 
stroke:#000000; stroke-width:295.276; stroke-opacity:1; 
stroke-linecap:round; stroke-linejoin:round;">
<path d="M59250 50250
L57750 51750
" />
<path d="M57750 51750
L48000 51750
" />
<path d="M47015 52734
L47015 54000
" />
<path d="M48000 51750
L47015 52734
" />
</g>
<g style="fill:#000000; fill-opacity:0.0; 
stroke:#000000; stroke-width:118.11; stroke-opacity:1; 
stroke-linecap:round; stroke-linejoin:round;">
<path d="M59250 37250
L58250 37250
" />
</g>
<g style="fill:#000000; fill-opacity:0.0; 
stroke:#000000; stroke-width:295.276; stroke-opacity:1; 
stroke-linecap:round; stroke-linejoin:round;">
<path d="M59250 33250
L59250 37250
" />
<path d="M59250 37250
L59250 50250
" />
</g>
<g style="fill:#000000; fill-opacity:1.0; 
stroke:#000000; stroke-width:0; stroke-opacity:1; 
stroke-linecap:round; stroke-linejoin:round;">
<circle cx="58250" cy="37250" r="59.0551" /> 
</g>
<g style="fill:#000000; fill-opacity:1.0; 
stroke:#000000; stroke-width:295.276; stroke-opacity:1; 
stroke-linecap:round; stroke-linejoin:round;">
</g>
<g style="fill:#000000; fill-opacity:0.0; 
stroke:#000000; stroke-width:295.276; stroke-opacity:1; 
stroke-linecap:round; stroke-linejoin:round;">
<path d="M47015 54000
L47015 54400
" />
</g>
<g style="fill:#000000; fill-opacity:0.0; 
stroke:#000000; stroke-width:98.4252; stroke-opacity:1; 
stroke-linecap:round; stroke-linejoin:round;">
<path d="M46800 46200
L47000 46400
" />
<path d="M47000 46400
L47000 48000
" />
<path d="M52500 40750
L52500 42500
" />
<path d="M52750 40500
L52500 40750
" />
</g>
<g >
</g>
<g style="fill:#000000; fill-opacity:0.0; 
stroke:#000000; stroke-width:98.4252; stroke-opacity:1; 
stroke-linecap:round; stroke-linejoin:round;">
<g >
</g>
<g style="fill:#000000; fill-opacity:1.0; 
stroke:#000000; stroke-width:100; stroke-opacity:1; 
stroke-linecap:round; stroke-linejoin:round;">
<path style="fill:#000000; fill-opacity:1.0; 
stroke:#000000; stroke-width:100; stroke-opacity:1; 
stroke-linecap:round; stroke-linejoin:round;fill-rule:evenodd;"
d="M 68868,23537.9
69227.8,23619.3
69571.7,23753.1
69892.1,23936.2
70181.8,24164.6
70434.7,24433.3
70645,24736.5
70808.2,25067.4
70920.7,25418.9
70980.6,25787
70990.2,26005.7
70990.2,52990.4
70962.1,53368
70880.7,53727.8
70746.9,54071.7
70563.8,54392.1
70335.4,54681.8
70066.7,54934.7
69763.5,55145
69432.6,55308.2
69081.1,55420.7
68713,55480.6
68494.3,55490.2
41759.6,55490.2
41382,55462.1
41022.2,55380.7
40678.3,55246.9
40357.9,55063.8
40068.2,54835.4
39894.7,54651
40169.7,54651
40410.7,54928.5
40812.7,55152.7
41250.6,55294.2
41707.8,55347.5
42166.6,55310.7
42609.4,55185
43019.1,54975.4
43089.3,54928.5
43330.3,54651
41750,53070.7
40169.7,54651
39894.7,54651
39815.3,54566.7
39605,54263.5
39441.8,53932.6
39329.3,53581.1
39269.4,53213
39259.8,52994.4
39259.9,52957.8
39402.5,52957.8
39439.3,53416.6
39565,53859.4
39774.6,54269.1
39821.5,54339.3
40099,54580.3
41679.3,53000
41820.7,53000
43401,54580.3
43678.5,54339.3
43688.1,54322.1
46431.1,54322.1
46431.1,54477.9
46439.6,54563.8
46473,54674
46527.3,54775.6
46600.3,54864.6
46689.4,54937.7
46790.9,54992
46901.1,55025.4
47015.7,55036.7
47130.4,55025.4
47240.6,54992
47342.1,54937.7
47431.2,54864.6
47504.2,54775.6
47509.6,54765.5
47571.2,54846.6
47657,54922.6
47756,54980.5
47859.5,55016.7
47950,54969
47950,54450
47942.1,54450
47942.1,54350
47950,54350
47950,53831
48050,53831
48050,54350
48057.9,54350
48057.9,54450
48050,54450
48050,54969
48140.5,55016.7
48244,54980.5
48343,54922.6
48428.8,54846.6
48435.2,54838.2
48457.3,54879.7
48500.8,54932.7
48553.8,54976.1
48614.2,55008.5
48679.8,55028.3
48748,55035.1
49220.5,55035.1
49288.7,55028.3
49354.3,55008.5
49414.7,54976.1
49467.7,54932.7
49484,54912.8
55494.1,54912.8
55494.1,55012.4
55513.5,55110.2
55551.7,55202.2
55607,55285.1
55677.5,55355.6
55760.4,55410.9
55852.4,55449.1
55950.2,55468.5
56049.8,55468.5
56147.6,55449.1
56239.6,55410.9
56322.5,55355.6
56393,55285.1
56448.3,55202.2
56486.5,55110.2
56505.9,55012.4
56505.9,54912.8
56486.5,54815
56448.3,54723
56400.2,54651
66919.7,54651
67160.7,54928.5
67562.7,55152.7
68000.6,55294.2
68457.8,55347.5
68916.6,55310.7
69359.4,55185
69769.1,54975.4
69839.3,54928.5
70080.3,54651
68500,53070.7
66919.7,54651
56400.2,54651
56393,54640.1
56322.5,54569.6
56239.6,54514.3
56147.6,54476.1
56049.8,54456.7
55950.2,54456.7
55852.4,54476.1
55760.4,54514.3
55677.5,54569.6
55607,54640.1
55551.7,54723
55513.5,54815
55494.1,54912.8
49484,54912.8
49511.2,54879.7
49543.5,54819.2
49563.4,54753.6
49570.1,54685.4
49570.1,54114.6
49568.6,54098.8
49662.1,54098.8
49756,54080.1
49844.5,54043.5
49924.1,53990.3
49991.8,53922.5
50045.1,53842.9
50081.7,53754.4
50100.4,53660.5
50100.4,53564.7
50081.7,53470.8
50045.1,53382.3
49991.8,53302.7
49924.1,53234.9
49844.5,53181.7
49756,53145.1
49662.1,53126.4
49566.3,53126.4
49472.3,53145.1
49383.9,53181.7
49304.2,53234.9
49236.5,53302.7
49183.3,53382.3
49146.6,53470.8
49128,53564.7
49128,53660.5
49146.6,53754.4
49151,53764.9
48748,53764.9
48679.8,53771.7
48614.2,53791.5
48553.8,53823.9
48500.8,53867.3
48457.3,53920.3
48435.2,53961.8
48428.8,53953.4
48343,53877.4
48244,53819.5
48140.5,53783.3
48050,53831
47950,53831
47859.5,53783.3
47756,53819.5
47657,53877.4
47571.2,53953.4
47509.6,54034.5
47504.2,54024.4
47431.2,53935.4
47413.4,53920.8
47413.4,52944.3
55494.1,52944.3
55494.1,53043.9
55513.5,53141.7
55551.7,53233.7
55607,53316.6
55677.5,53387.1
55760.4,53442.4
55852.4,53480.6
55950.2,53500
56049.8,53500
56147.6,53480.6
56239.6,53442.4
56322.5,53387.1
56393,53316.6
56448.3,53233.7
56486.5,53141.7
56505.9,53043.9
56505.9,52957.8
66152.5,52957.8
66189.3,53416.6
66315,53859.4
66524.6,54269.1
66571.5,54339.3
66849,54580.3
68429.3,53000
68570.7,53000
70151,54580.3
70428.5,54339.3
70652.7,53937.3
70794.2,53499.4
70847.5,53042.2
70810.7,52583.4
70685,52140.6
70475.4,51730.9
70428.5,51660.7
70151,51419.7
68570.7,53000
68429.3,53000
66849,51419.7
66571.5,51660.7
66347.3,52062.7
66205.8,52500.6
66152.5,52957.8
56505.9,52957.8
56505.9,52944.3
56486.5,52846.5
56448.3,52754.5
56393,52671.6
56322.5,52601.1
56239.6,52545.8
56147.6,52507.6
56049.8,52488.2
55950.2,52488.2
55852.4,52507.6
55760.4,52545.8
55677.5,52601.1
55607,52671.6
55551.7,52754.5
55513.5,52846.5
55494.1,52944.3
47413.4,52944.3
47413.4,52899
48164.7,52147.6
57730.5,52147.6
57750,52149.6
57828,52141.9
57902.9,52119.1
57972,52082.2
58032.5,52032.5
58045,52017.4
58713.3,51349
66919.7,51349
68500,52929.3
70080.3,51349
69839.3,51071.5
69437.3,50847.3
68999.4,50705.8
68542.2,50652.5
68083.4,50689.3
67640.6,50815
67230.9,51024.6
67160.7,51071.5
66919.7,51349
58713.3,51349
59517.4,50545
59532.5,50532.5
59582.2,50472
59619.1,50402.9
59641.9,50328
59647.6,50269.5
59649.6,50250
59647.6,50230.5
59647.6,47122.2
68726.4,47122.2
68726.4,47218
68745.1,47311.9
68781.7,47400.4
68834.9,47480
68902.7,47547.8
68982.3,47601
69070.8,47637.6
69164.7,47656.3
69260.5,47656.3
69354.4,47637.6
69355.1,47637.3
69355.1,48036.2
69361.8,48104.4
69381.7,48170
69414,48230.5
69457.5,48283.4
69510.5,48326.9
69550.5,48348.3
69525.5,48368.8
69452.5,48457.9
69398.2,48559.4
69364.8,48669.6
69353.5,48784.3
69364.8,48898.9
69398.2,49009.1
69452.5,49110.6
69525.5,49199.7
69614.6,49272.7
69716.1,49327
69826.3,49360.4
69912.2,49368.9
70087.8,49368.9
70173.7,49360.4
70283.9,49327
70385.4,49272.7
70474.5,49199.7
70547.5,49110.6
70601.8,49009.1
70635.2,48898.9
70646.5,48784.3
70635.2,48669.6
70601.8,48559.4
70547.5,48457.9
70474.5,48368.8
70449.5,48348.3
70489.5,48326.9
70542.5,48283.4
70586,48230.5
70618.3,48170
70638.2,48104.4
70644.9,48036.2
70644.9,47563.8
70638.2,47495.6
70618.3,47430
70586,47369.5
70542.5,47316.6
70489.5,47273.1
70429.1,47240.8
70363.5,47220.9
70295.3,47214.1
69704.7,47214.1
69698.8,47214.7
69698.8,47122.2
69680.1,47028.3
69643.5,46939.8
69590.3,46860.1
69522.5,46792.4
69442.9,46739.2
69354.4,46702.5
69260.5,46683.9
69164.7,46683.9
69070.8,46702.5
68982.3,46739.2
68902.7,46792.4
68834.9,46860.1
68781.7,46939.8
68745.1,47028.3
68726.4,47122.2
59647.6,47122.2
59647.6,43722.2
68726.4,43722.2
68726.4,43818
68745.1,43911.9
68781.7,44000.4
68834.9,44080
68902.7,44147.8
68982.3,44201
69070.8,44237.6
69164.7,44256.3
69260.5,44256.3
69354.4,44237.6
69355.1,44237.3
69355.1,44636.2
69361.8,44704.4
69381.7,44770
69414,44830.5
69457.5,44883.4
69510.5,44926.9
69550.5,44948.3
69525.5,44968.8
69452.5,45057.9
69398.2,45159.4
69364.8,45269.6
69353.5,45384.3
69364.8,45498.9
69398.2,45609.1
69452.5,45710.6
69525.5,45799.7
69614.6,45872.7
69716.1,45927
69826.3,45960.4
69912.2,45968.9
70087.8,45968.9
70173.7,45960.4
70283.9,45927
70385.4,45872.7
70474.5,45799.7
70547.5,45710.6
70601.8,45609.1
70635.2,45498.9
70646.5,45384.3
70635.2,45269.6
70601.8,45159.4
70547.5,45057.9
70474.5,44968.8
70449.5,44948.3
70489.5,44926.9
70542.5,44883.4
70586,44830.5
70618.3,44770
70638.2,44704.4
70644.9,44636.2
70644.9,44163.8
70638.2,44095.6
70618.3,44030
70586,43969.5
70542.5,43916.6
70489.5,43873.1
70429.1,43840.8
70363.5,43820.9
70295.3,43814.1
69704.7,43814.1
69698.8,43814.7
69698.8,43722.2
69680.1,43628.3
69643.5,43539.8
69590.3,43460.1
69522.5,43392.4
69442.9,43339.2
69354.4,43302.5
69260.5,43283.9
69164.7,43283.9
69070.8,43302.5
68982.3,43339.2
68902.7,43392.4
68834.9,43460.1
68781.7,43539.8
68745.1,43628.3
68726.4,43722.2
59647.6,43722.2
59647.6,40122.2
68726.4,40122.2
68726.4,40218
68745.1,40311.9
68781.7,40400.4
68834.9,40480
68902.7,40547.8
68982.3,40601
69070.8,40637.6
69164.7,40656.3
69260.5,40656.3
69354.4,40637.6
69355.1,40637.3
69355.1,41036.2
69361.8,41104.4
69381.7,41170
69414,41230.5
69457.5,41283.4
69510.5,41326.9
69550.5,41348.3
69525.5,41368.8
69452.5,41457.9
69398.2,41559.4
69364.8,41669.6
69353.5,41784.3
69364.8,41898.9
69398.2,42009.1
69452.5,42110.6
69525.5,42199.7
69614.6,42272.7
69716.1,42327
69826.3,42360.4
69912.2,42368.9
70087.8,42368.9
70173.7,42360.4
70283.9,42327
70385.4,42272.7
70474.5,42199.7
70547.5,42110.6
70601.8,42009.1
70635.2,41898.9
70646.5,41784.3
70635.2,41669.6
70601.8,41559.4
70547.5,41457.9
70474.5,41368.8
70449.5,41348.3
70489.5,41326.9
70542.5,41283.4
70586,41230.5
70618.3,41170
70638.2,41104.4
70644.9,41036.2
70644.9,40563.8
70638.2,40495.6
70618.3,40430
70586,40369.5
70542.5,40316.6
70489.5,40273.1
70429.1,40240.8
70363.5,40220.9
70295.3,40214.1
69704.7,40214.1
69698.8,40214.7
69698.8,40122.2
69680.1,40028.3
69643.5,39939.8
69590.3,39860.1
69522.5,39792.4
69442.9,39739.2
69354.4,39702.5
69260.5,39683.9
69164.7,39683.9
69070.8,39702.5
68982.3,39739.2
68902.7,39792.4
68834.9,39860.1
68781.7,39939.8
68745.1,40028.3
68726.4,40122.2
59647.6,40122.2
59647.6,36722.2
68726.4,36722.2
68726.4,36818
68745.1,36911.9
68781.7,37000.4
68834.9,37080
68902.7,37147.8
68982.3,37201
69070.8,37237.6
69164.7,37256.3
69260.5,37256.3
69354.4,37237.6
69355.1,37237.3
69355.1,37636.2
69361.8,37704.4
69381.7,37770
69414,37830.5
69457.5,37883.4
69510.5,37926.9
69550.5,37948.3
69525.5,37968.8
69452.5,38057.9
69398.2,38159.4
69364.8,38269.6
69353.5,38384.3
69364.8,38498.9
69398.2,38609.1
69452.5,38710.6
69525.5,38799.7
69614.6,38872.7
69716.1,38927
69826.3,38960.4
69912.2,38968.9
70087.8,38968.9
70173.7,38960.4
70283.9,38927
70385.4,38872.7
70474.5,38799.7
70547.5,38710.6
70601.8,38609.1
70635.2,38498.9
70646.5,38384.3
70635.2,38269.6
70601.8,38159.4
70547.5,38057.9
70474.5,37968.8
70449.5,37948.3
70489.5,37926.9
70542.5,37883.4
70586,37830.5
70618.3,37770
70638.2,37704.4
70644.9,37636.2
70644.9,37163.8
70638.2,37095.6
70618.3,37030
70586,36969.5
70542.5,36916.6
70489.5,36873.1
70429.1,36840.8
70363.5,36820.9
70295.3,36814.1
69704.7,36814.1
69698.8,36814.7
69698.8,36722.2
69680.1,36628.3
69643.5,36539.8
69590.3,36460.1
69522.5,36392.4
69442.9,36339.2
69354.4,36302.5
69260.5,36283.9
69164.7,36283.9
69070.8,36302.5
68982.3,36339.2
68902.7,36392.4
68834.9,36460.1
68781.7,36539.8
68745.1,36628.3
68726.4,36722.2
59647.6,36722.2
59647.6,33339.6
59657.5,33290.1
59657.5,33209.9
59641.8,33131.1
59638.1,33122.2
68726.4,33122.2
68726.4,33218
68745.1,33311.9
68781.7,33400.4
68834.9,33480
68902.7,33547.8
68982.3,33601
69070.8,33637.6
69164.7,33656.3
69260.5,33656.3
69354.4,33637.6
69355.1,33637.3
69355.1,34036.2
69361.8,34104.4
69381.7,34170
69414,34230.5
69457.5,34283.4
69510.5,34326.9
69550.5,34348.3
69525.5,34368.8
69452.5,34457.9
69398.2,34559.4
69364.8,34669.6
69353.5,34784.3
69364.8,34898.9
69398.2,35009.1
69452.5,35110.6
69525.5,35199.7
69614.6,35272.7
69716.1,35327
69826.3,35360.4
69912.2,35368.9
70087.8,35368.9
70173.7,35360.4
70283.9,35327
70385.4,35272.7
70474.5,35199.7
70547.5,35110.6
70601.8,35009.1
70635.2,34898.9
70646.5,34784.3
70635.2,34669.6
70601.8,34559.4
70547.5,34457.9
70474.5,34368.8
70449.5,34348.3
70489.5,34326.9
70542.5,34283.4
70586,34230.5
70618.3,34170
70638.2,34104.4
70644.9,34036.2
70644.9,33563.8
70638.2,33495.6
70618.3,33430
70586,33369.5
70542.5,33316.6
70489.5,33273.1
70429.1,33240.8
70363.5,33220.9
70295.3,33214.1
69704.7,33214.1
69698.8,33214.7
69698.8,33122.2
69680.1,33028.3
69643.5,32939.8
69590.3,32860.1
69522.5,32792.4
69442.9,32739.2
69354.4,32702.5
69260.5,32683.9
69164.7,32683.9
69070.8,32702.5
68982.3,32739.2
68902.7,32792.4
68834.9,32860.1
68781.7,32939.8
68745.1,33028.3
68726.4,33122.2
59638.1,33122.2
59611.1,33057
59566.5,32990.2
59509.8,32933.5
59443,32888.9
59368.9,32858.2
59290.1,32842.5
59209.9,32842.5
59131.1,32858.2
59057,32888.9
58990.2,32933.5
58933.5,32990.2
58888.9,33057
58858.2,33131.1
58842.5,33209.9
58842.5,33290.1
58852.4,33339.6
58852.4,36940.9
58450,36940.9
58424.4,36923.8
58357.4,36896
58286.3,36881.9
58213.7,36881.9
58142.6,36896
58075.6,36923.8
58015.3,36964.1
57964.1,37015.3
57923.8,37075.6
57896,37142.6
57881.9,37213.7
57881.9,37286.3
57896,37357.4
57923.8,37424.4
57964.1,37484.7
58015.3,37535.9
58075.6,37576.2
58142.6,37604
58213.7,37618.1
58286.3,37618.1
58357.4,37604
58424.4,37576.2
58450,37559.1
58852.4,37559.1
58852.4,39025.5
58772.7,38945.9
58676.9,38881.9
58570.5,38837.8
58457.6,38815.4
58342.4,38815.4
58229.5,38837.8
58123.1,38881.9
58027.3,38945.9
57945.9,39027.3
57881.9,39123.1
57837.8,39229.5
57815.4,39342.4
57815.4,39457.6
57837.8,39570.5
57881.9,39676.9
57945.9,39772.7
58027.3,39854.1
58099,39902
58053,39929.5
57967.9,40006.2
57899.4,40098.1
57850.1,40201.5
57832.5,40259.5
57880.3,40350
58350,40350
58350,40342.1
58450,40342.1
58450,40350
58457.9,40350
58457.9,40450
58450,40450
58450,40457.9
58350,40457.9
58350,40450
57880.3,40450
57832.5,40540.5
57850.1,40598.5
57899.4,40701.9
57967.9,40793.8
58001,40823.6
57969.2,40833.3
57925.8,40856.5
57887.7,40887.7
57856.5,40925.8
57833.3,40969.2
57819,41016.3
57814.1,41065.4
57814.1,41734.6
57819,41783.7
57833.3,41830.8
57856.5,41874.2
57887.7,41912.3
57925.8,41943.5
57969.2,41966.7
58016.3,41981
58065.4,41985.9
58734.6,41985.9
58783.7,41981
58830.8,41966.7
58852.4,41955.2
58852.4,50085.3
57585.3,51352.4
48019.5,51352.4
48000,51350.4
47922,51358.1
47901.6,51364.3
47847.1,51380.9
47778,51417.8
47717.5,51467.5
47705,51482.6
46748.4,52439.3
46733.2,52451.7
46683.5,52512.3
46651.6,52572.1
46646.6,52581.3
46623.9,52656.3
46616.2,52734.3
46618.1,52753.8
46618.1,53920.8
46600.3,53935.4
46527.3,54024.4
46473,54126
46439.6,54236.2
46431.1,54322.1
43688.1,54322.1
43902.7,53937.3
44044.2,53499.4
44097.5,53042.2
44060.7,52583.4
43935,52140.6
43725.4,51730.9
43678.5,51660.7
43401,51419.7
41820.7,53000
41679.3,53000
40099,51419.7
39821.5,51660.7
39597.3,52062.7
39455.8,52500.6
39402.5,52957.8
39259.9,52957.8
39260.5,51349
40169.7,51349
41750,52929.3
43330.3,51349
43089.3,51071.5
42687.3,50847.3
42249.4,50705.8
41792.2,50652.5
41333.4,50689.3
40890.6,50815
40480.9,51024.6
40410.7,51071.5
40169.7,51349
39260.5,51349
39262.3,47146.3
39267.3,47146.3
39267.3,47253.7
39288.3,47359.1
39329.4,47458.3
39389.1,47547.6
39465,47623.5
39554.3,47683.2
39653.5,47724.3
39758.9,47745.3
39866.3,47745.3
39971.6,47724.3
40070.9,47683.2
40160.2,47623.5
40236.1,47547.6
40295.8,47458.3
40336.9,47359.1
40357.9,47253.7
40357.9,47146.3
41629.5,47146.3
41629.5,47253.7
41650.5,47359.1
41691.6,47458.3
41751.3,47547.6
41827.2,47623.5
41916.5,47683.2
42015.8,47724.3
42121.1,47745.3
42228.5,47745.3
42333.9,47724.3
42433.1,47683.2
42522.4,47623.5
42598.3,47547.6
42658,47458.3
42699.1,47359.1
42720.1,47253.7
42720.1,47146.3
42699.1,47040.9
42658,46941.7
42598.3,46852.4
42522.4,46776.5
42433.1,46716.8
42333.9,46675.7
42228.5,46654.7
42121.1,46654.7
42015.8,46675.7
41916.5,46716.8
41827.2,46776.5
41751.3,46852.4
41691.6,46941.7
41650.5,47040.9
41629.5,47146.3
40357.9,47146.3
40336.9,47040.9
40295.8,46941.7
40236.1,46852.4
40160.2,46776.5
40070.9,46716.8
39971.6,46675.7
39866.3,46654.7
39758.9,46654.7
39653.5,46675.7
39554.3,46716.8
39465,46776.5
39389.1,46852.4
39329.4,46941.7
39288.3,47040.9
39267.3,47146.3
39262.3,47146.3
39262.7,46159.9
46392.5,46159.9
46392.5,46240.1
46408.2,46318.9
46438.9,46393
46483.5,46459.8
46540.2,46516.5
46607,46561.1
46681.1,46591.8
46700.8,46595.7
46700.8,47722.9
46683.5,47740.2
46638.9,47807
46608.2,47881.1
46592.5,47959.9
46592.5,48040.1
46608.2,48118.9
46638.9,48193
46683.5,48259.8
46740.2,48316.5
46807,48361.1
46881.1,48391.8
46959.9,48407.5
47040.1,48407.5
47118.9,48391.8
47193,48361.1
47259.8,48316.5
47316.5,48259.8
47361.1,48193
47391.8,48118.9
47407.5,48040.1
47407.5,47959.9
47391.8,47881.1
47361.1,47807
47316.5,47740.2
47299.2,47722.9
47299.2,46414.7
47300.7,46400
47299.2,46385.3
47299.2,46385.3
47294.9,46341.3
47277.8,46284.9
47250,46233
47212.6,46187.4
47207.5,46183.2
47207.5,46159.9
47191.8,46081.1
47161.1,46007
47116.5,45940.2
47059.8,45883.5
46993,45838.9
46918.9,45808.2
46840.1,45792.5
46759.9,45792.5
46681.1,45808.2
46607,45838.9
46540.2,45883.5
46483.5,45940.2
46438.9,46007
46408.2,46081.1
46392.5,46159.9
39262.7,46159.9
39264.5,41946.3
39267.3,41946.3
39267.3,42053.7
39288.3,42159.1
39329.4,42258.3
39389.1,42347.6
39465,42423.5
39554.3,42483.2
39653.5,42524.3
39758.9,42545.3
39866.3,42545.3
39971.6,42524.3
40070.9,42483.2
40160.2,42423.5
40236.1,42347.6
40295.8,42258.3
40336.9,42159.1
40357.9,42053.7
40357.9,41946.3
41629.5,41946.3
41629.5,42053.7
41650.5,42159.1
41691.6,42258.3
41751.3,42347.6
41827.2,42423.5
41916.5,42483.2
42015.8,42524.3
42121.1,42545.3
42228.5,42545.3
42333.9,42524.3
42433.1,42483.2
42462.2,42463.7
52131.9,42463.7
52131.9,42536.3
52146,42607.4
52173.8,42674.4
52214.1,42734.7
52265.3,42785.9
52325.6,42826.2
52392.6,42854
52463.7,42868.1
52536.3,42868.1
52607.4,42854
52674.4,42826.2
52734.7,42785.9
52785.9,42734.7
52826.2,42674.4
52854,42607.4
52868.1,42536.3
52868.1,42463.7
52854,42392.6
52826.2,42325.6
52799.2,42285.2
52799.2,40873.9
52809.7,40863.4
52857.4,40854
52924.4,40826.2
52984.7,40785.9
53035.9,40734.7
53076.2,40674.4
53104,40607.4
53118.1,40536.3
53118.1,40463.7
53104,40392.6
53076.2,40325.6
53035.9,40265.3
52984.7,40214.1
52924.4,40173.8
52857.4,40146
52786.3,40131.9
52713.7,40131.9
52642.6,40146
52575.6,40173.8
52515.3,40214.1
52464.1,40265.3
52423.8,40325.6
52396,40392.6
52386.6,40440.3
52298.8,40528
52287.4,40537.4
52268.2,40560.8
52250,40583
52232.9,40615.1
52222.2,40634.9
52205.1,40691.3
52200.8,40735.3
52200.8,40735.3
52199.3,40750
52200.8,40764.7
52200.8,42285.2
52173.8,42325.6
52146,42392.6
52131.9,42463.7
42462.2,42463.7
42522.4,42423.5
42598.3,42347.6
42658,42258.3
42699.1,42159.1
42720.1,42053.7
42720.1,41946.3
42699.1,41840.9
42658,41741.7
42598.3,41652.4
42522.4,41576.5
42433.1,41516.8
42333.9,41475.7
42228.5,41454.7
42121.1,41454.7
42015.8,41475.7
41916.5,41516.8
41827.2,41576.5
41751.3,41652.4
41691.6,41741.7
41650.5,41840.9
41629.5,41946.3
40357.9,41946.3
40336.9,41840.9
40295.8,41741.7
40236.1,41652.4
40160.2,41576.5
40070.9,41516.8
39971.6,41475.7
39866.3,41454.7
39758.9,41454.7
39653.5,41475.7
39554.3,41516.8
39465,41576.5
39389.1,41652.4
39329.4,41741.7
39288.3,41840.9
39267.3,41946.3
39264.5,41946.3
39266,38515.7
49103.5,38515.7
49114.8,38630.4
49148.2,38740.6
49202.5,38842.1
49275.5,38931.2
49300.5,38951.7
49260.5,38973.1
49207.5,39016.6
49164,39069.5
49131.7,39130
49111.8,39195.6
49105.1,39263.8
49105.1,39736.2
49111.8,39804.4
49131.7,39870
49164,39930.5
49207.5,39983.4
49260.5,40026.9
49320.9,40059.2
49386.5,40079.1
49454.7,40085.9
50045.3,40085.9
50051.2,40085.3
50051.2,40177.8
50069.9,40271.7
50106.5,40360.2
50159.7,40439.9
50227.5,40507.6
50307.1,40560.8
50395.6,40597.5
50489.5,40616.1
50585.3,40616.1
50679.2,40597.5
50767.7,40560.8
50847.3,40507.6
50915.1,40439.9
50968.3,40360.2
51004.9,40271.7
51023.6,40177.8
51023.6,40082
51004.9,39988.1
50968.3,39899.6
50915.1,39820
50847.3,39752.2
50767.7,39699
50679.2,39662.4
50585.3,39643.7
50489.5,39643.7
50395.6,39662.4
50394.9,39662.7
50394.9,39263.8
50388.2,39195.6
50368.3,39130
50336,39069.5
50292.5,39016.6
50239.5,38973.1
50199.5,38951.7
50224.5,38931.2
50297.5,38842.1
50351.8,38740.6
50385.2,38630.4
50396.5,38515.7
50385.2,38401.1
50351.8,38290.9
50297.5,38189.4
50224.5,38100.3
50135.4,38027.3
50033.9,37973
49923.7,37939.6
49837.8,37931.1
49662.2,37931.1
49576.3,37939.6
49466.1,37973
49364.6,38027.3
49275.5,38100.3
49202.5,38189.4
49148.2,38290.9
49114.8,38401.1
49103.5,38515.7
39266,38515.7
39267.6,34505.9
41878.7,34505.9
41878.7,35194.9
41890.2,35311.1
41924.1,35422.8
41979.1,35525.8
42053.2,35616.1
42143.5,35690.2
42246.4,35745.2
42358.2,35779.1
42474.4,35790.6
43163.4,35790.6
43279.6,35779.1
43391.3,35745.2
43494.3,35690.2
43584.6,35616.1
43658.7,35525.8
43713.7,35422.8
43747.6,35311.1
43759.1,35194.9
43759.1,34505.9
43747.6,34389.7
43713.7,34277.9
43658.7,34175
43584.6,34084.7
43494.3,34010.6
43391.3,33955.6
43340.7,33940.2
44689,33940.2
44738,33935.4
44785.1,33921.1
44828.5,33897.8
44866.6,33866.6
44897.8,33828.5
44921.1,33785.1
44935.4,33738
44940.2,33689
44940.2,32311
44935.4,32262
44921.1,32214.9
44897.8,32171.5
44866.6,32133.4
44828.5,32102.2
44785.1,32078.9
44738,32064.6
44689,32059.8
43311,32059.8
43262,32064.6
43214.9,32078.9
43171.5,32102.2
43133.4,32133.4
43102.2,32171.5
43078.9,32214.9
43064.6,32262
43059.8,32311
43059.8,33689
43064.6,33738
43078.9,33785.1
43102.2,33828.5
43133.4,33866.6
43171.5,33897.8
43201.6,33914
43163.4,33910.2
42474.4,33910.2
42358.2,33921.7
42246.4,33955.6
42143.5,34010.6
42053.2,34084.7
41979.1,34175
41924.1,34277.9
41890.2,34389.7
41878.7,34505.9
39267.6,34505.9
39268,33689
40796,33689
40800.9,33738
40815.2,33785.1
40838.4,33828.5
40869.6,33866.6
40907.7,33897.8
40951.1,33921.1
40998.2,33935.4
41047.2,33940.2
41525.3,33939
41587.8,33876.5
41587.8,33050
41687.8,33050
41687.8,33876.5
41750.3,33939
42228.3,33940.2
42277.4,33935.4
42324.5,33921.1
42367.9,33897.8
42406,33866.6
42437.2,33828.5
42460.4,33785.1
42474.7,33738
42479.6,33689
42478.3,33112.5
42415.8,33050
41687.8,33050
41587.8,33050
40859.7,33050
40797.2,33112.5
40796,33689
39268,33689
39268.6,32311
40796,32311
40797.2,32887.5
40859.7,32950
41587.8,32950
41587.8,32123.5
41687.8,32123.5
41687.8,32950
42415.8,32950
42478.3,32887.5
42479.6,32311
42474.7,32262
42460.4,32214.9
42437.2,32171.5
42406,32133.4
42367.9,32102.2
42324.5,32078.9
42277.4,32064.6
42228.3,32059.8
41750.3,32061
41687.8,32123.5
41587.8,32123.5
41525.3,32061
41047.2,32059.8
40998.2,32064.6
40951.1,32078.9
40907.7,32102.2
40869.6,32133.4
40838.4,32171.5
40815.2,32214.9
40800.9,32262
40796,32311
39268.6,32311
39269.7,29722.2
68726.4,29722.2
68726.4,29818
68745.1,29911.9
68781.7,30000.4
68834.9,30080
68902.7,30147.8
68982.3,30201
69070.8,30237.6
69164.7,30256.3
69260.5,30256.3
69354.4,30237.6
69355.1,30237.3
69355.1,30636.2
69361.8,30704.4
69381.7,30770
69414,30830.5
69457.5,30883.4
69510.5,30926.9
69550.5,30948.3
69525.5,30968.8
69452.5,31057.9
69398.2,31159.4
69364.8,31269.6
69353.5,31384.3
69364.8,31498.9
69398.2,31609.1
69452.5,31710.6
69525.5,31799.7
69614.6,31872.7
69716.1,31927
69826.3,31960.4
69912.2,31968.9
70087.8,31968.9
70173.7,31960.4
70283.9,31927
70385.4,31872.7
70474.5,31799.7
70547.5,31710.6
70601.8,31609.1
70635.2,31498.9
70646.5,31384.3
70635.2,31269.6
70601.8,31159.4
70547.5,31057.9
70474.5,30968.8
70449.5,30948.3
70489.5,30926.9
70542.5,30883.4
70586,30830.5
70618.3,30770
70638.2,30704.4
70644.9,30636.2
70644.9,30163.8
70638.2,30095.6
70618.3,30030
70586,29969.5
70542.5,29916.6
70489.5,29873.1
70429.1,29840.8
70363.5,29820.9
70295.3,29814.1
69704.7,29814.1
69698.8,29814.7
69698.8,29722.2
69680.1,29628.3
69643.5,29539.8
69590.3,29460.1
69522.5,29392.4
69442.9,29339.2
69354.4,29302.5
69260.5,29283.9
69164.7,29283.9
69070.8,29302.5
68982.3,29339.2
68902.7,29392.4
68834.9,29460.1
68781.7,29539.8
68745.1,29628.3
68726.4,29722.2
39269.7,29722.2
39270.5,27651
40169.7,27651
40410.7,27928.5
40812.7,28152.7
41250.6,28294.2
41707.8,28347.5
42166.6,28310.7
42609.4,28185
43019.1,27975.4
43089.3,27928.5
43330.3,27651
66919.7,27651
67160.7,27928.5
67562.7,28152.7
68000.6,28294.2
68457.8,28347.5
68916.6,28310.7
69359.4,28185
69769.1,27975.4
69839.3,27928.5
70080.3,27651
68500,26070.7
66919.7,27651
43330.3,27651
41750,26070.7
40169.7,27651
39270.5,27651
39271.1,26236.3
39270.9,26234.1
39266.4,25957.8
39402.5,25957.8
39439.3,26416.6
39565,26859.4
39774.6,27269.1
39821.5,27339.3
40099,27580.3
41679.3,26000
41820.7,26000
43401,27580.3
43678.5,27339.3
43902.7,26937.3
44044.2,26499.4
44097.5,26042.2
44090.8,25957.8
66152.5,25957.8
66189.3,26416.6
66315,26859.4
66524.6,27269.1
66571.5,27339.3
66849,27580.3
68429.3,26000
68570.7,26000
70151,27580.3
70428.5,27339.3
70652.7,26937.3
70794.2,26499.4
70847.5,26042.2
70810.7,25583.4
70685,25140.6
70475.4,24730.9
70428.5,24660.7
70151,24419.7
68570.7,26000
68429.3,26000
66849,24419.7
66571.5,24660.7
66347.3,25062.7
66205.8,25500.6
66152.5,25957.8
44090.8,25957.8
44060.7,25583.4
43935,25140.6
43725.4,24730.9
43678.5,24660.7
43401,24419.7
41820.7,26000
41679.3,26000
40099,24419.7
39821.5,24660.7
39597.3,25062.7
39455.8,25500.6
39402.5,25957.8
39266.4,25957.8
39264.7,25856.5
39313.2,25490.7
39415.3,25136.1
39568.6,24800.5
39769.9,24491.2
39896,24349
40169.7,24349
41750,25929.3
43330.3,24349
66919.7,24349
68500,25929.3
70080.3,24349
69839.3,24071.5
69437.3,23847.3
68999.4,23705.8
68542.2,23652.5
68083.4,23689.3
67640.6,23815
67230.9,24024.6
67160.7,24071.5
66919.7,24349
43330.3,24349
43089.3,24071.5
42687.3,23847.3
42249.4,23705.8
41792.2,23652.5
41333.4,23689.3
40890.6,23815
40480.9,24024.6
40410.7,24071.5
40169.7,24349
39896,24349
40014.6,24215.1
40297.5,23978.2
40612.3,23785.7
40952.1,23641.9
41309.4,23549.9
41684.1,23510.8
41751.9,23509.8
68490.4,23509.8
Z" /> 
</g>
</g>
</g> 
</svg>
