<?xml version="1.0" encoding="UTF-8" standalone="no"?>
<svg
   version="1.1"
   width="29.700220cm"
   height="21.000720cm"
   viewBox="0 0 116930 82680"
   id="svg1352"
   sodipodi:docname="ring_light_controller-F_SilkS.svg"
   inkscape:version="1.1 (ce6663b3b7, 2021-05-25)"
   xmlns:inkscape="http://www.inkscape.org/namespaces/inkscape"
   xmlns:sodipodi="http://sodipodi.sourceforge.net/DTD/sodipodi-0.dtd"
   xmlns="http://www.w3.org/2000/svg"
   xmlns:svg="http://www.w3.org/2000/svg">
  <defs
     id="defs1356" />
  <sodipodi:namedview
     id="namedview1354"
     pagecolor="#505050"
     bordercolor="#eeeeee"
     borderopacity="1"
     inkscape:pageshadow="0"
     inkscape:pageopacity="0"
     inkscape:pagecheckerboard="0"
     inkscape:document-units="cm"
     showgrid="false"
     inkscape:zoom="1.503785"
     inkscape:cx="584.19254"
     inkscape:cy="387.35589"
     inkscape:window-width="1920"
     inkscape:window-height="1016"
     inkscape:window-x="0"
     inkscape:window-y="27"
     inkscape:window-maximized="1"
     inkscape:current-layer="svg1352" />
  <title
     id="title2">SVG Picture created as ring_light_controller-F_SilkS.svg date 2021/09/07 15:05:36 </title>
  <desc
     id="desc4">Picture generated by PCBNEW </desc>
  <g
     style="fill:#000000; fill-opacity:1;stroke:#000000; stroke-opacity:1; stroke-linecap:round; stroke-linejoin:round;"
     transform="translate(0 0) scale(1 1)"
     id="g6"
     inkscape:export-filename="/home/justb/Documents/KiCad/ring_light_controller/svg/g1350.png"
     inkscape:export-xdpi="1500"
     inkscape:export-ydpi="1500" />
  <g
     style="fill:#000000; fill-opacity:0.0;  stroke:#000000; stroke-width:-0.000393701; stroke-opacity:1;  stroke-linecap:round; stroke-linejoin:round;"
     id="g8"
     inkscape:export-filename="/home/justb/Documents/KiCad/ring_light_controller/svg/g1350.png"
     inkscape:export-xdpi="1500"
     inkscape:export-ydpi="1500" />
  <g
     style="fill:#000000; fill-opacity:0.0;  stroke:#000000; stroke-width:59.0551; stroke-opacity:1;  stroke-linecap:round; stroke-linejoin:round;"
     id="g26"
     inkscape:export-filename="/home/justb/Documents/KiCad/ring_light_controller/svg/g1350.png"
     inkscape:export-xdpi="1500"
     inkscape:export-ydpi="1500">
    <g
       transform="rotate(-270 40200 37800)"
       id="g12">
      <text
         x="40200"
         y="37996.9"
         textLength="1539.09"
         font-size="524.934"
         lengthAdjust="spacingAndGlyphs"
         text-anchor="middle"
         opacity="0"
         id="text10">LOAD</text>
    </g>
    <path
       d="M40021 37350 L40021 37162 L40415 37162 "
       id="path14" />
    <path
       d="M40415 37556 L40415 37631 L40396 37668 L40359 37706 L40284 37725 L40153 37725 L40078 37706 L40040 37668 L40021 37631 L40021 37556 L40040 37518 L40078 37481 L40153 37462 L40284 37462 L40359 37481 L40396 37518 L40415 37556 "
       id="path16" />
    <path
       d="M40134 37874 L40134 38062 "
       id="path18" />
    <path
       d="M40021 37837 L40415 37968 L40021 38099 "
       id="path20" />
    <path
       d="M40021 38231 L40415 38231 L40415 38324 L40396 38381 L40359 38418 L40321 38437 L40246 38456 L40190 38456 L40115 38437 L40078 38418 L40040 38381 L40021 38324 L40021 38231 "
       id="path22" />
    <path
       d="M68250 29000 L68250 36000 "
       id="path24" />
  </g>
  <g
     style="fill:#000000; fill-opacity:0.0;  stroke:#000000; stroke-width:118.11; stroke-opacity:1;  stroke-linecap:round; stroke-linejoin:round;"
     id="g68"
     inkscape:export-filename="/home/justb/Documents/KiCad/ring_light_controller/svg/g1350.png"
     inkscape:export-xdpi="1500"
     inkscape:export-ydpi="1500">
    <text
       x="48000"
       y="32495.3"
       textLength="807.93"
       font-size="787.402"
       lengthAdjust="spacingAndGlyphs"
       text-anchor="middle"
       opacity="0"
       id="text28">+</text>
    <path
       d="M47775 32242 L48224 32242 "
       id="path30" />
    <path
       d="M48000 32467 L48000 32017 "
       id="path32" />
    <text
       x="47800"
       y="35895.3"
       textLength="884.702"
       font-size="787.402"
       lengthAdjust="spacingAndGlyphs"
       text-anchor="middle"
       opacity="0"
       id="text34">-</text>
    <path
       d="M47575 35642 L48024 35642 "
       id="path36" />
    <text
       x="50800"
       y="34695.3"
       textLength="884.702"
       font-size="787.402"
       lengthAdjust="spacingAndGlyphs"
       text-anchor="middle"
       opacity="0"
       id="text38">+</text>
    <path
       d="M50575 34442 L51024 34442 "
       id="path40" />
    <path
       d="M50800 34667 L50800 34217 "
       id="path42" />
    <text
       x="55200"
       y="29895.3"
       textLength="884.702"
       font-size="787.402"
       lengthAdjust="spacingAndGlyphs"
       text-anchor="middle"
       opacity="0"
       id="text44">+</text>
    <path
       d="M54975 29642 L55424 29642 "
       id="path46" />
    <path
       d="M55200 29867 L55200 29417 "
       id="path48" />
    <text
       x="44200"
       y="30295.3"
       textLength="884.702"
       font-size="787.402"
       lengthAdjust="spacingAndGlyphs"
       text-anchor="middle"
       opacity="0"
       id="text50">+</text>
    <path
       d="M43975 30042 L44424 30042 "
       id="path52" />
    <path
       d="M44200 30267 L44200 29817 "
       id="path54" />
    <text
       x="52800"
       y="34695.3"
       textLength="884.702"
       font-size="787.402"
       lengthAdjust="spacingAndGlyphs"
       text-anchor="middle"
       opacity="0"
       id="text56">-</text>
    <path
       d="M52575 34442 L53024 34442 "
       id="path58" />
    <text
       x="57800"
       y="29695.3"
       textLength="884.702"
       font-size="787.402"
       lengthAdjust="spacingAndGlyphs"
       text-anchor="middle"
       opacity="0"
       id="text60">-</text>
    <path
       d="M57575 29442 L58024 29442 "
       id="path62" />
    <text
       x="49600"
       y="30295.3"
       textLength="884.702"
       font-size="787.402"
       lengthAdjust="spacingAndGlyphs"
       text-anchor="middle"
       opacity="0"
       id="text64">-</text>
    <path
       d="M49375 30042 L49824 30042 "
       id="path66" />
  </g>
  <g
     style="fill:#000000; fill-opacity:0.0;  stroke:#000000; stroke-width:59.0551; stroke-opacity:1;  stroke-linecap:round; stroke-linejoin:round;"
     id="g106"
     inkscape:export-filename="/home/justb/Documents/KiCad/ring_light_controller/svg/g1350.png"
     inkscape:export-xdpi="1500"
     inkscape:export-ydpi="1500">
    <text
       x="48200"
       y="52196.9"
       textLength="4371.77"
       font-size="524.934"
       lengthAdjust="spacingAndGlyphs"
       text-anchor="middle"
       opacity="0"
       id="text70">Color Channel</text>
    <path
       d="M46409 52140 L46390 52159 L46334 52178 L46297 52178 L46240 52159 L46203 52121 L46184 52084 L46165 52009 L46165 51953 L46184 51878 L46203 51840 L46240 51803 L46297 51784 L46334 51784 L46390 51803 L46409 51821 "
       id="path72" />
    <path
       d="M46634 52178 L46597 52159 L46578 52140 L46559 52103 L46559 51990 L46578 51953 L46597 51934 L46634 51915 L46690 51915 L46728 51934 L46747 51953 L46765 51990 L46765 52103 L46747 52140 L46728 52159 L46690 52178 L46634 52178 "
       id="path74" />
    <path
       d="M46990 52178 L46953 52159 L46934 52121 L46934 51784 "
       id="path76" />
    <path
       d="M47197 52178 L47159 52159 L47140 52140 L47122 52103 L47122 51990 L47140 51953 L47159 51934 L47197 51915 L47253 51915 L47290 51934 L47309 51953 L47328 51990 L47328 52103 L47309 52140 L47290 52159 L47253 52178 L47197 52178 "
       id="path78" />
    <path
       d="M47496 52178 L47496 51915 "
       id="path80" />
    <path
       d="M47496 51990 L47515 51953 L47534 51934 L47571 51915 L47609 51915 "
       id="path82" />
    <path
       d="M48265 52140 L48246 52159 L48190 52178 L48153 52178 L48096 52159 L48059 52121 L48040 52084 L48021 52009 L48021 51953 L48040 51878 L48059 51840 L48096 51803 L48153 51784 L48190 51784 L48246 51803 L48265 51821 "
       id="path84" />
    <path
       d="M48434 52178 L48434 51784 "
       id="path86" />
    <path
       d="M48603 52178 L48603 51971 L48584 51934 L48546 51915 L48490 51915 L48453 51934 L48434 51953 "
       id="path88" />
    <path
       d="M48959 52178 L48959 51971 L48940 51934 L48903 51915 L48828 51915 L48790 51934 "
       id="path90" />
    <path
       d="M48959 52159 L48921 52178 L48828 52178 L48790 52159 L48771 52121 L48771 52084 L48790 52046 L48828 52028 L48921 52028 L48959 52009 "
       id="path92" />
    <path
       d="M49146 51915 L49146 52178 "
       id="path94" />
    <path
       d="M49146 51953 L49165 51934 L49202 51915 L49259 51915 L49296 51934 L49315 51971 L49315 52178 "
       id="path96" />
    <path
       d="M49502 51915 L49502 52178 "
       id="path98" />
    <path
       d="M49502 51953 L49521 51934 L49559 51915 L49615 51915 L49652 51934 L49671 51971 L49671 52178 "
       id="path100" />
    <path
       d="M50009 52159 L49971 52178 L49896 52178 L49859 52159 L49840 52121 L49840 51971 L49859 51934 L49896 51915 L49971 51915 L50009 51934 L50027 51971 L50027 52009 L49840 52046 "
       id="path102" />
    <path
       d="M50252 52178 L50215 52159 L50196 52121 L50196 51784 "
       id="path104" />
  </g>
  <g
     style="fill:#000000; fill-opacity:0.0;  stroke:#000000; stroke-width:78.7402; stroke-opacity:1;  stroke-linecap:round; stroke-linejoin:round;"
     id="g134"
     inkscape:export-filename="/home/justb/Documents/KiCad/ring_light_controller/svg/g1350.png"
     inkscape:export-xdpi="1500"
     inkscape:export-ydpi="1500">
    <text
       x="47000"
       y="30596.9"
       textLength="4126.27"
       font-size="524.934"
       lengthAdjust="spacingAndGlyphs"
       text-anchor="middle"
       opacity="0"
       id="text108">JLCJLCJLCJLC</text>
    <path
       d="M45181 30184 L45181 30465 L45162 30521 L45125 30559 L45068 30578 L45031 30578 "
       id="path110" />
    <path
       d="M45556 30578 L45368 30578 L45368 30184 "
       id="path112" />
    <path
       d="M45912 30540 L45893 30559 L45837 30578 L45800 30578 L45743 30559 L45706 30521 L45687 30484 L45668 30409 L45668 30353 L45687 30278 L45706 30240 L45743 30203 L45800 30184 L45837 30184 L45893 30203 L45912 30221 "
       id="path114" />
    <path
       d="M46193 30184 L46193 30465 L46175 30521 L46137 30559 L46081 30578 L46043 30578 "
       id="path116" />
    <path
       d="M46568 30578 L46381 30578 L46381 30184 "
       id="path118" />
    <path
       d="M46925 30540 L46906 30559 L46850 30578 L46812 30578 L46756 30559 L46718 30521 L46700 30484 L46681 30409 L46681 30353 L46700 30278 L46718 30240 L46756 30203 L46812 30184 L46850 30184 L46906 30203 L46925 30221 "
       id="path120" />
    <path
       d="M47206 30184 L47206 30465 L47187 30521 L47149 30559 L47093 30578 L47056 30578 "
       id="path122" />
    <path
       d="M47581 30578 L47393 30578 L47393 30184 "
       id="path124" />
    <path
       d="M47937 30540 L47918 30559 L47862 30578 L47824 30578 L47768 30559 L47731 30521 L47712 30484 L47693 30409 L47693 30353 L47712 30278 L47731 30240 L47768 30203 L47824 30184 L47862 30184 L47918 30203 L47937 30221 "
       id="path126" />
    <path
       d="M48218 30184 L48218 30465 L48199 30521 L48162 30559 L48106 30578 L48068 30578 "
       id="path128" />
    <path
       d="M48593 30578 L48406 30578 L48406 30184 "
       id="path130" />
    <path
       d="M48949 30540 L48931 30559 L48874 30578 L48837 30578 L48781 30559 L48743 30521 L48724 30484 L48706 30409 L48706 30353 L48724 30278 L48743 30240 L48781 30203 L48837 30184 L48874 30184 L48931 30203 L48949 30221 "
       id="path132" />
  </g>
  <g
     style="fill:#000000; fill-opacity:0.0;  stroke:#000000; stroke-width:118.11; stroke-opacity:1;  stroke-linecap:round; stroke-linejoin:round;"
     id="g208"
     inkscape:export-filename="/home/justb/Documents/KiCad/ring_light_controller/svg/g1350.png"
     inkscape:export-xdpi="1500"
     inkscape:export-ydpi="1500">
    <g
       transform="rotate(-180 60200 24400)"
       id="g138">
      <text
         x="60200"
         y="24695.3"
         textLength="10957.3"
         font-size="787.402"
         lengthAdjust="spacingAndGlyphs"
         text-anchor="middle"
         opacity="0"
         id="text136">Ring Light Controller v1</text>
    </g>
    <path
       d="M65149 24132 L65346 24414 "
       id="path140" />
    <path
       d="M65486 24132 L65486 24723 L65261 24723 L65205 24695 L65177 24667 L65149 24610 L65149 24526 L65177 24470 L65205 24442 L65261 24414 L65486 24414 "
       id="path142" />
    <path
       d="M64896 24132 L64896 24526 "
       id="path144" />
    <path
       d="M64896 24723 L64924 24695 L64896 24667 L64868 24695 L64896 24723 L64896 24667 "
       id="path146" />
    <path
       d="M64615 24526 L64615 24132 "
       id="path148" />
    <path
       d="M64615 24470 L64586 24498 L64530 24526 L64446 24526 L64390 24498 L64361 24442 L64361 24132 "
       id="path150" />
    <path
       d="M63827 24526 L63827 24048 L63855 23992 L63883 23964 L63940 23935 L64024 23935 L64080 23964 "
       id="path152" />
    <path
       d="M63827 24160 L63883 24132 L63996 24132 L64052 24160 L64080 24189 L64108 24245 L64108 24414 L64080 24470 L64052 24498 L63996 24526 L63883 24526 L63827 24498 "
       id="path154" />
    <path
       d="M62815 24132 L63096 24132 L63096 24723 "
       id="path156" />
    <path
       d="M62618 24132 L62618 24526 "
       id="path158" />
    <path
       d="M62618 24723 L62646 24695 L62618 24667 L62590 24695 L62618 24723 L62618 24667 "
       id="path160" />
    <path
       d="M62084 24526 L62084 24048 L62112 23992 L62140 23964 L62196 23935 L62280 23935 L62337 23964 "
       id="path162" />
    <path
       d="M62084 24160 L62140 24132 L62252 24132 L62309 24160 L62337 24189 L62365 24245 L62365 24414 L62337 24470 L62309 24498 L62252 24526 L62140 24526 L62084 24498 "
       id="path164" />
    <path
       d="M61802 24132 L61802 24723 "
       id="path166" />
    <path
       d="M61549 24132 L61549 24442 L61577 24498 L61634 24526 L61718 24526 L61774 24498 L61802 24470 "
       id="path168" />
    <path
       d="M61352 24526 L61128 24526 "
       id="path170" />
    <path
       d="M61268 24723 L61268 24217 L61240 24160 L61184 24132 L61128 24132 "
       id="path172" />
    <path
       d="M60143 24189 L60171 24160 L60256 24132 L60312 24132 L60396 24160 L60453 24217 L60481 24273 L60509 24385 L60509 24470 L60481 24582 L60453 24639 L60396 24695 L60312 24723 L60256 24723 L60171 24695 L60143 24667 "
       id="path174" />
    <path
       d="M59806 24132 L59862 24160 L59890 24189 L59918 24245 L59918 24414 L59890 24470 L59862 24498 L59806 24526 L59721 24526 L59665 24498 L59637 24470 L59609 24414 L59609 24245 L59637 24189 L59665 24160 L59721 24132 L59806 24132 "
       id="path176" />
    <path
       d="M59356 24526 L59356 24132 "
       id="path178" />
    <path
       d="M59356 24470 L59328 24498 L59271 24526 L59187 24526 L59131 24498 L59103 24442 L59103 24132 "
       id="path180" />
    <path
       d="M58906 24526 L58681 24526 "
       id="path182" />
    <path
       d="M58822 24723 L58822 24217 L58793 24160 L58737 24132 L58681 24132 "
       id="path184" />
    <path
       d="M58484 24132 L58484 24526 "
       id="path186" />
    <path
       d="M58484 24414 L58456 24470 L58428 24498 L58372 24526 L58315 24526 "
       id="path188" />
    <path
       d="M58034 24132 L58090 24160 L58119 24189 L58147 24245 L58147 24414 L58119 24470 L58090 24498 L58034 24526 L57950 24526 L57894 24498 L57865 24470 L57837 24414 L57837 24245 L57865 24189 L57894 24160 L57950 24132 L58034 24132 "
       id="path190" />
    <path
       d="M57500 24132 L57556 24160 L57584 24217 L57584 24723 "
       id="path192" />
    <path
       d="M57191 24132 L57247 24160 L57275 24217 L57275 24723 "
       id="path194" />
    <path
       d="M56741 24160 L56797 24132 L56909 24132 L56966 24160 L56994 24217 L56994 24442 L56966 24498 L56909 24526 L56797 24526 L56741 24498 L56712 24442 L56712 24385 L56994 24329 "
       id="path196" />
    <path
       d="M56459 24132 L56459 24526 "
       id="path198" />
    <path
       d="M56459 24414 L56431 24470 L56403 24498 L56347 24526 L56291 24526 "
       id="path200" />
    <path
       d="M55700 24526 L55559 24132 L55419 24526 "
       id="path202" />
    <path
       d="M54885 24132 L55222 24132 "
       id="path204" />
    <path
       d="M55053 24132 L55053 24723 L55110 24639 L55166 24582 L55222 24554 "
       id="path206" />
  </g>
  <g
     style="fill:#000000; fill-opacity:0.0;  stroke:#000000; stroke-width:59.0551; stroke-opacity:1;  stroke-linecap:round; stroke-linejoin:round;"
     id="g370"
     inkscape:export-filename="/home/justb/Documents/KiCad/ring_light_controller/svg/g1350.png"
     inkscape:export-xdpi="1500"
     inkscape:export-ydpi="1500">
    <circle
       cx="50675"
       cy="31125"
       r="55.9016"
       id="circle210" />
    <circle
       cx="55275"
       cy="39400"
       r="35.3555"
       id="circle212" />
    <g
       transform="rotate(-270 52000 39000)"
       id="g216">
      <text
         x="52000"
         y="39196.9"
         textLength="1653.36"
         font-size="524.934"
         lengthAdjust="spacingAndGlyphs"
         text-anchor="middle"
         opacity="0"
         id="text214">TEMP</text>
    </g>
    <path
       d="M52215 38287 L52215 38512 "
       id="path218" />
    <path
       d="M51821 38400 L52215 38400 "
       id="path220" />
    <path
       d="M52028 38643 L52028 38775 "
       id="path222" />
    <path
       d="M51821 38831 L51821 38643 L52215 38643 L52215 38831 "
       id="path224" />
    <path
       d="M51821 39000 L52215 39000 L51934 39131 L52215 39262 L51821 39262 "
       id="path226" />
    <path
       d="M51821 39449 L52215 39449 L52215 39599 L52196 39637 L52178 39656 L52140 39674 L52084 39674 L52046 39656 L52028 39637 L52009 39599 L52009 39449 "
       id="path228" />
    <g
       transform="rotate(-270 44400 47200)"
       id="g232">
      <text
         x="44400"
         y="47396.9"
         textLength="1201.63"
         font-size="524.934"
         lengthAdjust="spacingAndGlyphs"
         text-anchor="middle"
         opacity="0"
         id="text230">OUT</text>
    </g>
    <path
       d="M44615 46806 L44615 46881 L44596 46918 L44559 46956 L44484 46975 L44353 46975 L44278 46956 L44240 46918 L44221 46881 L44221 46806 L44240 46768 L44278 46731 L44353 46712 L44484 46712 L44559 46731 L44596 46768 L44615 46806 "
       id="path234" />
    <path
       d="M44615 47143 L44296 47143 L44259 47162 L44240 47181 L44221 47218 L44221 47293 L44240 47331 L44259 47349 L44296 47368 L44615 47368 "
       id="path236" />
    <path
       d="M44615 47499 L44615 47724 "
       id="path238" />
    <path
       d="M44221 47612 L44615 47612 "
       id="path240" />
    <g
       transform="rotate(-270 44400 42000)"
       id="g244">
      <text
         x="44400"
         y="42196.9"
         textLength="676.697"
         font-size="524.934"
         lengthAdjust="spacingAndGlyphs"
         text-anchor="middle"
         opacity="0"
         id="text242">IN</text>
    </g>
    <path
       d="M44221 41793 L44615 41793 "
       id="path246" />
    <path
       d="M44221 41981 L44615 41981 L44221 42206 L44615 42206 "
       id="path248" />
    <text
       x="57000"
       y="43196.9"
       textLength="1164.14"
       font-size="524.934"
       lengthAdjust="spacingAndGlyphs"
       text-anchor="middle"
       opacity="0"
       id="text250">FS2</text>
    <path
       d="M56681 42971 L56550 42971 "
       id="path252" />
    <path
       d="M56550 43178 L56550 42784 L56737 42784 "
       id="path254" />
    <path
       d="M56868 43159 L56925 43178 L57018 43178 L57056 43159 L57074 43140 L57093 43103 L57093 43065 L57074 43028 L57056 43009 L57018 42990 L56943 42971 L56906 42953 L56887 42934 L56868 42896 L56868 42859 L56887 42821 L56906 42803 L56943 42784 L57037 42784 L57093 42803 "
       id="path256" />
    <path
       d="M57243 42821 L57262 42803 L57299 42784 L57393 42784 L57431 42803 L57449 42821 L57468 42859 L57468 42896 L57449 42953 L57224 43178 L57468 43178 "
       id="path258" />
    <text
       x="53250"
       y="43196.9"
       textLength="1164.14"
       font-size="524.934"
       lengthAdjust="spacingAndGlyphs"
       text-anchor="middle"
       opacity="0"
       id="text260">FS1</text>
    <path
       d="M52931 42971 L52800 42971 "
       id="path262" />
    <path
       d="M52800 43178 L52800 42784 L52987 42784 "
       id="path264" />
    <path
       d="M53118 43159 L53175 43178 L53268 43178 L53306 43159 L53324 43140 L53343 43103 L53343 43065 L53324 43028 L53306 43009 L53268 42990 L53193 42971 L53156 42953 L53137 42934 L53118 42896 L53118 42859 L53137 42821 L53156 42803 L53193 42784 L53287 42784 L53343 42803 "
       id="path266" />
    <path
       d="M53718 43178 L53493 43178 "
       id="path268" />
    <path
       d="M53606 43178 L53606 42784 L53568 42840 L53531 42878 L53493 42896 "
       id="path270" />
    <text
       x="61500"
       y="35446.9"
       textLength="3113.89"
       font-size="524.934"
       lengthAdjust="spacingAndGlyphs"
       text-anchor="middle"
       opacity="0"
       id="text272">Channel 2</text>
    <path
       d="M60300 35390 L60281 35409 L60225 35428 L60187 35428 L60131 35409 L60093 35371 L60075 35334 L60056 35259 L60056 35203 L60075 35128 L60093 35090 L60131 35053 L60187 35034 L60225 35034 L60281 35053 L60300 35071 "
       id="path274" />
    <path
       d="M60468 35428 L60468 35034 "
       id="path276" />
    <path
       d="M60637 35428 L60637 35221 L60618 35184 L60581 35165 L60525 35165 L60487 35184 L60468 35203 "
       id="path278" />
    <path
       d="M60993 35428 L60993 35221 L60975 35184 L60937 35165 L60862 35165 L60825 35184 "
       id="path280" />
    <path
       d="M60993 35409 L60956 35428 L60862 35428 L60825 35409 L60806 35371 L60806 35334 L60825 35296 L60862 35278 L60956 35278 L60993 35259 "
       id="path282" />
    <path
       d="M61181 35165 L61181 35428 "
       id="path284" />
    <path
       d="M61181 35203 L61200 35184 L61237 35165 L61293 35165 L61331 35184 L61350 35221 L61350 35428 "
       id="path286" />
    <path
       d="M61537 35165 L61537 35428 "
       id="path288" />
    <path
       d="M61537 35203 L61556 35184 L61593 35165 L61649 35165 L61687 35184 L61706 35221 L61706 35428 "
       id="path290" />
    <path
       d="M62043 35409 L62006 35428 L61931 35428 L61893 35409 L61874 35371 L61874 35221 L61893 35184 L61931 35165 L62006 35165 L62043 35184 L62062 35221 L62062 35259 L61874 35296 "
       id="path292" />
    <path
       d="M62287 35428 L62249 35409 L62231 35371 L62231 35034 "
       id="path294" />
    <path
       d="M62718 35071 L62737 35053 L62774 35034 L62868 35034 L62906 35053 L62924 35071 L62943 35109 L62943 35146 L62924 35203 L62699 35428 L62943 35428 "
       id="path296" />
    <text
       x="61500"
       y="42696.9"
       textLength="3113.89"
       font-size="524.934"
       lengthAdjust="spacingAndGlyphs"
       text-anchor="middle"
       opacity="0"
       id="text298">Channel 1</text>
    <path
       d="M60300 42640 L60281 42659 L60225 42678 L60187 42678 L60131 42659 L60093 42621 L60075 42584 L60056 42509 L60056 42453 L60075 42378 L60093 42340 L60131 42303 L60187 42284 L60225 42284 L60281 42303 L60300 42321 "
       id="path300" />
    <path
       d="M60468 42678 L60468 42284 "
       id="path302" />
    <path
       d="M60637 42678 L60637 42471 L60618 42434 L60581 42415 L60525 42415 L60487 42434 L60468 42453 "
       id="path304" />
    <path
       d="M60993 42678 L60993 42471 L60975 42434 L60937 42415 L60862 42415 L60825 42434 "
       id="path306" />
    <path
       d="M60993 42659 L60956 42678 L60862 42678 L60825 42659 L60806 42621 L60806 42584 L60825 42546 L60862 42528 L60956 42528 L60993 42509 "
       id="path308" />
    <path
       d="M61181 42415 L61181 42678 "
       id="path310" />
    <path
       d="M61181 42453 L61200 42434 L61237 42415 L61293 42415 L61331 42434 L61350 42471 L61350 42678 "
       id="path312" />
    <path
       d="M61537 42415 L61537 42678 "
       id="path314" />
    <path
       d="M61537 42453 L61556 42434 L61593 42415 L61649 42415 L61687 42434 L61706 42471 L61706 42678 "
       id="path316" />
    <path
       d="M62043 42659 L62006 42678 L61931 42678 L61893 42659 L61874 42621 L61874 42471 L61893 42434 L61931 42415 L62006 42415 L62043 42434 L62062 42471 L62062 42509 L61874 42546 "
       id="path318" />
    <path
       d="M62287 42678 L62249 42659 L62231 42621 L62231 42284 "
       id="path320" />
    <path
       d="M62943 42678 L62718 42678 "
       id="path322" />
    <path
       d="M62831 42678 L62831 42284 L62793 42340 L62756 42378 L62718 42396 "
       id="path324" />
    <text
       x="61500"
       y="49696.9"
       textLength="3113.89"
       font-size="524.934"
       lengthAdjust="spacingAndGlyphs"
       text-anchor="middle"
       opacity="0"
       id="text326">Channel 0</text>
    <path
       d="M60300 49640 L60281 49659 L60225 49678 L60187 49678 L60131 49659 L60093 49621 L60075 49584 L60056 49509 L60056 49453 L60075 49378 L60093 49340 L60131 49303 L60187 49284 L60225 49284 L60281 49303 L60300 49321 "
       id="path328" />
    <path
       d="M60468 49678 L60468 49284 "
       id="path330" />
    <path
       d="M60637 49678 L60637 49471 L60618 49434 L60581 49415 L60525 49415 L60487 49434 L60468 49453 "
       id="path332" />
    <path
       d="M60993 49678 L60993 49471 L60975 49434 L60937 49415 L60862 49415 L60825 49434 "
       id="path334" />
    <path
       d="M60993 49659 L60956 49678 L60862 49678 L60825 49659 L60806 49621 L60806 49584 L60825 49546 L60862 49528 L60956 49528 L60993 49509 "
       id="path336" />
    <path
       d="M61181 49415 L61181 49678 "
       id="path338" />
    <path
       d="M61181 49453 L61200 49434 L61237 49415 L61293 49415 L61331 49434 L61350 49471 L61350 49678 "
       id="path340" />
    <path
       d="M61537 49415 L61537 49678 "
       id="path342" />
    <path
       d="M61537 49453 L61556 49434 L61593 49415 L61649 49415 L61687 49434 L61706 49471 L61706 49678 "
       id="path344" />
    <path
       d="M62043 49659 L62006 49678 L61931 49678 L61893 49659 L61874 49621 L61874 49471 L61893 49434 L61931 49415 L62006 49415 L62043 49434 L62062 49471 L62062 49509 L61874 49546 "
       id="path346" />
    <path
       d="M62287 49678 L62249 49659 L62231 49621 L62231 49284 "
       id="path348" />
    <path
       d="M62812 49284 L62849 49284 L62887 49303 L62906 49321 L62924 49359 L62943 49434 L62943 49528 L62924 49603 L62906 49640 L62887 49659 L62849 49678 L62812 49678 L62774 49659 L62756 49640 L62737 49603 L62718 49528 L62718 49434 L62737 49359 L62756 49321 L62774 49303 L62812 49284 "
       id="path350" />
    <path
       d="M68250 50000 L68250 43000 "
       id="path352" />
    <path
       d="M59750 50000 L68250 50000 "
       id="path354" />
    <path
       d="M59750 43000 L59750 50000 "
       id="path356" />
    <path
       d="M59750 43000 L59750 36000 "
       id="path358" />
    <path
       d="M68250 43000 L59750 43000 "
       id="path360" />
    <path
       d="M68250 36000 L68250 43000 "
       id="path362" />
    <path
       d="M59750 29000 L68250 29000 "
       id="path364" />
    <path
       d="M59750 36000 L59750 29000 "
       id="path366" />
    <path
       d="M68250 36000 L59750 36000 "
       id="path368" />
  </g>
  <g
     style="fill:#000000; fill-opacity:1.0;  stroke:#000000; stroke-width:3.93701; stroke-opacity:1;  stroke-linecap:round; stroke-linejoin:round;"
     id="g414"
     inkscape:export-filename="/home/justb/Documents/KiCad/ring_light_controller/svg/g1350.png"
     inkscape:export-xdpi="1500"
     inkscape:export-ydpi="1500">
    <path
       style="fill:#000000; fill-opacity:1.0;  stroke:#000000; stroke-width:3.93701; stroke-opacity:1;  stroke-linecap:round; stroke-linejoin:round;fill-rule:evenodd;"
       d="M 64264.6,51852.7 64273.6,51867.4 64287.6,51890.8 64305.9,51921.7 64328,51959.3 64353.2,52002.5 64381,52050.3 64410.9,52101.8 64442.2,52155.9 64474.5,52211.7 64507,52268.1 64539.3,52324.2 64570.8,52379 64600.9,52431.5 64629,52480.6 64654.6,52525.5 64677,52565.1 64695.8,52598.3 64710.3,52624.3 64720,52642.1 64724.2,52650.5 64724.4,52651.1 64719.1,52658.3 64704.4,52669.2 64682,52683 64653.7,52698.3 64624,52712.9 64583.7,52730.6 64541.3,52746.5 64495.3,52761 64444.3,52774.4 64386.9,52787 64321.5,52799.3 64246.8,52811.5 64169.5,52822.9 64102.3,52833 64045.9,52843 63998.8,52853.4 63959.7,52864.7 63927.1,52877.4 63899.6,52891.9 63875.8,52908.9 63854.3,52928.7 63847.3,52936.1 63832.3,52953.2 63821.2,52967.2 63816,52975.4 63815.9,52976.1 63814,52980.2 63807.8,52980.3 63795.8,52975.7 63776.8,52965.9 63749.5,52950.4 63730.5,52939.2 63702.2,52921.8 63680.2,52906.8 63666,52895.4 63661.1,52888.7 63661.1,52888.7 63664.1,52882.3 63672.8,52866.3 63686.5,52841.6 63704.9,52809 63727.3,52769.4 63753.3,52723.6 63782.4,52672.7 63814,52617.3 63847.7,52558.5 63883,52497 63919.4,52433.7 63956.3,52369.6 63993.3,52305.4 64029.9,52242.1 64065.5,52180.5 64099.7,52121.5 64131.9,52066 64161.7,52014.8 64188.5,51968.8 64211.9,51929 64231.3,51896 64246.3,51870.9 64256.3,51854.5 64260.8,51847.7 64261,51847.6 Z"
       id="path372" />
    <path
       style="fill:#000000; fill-opacity:1.0;  stroke:#000000; stroke-width:3.93701; stroke-opacity:1;  stroke-linecap:round; stroke-linejoin:round;fill-rule:evenodd;"
       d="M 64982.5,53092.4 64987,53099.9 64997,53117.1 65012.2,53143.2 65032,53177.2 65055.8,53218.4 65083.3,53265.8 65113.8,53318.7 65147,53376.1 65182.2,53437.1 65218.5,53500 65255.5,53564.2 65291.1,53625.9 65324.7,53684.1 65355.7,53737.9 65383.8,53786.5 65408.3,53828.9 65428.7,53864.3 65444.6,53891.8 65455.4,53910.5 65460.4,53919.2 65468.7,53934 65473.2,53943.2 65473.4,53944.9 65468,53941.8 65452.7,53933.2 65428.5,53919.3 65396.2,53900.7 65356.5,53877.8 65310.2,53851.1 65258.1,53821 65201,53788.1 65139.8,53752.7 65075.2,53715.3 65050.6,53701.1 64984.8,53663 64922.1,53626.7 64863.1,53592.7 64808.8,53561.4 64759.9,53533.2 64717.3,53508.6 64681.6,53488.2 64653.9,53472.3 64634.7,53461.4 64625.1,53456 64624,53455.5 64627,53450.9 64637.2,53438.5 64653.8,53419.5 64675.5,53395.1 64701.4,53366.3 64730.4,53334.4 64761.5,53300.4 64793.6,53265.5 64825.7,53230.8 64856.7,53197.5 64885.6,53166.7 64911.4,53139.6 64932.9,53117.2 64949.2,53100.8 64954.8,53095.4 64973.3,53078 Z"
       id="path374" />
    <path
       style="fill:#000000; fill-opacity:1.0;  stroke:#000000; stroke-width:3.93701; stroke-opacity:1;  stroke-linecap:round; stroke-linejoin:round;fill-rule:evenodd;"
       d="M 63539.4,53114.6 63552.2,53119.6 63571.7,53129.4 63599.8,53144.8 63601.9,53146.1 63627.7,53160.8 63649.5,53173.7 63665.1,53183.5 63672.4,53188.9 63672.7,53189.2 63670.9,53196.6 63662.8,53213.2 63648.9,53238.1 63629.7,53270.4 63605.8,53309.1 63577.7,53353.4 63570.6,53364.2 63552.4,53394.4 63539.1,53420.3 63531.9,53439.7 63531.2,53443.5 63531.5,53460.4 63535.2,53487.1 63541.7,53522 63550.7,53563.3 63561.6,53609.4 63574,53658.5 63587.4,53708.9 63601.5,53758.9 63615.7,53806.8 63629.6,53850.8 63642.7,53889.3 63654.5,53920.5 63662.8,53939 63672.6,53958.8 63681.8,53977.6 63682.3,53978.7 63697.5,53997.7 63719.8,54010.6 63745.6,54016.7 63771.8,54015.7 63795,54007.1 63808,53995.8 63826.7,53964.8 63840.4,53926.1 63848,53883.8 63849.1,53859.8 63844.8,53814.9 63832.1,53777.8 63810.5,53746.6 63803.8,53739.7 63783.7,53720.2 63782.3,53582.4 63781,53444.7 63816.1,53391.5 63832.5,53367.5 63848.4,53345.9 63861.4,53329.7 63867,53323.7 63882.8,53309 63904.2,53320.5 63917.7,53328.8 63925.1,53335.2 63925.6,53336.3 63930.7,53341.2 63939.3,53344.9 63947.7,53348.2 63960.5,53354.4 63978.9,53364.2 64003.9,53378.2 64036.6,53396.9 64078.2,53421 64100.8,53434.2 64127.4,53450 64144.8,53461.3 64154.7,53469.3 64158.4,53475.4 64157.7,53480.9 64157.1,53482.2 64150.9,53490.3 64137.8,53505.4 64119.3,53525.9 64096.9,53550 64077.4,53570.5 64032.7,53619.1 63997.7,53661.3 63972.1,53697.3 63955.6,53727.8 63950.1,53743.3 63947.8,53756.8 63945.4,53779.9 63943.2,53809.9 63941.3,53844.2 63940.4,53865.9 63939.2,53903.3 63938.6,53930.7 63938.9,53950.2 63940.2,53963.7 63942.8,53973.5 63946.6,53981.7 63949.6,53986.6 63967.1,54005.8 63989.6,54019.2 64013.3,54025 64031,54022.9 64047.1,54013.8 64067.2,53997.4 64088.6,53976.7 64108.4,53954.5 64123.8,53933.7 64129.5,53923.6 64138,53909.8 64153.4,53888.7 64174.4,53862.1 64199.6,53831.6 64227.4,53798.7 64256.6,53765.2 64285.7,53732.7 64313.2,53702.9 64337.9,53677.3 64357.2,53658.5 64378.7,53639.8 64396.7,53625.9 64409.4,53618.5 64413.6,53617.7 64420,53621 64436.1,53629.9 64460.9,53643.8 64493.4,53662.2 64532.8,53684.6 64578.1,53710.5 64628.4,53739.3 64682.8,53770.4 64740.2,53803.4 64800,53837.6 64860.9,53872.7 64922.3,53908 64983,53943 65042.3,53977.2 65099.2,54010 65152.6,54040.9 65201.8,54069.4 65245.8,54095 65283.7,54117 65314.5,54135 65337.3,54148.5 65351.2,54156.8 65355.2,54159.4 65349.8,54160 65332.7,54160.5 65304.6,54160.9 65266,54161.4 65217.5,54161.9 65159.6,54162.3 65092.9,54162.7 65018,54163 64935.5,54163.4 64845.9,54163.7 64749.7,54163.9 64647.6,54164.2 64540.1,54164.3 64427.8,54164.5 64311.2,54164.6 64191,54164.6 64140.5,54164.6 62920.1,54164.6 63007.1,54013.7 63025.5,53981.8 63049.3,53940.6 63077.5,53891.7 63109.4,53836.3 63144.2,53775.8 63181.2,53711.6 63219.5,53645.2 63258.3,53577.8 63296.9,53510.8 63306.6,53493.9 63342.2,53432.2 63376.1,53373.5 63407.9,53318.7 63436.9,53268.7 63462.8,53224.2 63485.1,53186.2 63503.1,53155.6 63516.4,53133.2 63524.5,53119.9 63526.8,53116.6 63531.5,53113.9 Z"
       id="path376" />
    <path
       style="fill:#000000; fill-opacity:1.0;  stroke:#000000; stroke-width:3.93701; stroke-opacity:1;  stroke-linecap:round; stroke-linejoin:round;fill-rule:evenodd;"
       d="M 61148.4,51933.1 61170.8,52051.8 61336,52119.9 61435,52052.5 61462.8,52033.8 61487.9,52017 61509.1,52003 61525.3,51992.6 61535.4,51986.5 61538.1,51985.1 61543.1,51988.5 61553.6,51997.9 61568.6,52012.1 61586.8,52029.9 61607.1,52050.1 61628.3,52071.5 61649.2,52092.9 61668.6,52113.1 61685.3,52130.9 61698.2,52145.1 61706,52154.4 61707.9,52157.6 61705.2,52163.3 61697.6,52176 61686,52194.3 61671.1,52217 61653.7,52242.9 61643.6,52257.6 61625.2,52284.6 61608.8,52308.9 61595.3,52329.3 61585.5,52344.8 61580,52353.9 61579.2,52355.8 61581.1,52361.3 61586.1,52374.1 61593.6,52392.3 61602.8,52414.3 61612.8,52438.1 61623,52462 61632.7,52484.3 61640.9,52503.1 61647,52516.6 61650.2,52523.1 61650.4,52523.3 61655.4,52524.5 61668.8,52527.3 61689.1,52531.3 61715,52536.3 61745.1,52541.9 61762.7,52545.2 61794.9,52551.3 61824,52557.2 61848.4,52562.4 61866.9,52566.7 61877.8,52569.7 61880,52570.6 61882.1,52577.1 61883.8,52591.8 61885.1,52612.9 61886.1,52638.8 61886.5,52667.7 61886.6,52698 61886.3,52727.8 61885.6,52755.5 61884.4,52779.3 61882.9,52797.6 61881,52808.7 61879.8,52811 61872.8,52813.7 61858,52817.7 61837.4,52822.3 61812.9,52827.3 61804.3,52828.9 61763,52836.4 61730.4,52842.5 61705.4,52847.4 61686.9,52851.2 61673.8,52854.4 61665.1,52857 61659.7,52859.4 61656.5,52861.7 61656,52862.2 61651.6,52869.6 61644.7,52884.1 61636.2,52903.9 61626.8,52927.2 61617,52952.2 61607.5,52977.1 61599.2,53000.3 61592.6,53019.8 61588.4,53033.9 61587.3,53040.9 61587.3,53041.1 61591.1,53046.8 61599.5,53059.4 61611.8,53077.5 61627.1,53099.8 61644.4,53125 61649.3,53132.2 61666.9,53158.2 61682.4,53182 61694.9,53202.1 61703.6,53217.1 61707.7,53225.9 61707.9,53226.9 61704.5,53232.6 61695,53243.7 61680.7,53259.2 61662.8,53277.8 61642.5,53298.4 61621,53319.6 61599.5,53340.4 61579.3,53359.5 61561.6,53375.8 61547.6,53388 61538.6,53394.9 61536,53396 61530.2,53393.4 61518.2,53386.2 61502.1,53375.7 61489.6,53367.3 61467.1,53351.8 61440.5,53333.5 61413.7,53315.3 61399.4,53305.6 61350.7,53272.7 61309.8,53294.7 61291.2,53304.4 61275.4,53311.9 61264.7,53316.2 61262,53316.8 61258.7,53312.4 61252.2,53300 61243.1,53280.6 61231.7,53255.5 61218.5,53225.8 61204.1,53192.7 61189,53157.2 61173.5,53120.6 61158.2,53084 61143.6,53048.5 61130.2,53015.3 61118.4,52985.6 61108.7,52960.4 61101.6,52941 61097.6,52928.5 61097,52924.2 61102.1,52918.7 61113.2,52909.8 61128.1,52899.3 61129.3,52898.5 61167.8,52867.8 61198.7,52831.9 61222,52792 61237.3,52749.3 61244.3,52705 61242.9,52660.1 61232.6,52615.8 61213.3,52573.2 61207.6,52563.9 61178.1,52526.3 61143.2,52496.2 61104.2,52473.5 61062.2,52458.6 61018.4,52451.6 60974.2,52452.6 60930.6,52461.8 60888.9,52479.3 60850.4,52505.4 60838.4,52515.9 60808,52549 60785.9,52583.8 60770.7,52622.9 60762.3,52661.5 60760.2,52705 60767.1,52748.7 60782.4,52791.1 60805.4,52830.8 60835.2,52866.2 60871.3,52896 60876.1,52899.2 60891.1,52909.4 60902.5,52918.3 60908,52924 60908.1,52924.2 60906.9,52930.4 60902.2,52944.3 60894.6,52964.9 60884.5,52991.1 60872.3,53021.6 60858.6,53055.3 60843.8,53091.1 60828.4,53127.8 60813,53164.3 60797.9,53199.3 60783.7,53231.9 60770.9,53260.8 60759.9,53284.9 60751.2,53303 60745.3,53313.9 60743,53316.8 60735.8,53314.6 60722.2,53308.6 60704.7,53299.8 60695.1,53294.7 60654.3,53272.7 60605.6,53305.6 60580.8,53322.4 60553.6,53341 60528.1,53358.5 60515.3,53367.3 60497.3,53379.3 60482.1,53388.9 60471.7,53394.7 60468.3,53396 60463.3,53392.6 60452.4,53383.3 60436.5,53369 60416.7,53350.7 60394.1,53329.3 60379.8,53315.5 60354.8,53290.9 60333.2,53269 60315.9,53250.5 60303.7,53236.6 60297.5,53228 60296.9,53226.3 60299.6,53219.7 60307.2,53206.3 60318.9,53187.6 60333.6,53164.8 60350.7,53139.3 60355.6,53132.2 60373.3,53106.4 60389.2,53083.2 60402.4,53063.8 60412,53049.6 60417.1,53041.9 60417.6,53041.1 60416.9,53035 60413,53021.5 60406.6,53002.5 60398.3,52979.7 60389,52954.8 60379.2,52929.7 60369.7,52906.2 60361,52886 60354,52870.8 60349.2,52862.6 60348.9,52862.2 60346,52859.8 60341.1,52857.5 60333.1,52854.9 60321,52851.9 60303.6,52848.2 60279.9,52843.5 60248.8,52837.7 60209.2,52830.4 60200.7,52828.9 60175.3,52824 60153.1,52819.2 60136.2,52814.9 60126.5,52811.7 60125.2,52811 60123,52804.4 60121.3,52789.6 60119.9,52768.4 60119,52742.5 60118.4,52713.6 60118.3,52683.3 60118.6,52653.5 60119.3,52625.9 60120.4,52602.1 60121.9,52583.8 60123.8,52572.9 60125,52570.6 60131.5,52568.4 60146.2,52564.7 60167.8,52559.9 60194.7,52554.4 60225.5,52548.4 60242.2,52545.2 60274,52539.3 60302.4,52533.9 60325.9,52529.3 60343.3,52525.9 60353,52523.8 60354.6,52523.3 60357.3,52518.1 60363,52505.5 60371,52487.4 60380.4,52465.5 60390.6,52441.7 60400.7,52417.7 60410.1,52395.3 60417.9,52376.4 60423.3,52362.6 60425.7,52355.9 60425.7,52355.6 60423,52350.3 60415.5,52338.1 60403.8,52320.2 60388.9,52297.8 60371.5,52272.2 60361.4,52257.4 60342.9,52230.4 60326.6,52205.9 60313.1,52185.1 60303.2,52169.3 60297.8,52159.6 60297,52157.5 60300.4,52152.5 60309.6,52141.8 60323.6,52126.5 60341.2,52108 60361.1,52087.4 60382.2,52065.9 60403.2,52044.8 60423.1,52025.1 60440.6,52008.1 60454.6,51995 60463.8,51987 60466.9,51985.1 60471.9,51987.8 60484,51995.3 60501.8,52006.9 60524.3,52021.8 60550.3,52039.2 60569.9,52052.5 60669,52119.9 60751.6,52085.8 60834.2,52051.8 60856.5,51933.1 60878.9,51814.4 61126,51814.4 Z"
       id="path378" />
    <path
       style="fill:#000000; fill-opacity:1.0;  stroke:#000000; stroke-width:3.93701; stroke-opacity:1;  stroke-linecap:round; stroke-linejoin:round;fill-rule:evenodd;"
       d="M 61708.4,53574 61725.5,53579.2 61736.4,53585.8 61740,53591 61739,53597.2 61732.7,53606.8 61727.3,53613.7 61716.1,53626.1 61707.8,53631.3 61700.7,53631 61679.5,53625.6 61664,53625.8 61651.4,53631.9 61647.2,53635.5 61633.7,53648 61633.7,53811.9 61579.2,53811.9 61579.2,53574.3 61606.4,53574.3 61622.8,53574.9 61631.2,53577.2 61633.7,53581.7 61633.7,53581.8 61634.8,53586.5 61640,53585.9 61647.3,53582.5 61662.2,53576.2 61674.4,53572.4 61690,53571.4 Z"
       id="path380" />
    <path
       style="fill:#000000; fill-opacity:1.0;  stroke:#000000; stroke-width:3.93701; stroke-opacity:1;  stroke-linecap:round; stroke-linejoin:round;fill-rule:evenodd;"
       d="M 60703.1,53578.3 60715.5,53584.2 60727.4,53592.7 60736.5,53602.5 60743.1,53615 60747.6,53631.6 60750.4,53653.7 60751.9,53682.7 60752.4,53720.1 60752.4,53724 60752.5,53811.9 60698,53811.9 60698,53730.9 60698,53700.9 60697.7,53679.1 60697,53664 60695.6,53653.8 60693.3,53647 60689.8,53641.9 60685,53636.8 60668.1,53625.9 60649.7,53623.9 60632.1,53630.8 60626,53635.9 60621.5,53640.7 60618.3,53645.9 60616.2,53653 60614.8,53663.7 60614.2,53679.6 60613.9,53702.3 60613.9,53730 60613.9,53811.9 60559.4,53811.9 60559.4,53574.3 60586.6,53574.3 60603,53574.9 60611.4,53577.2 60613.9,53581.7 60613.9,53581.8 60615,53586.2 60620,53585.7 60630,53580.9 60652.5,53573.8 60678.3,53573 Z"
       id="path382" />
    <path
       style="fill:#000000; fill-opacity:1.0;  stroke:#000000; stroke-width:3.93701; stroke-opacity:1;  stroke-linecap:round; stroke-linejoin:round;fill-rule:evenodd;"
       d="M 62054.3,53573.4 62067,53576.5 62091.3,53587.8 62112.1,53605 62126.4,53625.6 62128.4,53630.3 62131.1,53642.4 62133,53660.4 62133.7,53678.5 62133.7,53712.9 62061.9,53712.9 62032.3,53713 62011.4,53713.7 61998.2,53715.4 61991.3,53718.8 61989.8,53724.3 61992.5,53732.4 61997.2,53741.9 62010.3,53757.7 62028.5,53765.6 62050.8,53765.3 62076,53756.7 62097.8,53746.1 62115.9,53760.4 62134,53774.8 62117,53790.5 62094.2,53805.3 62066.3,53814.3 62036.2,53816.8 62007.2,53812.3 62002.5,53810.8 61976.9,53797.4 61957.9,53777.6 61945.1,53750.5 61937.9,53715.8 61937.9,53715 61937.2,53677.1 61939.8,53663.6 61990.1,53663.6 61994.7,53665.7 62007.3,53667.3 62025.7,53668.2 62037.5,53668.3 62059.3,53668.2 62073,53667.7 62080.2,53666.2 62082.6,53663.5 62082,53658.9 62081.4,53657.2 62072.6,53640.7 62058.7,53627.4 62046.4,53621.6 62030,53621.9 62013.5,53629.2 61999.6,53641.3 61991.3,53655.9 61990.1,53663.6 61939.8,53663.6 61943.6,53643.8 61956.2,53615.8 61974.3,53594 61997.2,53579.1 62024.1,53572 Z"
       id="path384" />
    <path
       style="fill:#000000; fill-opacity:1.0;  stroke:#000000; stroke-width:3.93701; stroke-opacity:1;  stroke-linecap:round; stroke-linejoin:round;fill-rule:evenodd;"
       d="M 61872.9,53576.3 61901.6,53588.5 61910.6,53594.4 61922.2,53603.6 61929.4,53610.7 61930.7,53613.1 61927.1,53618.2 61918,53627 61910.8,53633.2 61890.8,53649.2 61875.1,53635.9 61862.9,53627.4 61851.1,53624.4 61837.5,53625.2 61816,53630.5 61801.1,53641.6 61792.1,53659.6 61788,53685.5 61788,53685.6 61788.4,53714.5 61793.9,53735.8 61804.9,53750.3 61812.3,53755.2 61832.2,53761.3 61853.4,53761.3 61871.9,53755.4 61876.2,53752.5 61887.2,53745.1 61895.8,53743.9 61905,53749.4 61915.2,53759.3 61931.4,53775.9 61913.4,53790.7 61885.7,53807.4 61854.4,53815.7 61821.7,53815.1 61800.3,53809.6 61775.2,53796.1 61755.1,53774.9 61746,53759.9 61738.6,53738.4 61734.9,53711.2 61734.9,53681.7 61738.5,53653.3 61745.7,53629.6 61746.9,53627.1 61763.8,53603.3 61786.6,53585.9 61813.6,53575.4 61843,53572.1 Z"
       id="path386" />
    <path
       style="fill:#000000; fill-opacity:1.0;  stroke:#000000; stroke-width:3.93701; stroke-opacity:1;  stroke-linecap:round; stroke-linejoin:round;fill-rule:evenodd;"
       d="M 61391.1,53651.3 61391.6,53687.6 61393.3,53715.2 61396.7,53735.2 61402.2,53748.7 61410.4,53757 61421.7,53761 61435.6,53762.1 61450.3,53760.9 61461.3,53756.6 61469.4,53748.2 61474.8,53734.3 61478.1,53714 61479.8,53686 61480.2,53651.3 61480.2,53574.3 61534.7,53574.3 61534.7,53811.9 61507.4,53811.9 61491,53811.2 61482.6,53808.9 61480.2,53804.4 61478.8,53800.5 61473.1,53801.3 61461.7,53806.9 61435.6,53815.5 61407.8,53814.9 61381.3,53805.6 61368.6,53798.2 61358.9,53790.2 61351.9,53780.1 61347,53766.7 61344,53748.5 61342.3,53724 61341.7,53692 61341.6,53667.2 61341.6,53574.3 61391.1,53574.3 Z"
       id="path388" />
    <path
       style="fill:#000000; fill-opacity:1.0;  stroke:#000000; stroke-width:3.93701; stroke-opacity:1;  stroke-linecap:round; stroke-linejoin:round;fill-rule:evenodd;"
       d="M 61240.5,53577.2 61265.5,53590.8 61285.1,53612.4 61294.3,53629.9 61298.3,53645.3 61300.8,53667.4 61301.9,53692.8 61301.5,53718.3 61299.5,53740.7 61297.1,53752.6 61289,53769 61275,53786.4 61258.1,53801.6 61241.4,53811.4 61241,53811.6 61220.3,53815.9 61195.7,53816 61172.4,53812.1 61163.4,53808.9 61140.2,53795.8 61123.6,53778.5 61112.7,53755.7 61106.6,53725.8 61105.2,53710.1 61105.4,53690.5 61158.4,53690.5 61160.2,53719.2 61165.3,53741.1 61173.5,53755.1 61179.4,53759.1 61194.3,53761.9 61212,53761 61227.4,53757 61231.4,53754.8 61242,53741.9 61249,53722.3 61252,53698.3 61250.5,53672.6 61247.3,53657.2 61237.9,53639.3 61223.2,53628.1 61205.4,53624.2 61187,53628.3 61172.9,53638.2 61165.5,53646.4 61161.1,53654.5 61159.1,53665.4 61158.4,53682.2 61158.4,53690.5 61105.4,53690.5 61105.5,53668.3 61112.4,53634.1 61125.6,53607.3 61145.3,53588.1 61171.4,53576.3 61177,53575 61210.7,53571.8 Z"
       id="path390" />
    <path
       style="fill:#000000; fill-opacity:1.0;  stroke:#000000; stroke-width:3.93701; stroke-opacity:1;  stroke-linecap:round; stroke-linejoin:round;fill-rule:evenodd;"
       d="M 61005.5,53573.4 61024.3,53577 61043.7,53584.4 61045.8,53585.3 61060.5,53593.1 61070.8,53600.3 61074.1,53604.9 61070.9,53612.5 61063.3,53623.6 61059.9,53627.7 61045.9,53644 61027.9,53633.4 61010.8,53626.3 60991,53622.5 60972,53622.3 60957.3,53625.9 60953.7,53628.1 60947,53638.3 60946.2,53650 60951.2,53659.1 60954.2,53660.9 60963.1,53663.1 60978.8,53665.7 60998.1,53668.2 61001.7,53668.6 61032.7,53673.9 61055.2,53683 61070.1,53696.8 61078.4,53715.9 61081,53739.3 61077.4,53765.8 61065.8,53786.7 61046.2,53801.9 61018.4,53811.4 60987.6,53815.2 60962.5,53815.2 60942.1,53811.8 60928.2,53807 60910.6,53798.8 60894.4,53789.2 60888.6,53785 60873.8,53772.9 60891.7,53754.7 60909.6,53736.6 60929.9,53750.1 60950.4,53760.2 60972.2,53765.5 60993.2,53766.1 61011,53762 61023.6,53753.3 61027.7,53746.1 61027.1,53734.4 61017,53725.4 60997.4,53719.3 60976,53716.4 60943,53711 60918.5,53700.7 60902.2,53685.3 60893.6,53664.5 60892.5,53639.8 60898.3,53614 60911.6,53594.5 60932.5,53581.3 60961.1,53574.1 60982.3,53572.7 Z"
       id="path392" />
    <path
       style="fill:#000000; fill-opacity:1.0;  stroke:#000000; stroke-width:3.93701; stroke-opacity:1;  stroke-linecap:round; stroke-linejoin:round;fill-rule:evenodd;"
       d="M 60465.9,53579.8 60470.8,53582.1 60487.9,53594.6 60504,53612.9 60516.1,53633 60519.5,53642.2 60522.6,53658.7 60524.5,53678.6 60524.7,53686.9 60524.8,53712.9 60375.2,53712.9 60378.4,53726.5 60386.2,53742.6 60399.9,53756.5 60416.1,53765.5 60426.5,53767.3 60440.6,53765.1 60457.4,53759.4 60463.1,53756.8 60484.2,53746.3 60502.2,53760 60512.5,53769.3 60518.1,53776.9 60518.3,53779.2 60513.4,53784.6 60502.6,53792.9 60492.8,53799.4 60466.3,53811 60436.6,53816.3 60407.1,53814.9 60383.7,53807.7 60359.5,53792.4 60342.3,53772.3 60331.5,53746.2 60326.6,53713.1 60326.2,53698 60327.9,53663.3 60328.2,53662.3 60377.7,53662.3 60379.1,53665.6 60384.7,53667.4 60396.3,53668.1 60415.5,53668.3 60422.9,53668.3 60445.5,53668 60459.8,53667.1 60467.5,53665.1 60470.2,53662 60470.3,53661 60467.2,53652.9 60459.4,53641.6 60456.1,53637.7 60443.7,53626.5 60430.7,53622.1 60423.8,53621.8 60404.9,53626.4 60389.1,53638.7 60379.1,53656.6 60378.9,53657.2 60377.7,53662.3 60328.2,53662.3 60333.7,53636 60344.1,53614.2 60356.8,53598.7 60380.2,53581.9 60407.8,53572.9 60437.1,53572.1 Z"
       id="path394" />
    <path
       style="fill:#000000; fill-opacity:1.0;  stroke:#000000; stroke-width:3.93701; stroke-opacity:1;  stroke-linecap:round; stroke-linejoin:round;fill-rule:evenodd;"
       d="M 60000.7,53576.8 60026.6,53588.3 60046.2,53607.4 60059.7,53634.2 60067,53668.8 60067.5,53674.2 60067.9,53712.2 60062.6,53745.5 60051.9,53772.5 60046.2,53781.2 60026.3,53799.6 60000.9,53811.5 59972.6,53816.5 59943.6,53814 59921.6,53806.2 59902.7,53793.2 59887.2,53776.1 59887,53775.7 59880.7,53765.1 59876.6,53754.5 59874.1,53741.1 59872.7,53722.2 59872,53706.7 59871.8,53692.6 59921.3,53692.6 59921.8,53706.6 59923.5,53725.2 59926.6,53737.2 59932.2,53745.7 59937.4,53750.7 59956,53761.1 59975.4,53762.5 59993.5,53755 60002.5,53746.6 60009,53738.1 60012.8,53730 60014.5,53719.5 60014.6,53703.7 60014.1,53689.2 60013,53668.5 60011.2,53655 60008.1,53646.3 60002.7,53639.5 59998.5,53635.7 59980.8,53625.6 59961.7,53625.1 59945.7,53631.1 59932.1,53643.6 59923.9,53664 59921.3,53692.6 59871.8,53692.6 59871.5,53675.8 59872.5,53652.8 59875.4,53635.4 59880.8,53621.8 59889,53609.7 59892.1,53606.1 59911.1,53588.2 59931.4,53577.8 59956.4,53573.4 59968.5,53573 Z"
       id="path396" />
    <path
       style="fill:#000000; fill-opacity:1.0;  stroke:#000000; stroke-width:3.93701; stroke-opacity:1;  stroke-linecap:round; stroke-linejoin:round;fill-rule:evenodd;"
       d="M 61800.2,53946.8 61823.9,53953 61843.7,53965.7 61853.3,53975.2 61869,53997.6 61878,54023.6 61881.1,54055.6 61881.2,54058.2 61881.2,54084.2 61731.6,54084.2 61734.8,54097.8 61740.5,54110.1 61750.6,54122.9 61752.7,54125 61770.8,54136.1 61791.5,54138 61815.3,54130.7 61819.3,54128.7 61831.7,54122.7 61839.9,54119.3 61841.4,54119 61846.4,54122.1 61856.1,54129.6 61860.9,54133.6 61871.1,54143 61874.4,54149.2 61872.1,54154.9 61870.8,54156.5 61862.5,54163.3 61848.7,54171.6 61839.1,54176.5 61811.8,54185 61781.6,54187.8 61753.1,54184.5 61745,54182.2 61720.3,54168.9 61701.9,54148.4 61689.8,54120.7 61684,54085.3 61683.3,54066.8 61685.2,54039.9 61732.7,54039.9 61737.3,54041.9 61749.6,54043.5 61767.5,54044.4 61779.7,54044.6 61801.6,54044.4 61815.4,54043.7 61822.9,54042 61826.1,54039.1 61826.7,54034.7 61822.5,54021.4 61811.8,54008.2 61797.7,53998.1 61783.7,53994 61764.6,53997.7 61748.1,54008.3 61736.6,54023.6 61732.7,54039.9 61685.2,54039.9 61686.1,54027.7 61694.5,53996.4 61708.8,53972.9 61729.3,53956.9 61755.9,53948.1 61770.3,53946.4 Z"
       id="path398" />
    <path
       style="fill:#000000; fill-opacity:1.0;  stroke:#000000; stroke-width:3.93701; stroke-opacity:1;  stroke-linecap:round; stroke-linejoin:round;fill-rule:evenodd;"
       d="M 61643.8,53945.5 61662.8,53949.2 61673.7,53954.8 61685.1,53964 61668.8,53984.5 61658.9,53996.9 61652.1,54002.9 61645.3,54003.8 61635.4,54000.9 61630.8,53999.2 61611.9,53996.7 61594.6,54002 61581.9,54014.1 61579.8,54017.9 61577.6,54028.1 61575.9,54046.8 61574.7,54072.7 61574.3,54104.6 61574.3,54109.1 61574.3,54188.1 61519.8,54188.1 61519.8,53945.5 61547,53945.5 61562.7,53946 61570.9,53947.8 61573.9,53951.9 61574.3,53955.8 61574.3,53966.1 61587.3,53955.8 61602.3,53948.8 61622.4,53945.3 Z"
       id="path400" />
    <path
       style="fill:#000000; fill-opacity:1.0;  stroke:#000000; stroke-width:3.93701; stroke-opacity:1;  stroke-linecap:round; stroke-linejoin:round;fill-rule:evenodd;"
       d="M 61408.8,53947 61429.7,53952.1 61435.7,53954.8 61447.4,53961.8 61456.4,53969.7 61463,53979.9 61467.7,53993.7 61470.8,54012.6 61472.8,54037.8 61473.9,54070.8 61474.4,54092.8 61476,54188.1 61448.4,54188.1 61431.7,54187.4 61423,54185 61420.8,54181 61419.6,54176.6 61414.4,54177.5 61407.2,54181 61389.2,54186.3 61366.1,54187.8 61341.9,54185.4 61320.3,54179.3 61318.4,54178.5 61298.7,54164.7 61285.7,54145.4 61279.8,54123 61280.2,54114.9 61328.9,54114.9 61333.2,54125.8 61346,54133.5 61366.5,54137.7 61377.5,54138.3 61395.8,54136.9 61407.9,54131.3 61410.9,54128.7 61418.9,54114.4 61420.8,54101.5 61420.8,54084.2 61396.7,54084.2 61368.6,54085.6 61348.9,54090.1 61336.5,54098 61333.7,54101.5 61328.9,54114.9 61280.2,54114.9 61281.1,54099.4 61290,54076.9 61302.2,54061.6 61309.6,54055.1 61316.8,54050.7 61326.2,54048.1 61340.1,54046.6 61360.9,54045.6 61369.1,54045.3 61420.8,54043.7 61420.7,54028 61418.7,54011.6 61411.5,54001.6 61396.9,53995.3 61396.5,53995.2 61375.8,53992.7 61355.5,53995.9 61340.4,54003.9 61334.4,54007.8 61327.8,54007.2 61317.8,54001.6 61311.9,53997.6 61300.4,53989 61293.3,53982.6 61292.2,53980.8 61296.9,53971.3 61310.8,53959.9 61316.8,53956.1 61334.2,53949.5 61357.6,53945.8 61383.7,53944.9 Z"
       id="path402" />
    <path
       style="fill:#000000; fill-opacity:1.0;  stroke:#000000; stroke-width:3.93701; stroke-opacity:1;  stroke-linecap:round; stroke-linejoin:round;fill-rule:evenodd;"
       d="M 61110.8,53946.5 61130.4,53948 61181.6,54101.5 61189.6,54074.3 61194.5,54057.4 61200.8,54034.7 61207.7,54009.7 61211.3,53996.3 61225,53945.5 61281.3,53945.5 61264.4,53998.8 61256.1,54024.9 61246.1,54056.5 61235.7,54089.4 61226.3,54118.8 61205.1,54185.6 61182.1,54187.1 61159.2,54188.6 61146.7,54147.5 61139,54122 61130.7,54093.9 61123.3,54069 61123.1,54068 61117.6,54051.2 61112.8,54039.7 61109.4,54035.3 61108.7,54035.8 61106.3,54042.6 61101.6,54057 61095.4,54077.3 61088,54101.7 61084.1,54115.1 61062.6,54188.1 61017,54188.1 60980.6,54073 60970.4,54040.7 60961,54011.4 60953.1,53986.4 60946.9,53967.2 60943,53955 60941.8,53951.5 60942.7,53947.8 60950.2,53946.2 60965.7,53946.4 60968.1,53946.5 60996.9,53948 61015.7,54017.3 61022.7,54042.6 61028.8,54064.8 61033.8,54082.1 61036.8,54092.4 61037.4,54094.1 61039.8,54092.1 61044.5,54082.1 61051.1,54065.4 61059.1,54043.2 61065.7,54023.3 61091.3,53945.1 Z"
       id="path404" />
    <path
       style="fill:#000000; fill-opacity:1.0;  stroke:#000000; stroke-width:3.93701; stroke-opacity:1;  stroke-linecap:round; stroke-linejoin:round;fill-rule:evenodd;"
       d="M 60920.8,54188.1 60893.6,54188.1 60877.8,54187.7 60869.5,54185.7 60866.6,54181.6 60866.3,54178.8 60865.8,54173.1 60862.7,54172 60854.4,54175.5 60848,54178.8 60823.2,54186.5 60796.4,54186.9 60774.5,54181.2 60754.2,54167.3 60738.6,54146.8 60730.2,54122.6 60729.9,54121.3 60728.7,54106.5 60728,54085.4 60728.1,54069.4 60782.2,54069.4 60783.4,54090.6 60786.3,54108.2 60790.1,54118.1 60804.7,54131.6 60822.1,54136.4 60839.9,54132.5 60855.2,54120.8 60861,54113 60864.4,54103.6 60865.9,54089.9 60866.3,54069.3 60865.6,54048.9 60863.8,54031 60861.2,54019 60860.7,54017.9 60850.2,54005.1 60834.8,53998.1 60817.6,53997 60801.6,54001.8 60789.7,54012.8 60788.5,54015 60784.7,54028.4 60782.6,54047.5 60782.2,54069.4 60728.1,54069.4 60728.1,54061.2 60728.5,54048.3 60730.9,54016.1 60735.9,53992 60744.3,53974.2 60756.7,53960.9 60768.8,53953.2 60785.7,53947.7 60806.7,53945.8 60828.2,53947.3 60846.5,53952.1 60856.3,53957.8 60866.3,53966.9 60866.3,53851.5 60920.8,53851.5 Z"
       id="path406" />
    <path
       style="fill:#000000; fill-opacity:1.0;  stroke:#000000; stroke-width:3.93701; stroke-opacity:1;  stroke-linecap:round; stroke-linejoin:round;fill-rule:evenodd;"
       d="M 60608.9,53946.1 60616.3,53948.3 60618.7,53953.2 60618.8,53955.4 60619.2,53961.5 60622.2,53962.5 60630.2,53958.3 60634.9,53955.4 60649.8,53949.2 60667.7,53946.2 60686.4,53946 60703.9,53948.2 60718.3,53952.7 60727.3,53959.1 60729.1,53967.1 60728.2,53969.2 60721.6,53978.2 60711.4,53989.2 60709.6,53991 60699.8,53999.2 60691.4,54001.9 60679.7,54000 60675,53998.8 60660.4,53995.8 60650.1,53997.2 60641.4,54001.8 60633.4,54008.1 60627.5,54016 60623.5,54027 60620.9,54042.7 60619.4,54064.5 60618.9,54093.9 60618.8,54111.7 60618.8,54188.1 60569.3,54188.1 60569.3,53945.5 60594.1,53945.5 Z"
       id="path408" />
    <path
       style="fill:#000000; fill-opacity:1.0;  stroke:#000000; stroke-width:3.93701; stroke-opacity:1;  stroke-linecap:round; stroke-linejoin:round;fill-rule:evenodd;"
       d="M 60455,53947.5 60478.3,53953.7 60496.1,53964.9 60508.6,53979.7 60512.5,53986 60515.3,53992.6 60517.3,54001 60518.6,54012.8 60519.4,54029.6 60519.7,54052.8 60519.8,54084 60519.8,54092.3 60519.8,54188.1 60496,54188.1 60480.9,54187.1 60469.7,54184.4 60466.9,54182.7 60459.2,54179.8 60451.4,54182.7 60438.4,54186.3 60419.7,54187.7 60398.9,54187.1 60379.9,54184.5 60368.8,54181.1 60347.3,54167.3 60333.9,54148.2 60327.9,54122.8 60327.8,54122.1 60328.4,54110.9 60376.2,54110.9 60380.4,54123.7 60387.2,54130.9 60400.9,54136.4 60419,54138.5 60437.4,54137.5 60452.2,54133.2 60456.3,54130.4 60463.5,54117.7 60465.3,54103.2 60465.3,54084.2 60438,54084.2 60411.9,54086.2 60392.2,54091.8 60379.9,54100.7 60376.2,54110.9 60328.4,54110.9 60329.1,54094.3 60338.3,54072.4 60355.5,54055.8 60357.9,54054.3 60368.1,54049.3 60380.8,54046.4 60398.5,54044.9 60419.6,54044.6 60465.3,54044.6 60465.3,54025.4 60463.4,54010.5 60458.4,54000.5 60457.9,54000 60446.8,53995.6 60430.2,53993.9 60411.8,53994.7 60395.5,53997.9 60385.8,54002.7 60380.6,54006.6 60375.1,54007.3 60367.5,54004.2 60355.9,53996.4 60338.7,53983.1 60337.1,53981.9 60337.9,53977.3 60344.7,53969.6 60354.9,53961.1 60366.3,53954 60369.9,53952.3 60382.9,53948.9 60402,53946.5 60423.3,53945.6 60424.3,53945.6 Z"
       id="path410" />
    <path
       style="fill:#000000; fill-opacity:1.0;  stroke:#000000; stroke-width:3.93701; stroke-opacity:1;  stroke-linecap:round; stroke-linejoin:round;fill-rule:evenodd;"
       d="M 60248.5,53578.4 60259,53583.6 60271.8,53592.6 60281.2,53602.4 60287.6,53614.7 60291.6,53631.2 60293.8,53653.6 60294.5,53683.5 60294.6,53696.4 60294.4,53724.7 60293.9,53744.9 60292.7,53758.8 60290.7,53768.4 60287.6,53775.5 60284.3,53780.3 60263.7,53800.8 60239.4,53813.1 60213.2,53816.8 60186.8,53811.4 60178.4,53807.6 60158.4,53797.2 60158.4,53960.7 60173,53953.1 60192.3,53947.3 60215.9,53945.8 60239.5,53948.5 60257.4,53954.7 60272.2,53966.6 60284.8,53983.5 60285.8,53985.2 60289.8,53993.4 60292.7,54001.6 60294.7,54011.6 60296,54025 60296.7,54043.6 60297,54068.9 60297,54097.3 60297,54188.1 60242.6,54188.1 60242.6,54020.7 60227.3,54007.9 60211.5,53997.6 60196.5,53995.8 60181.5,54000.5 60173.4,54005.2 60167.5,54011.9 60163.2,54022 60160.4,54037 60158.6,54058.2 60157.5,54087.2 60157.2,54106.4 60155.9,54185.6 60130,54187.1 60104,54188.6 60104,53697.1 60158.4,53697.1 60159.8,53724.5 60164.5,53743.5 60173.2,53755.4 60186.8,53761.2 60200.5,53762.4 60216,53761 60226.3,53755.8 60232.8,53748.8 60237.8,53741.3 60240.8,53732.9 60242.2,53721.2 60242.2,53703.6 60241.8,53688.9 60240.7,53666.8 60239.2,53652.2 60236.6,53643 60232.4,53636.8 60228.4,53633.2 60211.8,53625.4 60192.2,53624.1 60180.9,53626.8 60169.8,53636.4 60162.4,53655 60158.8,53682.5 60158.4,53697.1 60104,53697.1 60104,53574.3 60131.2,53574.3 60147.5,53574.9 60156,53577.2 60158.4,53581.7 60158.4,53581.8 60159.6,53586.2 60164.6,53585.7 60174.5,53580.9 60197.7,53573.5 60223.8,53572.7 Z"
       id="path412" />
  </g>
  <g
     style="fill:#000000; fill-opacity:1.0;  stroke:#000000; stroke-width:47.2441; stroke-opacity:1;  stroke-linecap:round; stroke-linejoin:round;"
     id="g416"
     inkscape:export-filename="/home/justb/Documents/KiCad/ring_light_controller/svg/g1350.png"
     inkscape:export-xdpi="1500"
     inkscape:export-ydpi="1500" />
  <g
     style="fill:#000000; fill-opacity:0.0;  stroke:#000000; stroke-width:47.2441; stroke-opacity:1;  stroke-linecap:round; stroke-linejoin:round;"
     id="g1124"
     inkscape:export-filename="/home/justb/Documents/KiCad/ring_light_controller/svg/g1350.png"
     inkscape:export-xdpi="1500"
     inkscape:export-ydpi="1500">
    <path
       d="M40150 43220 L40150 44007 "
       id="path418" />
    <path
       d="M39470 43220 L39470 44007 "
       id="path420" />
    <path
       d="M42200 43220 L40150 43220 "
       id="path422" />
    <path
       d="M43335 43220 L42900 43220 "
       id="path424" />
    <path
       d="M43335 40779 L43335 43220 "
       id="path426" />
    <path
       d="M40950 40779 L43335 40779 "
       id="path428" />
    <path
       d="M39000 40779 L40258 40779 "
       id="path430" />
    <path
       d="M39000 40976 L39000 40779 "
       id="path432" />
    <path
       d="M37814 40976 L39000 40976 "
       id="path434" />
    <path
       d="M37814 43023 L37814 40976 "
       id="path436" />
    <path
       d="M38798 43023 L37814 43023 "
       id="path438" />
    <path
       d="M38798 43220 L38798 43023 "
       id="path440" />
    <path
       d="M39470 43220 L38800 43220 "
       id="path442" />
    <path
       d="M56450 39539 L56450 39660 "
       id="path444" />
    <path
       d="M56749 39539 L56749 39660 "
       id="path446" />
    <path
       d="M71082 39677 L70590 39677 "
       id="path448" />
    <path
       d="M71082 40170 L71082 39677 "
       id="path450" />
    <path
       d="M68917 42492 L68917 41292 "
       id="path452" />
    <path
       d="M70078 42492 L68917 42492 "
       id="path454" />
    <path
       d="M70078 42788 L70078 42492 "
       id="path456" />
    <path
       d="M68917 41292 L68917 40508 "
       id="path458" />
    <path
       d="M70078 40091 L69551 40091 "
       id="path460" />
    <path
       d="M70078 39796 L70078 40091 "
       id="path462" />
    <path
       d="M70964 42788 L70964 42079 "
       id="path464" />
    <path
       d="M70669 42788 L70964 42788 "
       id="path466" />
    <path
       d="M70669 42079 L70669 42788 "
       id="path468" />
    <path
       d="M70964 42079 L70669 42079 "
       id="path470" />
    <path
       d="M70964 40504 L70964 39796 "
       id="path472" />
    <path
       d="M70669 40504 L70964 40504 "
       id="path474" />
    <path
       d="M70669 39796 L70669 40504 "
       id="path476" />
    <path
       d="M70964 39796 L70669 39796 "
       id="path478" />
    <path
       d="M70964 41488 L70964 41095 "
       id="path480" />
    <path
       d="M70669 41488 L70964 41488 "
       id="path482" />
    <path
       d="M70669 41095 L70669 41488 "
       id="path484" />
    <path
       d="M70964 41095 L70669 41095 "
       id="path486" />
    <path
       d="M70968 42792 L70968 39792 "
       id="path488" />
    <path
       d="M68618 42792 L70968 42792 "
       id="path490" />
    <path
       d="M68618 39792 L68618 42792 "
       id="path492" />
    <path
       d="M70968 39792 L68618 39792 "
       id="path494" />
    <path
       d="M55250 55550 L56950 55550 "
       id="path496" />
    <path
       d="M55250 51850 L55250 55550 "
       id="path498" />
    <path
       d="M56950 51850 L55250 51850 "
       id="path500" />
    <path
       d="M56950 55550 L56950 51850 "
       id="path502" />
    <path
       d="M54469 39108 L55030 39108 "
       id="path504" />
    <path
       d="M54469 38391 L55030 38391 "
       id="path506" />
    <path
       d="M54179 30401 L54598 30820 "
       id="path508" />
    <path
       d="M54179 27098 L54598 26679 "
       id="path510" />
    <path
       d="M54179 27098 L54179 28234 "
       id="path512" />
    <path
       d="M54179 30401 L54179 29265 "
       id="path514" />
    <path
       d="M54598 30820 L58320 30820 "
       id="path516" />
    <path
       d="M54598 26679 L58320 26679 "
       id="path518" />
    <path
       d="M58320 26679 L58320 28234 "
       id="path520" />
    <path
       d="M58320 30820 L58320 29265 "
       id="path522" />
    <path
       d="M47826 32657 L47407 33076 "
       id="path524" />
    <path
       d="M49673 32657 L50092 33076 "
       id="path526" />
    <path
       d="M49673 32657 L49167 32657 "
       id="path528" />
    <path
       d="M47826 32657 L48332 32657 "
       id="path530" />
    <path
       d="M47407 33076 L47407 35342 "
       id="path532" />
    <path
       d="M50092 33076 L50092 35342 "
       id="path534" />
    <path
       d="M50092 35342 L49167 35342 "
       id="path536" />
    <path
       d="M47407 35342 L48332 35342 "
       id="path538" />
    <path
       d="M49070 31320 L49070 29765 "
       id="path540" />
    <path
       d="M49070 27179 L49070 28734 "
       id="path542" />
    <path
       d="M45348 27179 L49070 27179 "
       id="path544" />
    <path
       d="M45348 31320 L49070 31320 "
       id="path546" />
    <path
       d="M44929 30901 L44929 29765 "
       id="path548" />
    <path
       d="M44929 27598 L44929 28734 "
       id="path550" />
    <path
       d="M44929 27598 L45348 27179 "
       id="path552" />
    <path
       d="M44929 30901 L45348 31320 "
       id="path554" />
    <path
       d="M57010 37785 L57010 38684 "
       id="path556" />
    <path
       d="M57010 38684 L57589 38684 "
       id="path558" />
    <path
       d="M57589 38684 L57589 37785 "
       id="path560" />
    <path
       d="M61584 46710 L60685 46710 "
       id="path562" />
    <path
       d="M61584 47289 L61584 46710 "
       id="path564" />
    <path
       d="M60685 47289 L61584 47289 "
       id="path566" />
    <path
       d="M61334 39460 L60435 39460 "
       id="path568" />
    <path
       d="M61334 40039 L61334 39460 "
       id="path570" />
    <path
       d="M60435 40039 L61334 40039 "
       id="path572" />
    <path
       d="M60435 33039 L61334 33039 "
       id="path574" />
    <path
       d="M61334 33039 L61334 32460 "
       id="path576" />
    <path
       d="M61334 32460 L60435 32460 "
       id="path578" />
    <path
       d="M52334 34210 L51435 34210 "
       id="path580" />
    <path
       d="M52334 34789 L52334 34210 "
       id="path582" />
    <path
       d="M51435 34789 L52334 34789 "
       id="path584" />
    <path
       d="M50864 31356 L52399 31356 "
       id="path586" />
    <path
       d="M50864 32143 L52399 32143 "
       id="path588" />
    <path
       d="M50864 31356 L50864 32143 "
       id="path590" />
    <path
       d="M46157 32779 L45842 32779 "
       id="path592" />
    <path
       d="M46157 33220 L45842 33220 "
       id="path594" />
    <path
       d="M70968 46792 L68618 46792 "
       id="path596" />
    <path
       d="M68618 46792 L68618 49792 "
       id="path598" />
    <path
       d="M68618 49792 L70968 49792 "
       id="path600" />
    <path
       d="M70968 49792 L70968 46792 "
       id="path602" />
    <path
       d="M70964 48095 L70669 48095 "
       id="path604" />
    <path
       d="M70669 48095 L70669 48488 "
       id="path606" />
    <path
       d="M70669 48488 L70964 48488 "
       id="path608" />
    <path
       d="M70964 48488 L70964 48095 "
       id="path610" />
    <path
       d="M70964 46796 L70669 46796 "
       id="path612" />
    <path
       d="M70669 46796 L70669 47504 "
       id="path614" />
    <path
       d="M70669 47504 L70964 47504 "
       id="path616" />
    <path
       d="M70964 47504 L70964 46796 "
       id="path618" />
    <path
       d="M70964 49079 L70669 49079 "
       id="path620" />
    <path
       d="M70669 49079 L70669 49788 "
       id="path622" />
    <path
       d="M70669 49788 L70964 49788 "
       id="path624" />
    <path
       d="M70964 49788 L70964 49079 "
       id="path626" />
    <path
       d="M70078 46796 L70078 47091 "
       id="path628" />
    <path
       d="M70078 47091 L69551 47091 "
       id="path630" />
    <path
       d="M68917 48292 L68917 47508 "
       id="path632" />
    <path
       d="M70078 49788 L70078 49492 "
       id="path634" />
    <path
       d="M70078 49492 L68917 49492 "
       id="path636" />
    <path
       d="M68917 49492 L68917 48292 "
       id="path638" />
    <path
       d="M71082 47170 L71082 46677 "
       id="path640" />
    <path
       d="M71082 46677 L70590 46677 "
       id="path642" />
    <path
       d="M71082 43277 L70590 43277 "
       id="path644" />
    <path
       d="M71082 43770 L71082 43277 "
       id="path646" />
    <path
       d="M68917 46092 L68917 44892 "
       id="path648" />
    <path
       d="M70078 46092 L68917 46092 "
       id="path650" />
    <path
       d="M70078 46388 L70078 46092 "
       id="path652" />
    <path
       d="M68917 44892 L68917 44108 "
       id="path654" />
    <path
       d="M70078 43691 L69551 43691 "
       id="path656" />
    <path
       d="M70078 43396 L70078 43691 "
       id="path658" />
    <path
       d="M70964 46388 L70964 45679 "
       id="path660" />
    <path
       d="M70669 46388 L70964 46388 "
       id="path662" />
    <path
       d="M70669 45679 L70669 46388 "
       id="path664" />
    <path
       d="M70964 45679 L70669 45679 "
       id="path666" />
    <path
       d="M70964 44104 L70964 43396 "
       id="path668" />
    <path
       d="M70669 44104 L70964 44104 "
       id="path670" />
    <path
       d="M70669 43396 L70669 44104 "
       id="path672" />
    <path
       d="M70964 43396 L70669 43396 "
       id="path674" />
    <path
       d="M70964 45088 L70964 44695 "
       id="path676" />
    <path
       d="M70669 45088 L70964 45088 "
       id="path678" />
    <path
       d="M70669 44695 L70669 45088 "
       id="path680" />
    <path
       d="M70964 44695 L70669 44695 "
       id="path682" />
    <path
       d="M70968 46392 L70968 43392 "
       id="path684" />
    <path
       d="M68618 46392 L70968 46392 "
       id="path686" />
    <path
       d="M68618 43392 L68618 46392 "
       id="path688" />
    <path
       d="M70968 43392 L68618 43392 "
       id="path690" />
    <path
       d="M70968 36392 L68618 36392 "
       id="path692" />
    <path
       d="M68618 36392 L68618 39392 "
       id="path694" />
    <path
       d="M68618 39392 L70968 39392 "
       id="path696" />
    <path
       d="M70968 39392 L70968 36392 "
       id="path698" />
    <path
       d="M70964 37695 L70669 37695 "
       id="path700" />
    <path
       d="M70669 37695 L70669 38088 "
       id="path702" />
    <path
       d="M70669 38088 L70964 38088 "
       id="path704" />
    <path
       d="M70964 38088 L70964 37695 "
       id="path706" />
    <path
       d="M70964 36396 L70669 36396 "
       id="path708" />
    <path
       d="M70669 36396 L70669 37104 "
       id="path710" />
    <path
       d="M70669 37104 L70964 37104 "
       id="path712" />
    <path
       d="M70964 37104 L70964 36396 "
       id="path714" />
    <path
       d="M70964 38679 L70669 38679 "
       id="path716" />
    <path
       d="M70669 38679 L70669 39388 "
       id="path718" />
    <path
       d="M70669 39388 L70964 39388 "
       id="path720" />
    <path
       d="M70964 39388 L70964 38679 "
       id="path722" />
    <path
       d="M70078 36396 L70078 36691 "
       id="path724" />
    <path
       d="M70078 36691 L69551 36691 "
       id="path726" />
    <path
       d="M68917 37892 L68917 37108 "
       id="path728" />
    <path
       d="M70078 39388 L70078 39092 "
       id="path730" />
    <path
       d="M70078 39092 L68917 39092 "
       id="path732" />
    <path
       d="M68917 39092 L68917 37892 "
       id="path734" />
    <path
       d="M71082 36770 L71082 36277 "
       id="path736" />
    <path
       d="M71082 36277 L70590 36277 "
       id="path738" />
    <path
       d="M44354 31188 L44354 32212 "
       id="path740" />
    <path
       d="M38566 31188 L44354 31188 "
       id="path742" />
    <path
       d="M44354 34811 L43606 34811 "
       id="path744" />
    <path
       d="M44354 33748 L44354 34811 "
       id="path746" />
    <path
       d="M38566 34811 L38566 31188 "
       id="path748" />
    <path
       d="M42031 34811 L38566 34811 "
       id="path750" />
    <path
       d="M44019 31110 L44433 31110 "
       id="path752" />
    <path
       d="M44433 31523 L44433 31110 "
       id="path754" />
    <path
       d="M70968 32792 L68618 32792 "
       id="path756" />
    <path
       d="M68618 32792 L68618 35792 "
       id="path758" />
    <path
       d="M68618 35792 L70968 35792 "
       id="path760" />
    <path
       d="M70968 35792 L70968 32792 "
       id="path762" />
    <path
       d="M70964 34095 L70669 34095 "
       id="path764" />
    <path
       d="M70669 34095 L70669 34488 "
       id="path766" />
    <path
       d="M70669 34488 L70964 34488 "
       id="path768" />
    <path
       d="M70964 34488 L70964 34095 "
       id="path770" />
    <path
       d="M70964 32796 L70669 32796 "
       id="path772" />
    <path
       d="M70669 32796 L70669 33504 "
       id="path774" />
    <path
       d="M70669 33504 L70964 33504 "
       id="path776" />
    <path
       d="M70964 33504 L70964 32796 "
       id="path778" />
    <path
       d="M70964 35079 L70669 35079 "
       id="path780" />
    <path
       d="M70669 35079 L70669 35788 "
       id="path782" />
    <path
       d="M70669 35788 L70964 35788 "
       id="path784" />
    <path
       d="M70964 35788 L70964 35079 "
       id="path786" />
    <path
       d="M70078 32796 L70078 33091 "
       id="path788" />
    <path
       d="M70078 33091 L69551 33091 "
       id="path790" />
    <path
       d="M68917 34292 L68917 33508 "
       id="path792" />
    <path
       d="M70078 35788 L70078 35492 "
       id="path794" />
    <path
       d="M70078 35492 L68917 35492 "
       id="path796" />
    <path
       d="M68917 35492 L68917 34292 "
       id="path798" />
    <path
       d="M71082 33170 L71082 32677 "
       id="path800" />
    <path
       d="M71082 32677 L70590 32677 "
       id="path802" />
    <path
       d="M71082 29277 L70590 29277 "
       id="path804" />
    <path
       d="M71082 29770 L71082 29277 "
       id="path806" />
    <path
       d="M68917 32092 L68917 30892 "
       id="path808" />
    <path
       d="M70078 32092 L68917 32092 "
       id="path810" />
    <path
       d="M70078 32388 L70078 32092 "
       id="path812" />
    <path
       d="M68917 30892 L68917 30108 "
       id="path814" />
    <path
       d="M70078 29691 L69551 29691 "
       id="path816" />
    <path
       d="M70078 29396 L70078 29691 "
       id="path818" />
    <path
       d="M70964 32388 L70964 31679 "
       id="path820" />
    <path
       d="M70669 32388 L70964 32388 "
       id="path822" />
    <path
       d="M70669 31679 L70669 32388 "
       id="path824" />
    <path
       d="M70964 31679 L70669 31679 "
       id="path826" />
    <path
       d="M70964 30104 L70964 29396 "
       id="path828" />
    <path
       d="M70669 30104 L70964 30104 "
       id="path830" />
    <path
       d="M70669 29396 L70669 30104 "
       id="path832" />
    <path
       d="M70964 29396 L70669 29396 "
       id="path834" />
    <path
       d="M70964 31088 L70964 30695 "
       id="path836" />
    <path
       d="M70669 31088 L70964 31088 "
       id="path838" />
    <path
       d="M70669 30695 L70669 31088 "
       id="path840" />
    <path
       d="M70964 30695 L70669 30695 "
       id="path842" />
    <path
       d="M70968 32392 L70968 29392 "
       id="path844" />
    <path
       d="M68618 32392 L70968 32392 "
       id="path846" />
    <path
       d="M68618 29392 L68618 32392 "
       id="path848" />
    <path
       d="M70968 29392 L68618 29392 "
       id="path850" />
    <path
       d="M50106 55482 L50106 54990 "
       id="path852" />
    <path
       d="M49614 55482 L50106 55482 "
       id="path854" />
    <path
       d="M46307 53317 L48000 53317 "
       id="path856" />
    <path
       d="M46307 54478 L46307 53317 "
       id="path858" />
    <path
       d="M46011 54478 L46307 54478 "
       id="path860" />
    <path
       d="M48000 53317 L49275 53317 "
       id="path862" />
    <path
       d="M49692 54478 L49692 53951 "
       id="path864" />
    <path
       d="M49988 54478 L49692 54478 "
       id="path866" />
    <path
       d="M46011 55364 L46720 55364 "
       id="path868" />
    <path
       d="M46011 55069 L46011 55364 "
       id="path870" />
    <path
       d="M46720 55069 L46011 55069 "
       id="path872" />
    <path
       d="M46720 55364 L46720 55069 "
       id="path874" />
    <path
       d="M49279 55364 L49988 55364 "
       id="path876" />
    <path
       d="M49279 55069 L49279 55364 "
       id="path878" />
    <path
       d="M49988 55069 L49279 55069 "
       id="path880" />
    <path
       d="M49988 55364 L49988 55069 "
       id="path882" />
    <path
       d="M47311 55364 L48688 55364 "
       id="path884" />
    <path
       d="M47311 55069 L47311 55364 "
       id="path886" />
    <path
       d="M48688 55069 L47311 55069 "
       id="path888" />
    <path
       d="M48688 55364 L48688 55069 "
       id="path890" />
    <path
       d="M46007 55368 L49992 55368 "
       id="path892" />
    <path
       d="M46007 53018 L46007 55368 "
       id="path894" />
    <path
       d="M49992 53018 L46007 53018 "
       id="path896" />
    <path
       d="M49992 55368 L49992 53018 "
       id="path898" />
    <path
       d="M48399 45822 L47824 45822 "
       id="path900" />
    <path
       d="M48399 44577 L47548 44577 "
       id="path902" />
    <path
       d="M48399 44577 L48399 44944 "
       id="path904" />
    <path
       d="M48399 45822 L48399 45455 "
       id="path906" />
    <path
       d="M64799 48372 L64799 48005 "
       id="path908" />
    <path
       d="M64799 47127 L64799 47494 "
       id="path910" />
    <path
       d="M64799 47127 L63948 47127 "
       id="path912" />
    <path
       d="M64799 48372 L64224 48372 "
       id="path914" />
    <path
       d="M64799 45872 L64224 45872 "
       id="path916" />
    <path
       d="M64799 44627 L63948 44627 "
       id="path918" />
    <path
       d="M64799 44627 L64799 44994 "
       id="path920" />
    <path
       d="M64799 45872 L64799 45505 "
       id="path922" />
    <path
       d="M67299 48372 L67299 48005 "
       id="path924" />
    <path
       d="M67299 47127 L67299 47494 "
       id="path926" />
    <path
       d="M67299 47127 L66448 47127 "
       id="path928" />
    <path
       d="M67299 48372 L66724 48372 "
       id="path930" />
    <path
       d="M67299 45872 L67299 45505 "
       id="path932" />
    <path
       d="M67299 44627 L67299 44994 "
       id="path934" />
    <path
       d="M67299 44627 L66448 44627 "
       id="path936" />
    <path
       d="M67299 45872 L66724 45872 "
       id="path938" />
    <path
       d="M64799 41372 L64224 41372 "
       id="path940" />
    <path
       d="M64799 40127 L63948 40127 "
       id="path942" />
    <path
       d="M64799 40127 L64799 40494 "
       id="path944" />
    <path
       d="M64799 41372 L64799 41005 "
       id="path946" />
    <path
       d="M64799 38872 L64224 38872 "
       id="path948" />
    <path
       d="M64799 37627 L63948 37627 "
       id="path950" />
    <path
       d="M64799 37627 L64799 37994 "
       id="path952" />
    <path
       d="M64799 38872 L64799 38505 "
       id="path954" />
    <path
       d="M67299 41372 L66724 41372 "
       id="path956" />
    <path
       d="M67299 40127 L66448 40127 "
       id="path958" />
    <path
       d="M67299 40127 L67299 40494 "
       id="path960" />
    <path
       d="M67299 41372 L67299 41005 "
       id="path962" />
    <path
       d="M67299 38872 L67299 38505 "
       id="path964" />
    <path
       d="M67299 37627 L67299 37994 "
       id="path966" />
    <path
       d="M67299 37627 L66448 37627 "
       id="path968" />
    <path
       d="M67299 38872 L66724 38872 "
       id="path970" />
    <path
       d="M64799 34372 L64224 34372 "
       id="path972" />
    <path
       d="M64799 33127 L63948 33127 "
       id="path974" />
    <path
       d="M64799 33127 L64799 33494 "
       id="path976" />
    <path
       d="M64799 34372 L64799 34005 "
       id="path978" />
    <path
       d="M64799 31872 L64224 31872 "
       id="path980" />
    <path
       d="M64799 30627 L63948 30627 "
       id="path982" />
    <path
       d="M64799 30627 L64799 30994 "
       id="path984" />
    <path
       d="M64799 31872 L64799 31505 "
       id="path986" />
    <path
       d="M67299 34372 L67299 34005 "
       id="path988" />
    <path
       d="M67299 33127 L67299 33494 "
       id="path990" />
    <path
       d="M67299 33127 L66448 33127 "
       id="path992" />
    <path
       d="M67299 34372 L66724 34372 "
       id="path994" />
    <path
       d="M67299 31872 L67299 31505 "
       id="path996" />
    <path
       d="M67299 30627 L67299 30994 "
       id="path998" />
    <path
       d="M67299 30627 L66448 30627 "
       id="path1000" />
    <path
       d="M67299 31872 L66724 31872 "
       id="path1002" />
    <path
       d="M56755 38006 L56755 38193 "
       id="path1004" />
    <path
       d="M56344 38006 L56344 38193 "
       id="path1006" />
    <path
       d="M60906 46044 L61093 46044 "
       id="path1008" />
    <path
       d="M60906 46455 L61093 46455 "
       id="path1010" />
    <path
       d="M60656 39205 L60843 39205 "
       id="path1012" />
    <path
       d="M60656 38794 L60843 38794 "
       id="path1014" />
    <path
       d="M60656 31794 L60843 31794 "
       id="path1016" />
    <path
       d="M60656 32205 L60843 32205 "
       id="path1018" />
    <path
       d="M51656 33955 L51843 33955 "
       id="path1020" />
    <path
       d="M51656 33544 L51843 33544 "
       id="path1022" />
    <path
       d="M47289 43800 L47410 43800 "
       id="path1024" />
    <path
       d="M47289 44099 L47410 44099 "
       id="path1026" />
    <path
       d="M54649 44810 L54649 44689 "
       id="path1028" />
    <path
       d="M54350 44810 L54350 44689 "
       id="path1030" />
    <path
       d="M58399 44810 L58399 44689 "
       id="path1032" />
    <path
       d="M58100 44810 L58100 44689 "
       id="path1034" />
    <path
       d="M46999 44889 L46999 45010 "
       id="path1036" />
    <path
       d="M46700 44889 L46700 45010 "
       id="path1038" />
    <path
       d="M48149 38939 L48149 39060 "
       id="path1040" />
    <path
       d="M47850 38939 L47850 39060 "
       id="path1042" />
    <path
       d="M65600 47189 L65600 47310 "
       id="path1044" />
    <path
       d="M65899 47189 L65899 47310 "
       id="path1046" />
    <path
       d="M65600 44439 L65600 44560 "
       id="path1048" />
    <path
       d="M65899 44439 L65899 44560 "
       id="path1050" />
    <path
       d="M63939 46350 L64060 46350 "
       id="path1052" />
    <path
       d="M63939 46649 L64060 46649 "
       id="path1054" />
    <path
       d="M63939 43850 L64060 43850 "
       id="path1056" />
    <path
       d="M63939 44149 L64060 44149 "
       id="path1058" />
    <path
       d="M65600 40189 L65600 40310 "
       id="path1060" />
    <path
       d="M65899 40189 L65899 40310 "
       id="path1062" />
    <path
       d="M65600 37689 L65600 37810 "
       id="path1064" />
    <path
       d="M65899 37689 L65899 37810 "
       id="path1066" />
    <path
       d="M63689 39600 L63810 39600 "
       id="path1068" />
    <path
       d="M63689 39899 L63810 39899 "
       id="path1070" />
    <path
       d="M63689 36850 L63810 36850 "
       id="path1072" />
    <path
       d="M63689 37149 L63810 37149 "
       id="path1074" />
    <path
       d="M65899 33189 L65899 33310 "
       id="path1076" />
    <path
       d="M65600 33189 L65600 33310 "
       id="path1078" />
    <path
       d="M65600 30689 L65600 30810 "
       id="path1080" />
    <path
       d="M65899 30689 L65899 30810 "
       id="path1082" />
    <path
       d="M63439 32899 L63560 32899 "
       id="path1084" />
    <path
       d="M63439 32600 L63560 32600 "
       id="path1086" />
    <path
       d="M63439 30100 L63560 30100 "
       id="path1088" />
    <path
       d="M63439 30399 L63560 30399 "
       id="path1090" />
    <circle
       cx="54500"
       cy="43750"
       r="275.591"
       id="circle1092" />
    <circle
       cx="58250"
       cy="43750"
       r="275.591"
       id="circle1094" />
    <circle
       cx="61500"
       cy="45000"
       r="275.591"
       id="circle1096" />
    <circle
       cx="61500"
       cy="37750"
       r="275.591"
       id="circle1098" />
    <circle
       cx="61250"
       cy="30750"
       r="275.591"
       id="circle1100" />
    <path
       d="M55580 39856 L55580 39669 "
       id="path1102" />
    <path
       d="M53919 41330 L54106 41330 "
       id="path1104" />
    <path
       d="M53919 41143 L53919 41330 "
       id="path1106" />
    <path
       d="M53919 39669 L54106 39669 "
       id="path1108" />
    <path
       d="M53919 39856 L53919 39669 "
       id="path1110" />
    <path
       d="M55580 41330 L55393 41330 "
       id="path1112" />
    <path
       d="M55580 41143 L55580 41330 "
       id="path1114" />
    <path
       d="M50492 29250 L50492 30608 "
       id="path1116" />
    <path
       d="M50492 29250 L50492 28482 "
       id="path1118" />
    <path
       d="M52507 29250 L52507 30017 "
       id="path1120" />
    <path
       d="M52507 29250 L52507 28482 "
       id="path1122" />
  </g>
  <g
     style="fill:#000000; fill-opacity:0.0;  stroke:#000000; stroke-width:50; stroke-opacity:1;  stroke-linecap:round; stroke-linejoin:round;"
     id="g1130"
     inkscape:export-filename="/home/justb/Documents/KiCad/ring_light_controller/svg/g1350.png"
     inkscape:export-xdpi="1500"
     inkscape:export-ydpi="1500">
    <path
       d="M54960 46411 L54960 49088 "
       id="path1126" />
    <path
       d="M53039 49088 L53039 46411 "
       id="path1128" />
  </g>
  <g
     style="fill:#000000; fill-opacity:0.0;  stroke:#000000; stroke-width:78.7402; stroke-opacity:1;  stroke-linecap:round; stroke-linejoin:round;"
     id="g1136"
     inkscape:export-filename="/home/justb/Documents/KiCad/ring_light_controller/svg/g1350.png"
     inkscape:export-xdpi="1500"
     inkscape:export-ydpi="1500">
    <circle
       cx="54492.1"
       cy="45289.4"
       r="39.3701"
       id="circle1132" />
    <circle
       cx="58242.1"
       cy="45289.4"
       r="39.3701"
       id="circle1134" />
  </g>
  <g
     style="fill:#000000; fill-opacity:0.0;  stroke:#000000; stroke-width:50; stroke-opacity:1;  stroke-linecap:round; stroke-linejoin:round;"
     id="g1142"
     inkscape:export-filename="/home/justb/Documents/KiCad/ring_light_controller/svg/g1350.png"
     inkscape:export-xdpi="1500"
     inkscape:export-ydpi="1500">
    <path
       d="M56789 49088 L56789 46411 "
       id="path1138" />
    <path
       d="M58710 46411 L58710 49088 "
       id="path1140" />
  </g>
  <g
     style="fill:#000000; fill-opacity:0.0;  stroke:#000000; stroke-width:47.2441; stroke-opacity:1;  stroke-linecap:round; stroke-linejoin:round;"
     id="g1350"
     inkscape:export-filename="/home/justb/Documents/KiCad/ring_light_controller/svg/g1350.png"
     inkscape:export-xdpi="1500"
     inkscape:export-ydpi="1500">
    <path
       d="M52210 43935 L52210 44834 "
       id="path1144" />
    <path
       d="M52210 44834 L52789 44834 "
       id="path1146" />
    <path
       d="M52789 44834 L52789 43935 "
       id="path1148" />
    <path
       d="M56539 44834 L56539 43935 "
       id="path1150" />
    <path
       d="M55960 44834 L56539 44834 "
       id="path1152" />
    <path
       d="M55960 43935 L55960 44834 "
       id="path1154" />
    <path
       d="M53044 44156 L53044 44343 "
       id="path1156" />
    <path
       d="M53455 44156 L53455 44343 "
       id="path1158" />
    <path
       d="M57205 44156 L57205 44343 "
       id="path1160" />
    <path
       d="M56794 44156 L56794 44343 "
       id="path1162" />
    <path
       d="M48667 40622 L49159 40622 "
       id="path1164" />
    <path
       d="M48667 40129 L48667 40622 "
       id="path1166" />
    <path
       d="M50832 37807 L50832 39007 "
       id="path1168" />
    <path
       d="M49671 37807 L50832 37807 "
       id="path1170" />
    <path
       d="M49671 37511 L49671 37807 "
       id="path1172" />
    <path
       d="M50832 39007 L50832 39791 "
       id="path1174" />
    <path
       d="M49671 40208 L50198 40208 "
       id="path1176" />
    <path
       d="M49671 40503 L49671 40208 "
       id="path1178" />
    <path
       d="M48785 37511 L48785 38220 "
       id="path1180" />
    <path
       d="M49080 37511 L48785 37511 "
       id="path1182" />
    <path
       d="M49080 38220 L49080 37511 "
       id="path1184" />
    <path
       d="M48785 38220 L49080 38220 "
       id="path1186" />
    <path
       d="M48785 39795 L48785 40503 "
       id="path1188" />
    <path
       d="M49080 39795 L48785 39795 "
       id="path1190" />
    <path
       d="M49080 40503 L49080 39795 "
       id="path1192" />
    <path
       d="M48785 40503 L49080 40503 "
       id="path1194" />
    <path
       d="M48785 38811 L48785 39204 "
       id="path1196" />
    <path
       d="M49080 38811 L48785 38811 "
       id="path1198" />
    <path
       d="M49080 39204 L49080 38811 "
       id="path1200" />
    <path
       d="M48785 39204 L49080 39204 "
       id="path1202" />
    <path
       d="M48781 37507 L48781 40507 "
       id="path1204" />
    <path
       d="M51131 37507 L48781 37507 "
       id="path1206" />
    <path
       d="M51131 40507 L51131 37507 "
       id="path1208" />
    <path
       d="M48781 40507 L51131 40507 "
       id="path1210" />
    <circle
       cx="52800"
       cy="37400"
       r="275.591"
       id="circle1212" />
    <path
       d="M58730 36480 L57549 36480 "
       id="path1214" />
    <path
       d="M58730 31519 L58730 36480 "
       id="path1216" />
    <path
       d="M57549 31519 L58730 31519 "
       id="path1218" />
    <path
       d="M53769 31519 L54950 31519 "
       id="path1220" />
    <path
       d="M53769 36480 L53769 31519 "
       id="path1222" />
    <path
       d="M54950 36480 L53769 36480 "
       id="path1224" />
    <path
       d="M62391 47463 L62391 48036 "
       id="path1226" />
    <path
       d="M63108 47463 L63108 48036 "
       id="path1228" />
    <path
       d="M63108 44713 L63108 45286 "
       id="path1230" />
    <path
       d="M62391 44713 L62391 45286 "
       id="path1232" />
    <path
       d="M63108 40463 L63108 41036 "
       id="path1234" />
    <path
       d="M62391 40463 L62391 41036 "
       id="path1236" />
    <path
       d="M62391 37713 L62391 38286 "
       id="path1238" />
    <path
       d="M63108 37713 L63108 38286 "
       id="path1240" />
    <path
       d="M62241 33463 L62241 34036 "
       id="path1242" />
    <path
       d="M62958 33463 L62958 34036 "
       id="path1244" />
    <path
       d="M62958 30713 L62958 31286 "
       id="path1246" />
    <path
       d="M62241 30713 L62241 31286 "
       id="path1248" />
    <path
       d="M58923 38876 L57876 38876 "
       id="path1250" />
    <path
       d="M58923 40900 L58923 38876 "
       id="path1252" />
    <path
       d="M57876 40900 L57876 38876 "
       id="path1254" />
    <path
       d="M58923 40900 L57876 40900 "
       id="path1256" />
    <path
       d="M58923 41400 L58923 41923 "
       id="path1258" />
    <path
       d="M58923 41923 L58400 41923 "
       id="path1260" />
    <path
       d="M39470 48420 L38800 48420 "
       id="path1262" />
    <path
       d="M38798 48420 L38798 48223 "
       id="path1264" />
    <path
       d="M38798 48223 L37814 48223 "
       id="path1266" />
    <path
       d="M37814 48223 L37814 46176 "
       id="path1268" />
    <path
       d="M37814 46176 L39000 46176 "
       id="path1270" />
    <path
       d="M39000 46176 L39000 45979 "
       id="path1272" />
    <path
       d="M39000 45979 L40258 45979 "
       id="path1274" />
    <path
       d="M40950 45979 L43335 45979 "
       id="path1276" />
    <path
       d="M43335 45979 L43335 48420 "
       id="path1278" />
    <path
       d="M43335 48420 L42900 48420 "
       id="path1280" />
    <path
       d="M42200 48420 L40150 48420 "
       id="path1282" />
    <path
       d="M39470 48420 L39470 49207 "
       id="path1284" />
    <path
       d="M40150 48420 L40150 49207 "
       id="path1286" />
    <circle
       cx="46203.5"
       cy="42403.5"
       r="275.591"
       id="circle1288" />
    <circle
       cx="48200"
       cy="48800"
       r="275.591"
       id="circle1290" />
    <circle
       cx="46000"
       cy="35000"
       r="275.591"
       id="circle1292" />
    <path
       d="M41376 38123 L41376 37223 "
       id="path1294" />
    <path
       d="M41376 37223 L40797 37223 "
       id="path1296" />
    <path
       d="M40797 37223 L40797 38123 "
       id="path1298" />
    <path
       d="M42005 37706 L42005 37893 "
       id="path1300" />
    <path
       d="M41594 37706 L41594 37893 "
       id="path1302" />
    <path
       d="M45489 43984 L45489 43085 "
       id="path1304" />
    <path
       d="M44910 43984 L45489 43984 "
       id="path1306" />
    <path
       d="M44910 43085 L44910 43984 "
       id="path1308" />
    <path
       d="M45489 48914 L45489 48015 "
       id="path1310" />
    <path
       d="M45489 48015 L44910 48015 "
       id="path1312" />
    <path
       d="M44910 48015 L44910 48914 "
       id="path1314" />
    <path
       d="M45850 43339 L45850 43460 "
       id="path1316" />
    <path
       d="M46149 43339 L46149 43460 "
       id="path1318" />
    <path
       d="M45850 48660 L45850 48539 "
       id="path1320" />
    <path
       d="M46149 48660 L46149 48539 "
       id="path1322" />
    <path
       d="M61460 48149 L61339 48149 "
       id="path1324" />
    <path
       d="M61460 47850 L61339 47850 "
       id="path1326" />
    <path
       d="M61460 43450 L61339 43450 "
       id="path1328" />
    <path
       d="M61460 43749 L61339 43749 "
       id="path1330" />
    <path
       d="M61460 40650 L61339 40650 "
       id="path1332" />
    <path
       d="M61460 40949 L61339 40949 "
       id="path1334" />
    <path
       d="M61660 36749 L61539 36749 "
       id="path1336" />
    <path
       d="M61660 36450 L61539 36450 "
       id="path1338" />
    <path
       d="M61460 33949 L61339 33949 "
       id="path1340" />
    <path
       d="M61460 33650 L61339 33650 "
       id="path1342" />
    <path
       d="M61260 29450 L61139 29450 "
       id="path1344" />
    <path
       d="M61260 29749 L61139 29749 "
       id="path1346" />
    <g
       id="g1348" />
  </g>
</svg>
