<?xml version="1.0" standalone="no"?>
 <!DOCTYPE svg PUBLIC "-//W3C//DTD SVG 1.1//EN" 
 "http://www.w3.org/Graphics/SVG/1.1/DTD/svg11.dtd"> 
<svg
  xmlns:svg="http://www.w3.org/2000/svg"
  xmlns="http://www.w3.org/2000/svg"
  xmlns:xlink="http://www.w3.org/1999/xlink"
  version="1.1"
  width="29.700220cm" height="21.000720cm" viewBox="0 0 116930 82680">
<title>SVG Picture created as ring_light_controller-B_Mask.svg date 2021/09/07 15:05:37 </title>
  <desc>Picture generated by PCBNEW </desc>
<g style="fill:#000000; fill-opacity:1;stroke:#000000; stroke-opacity:1;
stroke-linecap:round; stroke-linejoin:round;"
 transform="translate(0 0) scale(1 1)">
</g>
<g style="fill:#000000; fill-opacity:0.0; 
stroke:#000000; stroke-width:-0.000393701; stroke-opacity:1; 
stroke-linecap:round; stroke-linejoin:round;">
<g >
</g>
<g >
</g>
<g >
</g>
<g style="fill:#000000; fill-opacity:0.0; 
stroke:#000000; stroke-width:-0.000393701; stroke-opacity:1; 
stroke-linecap:round; stroke-linejoin:round;">
</g>
<g style="fill:#000000; fill-opacity:1.0; 
stroke:#000000; stroke-width:0; stroke-opacity:1; 
stroke-linecap:round; stroke-linejoin:round;">
<circle cx="39812.6" cy="42000" r="295.276" /> 
</g>
<g style="fill:#000000; fill-opacity:1.0; 
stroke:#000000; stroke-width:39.3701; stroke-opacity:1; 
stroke-linecap:round; stroke-linejoin:round;">
</g>
<g style="fill:#000000; fill-opacity:1.0; 
stroke:#000000; stroke-width:0; stroke-opacity:1; 
stroke-linecap:round; stroke-linejoin:round;">
<circle cx="42174.8" cy="42000" r="295.276" /> 
</g>
<g style="fill:#000000; fill-opacity:1.0; 
stroke:#000000; stroke-width:39.3701; stroke-opacity:1; 
stroke-linecap:round; stroke-linejoin:round;">
</g>
<g >
</g>
<g >
</g>
<g style="fill:#000000; fill-opacity:1.0; 
stroke:#000000; stroke-width:39.3701; stroke-opacity:1; 
stroke-linecap:round; stroke-linejoin:round;">
</g>
<g style="fill:#000000; fill-opacity:1.0; 
stroke:#000000; stroke-width:0; stroke-opacity:1; 
stroke-linecap:round; stroke-linejoin:round;">
<path style="fill:#000000; fill-opacity:1.0; 
stroke:#000000; stroke-width:0; stroke-opacity:1; 
stroke-linecap:round; stroke-linejoin:round;fill-rule:evenodd;"
d="M 70304.9,40465.8
70314.5,40467.2
70323.8,40469.6
70332.9,40472.8
70341.7,40477
70350,40481.9
70357.7,40487.7
70364.9,40494.2
70371.4,40501.3
70377.1,40509.1
70382.1,40517.4
70386.2,40526.1
70389.5,40535.2
70391.8,40544.6
70393.2,40554.1
70393.7,40563.8
70393.7,41036.2
70393.2,41045.9
70391.8,41055.4
70389.5,41064.8
70386.2,41073.9
70382.1,41082.6
70377.1,41090.9
70371.4,41098.7
70364.9,41105.8
70357.7,41112.3
70350,41118.1
70341.7,41123
70332.9,41127.2
70323.8,41130.4
70314.5,41132.8
70304.9,41134.2
70295.3,41134.6
69704.7,41134.6
69695.1,41134.2
69685.5,41132.8
69676.2,41130.4
69667.1,41127.2
69658.3,41123
69650,41118.1
69642.3,41112.3
69635.1,41105.8
69628.6,41098.7
69622.9,41090.9
69617.9,41082.6
69613.8,41073.9
69610.5,41064.8
69608.2,41055.4
69606.8,41045.9
69606.3,41036.2
69606.3,40563.8
69606.8,40554.1
69608.2,40544.6
69610.5,40535.2
69613.8,40526.1
69617.9,40517.4
69622.9,40509.1
69628.6,40501.3
69635.1,40494.2
69642.3,40487.7
69650,40481.9
69658.3,40477
69667.1,40472.8
69676.2,40469.6
69685.5,40467.2
69695.1,40465.8
69704.7,40465.4
70295.3,40465.4
Z" /> 
</g>
<g style="fill:#000000; fill-opacity:1.0; 
stroke:#000000; stroke-width:669.291; stroke-opacity:1; 
stroke-linecap:round; stroke-linejoin:round;">
</g>
<g style="fill:#000000; fill-opacity:0.0; 
stroke:#000000; stroke-width:669.291; stroke-opacity:1; 
stroke-linecap:round; stroke-linejoin:round;">
<path d="M70059 41784
L69940 41784
" />
</g>
<g style="fill:#000000; fill-opacity:1.0; 
stroke:#000000; stroke-width:0; stroke-opacity:1; 
stroke-linecap:round; stroke-linejoin:round;">
<circle cx="69212.6" cy="40170.1" r="236.22" /> 
</g>
<g style="fill:#000000; fill-opacity:1.0; 
stroke:#000000; stroke-width:39.3701; stroke-opacity:1; 
stroke-linecap:round; stroke-linejoin:round;">
</g>
<g >
</g>
<g style="fill:#000000; fill-opacity:1.0; 
stroke:#000000; stroke-width:39.3701; stroke-opacity:1; 
stroke-linecap:round; stroke-linejoin:round;">
</g>
<g style="fill:#000000; fill-opacity:1.0; 
stroke:#000000; stroke-width:0; stroke-opacity:1; 
stroke-linecap:round; stroke-linejoin:round;">
<circle cx="56000" cy="52994.1" r="255.906" /> 
</g>
<g style="fill:#000000; fill-opacity:1.0; 
stroke:#000000; stroke-width:39.3701; stroke-opacity:1; 
stroke-linecap:round; stroke-linejoin:round;">
</g>
<g style="fill:#000000; fill-opacity:1.0; 
stroke:#000000; stroke-width:0; stroke-opacity:1; 
stroke-linecap:round; stroke-linejoin:round;">
<circle cx="56000" cy="54962.6" r="255.906" /> 
</g>
<g style="fill:#000000; fill-opacity:1.0; 
stroke:#000000; stroke-width:39.3701; stroke-opacity:1; 
stroke-linecap:round; stroke-linejoin:round;">
</g>
<g >
</g>
<g >
</g>
<g >
</g>
<g >
</g>
<g >
</g>
<g >
</g>
<g >
</g>
<g >
</g>
<g >
</g>
<g >
</g>
<g >
</g>
<g >
</g>
<g style="fill:#000000; fill-opacity:1.0; 
stroke:#000000; stroke-width:39.3701; stroke-opacity:1; 
stroke-linecap:round; stroke-linejoin:round;">
</g>
<g style="fill:#000000; fill-opacity:1.0; 
stroke:#000000; stroke-width:0; stroke-opacity:1; 
stroke-linecap:round; stroke-linejoin:round;">
<circle cx="69606.6" cy="51893.4" r="177.165" /> 
</g>
<g style="fill:#000000; fill-opacity:1.0; 
stroke:#000000; stroke-width:39.3701; stroke-opacity:1; 
stroke-linecap:round; stroke-linejoin:round;">
</g>
<g style="fill:#000000; fill-opacity:1.0; 
stroke:#000000; stroke-width:0; stroke-opacity:1; 
stroke-linecap:round; stroke-linejoin:round;">
<circle cx="68500" cy="51435" r="177.165" /> 
</g>
<g style="fill:#000000; fill-opacity:1.0; 
stroke:#000000; stroke-width:39.3701; stroke-opacity:1; 
stroke-linecap:round; stroke-linejoin:round;">
</g>
<g style="fill:#000000; fill-opacity:1.0; 
stroke:#000000; stroke-width:0; stroke-opacity:1; 
stroke-linecap:round; stroke-linejoin:round;">
<circle cx="67393.4" cy="51893.4" r="177.165" /> 
</g>
<g style="fill:#000000; fill-opacity:1.0; 
stroke:#000000; stroke-width:39.3701; stroke-opacity:1; 
stroke-linecap:round; stroke-linejoin:round;">
</g>
<g style="fill:#000000; fill-opacity:1.0; 
stroke:#000000; stroke-width:0; stroke-opacity:1; 
stroke-linecap:round; stroke-linejoin:round;">
<circle cx="66935" cy="53000" r="177.165" /> 
</g>
<g style="fill:#000000; fill-opacity:1.0; 
stroke:#000000; stroke-width:39.3701; stroke-opacity:1; 
stroke-linecap:round; stroke-linejoin:round;">
</g>
<g style="fill:#000000; fill-opacity:1.0; 
stroke:#000000; stroke-width:0; stroke-opacity:1; 
stroke-linecap:round; stroke-linejoin:round;">
<circle cx="67393.4" cy="54106.6" r="177.165" /> 
</g>
<g style="fill:#000000; fill-opacity:1.0; 
stroke:#000000; stroke-width:39.3701; stroke-opacity:1; 
stroke-linecap:round; stroke-linejoin:round;">
</g>
<g style="fill:#000000; fill-opacity:1.0; 
stroke:#000000; stroke-width:0; stroke-opacity:1; 
stroke-linecap:round; stroke-linejoin:round;">
<circle cx="68500" cy="54565" r="177.165" /> 
</g>
<g style="fill:#000000; fill-opacity:1.0; 
stroke:#000000; stroke-width:39.3701; stroke-opacity:1; 
stroke-linecap:round; stroke-linejoin:round;">
</g>
<g style="fill:#000000; fill-opacity:1.0; 
stroke:#000000; stroke-width:0; stroke-opacity:1; 
stroke-linecap:round; stroke-linejoin:round;">
<circle cx="69606.6" cy="54106.6" r="177.165" /> 
</g>
<g style="fill:#000000; fill-opacity:1.0; 
stroke:#000000; stroke-width:39.3701; stroke-opacity:1; 
stroke-linecap:round; stroke-linejoin:round;">
</g>
<g style="fill:#000000; fill-opacity:1.0; 
stroke:#000000; stroke-width:0; stroke-opacity:1; 
stroke-linecap:round; stroke-linejoin:round;">
<circle cx="70065" cy="53000" r="177.165" /> 
</g>
<g style="fill:#000000; fill-opacity:1.0; 
stroke:#000000; stroke-width:39.3701; stroke-opacity:1; 
stroke-linecap:round; stroke-linejoin:round;">
</g>
<g style="fill:#000000; fill-opacity:1.0; 
stroke:#000000; stroke-width:0; stroke-opacity:1; 
stroke-linecap:round; stroke-linejoin:round;">
<circle cx="68500" cy="53000" r="2086.61" /> 
</g>
<g style="fill:#000000; fill-opacity:1.0; 
stroke:#000000; stroke-width:39.3701; stroke-opacity:1; 
stroke-linecap:round; stroke-linejoin:round;">
</g>
<g >
</g>
<g style="fill:#000000; fill-opacity:1.0; 
stroke:#000000; stroke-width:39.3701; stroke-opacity:1; 
stroke-linecap:round; stroke-linejoin:round;">
</g>
<g style="fill:#000000; fill-opacity:1.0; 
stroke:#000000; stroke-width:0; stroke-opacity:1; 
stroke-linecap:round; stroke-linejoin:round;">
<circle cx="68500" cy="26000" r="2086.61" /> 
</g>
<g style="fill:#000000; fill-opacity:1.0; 
stroke:#000000; stroke-width:39.3701; stroke-opacity:1; 
stroke-linecap:round; stroke-linejoin:round;">
</g>
<g style="fill:#000000; fill-opacity:1.0; 
stroke:#000000; stroke-width:0; stroke-opacity:1; 
stroke-linecap:round; stroke-linejoin:round;">
<circle cx="70065" cy="26000" r="177.165" /> 
</g>
<g style="fill:#000000; fill-opacity:1.0; 
stroke:#000000; stroke-width:39.3701; stroke-opacity:1; 
stroke-linecap:round; stroke-linejoin:round;">
</g>
<g style="fill:#000000; fill-opacity:1.0; 
stroke:#000000; stroke-width:0; stroke-opacity:1; 
stroke-linecap:round; stroke-linejoin:round;">
<circle cx="69606.6" cy="27106.6" r="177.165" /> 
</g>
<g style="fill:#000000; fill-opacity:1.0; 
stroke:#000000; stroke-width:39.3701; stroke-opacity:1; 
stroke-linecap:round; stroke-linejoin:round;">
</g>
<g style="fill:#000000; fill-opacity:1.0; 
stroke:#000000; stroke-width:0; stroke-opacity:1; 
stroke-linecap:round; stroke-linejoin:round;">
<circle cx="68500" cy="27565" r="177.165" /> 
</g>
<g style="fill:#000000; fill-opacity:1.0; 
stroke:#000000; stroke-width:39.3701; stroke-opacity:1; 
stroke-linecap:round; stroke-linejoin:round;">
</g>
<g style="fill:#000000; fill-opacity:1.0; 
stroke:#000000; stroke-width:0; stroke-opacity:1; 
stroke-linecap:round; stroke-linejoin:round;">
<circle cx="67393.4" cy="27106.6" r="177.165" /> 
</g>
<g style="fill:#000000; fill-opacity:1.0; 
stroke:#000000; stroke-width:39.3701; stroke-opacity:1; 
stroke-linecap:round; stroke-linejoin:round;">
</g>
<g style="fill:#000000; fill-opacity:1.0; 
stroke:#000000; stroke-width:0; stroke-opacity:1; 
stroke-linecap:round; stroke-linejoin:round;">
<circle cx="66935" cy="26000" r="177.165" /> 
</g>
<g style="fill:#000000; fill-opacity:1.0; 
stroke:#000000; stroke-width:39.3701; stroke-opacity:1; 
stroke-linecap:round; stroke-linejoin:round;">
</g>
<g style="fill:#000000; fill-opacity:1.0; 
stroke:#000000; stroke-width:0; stroke-opacity:1; 
stroke-linecap:round; stroke-linejoin:round;">
<circle cx="67393.4" cy="24893.4" r="177.165" /> 
</g>
<g style="fill:#000000; fill-opacity:1.0; 
stroke:#000000; stroke-width:39.3701; stroke-opacity:1; 
stroke-linecap:round; stroke-linejoin:round;">
</g>
<g style="fill:#000000; fill-opacity:1.0; 
stroke:#000000; stroke-width:0; stroke-opacity:1; 
stroke-linecap:round; stroke-linejoin:round;">
<circle cx="68500" cy="24435" r="177.165" /> 
</g>
<g style="fill:#000000; fill-opacity:1.0; 
stroke:#000000; stroke-width:39.3701; stroke-opacity:1; 
stroke-linecap:round; stroke-linejoin:round;">
</g>
<g style="fill:#000000; fill-opacity:1.0; 
stroke:#000000; stroke-width:0; stroke-opacity:1; 
stroke-linecap:round; stroke-linejoin:round;">
<circle cx="69606.6" cy="24893.4" r="177.165" /> 
</g>
<g style="fill:#000000; fill-opacity:1.0; 
stroke:#000000; stroke-width:39.3701; stroke-opacity:1; 
stroke-linecap:round; stroke-linejoin:round;">
</g>
<g >
</g>
<g style="fill:#000000; fill-opacity:1.0; 
stroke:#000000; stroke-width:39.3701; stroke-opacity:1; 
stroke-linecap:round; stroke-linejoin:round;">
</g>
<g style="fill:#000000; fill-opacity:1.0; 
stroke:#000000; stroke-width:0; stroke-opacity:1; 
stroke-linecap:round; stroke-linejoin:round;">
<circle cx="42856.6" cy="24893.4" r="177.165" /> 
</g>
<g style="fill:#000000; fill-opacity:1.0; 
stroke:#000000; stroke-width:39.3701; stroke-opacity:1; 
stroke-linecap:round; stroke-linejoin:round;">
</g>
<g style="fill:#000000; fill-opacity:1.0; 
stroke:#000000; stroke-width:0; stroke-opacity:1; 
stroke-linecap:round; stroke-linejoin:round;">
<circle cx="41750" cy="24435" r="177.165" /> 
</g>
<g style="fill:#000000; fill-opacity:1.0; 
stroke:#000000; stroke-width:39.3701; stroke-opacity:1; 
stroke-linecap:round; stroke-linejoin:round;">
</g>
<g style="fill:#000000; fill-opacity:1.0; 
stroke:#000000; stroke-width:0; stroke-opacity:1; 
stroke-linecap:round; stroke-linejoin:round;">
<circle cx="40643.4" cy="24893.4" r="177.165" /> 
</g>
<g style="fill:#000000; fill-opacity:1.0; 
stroke:#000000; stroke-width:39.3701; stroke-opacity:1; 
stroke-linecap:round; stroke-linejoin:round;">
</g>
<g style="fill:#000000; fill-opacity:1.0; 
stroke:#000000; stroke-width:0; stroke-opacity:1; 
stroke-linecap:round; stroke-linejoin:round;">
<circle cx="40185" cy="26000" r="177.165" /> 
</g>
<g style="fill:#000000; fill-opacity:1.0; 
stroke:#000000; stroke-width:39.3701; stroke-opacity:1; 
stroke-linecap:round; stroke-linejoin:round;">
</g>
<g style="fill:#000000; fill-opacity:1.0; 
stroke:#000000; stroke-width:0; stroke-opacity:1; 
stroke-linecap:round; stroke-linejoin:round;">
<circle cx="40643.4" cy="27106.6" r="177.165" /> 
</g>
<g style="fill:#000000; fill-opacity:1.0; 
stroke:#000000; stroke-width:39.3701; stroke-opacity:1; 
stroke-linecap:round; stroke-linejoin:round;">
</g>
<g style="fill:#000000; fill-opacity:1.0; 
stroke:#000000; stroke-width:0; stroke-opacity:1; 
stroke-linecap:round; stroke-linejoin:round;">
<circle cx="41750" cy="27565" r="177.165" /> 
</g>
<g style="fill:#000000; fill-opacity:1.0; 
stroke:#000000; stroke-width:39.3701; stroke-opacity:1; 
stroke-linecap:round; stroke-linejoin:round;">
</g>
<g style="fill:#000000; fill-opacity:1.0; 
stroke:#000000; stroke-width:0; stroke-opacity:1; 
stroke-linecap:round; stroke-linejoin:round;">
<circle cx="42856.6" cy="27106.6" r="177.165" /> 
</g>
<g style="fill:#000000; fill-opacity:1.0; 
stroke:#000000; stroke-width:39.3701; stroke-opacity:1; 
stroke-linecap:round; stroke-linejoin:round;">
</g>
<g style="fill:#000000; fill-opacity:1.0; 
stroke:#000000; stroke-width:0; stroke-opacity:1; 
stroke-linecap:round; stroke-linejoin:round;">
<circle cx="43315" cy="26000" r="177.165" /> 
</g>
<g style="fill:#000000; fill-opacity:1.0; 
stroke:#000000; stroke-width:39.3701; stroke-opacity:1; 
stroke-linecap:round; stroke-linejoin:round;">
</g>
<g style="fill:#000000; fill-opacity:1.0; 
stroke:#000000; stroke-width:0; stroke-opacity:1; 
stroke-linecap:round; stroke-linejoin:round;">
<circle cx="41750" cy="26000" r="2086.61" /> 
</g>
<g style="fill:#000000; fill-opacity:1.0; 
stroke:#000000; stroke-width:39.3701; stroke-opacity:1; 
stroke-linecap:round; stroke-linejoin:round;">
</g>
<g >
</g>
<g style="fill:#000000; fill-opacity:1.0; 
stroke:#000000; stroke-width:39.3701; stroke-opacity:1; 
stroke-linecap:round; stroke-linejoin:round;">
</g>
<g style="fill:#000000; fill-opacity:1.0; 
stroke:#000000; stroke-width:0; stroke-opacity:1; 
stroke-linecap:round; stroke-linejoin:round;">
<circle cx="41750" cy="53000" r="2086.61" /> 
</g>
<g style="fill:#000000; fill-opacity:1.0; 
stroke:#000000; stroke-width:39.3701; stroke-opacity:1; 
stroke-linecap:round; stroke-linejoin:round;">
</g>
<g style="fill:#000000; fill-opacity:1.0; 
stroke:#000000; stroke-width:0; stroke-opacity:1; 
stroke-linecap:round; stroke-linejoin:round;">
<circle cx="43315" cy="53000" r="177.165" /> 
</g>
<g style="fill:#000000; fill-opacity:1.0; 
stroke:#000000; stroke-width:39.3701; stroke-opacity:1; 
stroke-linecap:round; stroke-linejoin:round;">
</g>
<g style="fill:#000000; fill-opacity:1.0; 
stroke:#000000; stroke-width:0; stroke-opacity:1; 
stroke-linecap:round; stroke-linejoin:round;">
<circle cx="42856.6" cy="54106.6" r="177.165" /> 
</g>
<g style="fill:#000000; fill-opacity:1.0; 
stroke:#000000; stroke-width:39.3701; stroke-opacity:1; 
stroke-linecap:round; stroke-linejoin:round;">
</g>
<g style="fill:#000000; fill-opacity:1.0; 
stroke:#000000; stroke-width:0; stroke-opacity:1; 
stroke-linecap:round; stroke-linejoin:round;">
<circle cx="41750" cy="54565" r="177.165" /> 
</g>
<g style="fill:#000000; fill-opacity:1.0; 
stroke:#000000; stroke-width:39.3701; stroke-opacity:1; 
stroke-linecap:round; stroke-linejoin:round;">
</g>
<g style="fill:#000000; fill-opacity:1.0; 
stroke:#000000; stroke-width:0; stroke-opacity:1; 
stroke-linecap:round; stroke-linejoin:round;">
<circle cx="40643.4" cy="54106.6" r="177.165" /> 
</g>
<g style="fill:#000000; fill-opacity:1.0; 
stroke:#000000; stroke-width:39.3701; stroke-opacity:1; 
stroke-linecap:round; stroke-linejoin:round;">
</g>
<g style="fill:#000000; fill-opacity:1.0; 
stroke:#000000; stroke-width:0; stroke-opacity:1; 
stroke-linecap:round; stroke-linejoin:round;">
<circle cx="40185" cy="53000" r="177.165" /> 
</g>
<g style="fill:#000000; fill-opacity:1.0; 
stroke:#000000; stroke-width:39.3701; stroke-opacity:1; 
stroke-linecap:round; stroke-linejoin:round;">
</g>
<g style="fill:#000000; fill-opacity:1.0; 
stroke:#000000; stroke-width:0; stroke-opacity:1; 
stroke-linecap:round; stroke-linejoin:round;">
<circle cx="40643.4" cy="51893.4" r="177.165" /> 
</g>
<g style="fill:#000000; fill-opacity:1.0; 
stroke:#000000; stroke-width:39.3701; stroke-opacity:1; 
stroke-linecap:round; stroke-linejoin:round;">
</g>
<g style="fill:#000000; fill-opacity:1.0; 
stroke:#000000; stroke-width:0; stroke-opacity:1; 
stroke-linecap:round; stroke-linejoin:round;">
<circle cx="41750" cy="51435" r="177.165" /> 
</g>
<g style="fill:#000000; fill-opacity:1.0; 
stroke:#000000; stroke-width:39.3701; stroke-opacity:1; 
stroke-linecap:round; stroke-linejoin:round;">
</g>
<g style="fill:#000000; fill-opacity:1.0; 
stroke:#000000; stroke-width:0; stroke-opacity:1; 
stroke-linecap:round; stroke-linejoin:round;">
<circle cx="42856.6" cy="51893.4" r="177.165" /> 
</g>
<g style="fill:#000000; fill-opacity:1.0; 
stroke:#000000; stroke-width:39.3701; stroke-opacity:1; 
stroke-linecap:round; stroke-linejoin:round;">
</g>
<g >
</g>
<g style="fill:#000000; fill-opacity:1.0; 
stroke:#000000; stroke-width:39.3701; stroke-opacity:1; 
stroke-linecap:round; stroke-linejoin:round;">
</g>
<g style="fill:#000000; fill-opacity:1.0; 
stroke:#000000; stroke-width:0; stroke-opacity:1; 
stroke-linecap:round; stroke-linejoin:round;">
<circle cx="69212.6" cy="47170.1" r="236.22" /> 
</g>
<g style="fill:#000000; fill-opacity:1.0; 
stroke:#000000; stroke-width:39.3701; stroke-opacity:1; 
stroke-linecap:round; stroke-linejoin:round;">
</g>
<g style="fill:#000000; fill-opacity:1.0; 
stroke:#000000; stroke-width:669.291; stroke-opacity:1; 
stroke-linecap:round; stroke-linejoin:round;">
</g>
<g style="fill:#000000; fill-opacity:0.0; 
stroke:#000000; stroke-width:669.291; stroke-opacity:1; 
stroke-linecap:round; stroke-linejoin:round;">
<path d="M70059 48784
L69940 48784
" />
</g>
<g style="fill:#000000; fill-opacity:0.0; 
stroke:#000000; stroke-width:0; stroke-opacity:1; 
stroke-linecap:round; stroke-linejoin:round;">
</g>
<g style="fill:#000000; fill-opacity:1.0; 
stroke:#000000; stroke-width:0; stroke-opacity:1; 
stroke-linecap:round; stroke-linejoin:round;">
<path style="fill:#000000; fill-opacity:1.0; 
stroke:#000000; stroke-width:0; stroke-opacity:1; 
stroke-linecap:round; stroke-linejoin:round;fill-rule:evenodd;"
d="M 70304.9,47465.8
70314.5,47467.2
70323.8,47469.6
70332.9,47472.8
70341.7,47477
70350,47481.9
70357.7,47487.7
70364.9,47494.2
70371.4,47501.3
70377.1,47509.1
70382.1,47517.4
70386.2,47526.1
70389.5,47535.2
70391.8,47544.6
70393.2,47554.1
70393.7,47563.8
70393.7,48036.2
70393.2,48045.9
70391.8,48055.4
70389.5,48064.8
70386.2,48073.9
70382.1,48082.6
70377.1,48090.9
70371.4,48098.7
70364.9,48105.8
70357.7,48112.3
70350,48118.1
70341.7,48123
70332.9,48127.2
70323.8,48130.4
70314.5,48132.8
70304.9,48134.2
70295.3,48134.6
69704.7,48134.6
69695.1,48134.2
69685.5,48132.8
69676.2,48130.4
69667.1,48127.2
69658.3,48123
69650,48118.1
69642.3,48112.3
69635.1,48105.8
69628.6,48098.7
69622.9,48090.9
69617.9,48082.6
69613.8,48073.9
69610.5,48064.8
69608.2,48055.4
69606.8,48045.9
69606.3,48036.2
69606.3,47563.8
69606.8,47554.1
69608.2,47544.6
69610.5,47535.2
69613.8,47526.1
69617.9,47517.4
69622.9,47509.1
69628.6,47501.3
69635.1,47494.2
69642.3,47487.7
69650,47481.9
69658.3,47477
69667.1,47472.8
69676.2,47469.6
69685.5,47467.2
69695.1,47465.8
69704.7,47465.4
70295.3,47465.4
Z" /> 
</g>
<g >
</g>
<g style="fill:#000000; fill-opacity:1.0; 
stroke:#000000; stroke-width:0; stroke-opacity:1; 
stroke-linecap:round; stroke-linejoin:round;">
<path style="fill:#000000; fill-opacity:1.0; 
stroke:#000000; stroke-width:0; stroke-opacity:1; 
stroke-linecap:round; stroke-linejoin:round;fill-rule:evenodd;"
d="M 70304.9,44065.8
70314.5,44067.2
70323.8,44069.6
70332.9,44072.8
70341.7,44077
70350,44081.9
70357.7,44087.7
70364.9,44094.2
70371.4,44101.3
70377.1,44109.1
70382.1,44117.4
70386.2,44126.1
70389.5,44135.2
70391.8,44144.6
70393.2,44154.1
70393.7,44163.8
70393.7,44636.2
70393.2,44645.9
70391.8,44655.4
70389.5,44664.8
70386.2,44673.9
70382.1,44682.6
70377.1,44690.9
70371.4,44698.7
70364.9,44705.8
70357.7,44712.3
70350,44718.1
70341.7,44723
70332.9,44727.2
70323.8,44730.4
70314.5,44732.8
70304.9,44734.2
70295.3,44734.6
69704.7,44734.6
69695.1,44734.2
69685.5,44732.8
69676.2,44730.4
69667.1,44727.2
69658.3,44723
69650,44718.1
69642.3,44712.3
69635.1,44705.8
69628.6,44698.7
69622.9,44690.9
69617.9,44682.6
69613.8,44673.9
69610.5,44664.8
69608.2,44655.4
69606.8,44645.9
69606.3,44636.2
69606.3,44163.8
69606.8,44154.1
69608.2,44144.6
69610.5,44135.2
69613.8,44126.1
69617.9,44117.4
69622.9,44109.1
69628.6,44101.3
69635.1,44094.2
69642.3,44087.7
69650,44081.9
69658.3,44077
69667.1,44072.8
69676.2,44069.6
69685.5,44067.2
69695.1,44065.8
69704.7,44065.4
70295.3,44065.4
Z" /> 
</g>
<g style="fill:#000000; fill-opacity:1.0; 
stroke:#000000; stroke-width:669.291; stroke-opacity:1; 
stroke-linecap:round; stroke-linejoin:round;">
</g>
<g style="fill:#000000; fill-opacity:0.0; 
stroke:#000000; stroke-width:669.291; stroke-opacity:1; 
stroke-linecap:round; stroke-linejoin:round;">
<path d="M70059 45384
L69940 45384
" />
</g>
<g style="fill:#000000; fill-opacity:1.0; 
stroke:#000000; stroke-width:0; stroke-opacity:1; 
stroke-linecap:round; stroke-linejoin:round;">
<circle cx="69212.6" cy="43770.1" r="236.22" /> 
</g>
<g style="fill:#000000; fill-opacity:1.0; 
stroke:#000000; stroke-width:39.3701; stroke-opacity:1; 
stroke-linecap:round; stroke-linejoin:round;">
</g>
<g >
</g>
<g style="fill:#000000; fill-opacity:1.0; 
stroke:#000000; stroke-width:39.3701; stroke-opacity:1; 
stroke-linecap:round; stroke-linejoin:round;">
</g>
<g style="fill:#000000; fill-opacity:1.0; 
stroke:#000000; stroke-width:0; stroke-opacity:1; 
stroke-linecap:round; stroke-linejoin:round;">
<circle cx="69212.6" cy="36770.1" r="236.22" /> 
</g>
<g style="fill:#000000; fill-opacity:1.0; 
stroke:#000000; stroke-width:39.3701; stroke-opacity:1; 
stroke-linecap:round; stroke-linejoin:round;">
</g>
<g style="fill:#000000; fill-opacity:1.0; 
stroke:#000000; stroke-width:669.291; stroke-opacity:1; 
stroke-linecap:round; stroke-linejoin:round;">
</g>
<g style="fill:#000000; fill-opacity:0.0; 
stroke:#000000; stroke-width:669.291; stroke-opacity:1; 
stroke-linecap:round; stroke-linejoin:round;">
<path d="M70059 38384
L69940 38384
" />
</g>
<g style="fill:#000000; fill-opacity:0.0; 
stroke:#000000; stroke-width:0; stroke-opacity:1; 
stroke-linecap:round; stroke-linejoin:round;">
</g>
<g style="fill:#000000; fill-opacity:1.0; 
stroke:#000000; stroke-width:0; stroke-opacity:1; 
stroke-linecap:round; stroke-linejoin:round;">
<path style="fill:#000000; fill-opacity:1.0; 
stroke:#000000; stroke-width:0; stroke-opacity:1; 
stroke-linecap:round; stroke-linejoin:round;fill-rule:evenodd;"
d="M 70304.9,37065.8
70314.5,37067.2
70323.8,37069.6
70332.9,37072.8
70341.7,37077
70350,37081.9
70357.7,37087.7
70364.9,37094.2
70371.4,37101.3
70377.1,37109.1
70382.1,37117.4
70386.2,37126.1
70389.5,37135.2
70391.8,37144.6
70393.2,37154.1
70393.7,37163.8
70393.7,37636.2
70393.2,37645.9
70391.8,37655.4
70389.5,37664.8
70386.2,37673.9
70382.1,37682.6
70377.1,37690.9
70371.4,37698.7
70364.9,37705.8
70357.7,37712.3
70350,37718.1
70341.7,37723
70332.9,37727.2
70323.8,37730.4
70314.5,37732.8
70304.9,37734.2
70295.3,37734.6
69704.7,37734.6
69695.1,37734.2
69685.5,37732.8
69676.2,37730.4
69667.1,37727.2
69658.3,37723
69650,37718.1
69642.3,37712.3
69635.1,37705.8
69628.6,37698.7
69622.9,37690.9
69617.9,37682.6
69613.8,37673.9
69610.5,37664.8
69608.2,37655.4
69606.8,37645.9
69606.3,37636.2
69606.3,37163.8
69606.8,37154.1
69608.2,37144.6
69610.5,37135.2
69613.8,37126.1
69617.9,37117.4
69622.9,37109.1
69628.6,37101.3
69635.1,37094.2
69642.3,37087.7
69650,37081.9
69658.3,37077
69667.1,37072.8
69676.2,37069.6
69685.5,37067.2
69695.1,37065.8
69704.7,37065.4
70295.3,37065.4
Z" /> 
</g>
<g >
</g>
<g style="fill:#000000; fill-opacity:1.0; 
stroke:#000000; stroke-width:0; stroke-opacity:1; 
stroke-linecap:round; stroke-linejoin:round;">
<path style="fill:#000000; fill-opacity:1.0; 
stroke:#000000; stroke-width:0; stroke-opacity:1; 
stroke-linecap:round; stroke-linejoin:round;fill-rule:evenodd;"
d="M 43311,33689
43311,32311
44689,32311
44689,33689
Z" /> 
<path style="fill:#000000; fill-opacity:1.0; 
stroke:#000000; stroke-width:0; stroke-opacity:1; 
stroke-linecap:round; stroke-linejoin:round;fill-rule:evenodd;"
d="M 41962,32312.4
41990.7,32316.7
42018.8,32323.7
42046.1,32333.5
42072.3,32345.9
42097.1,32360.8
42120.4,32378
42141.9,32397.5
42161.3,32419
42178.6,32442.3
42193.5,32467.1
42205.9,32493.3
42215.6,32520.6
42222.7,32548.7
42226.9,32577.4
42228.3,32606.3
42228.3,33393.7
42226.9,33422.6
42222.7,33451.3
42215.6,33479.4
42205.9,33506.7
42193.5,33532.9
42178.6,33557.7
42161.3,33581
42141.9,33602.5
42120.4,33622
42097.1,33639.2
42072.3,33654.1
42046.1,33666.5
42018.8,33676.3
41990.7,33683.3
41962,33687.6
41933.1,33689
41342.5,33689
41313.6,33687.6
41284.9,33683.3
41256.8,33676.3
41229.5,33666.5
41203.3,33654.1
41178.5,33639.2
41155.2,33622
41133.7,33602.5
41114.3,33581
41097,33557.7
41082.1,33532.9
41069.7,33506.7
41060,33479.4
41052.9,33451.3
41048.7,33422.6
41047.2,33393.7
41047.2,32606.3
41048.7,32577.4
41052.9,32548.7
41060,32520.6
41069.7,32493.3
41082.1,32467.1
41097,32442.3
41114.3,32419
41133.7,32397.5
41155.2,32378
41178.5,32360.8
41203.3,32345.9
41229.5,32333.5
41256.8,32323.7
41284.9,32316.7
41313.6,32312.4
41342.5,32311
41933.1,32311
Z" /> 
<path style="fill:#000000; fill-opacity:1.0; 
stroke:#000000; stroke-width:0; stroke-opacity:1; 
stroke-linecap:round; stroke-linejoin:round;fill-rule:evenodd;"
d="M 43197.2,34163.1
43230.6,34168
43263.4,34176.3
43295.2,34187.6
43325.8,34202.1
43354.8,34219.5
43381.9,34239.6
43407,34262.3
43429.7,34287.4
43449.8,34314.5
43467.2,34343.5
43481.7,34374.1
43493,34405.9
43501.3,34438.7
43506.2,34472.1
43507.9,34505.9
43507.9,35194.9
43506.2,35228.6
43501.3,35262.1
43493,35294.9
43481.7,35326.7
43467.2,35357.3
43449.8,35386.3
43429.7,35413.4
43407,35438.5
43381.9,35461.2
43354.8,35481.3
43325.8,35498.7
43295.2,35513.1
43263.4,35524.5
43230.6,35532.8
43197.2,35537.7
43163.4,35539.4
42474.4,35539.4
42440.6,35537.7
42407.2,35532.8
42374.4,35524.5
42342.6,35513.1
42312,35498.7
42283,35481.3
42255.9,35461.2
42230.8,35438.5
42208.1,35413.4
42188,35386.3
42170.6,35357.3
42156.1,35326.7
42144.8,35294.9
42136.5,35262.1
42131.6,35228.6
42129.9,35194.9
42129.9,34505.9
42131.6,34472.1
42136.5,34438.7
42144.8,34405.9
42156.1,34374.1
42170.6,34343.5
42188,34314.5
42208.1,34287.4
42230.8,34262.3
42255.9,34239.6
42283,34219.5
42312,34202.1
42342.6,34187.6
42374.4,34176.3
42407.2,34168
42440.6,34163.1
42474.4,34161.4
43163.4,34161.4
Z" /> 
</g>
<g >
</g>
<g style="fill:#000000; fill-opacity:1.0; 
stroke:#000000; stroke-width:0; stroke-opacity:1; 
stroke-linecap:round; stroke-linejoin:round;">
<circle cx="69212.6" cy="33170.1" r="236.22" /> 
</g>
<g style="fill:#000000; fill-opacity:1.0; 
stroke:#000000; stroke-width:39.3701; stroke-opacity:1; 
stroke-linecap:round; stroke-linejoin:round;">
</g>
<g style="fill:#000000; fill-opacity:1.0; 
stroke:#000000; stroke-width:669.291; stroke-opacity:1; 
stroke-linecap:round; stroke-linejoin:round;">
</g>
<g style="fill:#000000; fill-opacity:0.0; 
stroke:#000000; stroke-width:669.291; stroke-opacity:1; 
stroke-linecap:round; stroke-linejoin:round;">
<path d="M70059 34784
L69940 34784
" />
</g>
<g style="fill:#000000; fill-opacity:0.0; 
stroke:#000000; stroke-width:0; stroke-opacity:1; 
stroke-linecap:round; stroke-linejoin:round;">
</g>
<g style="fill:#000000; fill-opacity:1.0; 
stroke:#000000; stroke-width:0; stroke-opacity:1; 
stroke-linecap:round; stroke-linejoin:round;">
<path style="fill:#000000; fill-opacity:1.0; 
stroke:#000000; stroke-width:0; stroke-opacity:1; 
stroke-linecap:round; stroke-linejoin:round;fill-rule:evenodd;"
d="M 70304.9,33465.8
70314.5,33467.2
70323.8,33469.6
70332.9,33472.8
70341.7,33477
70350,33481.9
70357.7,33487.7
70364.9,33494.2
70371.4,33501.3
70377.1,33509.1
70382.1,33517.4
70386.2,33526.1
70389.5,33535.2
70391.8,33544.6
70393.2,33554.1
70393.7,33563.8
70393.7,34036.2
70393.2,34045.9
70391.8,34055.4
70389.5,34064.8
70386.2,34073.9
70382.1,34082.6
70377.1,34090.9
70371.4,34098.7
70364.9,34105.8
70357.7,34112.3
70350,34118.1
70341.7,34123
70332.9,34127.2
70323.8,34130.4
70314.5,34132.8
70304.9,34134.2
70295.3,34134.6
69704.7,34134.6
69695.1,34134.2
69685.5,34132.8
69676.2,34130.4
69667.1,34127.2
69658.3,34123
69650,34118.1
69642.3,34112.3
69635.1,34105.8
69628.6,34098.7
69622.9,34090.9
69617.9,34082.6
69613.8,34073.9
69610.5,34064.8
69608.2,34055.4
69606.8,34045.9
69606.3,34036.2
69606.3,33563.8
69606.8,33554.1
69608.2,33544.6
69610.5,33535.2
69613.8,33526.1
69617.9,33517.4
69622.9,33509.1
69628.6,33501.3
69635.1,33494.2
69642.3,33487.7
69650,33481.9
69658.3,33477
69667.1,33472.8
69676.2,33469.6
69685.5,33467.2
69695.1,33465.8
69704.7,33465.4
70295.3,33465.4
Z" /> 
</g>
<g >
</g>
<g style="fill:#000000; fill-opacity:1.0; 
stroke:#000000; stroke-width:0; stroke-opacity:1; 
stroke-linecap:round; stroke-linejoin:round;">
<path style="fill:#000000; fill-opacity:1.0; 
stroke:#000000; stroke-width:0; stroke-opacity:1; 
stroke-linecap:round; stroke-linejoin:round;fill-rule:evenodd;"
d="M 70304.9,30065.8
70314.5,30067.2
70323.8,30069.6
70332.9,30072.8
70341.7,30077
70350,30081.9
70357.7,30087.7
70364.9,30094.2
70371.4,30101.3
70377.1,30109.1
70382.1,30117.4
70386.2,30126.1
70389.5,30135.2
70391.8,30144.6
70393.2,30154.1
70393.7,30163.8
70393.7,30636.2
70393.2,30645.9
70391.8,30655.4
70389.5,30664.8
70386.2,30673.9
70382.1,30682.6
70377.1,30690.9
70371.4,30698.7
70364.9,30705.8
70357.7,30712.3
70350,30718.1
70341.7,30723
70332.9,30727.2
70323.8,30730.4
70314.5,30732.8
70304.9,30734.2
70295.3,30734.6
69704.7,30734.6
69695.1,30734.2
69685.5,30732.8
69676.2,30730.4
69667.1,30727.2
69658.3,30723
69650,30718.1
69642.3,30712.3
69635.1,30705.8
69628.6,30698.7
69622.9,30690.9
69617.9,30682.6
69613.8,30673.9
69610.5,30664.8
69608.2,30655.4
69606.8,30645.9
69606.3,30636.2
69606.3,30163.8
69606.8,30154.1
69608.2,30144.6
69610.5,30135.2
69613.8,30126.1
69617.9,30117.4
69622.9,30109.1
69628.6,30101.3
69635.1,30094.2
69642.3,30087.7
69650,30081.9
69658.3,30077
69667.1,30072.8
69676.2,30069.6
69685.5,30067.2
69695.1,30065.8
69704.7,30065.4
70295.3,30065.4
Z" /> 
</g>
<g style="fill:#000000; fill-opacity:1.0; 
stroke:#000000; stroke-width:669.291; stroke-opacity:1; 
stroke-linecap:round; stroke-linejoin:round;">
</g>
<g style="fill:#000000; fill-opacity:0.0; 
stroke:#000000; stroke-width:669.291; stroke-opacity:1; 
stroke-linecap:round; stroke-linejoin:round;">
<path d="M70059 31384
L69940 31384
" />
</g>
<g style="fill:#000000; fill-opacity:1.0; 
stroke:#000000; stroke-width:0; stroke-opacity:1; 
stroke-linecap:round; stroke-linejoin:round;">
<circle cx="69212.6" cy="29770.1" r="236.22" /> 
</g>
<g style="fill:#000000; fill-opacity:1.0; 
stroke:#000000; stroke-width:39.3701; stroke-opacity:1; 
stroke-linecap:round; stroke-linejoin:round;">
</g>
<g >
</g>
<g style="fill:#000000; fill-opacity:1.0; 
stroke:#000000; stroke-width:39.3701; stroke-opacity:1; 
stroke-linecap:round; stroke-linejoin:round;">
</g>
<g style="fill:#000000; fill-opacity:1.0; 
stroke:#000000; stroke-width:0; stroke-opacity:1; 
stroke-linecap:round; stroke-linejoin:round;">
<path style="fill:#000000; fill-opacity:1.0; 
stroke:#000000; stroke-width:0; stroke-opacity:1; 
stroke-linecap:round; stroke-linejoin:round;fill-rule:evenodd;"
d="M 49230.1,54016.6
49239.7,54018
49249,54020.4
49258.1,54023.6
49266.9,54027.8
49275.2,54032.7
49282.9,54038.5
49290.1,54045
49296.6,54052.1
49302.3,54059.9
49307.3,54068.2
49311.4,54076.9
49314.7,54086
49317,54095.4
49318.4,54104.9
49318.9,54114.6
49318.9,54685.4
49318.4,54695.1
49317,54704.6
49314.7,54714
49311.4,54723.1
49307.3,54731.8
49302.3,54740.1
49296.6,54747.9
49290.1,54755
49282.9,54761.5
49275.2,54767.3
49266.9,54772.2
49258.1,54776.4
49249,54779.6
49239.7,54782
49230.1,54783.4
49220.5,54783.9
48748,54783.9
48738.4,54783.4
48728.8,54782
48719.5,54779.6
48710.4,54776.4
48701.6,54772.2
48693.3,54767.3
48685.6,54761.5
48678.4,54755
48671.9,54747.9
48666.2,54740.1
48661.2,54731.8
48657.1,54723.1
48653.8,54714
48651.5,54704.6
48650.1,54695.1
48649.6,54685.4
48649.6,54114.6
48650.1,54104.9
48651.5,54095.4
48653.8,54086
48657.1,54076.9
48661.2,54068.2
48666.2,54059.9
48671.9,54052.1
48678.4,54045
48685.6,54038.5
48693.3,54032.7
48701.6,54027.8
48710.4,54023.6
48719.5,54020.4
48728.8,54018
48738.4,54016.6
48748,54016.1
49220.5,54016.1
Z" /> 
</g>
<g style="fill:#000000; fill-opacity:1.0; 
stroke:#000000; stroke-width:669.291; stroke-opacity:1; 
stroke-linecap:round; stroke-linejoin:round;">
</g>
<g style="fill:#000000; fill-opacity:0.0; 
stroke:#000000; stroke-width:669.291; stroke-opacity:1; 
stroke-linecap:round; stroke-linejoin:round;">
<path d="M48000 54449
L48000 54350
" />
<path d="M47015 54449
L47015 54350
" />
</g>
<g style="fill:#000000; fill-opacity:1.0; 
stroke:#000000; stroke-width:0; stroke-opacity:1; 
stroke-linecap:round; stroke-linejoin:round;">
<circle cx="49614.2" cy="53612.6" r="236.22" /> 
</g>
<g style="fill:#000000; fill-opacity:1.0; 
stroke:#000000; stroke-width:39.3701; stroke-opacity:1; 
stroke-linecap:round; stroke-linejoin:round;">
</g>
<g >
</g>
<g >
</g>
<g >
</g>
<g >
</g>
<g >
</g>
<g >
</g>
<g >
</g>
<g >
</g>
<g >
</g>
<g >
</g>
<g >
</g>
<g >
</g>
<g >
</g>
<g >
</g>
<g >
</g>
<g >
</g>
<g >
</g>
<g >
</g>
<g >
</g>
<g >
</g>
<g >
</g>
<g >
</g>
<g >
</g>
<g >
</g>
<g >
</g>
<g >
</g>
<g >
</g>
<g >
</g>
<g >
</g>
<g >
</g>
<g >
</g>
<g >
</g>
<g >
</g>
<g >
</g>
<g >
</g>
<g >
</g>
<g >
</g>
<g >
</g>
<g >
</g>
<g >
</g>
<g >
</g>
<g >
</g>
<g >
</g>
<g >
</g>
<g >
</g>
<g >
</g>
<g >
</g>
<g >
</g>
<g >
</g>
<g style="fill:#000000; fill-opacity:1.0; 
stroke:#000000; stroke-width:39.3701; stroke-opacity:1; 
stroke-linecap:round; stroke-linejoin:round;">
</g>
<g style="fill:#000000; fill-opacity:1.0; 
stroke:#000000; stroke-width:0; stroke-opacity:1; 
stroke-linecap:round; stroke-linejoin:round;">
<path style="fill:#000000; fill-opacity:1.0; 
stroke:#000000; stroke-width:0; stroke-opacity:1; 
stroke-linecap:round; stroke-linejoin:round;fill-rule:evenodd;"
d="M 50054.9,39165.8
50064.5,39167.2
50073.8,39169.6
50082.9,39172.8
50091.7,39177
50100,39181.9
50107.7,39187.7
50114.9,39194.2
50121.4,39201.3
50127.1,39209.1
50132.1,39217.4
50136.2,39226.1
50139.5,39235.2
50141.8,39244.6
50143.2,39254.1
50143.7,39263.8
50143.7,39736.2
50143.2,39745.9
50141.8,39755.4
50139.5,39764.8
50136.2,39773.9
50132.1,39782.6
50127.1,39790.9
50121.4,39798.7
50114.9,39805.8
50107.7,39812.3
50100,39818.1
50091.7,39823
50082.9,39827.2
50073.8,39830.4
50064.5,39832.8
50054.9,39834.2
50045.3,39834.6
49454.7,39834.6
49445.1,39834.2
49435.5,39832.8
49426.2,39830.4
49417.1,39827.2
49408.3,39823
49400,39818.1
49392.3,39812.3
49385.1,39805.8
49378.6,39798.7
49372.9,39790.9
49367.9,39782.6
49363.8,39773.9
49360.5,39764.8
49358.2,39755.4
49356.8,39745.9
49356.3,39736.2
49356.3,39263.8
49356.8,39254.1
49358.2,39244.6
49360.5,39235.2
49363.8,39226.1
49367.9,39217.4
49372.9,39209.1
49378.6,39201.3
49385.1,39194.2
49392.3,39187.7
49400,39181.9
49408.3,39177
49417.1,39172.8
49426.2,39169.6
49435.5,39167.2
49445.1,39165.8
49454.7,39165.4
50045.3,39165.4
Z" /> 
</g>
<g style="fill:#000000; fill-opacity:1.0; 
stroke:#000000; stroke-width:669.291; stroke-opacity:1; 
stroke-linecap:round; stroke-linejoin:round;">
</g>
<g style="fill:#000000; fill-opacity:0.0; 
stroke:#000000; stroke-width:669.291; stroke-opacity:1; 
stroke-linecap:round; stroke-linejoin:round;">
<path d="M49690 38515
L49809 38515
" />
</g>
<g style="fill:#000000; fill-opacity:1.0; 
stroke:#000000; stroke-width:0; stroke-opacity:1; 
stroke-linecap:round; stroke-linejoin:round;">
<circle cx="50537.4" cy="40129.9" r="236.22" /> 
</g>
<g style="fill:#000000; fill-opacity:1.0; 
stroke:#000000; stroke-width:39.3701; stroke-opacity:1; 
stroke-linecap:round; stroke-linejoin:round;">
</g>
<g >
</g>
<g >
</g>
<g >
</g>
<g >
</g>
<g >
</g>
<g >
</g>
<g >
</g>
<g >
</g>
<g >
</g>
<g style="fill:#000000; fill-opacity:1.0; 
stroke:#000000; stroke-width:39.3701; stroke-opacity:1; 
stroke-linecap:round; stroke-linejoin:round;">
</g>
<g style="fill:#000000; fill-opacity:1.0; 
stroke:#000000; stroke-width:0; stroke-opacity:1; 
stroke-linecap:round; stroke-linejoin:round;">
<path style="fill:#000000; fill-opacity:1.0; 
stroke:#000000; stroke-width:0; stroke-opacity:1; 
stroke-linecap:round; stroke-linejoin:round;fill-rule:evenodd;"
d="M 58734.6,41065.4
58734.6,41734.6
58065.4,41734.6
58065.4,41065.4
Z" /> 
<circle cx="58400" cy="40400" r="334.646" /> 
<circle cx="58400" cy="39400" r="334.646" /> 
</g>
<g >
</g>
<g style="fill:#000000; fill-opacity:1.0; 
stroke:#000000; stroke-width:0; stroke-opacity:1; 
stroke-linecap:round; stroke-linejoin:round;">
<circle cx="42174.8" cy="47200" r="295.276" /> 
</g>
<g style="fill:#000000; fill-opacity:1.0; 
stroke:#000000; stroke-width:39.3701; stroke-opacity:1; 
stroke-linecap:round; stroke-linejoin:round;">
</g>
<g style="fill:#000000; fill-opacity:1.0; 
stroke:#000000; stroke-width:0; stroke-opacity:1; 
stroke-linecap:round; stroke-linejoin:round;">
<circle cx="39812.6" cy="47200" r="295.276" /> 
</g>
<g style="fill:#000000; fill-opacity:1.0; 
stroke:#000000; stroke-width:39.3701; stroke-opacity:1; 
stroke-linecap:round; stroke-linejoin:round;">
</g>
<g >
</g>
<g >
</g>
<g >
</g>
<g >
</g>
<g >
</g>
<g >
</g>
<g >
</g>
<g >
</g>
<g >
</g>
<g >
</g>
<g >
</g>
<g >
</g>
<g >
</g>
<g >
</g>
<g >
</g>
<g >
</g>
<g >
</g>
<g >
</g>
</g> 
</svg>
