%TF.GenerationSoftware,KiCad,Pcbnew,5.1.10-88a1d61d58~88~ubuntu20.04.1*%
%TF.CreationDate,2021-07-09T08:27:42-06:00*%
%TF.ProjectId,ring_light_controller,72696e67-5f6c-4696-9768-745f636f6e74,2*%
%TF.SameCoordinates,Original*%
%TF.FileFunction,Paste,Top*%
%TF.FilePolarity,Positive*%
%FSLAX46Y46*%
G04 Gerber Fmt 4.6, Leading zero omitted, Abs format (unit mm)*
G04 Created by KiCad (PCBNEW 5.1.10-88a1d61d58~88~ubuntu20.04.1) date 2021-07-09 08:27:42*
%MOMM*%
%LPD*%
G01*
G04 APERTURE LIST*
%ADD10R,0.900000X1.200000*%
%ADD11R,2.200000X1.500000*%
%ADD12R,0.900000X0.800000*%
%ADD13R,1.470000X1.410000*%
%ADD14R,5.400000X2.900000*%
G04 APERTURE END LIST*
%TO.C,C1*%
G36*
G01*
X137015000Y-99075001D02*
X137015000Y-97774999D01*
G75*
G02*
X137264999Y-97525000I249999J0D01*
G01*
X137915001Y-97525000D01*
G75*
G02*
X138165000Y-97774999I0J-249999D01*
G01*
X138165000Y-99075001D01*
G75*
G02*
X137915001Y-99325000I-249999J0D01*
G01*
X137264999Y-99325000D01*
G75*
G02*
X137015000Y-99075001I0J249999D01*
G01*
G37*
G36*
G01*
X139965000Y-99075001D02*
X139965000Y-97774999D01*
G75*
G02*
X140214999Y-97525000I249999J0D01*
G01*
X140865001Y-97525000D01*
G75*
G02*
X141115000Y-97774999I0J-249999D01*
G01*
X141115000Y-99075001D01*
G75*
G02*
X140865001Y-99325000I-249999J0D01*
G01*
X140214999Y-99325000D01*
G75*
G02*
X139965000Y-99075001I0J249999D01*
G01*
G37*
%TD*%
%TO.C,C2*%
G36*
G01*
X136175000Y-73825001D02*
X136175000Y-72224999D01*
G75*
G02*
X136424999Y-71975000I249999J0D01*
G01*
X140525001Y-71975000D01*
G75*
G02*
X140775000Y-72224999I0J-249999D01*
G01*
X140775000Y-73825001D01*
G75*
G02*
X140525001Y-74075000I-249999J0D01*
G01*
X136424999Y-74075000D01*
G75*
G02*
X136175000Y-73825001I0J249999D01*
G01*
G37*
G36*
G01*
X144975000Y-73825001D02*
X144975000Y-72224999D01*
G75*
G02*
X145224999Y-71975000I249999J0D01*
G01*
X149325001Y-71975000D01*
G75*
G02*
X149575000Y-72224999I0J-249999D01*
G01*
X149575000Y-73825001D01*
G75*
G02*
X149325001Y-74075000I-249999J0D01*
G01*
X145224999Y-74075000D01*
G75*
G02*
X144975000Y-73825001I0J249999D01*
G01*
G37*
%TD*%
%TO.C,C3*%
G36*
G01*
X123275000Y-82160000D02*
X124375000Y-82160000D01*
G75*
G02*
X124625000Y-82410000I0J-250000D01*
G01*
X124625000Y-85235000D01*
G75*
G02*
X124375000Y-85485000I-250000J0D01*
G01*
X123275000Y-85485000D01*
G75*
G02*
X123025000Y-85235000I0J250000D01*
G01*
X123025000Y-82410000D01*
G75*
G02*
X123275000Y-82160000I250000J0D01*
G01*
G37*
G36*
G01*
X123275000Y-87235000D02*
X124375000Y-87235000D01*
G75*
G02*
X124625000Y-87485000I0J-250000D01*
G01*
X124625000Y-90310000D01*
G75*
G02*
X124375000Y-90560000I-250000J0D01*
G01*
X123275000Y-90560000D01*
G75*
G02*
X123025000Y-90310000I0J250000D01*
G01*
X123025000Y-87485000D01*
G75*
G02*
X123275000Y-87235000I250000J0D01*
G01*
G37*
%TD*%
%TO.C,C4*%
G36*
G01*
X121480000Y-75095001D02*
X121480000Y-73494999D01*
G75*
G02*
X121729999Y-73245000I249999J0D01*
G01*
X125830001Y-73245000D01*
G75*
G02*
X126080000Y-73494999I0J-249999D01*
G01*
X126080000Y-75095001D01*
G75*
G02*
X125830001Y-75345000I-249999J0D01*
G01*
X121729999Y-75345000D01*
G75*
G02*
X121480000Y-75095001I0J249999D01*
G01*
G37*
G36*
G01*
X112680000Y-75095001D02*
X112680000Y-73494999D01*
G75*
G02*
X112929999Y-73245000I249999J0D01*
G01*
X117030001Y-73245000D01*
G75*
G02*
X117280000Y-73494999I0J-249999D01*
G01*
X117280000Y-75095001D01*
G75*
G02*
X117030001Y-75345000I-249999J0D01*
G01*
X112929999Y-75345000D01*
G75*
G02*
X112680000Y-75095001I0J249999D01*
G01*
G37*
%TD*%
%TO.C,D1*%
G36*
G01*
X146306250Y-97440000D02*
X145793750Y-97440000D01*
G75*
G02*
X145575000Y-97221250I0J218750D01*
G01*
X145575000Y-96783750D01*
G75*
G02*
X145793750Y-96565000I218750J0D01*
G01*
X146306250Y-96565000D01*
G75*
G02*
X146525000Y-96783750I0J-218750D01*
G01*
X146525000Y-97221250D01*
G75*
G02*
X146306250Y-97440000I-218750J0D01*
G01*
G37*
G36*
G01*
X146306250Y-99015000D02*
X145793750Y-99015000D01*
G75*
G02*
X145575000Y-98796250I0J218750D01*
G01*
X145575000Y-98358750D01*
G75*
G02*
X145793750Y-98140000I218750J0D01*
G01*
X146306250Y-98140000D01*
G75*
G02*
X146525000Y-98358750I0J-218750D01*
G01*
X146525000Y-98796250D01*
G75*
G02*
X146306250Y-99015000I-218750J0D01*
G01*
G37*
%TD*%
%TO.C,D2*%
G36*
G01*
X156165000Y-119123750D02*
X156165000Y-119636250D01*
G75*
G02*
X155946250Y-119855000I-218750J0D01*
G01*
X155508750Y-119855000D01*
G75*
G02*
X155290000Y-119636250I0J218750D01*
G01*
X155290000Y-119123750D01*
G75*
G02*
X155508750Y-118905000I218750J0D01*
G01*
X155946250Y-118905000D01*
G75*
G02*
X156165000Y-119123750I0J-218750D01*
G01*
G37*
G36*
G01*
X154590000Y-119123750D02*
X154590000Y-119636250D01*
G75*
G02*
X154371250Y-119855000I-218750J0D01*
G01*
X153933750Y-119855000D01*
G75*
G02*
X153715000Y-119636250I0J218750D01*
G01*
X153715000Y-119123750D01*
G75*
G02*
X153933750Y-118905000I218750J0D01*
G01*
X154371250Y-118905000D01*
G75*
G02*
X154590000Y-119123750I0J-218750D01*
G01*
G37*
%TD*%
%TO.C,D3*%
G36*
G01*
X155530000Y-100708750D02*
X155530000Y-101221250D01*
G75*
G02*
X155311250Y-101440000I-218750J0D01*
G01*
X154873750Y-101440000D01*
G75*
G02*
X154655000Y-101221250I0J218750D01*
G01*
X154655000Y-100708750D01*
G75*
G02*
X154873750Y-100490000I218750J0D01*
G01*
X155311250Y-100490000D01*
G75*
G02*
X155530000Y-100708750I0J-218750D01*
G01*
G37*
G36*
G01*
X153955000Y-100708750D02*
X153955000Y-101221250D01*
G75*
G02*
X153736250Y-101440000I-218750J0D01*
G01*
X153298750Y-101440000D01*
G75*
G02*
X153080000Y-101221250I0J218750D01*
G01*
X153080000Y-100708750D01*
G75*
G02*
X153298750Y-100490000I218750J0D01*
G01*
X153736250Y-100490000D01*
G75*
G02*
X153955000Y-100708750I0J-218750D01*
G01*
G37*
%TD*%
%TO.C,D4*%
G36*
G01*
X153955000Y-82928750D02*
X153955000Y-83441250D01*
G75*
G02*
X153736250Y-83660000I-218750J0D01*
G01*
X153298750Y-83660000D01*
G75*
G02*
X153080000Y-83441250I0J218750D01*
G01*
X153080000Y-82928750D01*
G75*
G02*
X153298750Y-82710000I218750J0D01*
G01*
X153736250Y-82710000D01*
G75*
G02*
X153955000Y-82928750I0J-218750D01*
G01*
G37*
G36*
G01*
X155530000Y-82928750D02*
X155530000Y-83441250D01*
G75*
G02*
X155311250Y-83660000I-218750J0D01*
G01*
X154873750Y-83660000D01*
G75*
G02*
X154655000Y-83441250I0J218750D01*
G01*
X154655000Y-82928750D01*
G75*
G02*
X154873750Y-82710000I218750J0D01*
G01*
X155311250Y-82710000D01*
G75*
G02*
X155530000Y-82928750I0J-218750D01*
G01*
G37*
%TD*%
%TO.C,D5*%
G36*
G01*
X132670000Y-87373750D02*
X132670000Y-87886250D01*
G75*
G02*
X132451250Y-88105000I-218750J0D01*
G01*
X132013750Y-88105000D01*
G75*
G02*
X131795000Y-87886250I0J218750D01*
G01*
X131795000Y-87373750D01*
G75*
G02*
X132013750Y-87155000I218750J0D01*
G01*
X132451250Y-87155000D01*
G75*
G02*
X132670000Y-87373750I0J-218750D01*
G01*
G37*
G36*
G01*
X131095000Y-87373750D02*
X131095000Y-87886250D01*
G75*
G02*
X130876250Y-88105000I-218750J0D01*
G01*
X130438750Y-88105000D01*
G75*
G02*
X130220000Y-87886250I0J218750D01*
G01*
X130220000Y-87373750D01*
G75*
G02*
X130438750Y-87155000I218750J0D01*
G01*
X130876250Y-87155000D01*
G75*
G02*
X131095000Y-87373750I0J-218750D01*
G01*
G37*
%TD*%
D10*
%TO.C,D6*%
X129795000Y-80645000D03*
X133095000Y-80645000D03*
%TD*%
%TO.C,FB1*%
G36*
G01*
X118340000Y-83438750D02*
X118340000Y-84201250D01*
G75*
G02*
X118121250Y-84420000I-218750J0D01*
G01*
X117683750Y-84420000D01*
G75*
G02*
X117465000Y-84201250I0J218750D01*
G01*
X117465000Y-83438750D01*
G75*
G02*
X117683750Y-83220000I218750J0D01*
G01*
X118121250Y-83220000D01*
G75*
G02*
X118340000Y-83438750I0J-218750D01*
G01*
G37*
G36*
G01*
X116215000Y-83438750D02*
X116215000Y-84201250D01*
G75*
G02*
X115996250Y-84420000I-218750J0D01*
G01*
X115558750Y-84420000D01*
G75*
G02*
X115340000Y-84201250I0J218750D01*
G01*
X115340000Y-83438750D01*
G75*
G02*
X115558750Y-83220000I218750J0D01*
G01*
X115996250Y-83220000D01*
G75*
G02*
X116215000Y-83438750I0J-218750D01*
G01*
G37*
%TD*%
D11*
%TO.C,J1*%
X145140000Y-139605000D03*
X139540000Y-139805000D03*
X139940000Y-132605000D03*
X144540000Y-133105000D03*
%TD*%
D12*
%TO.C,Q1*%
X112030000Y-110810000D03*
X112030000Y-112710000D03*
X114030000Y-111760000D03*
%TD*%
%TO.C,Q2*%
X164830000Y-121285000D03*
X162830000Y-122235000D03*
X162830000Y-120335000D03*
%TD*%
%TO.C,Q3*%
X162830000Y-113985000D03*
X162830000Y-115885000D03*
X164830000Y-114935000D03*
%TD*%
%TO.C,Q4*%
X171180000Y-121285000D03*
X169180000Y-122235000D03*
X169180000Y-120335000D03*
%TD*%
%TO.C,Q5*%
X171180000Y-114935000D03*
X169180000Y-115885000D03*
X169180000Y-113985000D03*
%TD*%
%TO.C,Q6*%
X162830000Y-102555000D03*
X162830000Y-104455000D03*
X164830000Y-103505000D03*
%TD*%
%TO.C,Q7*%
X162830000Y-96205000D03*
X162830000Y-98105000D03*
X164830000Y-97155000D03*
%TD*%
%TO.C,Q8*%
X169180000Y-102555000D03*
X169180000Y-104455000D03*
X171180000Y-103505000D03*
%TD*%
%TO.C,Q9*%
X171180000Y-97155000D03*
X169180000Y-98105000D03*
X169180000Y-96205000D03*
%TD*%
%TO.C,Q10*%
X162830000Y-84775000D03*
X162830000Y-86675000D03*
X164830000Y-85725000D03*
%TD*%
%TO.C,Q11*%
X162830000Y-78425000D03*
X162830000Y-80325000D03*
X164830000Y-79375000D03*
%TD*%
%TO.C,Q12*%
X171180000Y-85725000D03*
X169180000Y-86675000D03*
X169180000Y-84775000D03*
%TD*%
%TO.C,Q13*%
X171180000Y-79375000D03*
X169180000Y-80325000D03*
X169180000Y-78425000D03*
%TD*%
%TO.C,R1*%
G36*
G01*
X143870000Y-98215000D02*
X144420000Y-98215000D01*
G75*
G02*
X144620000Y-98415000I0J-200000D01*
G01*
X144620000Y-98815000D01*
G75*
G02*
X144420000Y-99015000I-200000J0D01*
G01*
X143870000Y-99015000D01*
G75*
G02*
X143670000Y-98815000I0J200000D01*
G01*
X143670000Y-98415000D01*
G75*
G02*
X143870000Y-98215000I200000J0D01*
G01*
G37*
G36*
G01*
X143870000Y-96565000D02*
X144420000Y-96565000D01*
G75*
G02*
X144620000Y-96765000I0J-200000D01*
G01*
X144620000Y-97165000D01*
G75*
G02*
X144420000Y-97365000I-200000J0D01*
G01*
X143870000Y-97365000D01*
G75*
G02*
X143670000Y-97165000I0J200000D01*
G01*
X143670000Y-96765000D01*
G75*
G02*
X143870000Y-96565000I200000J0D01*
G01*
G37*
%TD*%
%TO.C,R2*%
G36*
G01*
X155365000Y-117750000D02*
X155365000Y-117200000D01*
G75*
G02*
X155565000Y-117000000I200000J0D01*
G01*
X155965000Y-117000000D01*
G75*
G02*
X156165000Y-117200000I0J-200000D01*
G01*
X156165000Y-117750000D01*
G75*
G02*
X155965000Y-117950000I-200000J0D01*
G01*
X155565000Y-117950000D01*
G75*
G02*
X155365000Y-117750000I0J200000D01*
G01*
G37*
G36*
G01*
X153715000Y-117750000D02*
X153715000Y-117200000D01*
G75*
G02*
X153915000Y-117000000I200000J0D01*
G01*
X154315000Y-117000000D01*
G75*
G02*
X154515000Y-117200000I0J-200000D01*
G01*
X154515000Y-117750000D01*
G75*
G02*
X154315000Y-117950000I-200000J0D01*
G01*
X153915000Y-117950000D01*
G75*
G02*
X153715000Y-117750000I0J200000D01*
G01*
G37*
%TD*%
%TO.C,R3*%
G36*
G01*
X153080000Y-99335000D02*
X153080000Y-98785000D01*
G75*
G02*
X153280000Y-98585000I200000J0D01*
G01*
X153680000Y-98585000D01*
G75*
G02*
X153880000Y-98785000I0J-200000D01*
G01*
X153880000Y-99335000D01*
G75*
G02*
X153680000Y-99535000I-200000J0D01*
G01*
X153280000Y-99535000D01*
G75*
G02*
X153080000Y-99335000I0J200000D01*
G01*
G37*
G36*
G01*
X154730000Y-99335000D02*
X154730000Y-98785000D01*
G75*
G02*
X154930000Y-98585000I200000J0D01*
G01*
X155330000Y-98585000D01*
G75*
G02*
X155530000Y-98785000I0J-200000D01*
G01*
X155530000Y-99335000D01*
G75*
G02*
X155330000Y-99535000I-200000J0D01*
G01*
X154930000Y-99535000D01*
G75*
G02*
X154730000Y-99335000I0J200000D01*
G01*
G37*
%TD*%
%TO.C,R4*%
G36*
G01*
X154730000Y-81555000D02*
X154730000Y-81005000D01*
G75*
G02*
X154930000Y-80805000I200000J0D01*
G01*
X155330000Y-80805000D01*
G75*
G02*
X155530000Y-81005000I0J-200000D01*
G01*
X155530000Y-81555000D01*
G75*
G02*
X155330000Y-81755000I-200000J0D01*
G01*
X154930000Y-81755000D01*
G75*
G02*
X154730000Y-81555000I0J200000D01*
G01*
G37*
G36*
G01*
X153080000Y-81555000D02*
X153080000Y-81005000D01*
G75*
G02*
X153280000Y-80805000I200000J0D01*
G01*
X153680000Y-80805000D01*
G75*
G02*
X153880000Y-81005000I0J-200000D01*
G01*
X153880000Y-81555000D01*
G75*
G02*
X153680000Y-81755000I-200000J0D01*
G01*
X153280000Y-81755000D01*
G75*
G02*
X153080000Y-81555000I0J200000D01*
G01*
G37*
%TD*%
%TO.C,R5*%
G36*
G01*
X130220000Y-86000000D02*
X130220000Y-85450000D01*
G75*
G02*
X130420000Y-85250000I200000J0D01*
G01*
X130820000Y-85250000D01*
G75*
G02*
X131020000Y-85450000I0J-200000D01*
G01*
X131020000Y-86000000D01*
G75*
G02*
X130820000Y-86200000I-200000J0D01*
G01*
X130420000Y-86200000D01*
G75*
G02*
X130220000Y-86000000I0J200000D01*
G01*
G37*
G36*
G01*
X131870000Y-86000000D02*
X131870000Y-85450000D01*
G75*
G02*
X132070000Y-85250000I200000J0D01*
G01*
X132470000Y-85250000D01*
G75*
G02*
X132670000Y-85450000I0J-200000D01*
G01*
X132670000Y-86000000D01*
G75*
G02*
X132470000Y-86200000I-200000J0D01*
G01*
X132070000Y-86200000D01*
G75*
G02*
X131870000Y-86000000I0J200000D01*
G01*
G37*
%TD*%
%TO.C,R7*%
G36*
G01*
X111365000Y-108770000D02*
X111365000Y-108400000D01*
G75*
G02*
X111500000Y-108265000I135000J0D01*
G01*
X111770000Y-108265000D01*
G75*
G02*
X111905000Y-108400000I0J-135000D01*
G01*
X111905000Y-108770000D01*
G75*
G02*
X111770000Y-108905000I-135000J0D01*
G01*
X111500000Y-108905000D01*
G75*
G02*
X111365000Y-108770000I0J135000D01*
G01*
G37*
G36*
G01*
X110345000Y-108770000D02*
X110345000Y-108400000D01*
G75*
G02*
X110480000Y-108265000I135000J0D01*
G01*
X110750000Y-108265000D01*
G75*
G02*
X110885000Y-108400000I0J-135000D01*
G01*
X110885000Y-108770000D01*
G75*
G02*
X110750000Y-108905000I-135000J0D01*
G01*
X110480000Y-108905000D01*
G75*
G02*
X110345000Y-108770000I0J135000D01*
G01*
G37*
%TD*%
%TO.C,R9*%
G36*
G01*
X138615000Y-114445000D02*
X138245000Y-114445000D01*
G75*
G02*
X138110000Y-114310000I0J135000D01*
G01*
X138110000Y-114040000D01*
G75*
G02*
X138245000Y-113905000I135000J0D01*
G01*
X138615000Y-113905000D01*
G75*
G02*
X138750000Y-114040000I0J-135000D01*
G01*
X138750000Y-114310000D01*
G75*
G02*
X138615000Y-114445000I-135000J0D01*
G01*
G37*
G36*
G01*
X138615000Y-113425000D02*
X138245000Y-113425000D01*
G75*
G02*
X138110000Y-113290000I0J135000D01*
G01*
X138110000Y-113020000D01*
G75*
G02*
X138245000Y-112885000I135000J0D01*
G01*
X138615000Y-112885000D01*
G75*
G02*
X138750000Y-113020000I0J-135000D01*
G01*
X138750000Y-113290000D01*
G75*
G02*
X138615000Y-113425000I-135000J0D01*
G01*
G37*
%TD*%
%TO.C,R10*%
G36*
G01*
X148140000Y-114445000D02*
X147770000Y-114445000D01*
G75*
G02*
X147635000Y-114310000I0J135000D01*
G01*
X147635000Y-114040000D01*
G75*
G02*
X147770000Y-113905000I135000J0D01*
G01*
X148140000Y-113905000D01*
G75*
G02*
X148275000Y-114040000I0J-135000D01*
G01*
X148275000Y-114310000D01*
G75*
G02*
X148140000Y-114445000I-135000J0D01*
G01*
G37*
G36*
G01*
X148140000Y-113425000D02*
X147770000Y-113425000D01*
G75*
G02*
X147635000Y-113290000I0J135000D01*
G01*
X147635000Y-113020000D01*
G75*
G02*
X147770000Y-112885000I135000J0D01*
G01*
X148140000Y-112885000D01*
G75*
G02*
X148275000Y-113020000I0J-135000D01*
G01*
X148275000Y-113290000D01*
G75*
G02*
X148140000Y-113425000I-135000J0D01*
G01*
G37*
%TD*%
%TO.C,R11*%
G36*
G01*
X109670000Y-111365000D02*
X110040000Y-111365000D01*
G75*
G02*
X110175000Y-111500000I0J-135000D01*
G01*
X110175000Y-111770000D01*
G75*
G02*
X110040000Y-111905000I-135000J0D01*
G01*
X109670000Y-111905000D01*
G75*
G02*
X109535000Y-111770000I0J135000D01*
G01*
X109535000Y-111500000D01*
G75*
G02*
X109670000Y-111365000I135000J0D01*
G01*
G37*
G36*
G01*
X109670000Y-110345000D02*
X110040000Y-110345000D01*
G75*
G02*
X110175000Y-110480000I0J-135000D01*
G01*
X110175000Y-110750000D01*
G75*
G02*
X110040000Y-110885000I-135000J0D01*
G01*
X109670000Y-110885000D01*
G75*
G02*
X109535000Y-110750000I0J135000D01*
G01*
X109535000Y-110480000D01*
G75*
G02*
X109670000Y-110345000I135000J0D01*
G01*
G37*
%TD*%
%TO.C,R12*%
G36*
G01*
X121735000Y-99300000D02*
X122105000Y-99300000D01*
G75*
G02*
X122240000Y-99435000I0J-135000D01*
G01*
X122240000Y-99705000D01*
G75*
G02*
X122105000Y-99840000I-135000J0D01*
G01*
X121735000Y-99840000D01*
G75*
G02*
X121600000Y-99705000I0J135000D01*
G01*
X121600000Y-99435000D01*
G75*
G02*
X121735000Y-99300000I135000J0D01*
G01*
G37*
G36*
G01*
X121735000Y-98280000D02*
X122105000Y-98280000D01*
G75*
G02*
X122240000Y-98415000I0J-135000D01*
G01*
X122240000Y-98685000D01*
G75*
G02*
X122105000Y-98820000I-135000J0D01*
G01*
X121735000Y-98820000D01*
G75*
G02*
X121600000Y-98685000I0J135000D01*
G01*
X121600000Y-98415000D01*
G75*
G02*
X121735000Y-98280000I135000J0D01*
G01*
G37*
%TD*%
%TO.C,R13*%
G36*
G01*
X166820000Y-119235000D02*
X167190000Y-119235000D01*
G75*
G02*
X167325000Y-119370000I0J-135000D01*
G01*
X167325000Y-119640000D01*
G75*
G02*
X167190000Y-119775000I-135000J0D01*
G01*
X166820000Y-119775000D01*
G75*
G02*
X166685000Y-119640000I0J135000D01*
G01*
X166685000Y-119370000D01*
G75*
G02*
X166820000Y-119235000I135000J0D01*
G01*
G37*
G36*
G01*
X166820000Y-120255000D02*
X167190000Y-120255000D01*
G75*
G02*
X167325000Y-120390000I0J-135000D01*
G01*
X167325000Y-120660000D01*
G75*
G02*
X167190000Y-120795000I-135000J0D01*
G01*
X166820000Y-120795000D01*
G75*
G02*
X166685000Y-120660000I0J135000D01*
G01*
X166685000Y-120390000D01*
G75*
G02*
X166820000Y-120255000I135000J0D01*
G01*
G37*
%TD*%
%TO.C,R14*%
G36*
G01*
X166820000Y-112250000D02*
X167190000Y-112250000D01*
G75*
G02*
X167325000Y-112385000I0J-135000D01*
G01*
X167325000Y-112655000D01*
G75*
G02*
X167190000Y-112790000I-135000J0D01*
G01*
X166820000Y-112790000D01*
G75*
G02*
X166685000Y-112655000I0J135000D01*
G01*
X166685000Y-112385000D01*
G75*
G02*
X166820000Y-112250000I135000J0D01*
G01*
G37*
G36*
G01*
X166820000Y-113270000D02*
X167190000Y-113270000D01*
G75*
G02*
X167325000Y-113405000I0J-135000D01*
G01*
X167325000Y-113675000D01*
G75*
G02*
X167190000Y-113810000I-135000J0D01*
G01*
X166820000Y-113810000D01*
G75*
G02*
X166685000Y-113675000I0J135000D01*
G01*
X166685000Y-113405000D01*
G75*
G02*
X166820000Y-113270000I135000J0D01*
G01*
G37*
%TD*%
%TO.C,R15*%
G36*
G01*
X162800000Y-118295000D02*
X162800000Y-117925000D01*
G75*
G02*
X162935000Y-117790000I135000J0D01*
G01*
X163205000Y-117790000D01*
G75*
G02*
X163340000Y-117925000I0J-135000D01*
G01*
X163340000Y-118295000D01*
G75*
G02*
X163205000Y-118430000I-135000J0D01*
G01*
X162935000Y-118430000D01*
G75*
G02*
X162800000Y-118295000I0J135000D01*
G01*
G37*
G36*
G01*
X161780000Y-118295000D02*
X161780000Y-117925000D01*
G75*
G02*
X161915000Y-117790000I135000J0D01*
G01*
X162185000Y-117790000D01*
G75*
G02*
X162320000Y-117925000I0J-135000D01*
G01*
X162320000Y-118295000D01*
G75*
G02*
X162185000Y-118430000I-135000J0D01*
G01*
X161915000Y-118430000D01*
G75*
G02*
X161780000Y-118295000I0J135000D01*
G01*
G37*
%TD*%
%TO.C,R16*%
G36*
G01*
X162800000Y-111945000D02*
X162800000Y-111575000D01*
G75*
G02*
X162935000Y-111440000I135000J0D01*
G01*
X163205000Y-111440000D01*
G75*
G02*
X163340000Y-111575000I0J-135000D01*
G01*
X163340000Y-111945000D01*
G75*
G02*
X163205000Y-112080000I-135000J0D01*
G01*
X162935000Y-112080000D01*
G75*
G02*
X162800000Y-111945000I0J135000D01*
G01*
G37*
G36*
G01*
X161780000Y-111945000D02*
X161780000Y-111575000D01*
G75*
G02*
X161915000Y-111440000I135000J0D01*
G01*
X162185000Y-111440000D01*
G75*
G02*
X162320000Y-111575000I0J-135000D01*
G01*
X162320000Y-111945000D01*
G75*
G02*
X162185000Y-112080000I-135000J0D01*
G01*
X161915000Y-112080000D01*
G75*
G02*
X161780000Y-111945000I0J135000D01*
G01*
G37*
%TD*%
%TO.C,R19*%
G36*
G01*
X166820000Y-101455000D02*
X167190000Y-101455000D01*
G75*
G02*
X167325000Y-101590000I0J-135000D01*
G01*
X167325000Y-101860000D01*
G75*
G02*
X167190000Y-101995000I-135000J0D01*
G01*
X166820000Y-101995000D01*
G75*
G02*
X166685000Y-101860000I0J135000D01*
G01*
X166685000Y-101590000D01*
G75*
G02*
X166820000Y-101455000I135000J0D01*
G01*
G37*
G36*
G01*
X166820000Y-102475000D02*
X167190000Y-102475000D01*
G75*
G02*
X167325000Y-102610000I0J-135000D01*
G01*
X167325000Y-102880000D01*
G75*
G02*
X167190000Y-103015000I-135000J0D01*
G01*
X166820000Y-103015000D01*
G75*
G02*
X166685000Y-102880000I0J135000D01*
G01*
X166685000Y-102610000D01*
G75*
G02*
X166820000Y-102475000I135000J0D01*
G01*
G37*
%TD*%
%TO.C,R20*%
G36*
G01*
X166820000Y-95105000D02*
X167190000Y-95105000D01*
G75*
G02*
X167325000Y-95240000I0J-135000D01*
G01*
X167325000Y-95510000D01*
G75*
G02*
X167190000Y-95645000I-135000J0D01*
G01*
X166820000Y-95645000D01*
G75*
G02*
X166685000Y-95510000I0J135000D01*
G01*
X166685000Y-95240000D01*
G75*
G02*
X166820000Y-95105000I135000J0D01*
G01*
G37*
G36*
G01*
X166820000Y-96125000D02*
X167190000Y-96125000D01*
G75*
G02*
X167325000Y-96260000I0J-135000D01*
G01*
X167325000Y-96530000D01*
G75*
G02*
X167190000Y-96665000I-135000J0D01*
G01*
X166820000Y-96665000D01*
G75*
G02*
X166685000Y-96530000I0J135000D01*
G01*
X166685000Y-96260000D01*
G75*
G02*
X166820000Y-96125000I135000J0D01*
G01*
G37*
%TD*%
%TO.C,R21*%
G36*
G01*
X162165000Y-101150000D02*
X162165000Y-100780000D01*
G75*
G02*
X162300000Y-100645000I135000J0D01*
G01*
X162570000Y-100645000D01*
G75*
G02*
X162705000Y-100780000I0J-135000D01*
G01*
X162705000Y-101150000D01*
G75*
G02*
X162570000Y-101285000I-135000J0D01*
G01*
X162300000Y-101285000D01*
G75*
G02*
X162165000Y-101150000I0J135000D01*
G01*
G37*
G36*
G01*
X161145000Y-101150000D02*
X161145000Y-100780000D01*
G75*
G02*
X161280000Y-100645000I135000J0D01*
G01*
X161550000Y-100645000D01*
G75*
G02*
X161685000Y-100780000I0J-135000D01*
G01*
X161685000Y-101150000D01*
G75*
G02*
X161550000Y-101285000I-135000J0D01*
G01*
X161280000Y-101285000D01*
G75*
G02*
X161145000Y-101150000I0J135000D01*
G01*
G37*
%TD*%
%TO.C,R22*%
G36*
G01*
X162165000Y-94165000D02*
X162165000Y-93795000D01*
G75*
G02*
X162300000Y-93660000I135000J0D01*
G01*
X162570000Y-93660000D01*
G75*
G02*
X162705000Y-93795000I0J-135000D01*
G01*
X162705000Y-94165000D01*
G75*
G02*
X162570000Y-94300000I-135000J0D01*
G01*
X162300000Y-94300000D01*
G75*
G02*
X162165000Y-94165000I0J135000D01*
G01*
G37*
G36*
G01*
X161145000Y-94165000D02*
X161145000Y-93795000D01*
G75*
G02*
X161280000Y-93660000I135000J0D01*
G01*
X161550000Y-93660000D01*
G75*
G02*
X161685000Y-93795000I0J-135000D01*
G01*
X161685000Y-94165000D01*
G75*
G02*
X161550000Y-94300000I-135000J0D01*
G01*
X161280000Y-94300000D01*
G75*
G02*
X161145000Y-94165000I0J135000D01*
G01*
G37*
%TD*%
%TO.C,R25*%
G36*
G01*
X166820000Y-84695000D02*
X167190000Y-84695000D01*
G75*
G02*
X167325000Y-84830000I0J-135000D01*
G01*
X167325000Y-85100000D01*
G75*
G02*
X167190000Y-85235000I-135000J0D01*
G01*
X166820000Y-85235000D01*
G75*
G02*
X166685000Y-85100000I0J135000D01*
G01*
X166685000Y-84830000D01*
G75*
G02*
X166820000Y-84695000I135000J0D01*
G01*
G37*
G36*
G01*
X166820000Y-83675000D02*
X167190000Y-83675000D01*
G75*
G02*
X167325000Y-83810000I0J-135000D01*
G01*
X167325000Y-84080000D01*
G75*
G02*
X167190000Y-84215000I-135000J0D01*
G01*
X166820000Y-84215000D01*
G75*
G02*
X166685000Y-84080000I0J135000D01*
G01*
X166685000Y-83810000D01*
G75*
G02*
X166820000Y-83675000I135000J0D01*
G01*
G37*
%TD*%
%TO.C,R26*%
G36*
G01*
X166820000Y-77325000D02*
X167190000Y-77325000D01*
G75*
G02*
X167325000Y-77460000I0J-135000D01*
G01*
X167325000Y-77730000D01*
G75*
G02*
X167190000Y-77865000I-135000J0D01*
G01*
X166820000Y-77865000D01*
G75*
G02*
X166685000Y-77730000I0J135000D01*
G01*
X166685000Y-77460000D01*
G75*
G02*
X166820000Y-77325000I135000J0D01*
G01*
G37*
G36*
G01*
X166820000Y-78345000D02*
X167190000Y-78345000D01*
G75*
G02*
X167325000Y-78480000I0J-135000D01*
G01*
X167325000Y-78750000D01*
G75*
G02*
X167190000Y-78885000I-135000J0D01*
G01*
X166820000Y-78885000D01*
G75*
G02*
X166685000Y-78750000I0J135000D01*
G01*
X166685000Y-78480000D01*
G75*
G02*
X166820000Y-78345000I135000J0D01*
G01*
G37*
%TD*%
%TO.C,R27*%
G36*
G01*
X144595000Y-102090000D02*
X144965000Y-102090000D01*
G75*
G02*
X145100000Y-102225000I0J-135000D01*
G01*
X145100000Y-102495000D01*
G75*
G02*
X144965000Y-102630000I-135000J0D01*
G01*
X144595000Y-102630000D01*
G75*
G02*
X144460000Y-102495000I0J135000D01*
G01*
X144460000Y-102225000D01*
G75*
G02*
X144595000Y-102090000I135000J0D01*
G01*
G37*
G36*
G01*
X144595000Y-103110000D02*
X144965000Y-103110000D01*
G75*
G02*
X145100000Y-103245000I0J-135000D01*
G01*
X145100000Y-103515000D01*
G75*
G02*
X144965000Y-103650000I-135000J0D01*
G01*
X144595000Y-103650000D01*
G75*
G02*
X144460000Y-103515000I0J135000D01*
G01*
X144460000Y-103245000D01*
G75*
G02*
X144595000Y-103110000I135000J0D01*
G01*
G37*
%TD*%
%TO.C,R28*%
G36*
G01*
X160510000Y-83370000D02*
X160510000Y-83000000D01*
G75*
G02*
X160645000Y-82865000I135000J0D01*
G01*
X160915000Y-82865000D01*
G75*
G02*
X161050000Y-83000000I0J-135000D01*
G01*
X161050000Y-83370000D01*
G75*
G02*
X160915000Y-83505000I-135000J0D01*
G01*
X160645000Y-83505000D01*
G75*
G02*
X160510000Y-83370000I0J135000D01*
G01*
G37*
G36*
G01*
X161530000Y-83370000D02*
X161530000Y-83000000D01*
G75*
G02*
X161665000Y-82865000I135000J0D01*
G01*
X161935000Y-82865000D01*
G75*
G02*
X162070000Y-83000000I0J-135000D01*
G01*
X162070000Y-83370000D01*
G75*
G02*
X161935000Y-83505000I-135000J0D01*
G01*
X161665000Y-83505000D01*
G75*
G02*
X161530000Y-83370000I0J135000D01*
G01*
G37*
%TD*%
%TO.C,R29*%
G36*
G01*
X161530000Y-77020000D02*
X161530000Y-76650000D01*
G75*
G02*
X161665000Y-76515000I135000J0D01*
G01*
X161935000Y-76515000D01*
G75*
G02*
X162070000Y-76650000I0J-135000D01*
G01*
X162070000Y-77020000D01*
G75*
G02*
X161935000Y-77155000I-135000J0D01*
G01*
X161665000Y-77155000D01*
G75*
G02*
X161530000Y-77020000I0J135000D01*
G01*
G37*
G36*
G01*
X160510000Y-77020000D02*
X160510000Y-76650000D01*
G75*
G02*
X160645000Y-76515000I135000J0D01*
G01*
X160915000Y-76515000D01*
G75*
G02*
X161050000Y-76650000I0J-135000D01*
G01*
X161050000Y-77020000D01*
G75*
G02*
X160915000Y-77155000I-135000J0D01*
G01*
X160645000Y-77155000D01*
G75*
G02*
X160510000Y-77020000I0J135000D01*
G01*
G37*
%TD*%
%TO.C,U1*%
G36*
G01*
X140252500Y-100520000D02*
X140377500Y-100520000D01*
G75*
G02*
X140440000Y-100582500I0J-62500D01*
G01*
X140440000Y-101282500D01*
G75*
G02*
X140377500Y-101345000I-62500J0D01*
G01*
X140252500Y-101345000D01*
G75*
G02*
X140190000Y-101282500I0J62500D01*
G01*
X140190000Y-100582500D01*
G75*
G02*
X140252500Y-100520000I62500J0D01*
G01*
G37*
G36*
G01*
X139752500Y-100520000D02*
X139877500Y-100520000D01*
G75*
G02*
X139940000Y-100582500I0J-62500D01*
G01*
X139940000Y-101282500D01*
G75*
G02*
X139877500Y-101345000I-62500J0D01*
G01*
X139752500Y-101345000D01*
G75*
G02*
X139690000Y-101282500I0J62500D01*
G01*
X139690000Y-100582500D01*
G75*
G02*
X139752500Y-100520000I62500J0D01*
G01*
G37*
G36*
G01*
X139252500Y-100520000D02*
X139377500Y-100520000D01*
G75*
G02*
X139440000Y-100582500I0J-62500D01*
G01*
X139440000Y-101282500D01*
G75*
G02*
X139377500Y-101345000I-62500J0D01*
G01*
X139252500Y-101345000D01*
G75*
G02*
X139190000Y-101282500I0J62500D01*
G01*
X139190000Y-100582500D01*
G75*
G02*
X139252500Y-100520000I62500J0D01*
G01*
G37*
G36*
G01*
X138752500Y-100520000D02*
X138877500Y-100520000D01*
G75*
G02*
X138940000Y-100582500I0J-62500D01*
G01*
X138940000Y-101282500D01*
G75*
G02*
X138877500Y-101345000I-62500J0D01*
G01*
X138752500Y-101345000D01*
G75*
G02*
X138690000Y-101282500I0J62500D01*
G01*
X138690000Y-100582500D01*
G75*
G02*
X138752500Y-100520000I62500J0D01*
G01*
G37*
G36*
G01*
X138252500Y-100520000D02*
X138377500Y-100520000D01*
G75*
G02*
X138440000Y-100582500I0J-62500D01*
G01*
X138440000Y-101282500D01*
G75*
G02*
X138377500Y-101345000I-62500J0D01*
G01*
X138252500Y-101345000D01*
G75*
G02*
X138190000Y-101282500I0J62500D01*
G01*
X138190000Y-100582500D01*
G75*
G02*
X138252500Y-100520000I62500J0D01*
G01*
G37*
G36*
G01*
X137752500Y-100520000D02*
X137877500Y-100520000D01*
G75*
G02*
X137940000Y-100582500I0J-62500D01*
G01*
X137940000Y-101282500D01*
G75*
G02*
X137877500Y-101345000I-62500J0D01*
G01*
X137752500Y-101345000D01*
G75*
G02*
X137690000Y-101282500I0J62500D01*
G01*
X137690000Y-100582500D01*
G75*
G02*
X137752500Y-100520000I62500J0D01*
G01*
G37*
G36*
G01*
X136777500Y-101495000D02*
X137477500Y-101495000D01*
G75*
G02*
X137540000Y-101557500I0J-62500D01*
G01*
X137540000Y-101682500D01*
G75*
G02*
X137477500Y-101745000I-62500J0D01*
G01*
X136777500Y-101745000D01*
G75*
G02*
X136715000Y-101682500I0J62500D01*
G01*
X136715000Y-101557500D01*
G75*
G02*
X136777500Y-101495000I62500J0D01*
G01*
G37*
G36*
G01*
X136777500Y-101995000D02*
X137477500Y-101995000D01*
G75*
G02*
X137540000Y-102057500I0J-62500D01*
G01*
X137540000Y-102182500D01*
G75*
G02*
X137477500Y-102245000I-62500J0D01*
G01*
X136777500Y-102245000D01*
G75*
G02*
X136715000Y-102182500I0J62500D01*
G01*
X136715000Y-102057500D01*
G75*
G02*
X136777500Y-101995000I62500J0D01*
G01*
G37*
G36*
G01*
X136777500Y-102495000D02*
X137477500Y-102495000D01*
G75*
G02*
X137540000Y-102557500I0J-62500D01*
G01*
X137540000Y-102682500D01*
G75*
G02*
X137477500Y-102745000I-62500J0D01*
G01*
X136777500Y-102745000D01*
G75*
G02*
X136715000Y-102682500I0J62500D01*
G01*
X136715000Y-102557500D01*
G75*
G02*
X136777500Y-102495000I62500J0D01*
G01*
G37*
G36*
G01*
X136777500Y-102995000D02*
X137477500Y-102995000D01*
G75*
G02*
X137540000Y-103057500I0J-62500D01*
G01*
X137540000Y-103182500D01*
G75*
G02*
X137477500Y-103245000I-62500J0D01*
G01*
X136777500Y-103245000D01*
G75*
G02*
X136715000Y-103182500I0J62500D01*
G01*
X136715000Y-103057500D01*
G75*
G02*
X136777500Y-102995000I62500J0D01*
G01*
G37*
G36*
G01*
X136777500Y-103495000D02*
X137477500Y-103495000D01*
G75*
G02*
X137540000Y-103557500I0J-62500D01*
G01*
X137540000Y-103682500D01*
G75*
G02*
X137477500Y-103745000I-62500J0D01*
G01*
X136777500Y-103745000D01*
G75*
G02*
X136715000Y-103682500I0J62500D01*
G01*
X136715000Y-103557500D01*
G75*
G02*
X136777500Y-103495000I62500J0D01*
G01*
G37*
G36*
G01*
X136777500Y-103995000D02*
X137477500Y-103995000D01*
G75*
G02*
X137540000Y-104057500I0J-62500D01*
G01*
X137540000Y-104182500D01*
G75*
G02*
X137477500Y-104245000I-62500J0D01*
G01*
X136777500Y-104245000D01*
G75*
G02*
X136715000Y-104182500I0J62500D01*
G01*
X136715000Y-104057500D01*
G75*
G02*
X136777500Y-103995000I62500J0D01*
G01*
G37*
G36*
G01*
X137752500Y-104395000D02*
X137877500Y-104395000D01*
G75*
G02*
X137940000Y-104457500I0J-62500D01*
G01*
X137940000Y-105157500D01*
G75*
G02*
X137877500Y-105220000I-62500J0D01*
G01*
X137752500Y-105220000D01*
G75*
G02*
X137690000Y-105157500I0J62500D01*
G01*
X137690000Y-104457500D01*
G75*
G02*
X137752500Y-104395000I62500J0D01*
G01*
G37*
G36*
G01*
X138252500Y-104395000D02*
X138377500Y-104395000D01*
G75*
G02*
X138440000Y-104457500I0J-62500D01*
G01*
X138440000Y-105157500D01*
G75*
G02*
X138377500Y-105220000I-62500J0D01*
G01*
X138252500Y-105220000D01*
G75*
G02*
X138190000Y-105157500I0J62500D01*
G01*
X138190000Y-104457500D01*
G75*
G02*
X138252500Y-104395000I62500J0D01*
G01*
G37*
G36*
G01*
X138752500Y-104395000D02*
X138877500Y-104395000D01*
G75*
G02*
X138940000Y-104457500I0J-62500D01*
G01*
X138940000Y-105157500D01*
G75*
G02*
X138877500Y-105220000I-62500J0D01*
G01*
X138752500Y-105220000D01*
G75*
G02*
X138690000Y-105157500I0J62500D01*
G01*
X138690000Y-104457500D01*
G75*
G02*
X138752500Y-104395000I62500J0D01*
G01*
G37*
G36*
G01*
X139252500Y-104395000D02*
X139377500Y-104395000D01*
G75*
G02*
X139440000Y-104457500I0J-62500D01*
G01*
X139440000Y-105157500D01*
G75*
G02*
X139377500Y-105220000I-62500J0D01*
G01*
X139252500Y-105220000D01*
G75*
G02*
X139190000Y-105157500I0J62500D01*
G01*
X139190000Y-104457500D01*
G75*
G02*
X139252500Y-104395000I62500J0D01*
G01*
G37*
G36*
G01*
X139752500Y-104395000D02*
X139877500Y-104395000D01*
G75*
G02*
X139940000Y-104457500I0J-62500D01*
G01*
X139940000Y-105157500D01*
G75*
G02*
X139877500Y-105220000I-62500J0D01*
G01*
X139752500Y-105220000D01*
G75*
G02*
X139690000Y-105157500I0J62500D01*
G01*
X139690000Y-104457500D01*
G75*
G02*
X139752500Y-104395000I62500J0D01*
G01*
G37*
G36*
G01*
X140252500Y-104395000D02*
X140377500Y-104395000D01*
G75*
G02*
X140440000Y-104457500I0J-62500D01*
G01*
X140440000Y-105157500D01*
G75*
G02*
X140377500Y-105220000I-62500J0D01*
G01*
X140252500Y-105220000D01*
G75*
G02*
X140190000Y-105157500I0J62500D01*
G01*
X140190000Y-104457500D01*
G75*
G02*
X140252500Y-104395000I62500J0D01*
G01*
G37*
G36*
G01*
X140652500Y-103995000D02*
X141352500Y-103995000D01*
G75*
G02*
X141415000Y-104057500I0J-62500D01*
G01*
X141415000Y-104182500D01*
G75*
G02*
X141352500Y-104245000I-62500J0D01*
G01*
X140652500Y-104245000D01*
G75*
G02*
X140590000Y-104182500I0J62500D01*
G01*
X140590000Y-104057500D01*
G75*
G02*
X140652500Y-103995000I62500J0D01*
G01*
G37*
G36*
G01*
X140652500Y-103495000D02*
X141352500Y-103495000D01*
G75*
G02*
X141415000Y-103557500I0J-62500D01*
G01*
X141415000Y-103682500D01*
G75*
G02*
X141352500Y-103745000I-62500J0D01*
G01*
X140652500Y-103745000D01*
G75*
G02*
X140590000Y-103682500I0J62500D01*
G01*
X140590000Y-103557500D01*
G75*
G02*
X140652500Y-103495000I62500J0D01*
G01*
G37*
G36*
G01*
X140652500Y-102995000D02*
X141352500Y-102995000D01*
G75*
G02*
X141415000Y-103057500I0J-62500D01*
G01*
X141415000Y-103182500D01*
G75*
G02*
X141352500Y-103245000I-62500J0D01*
G01*
X140652500Y-103245000D01*
G75*
G02*
X140590000Y-103182500I0J62500D01*
G01*
X140590000Y-103057500D01*
G75*
G02*
X140652500Y-102995000I62500J0D01*
G01*
G37*
G36*
G01*
X140652500Y-102495000D02*
X141352500Y-102495000D01*
G75*
G02*
X141415000Y-102557500I0J-62500D01*
G01*
X141415000Y-102682500D01*
G75*
G02*
X141352500Y-102745000I-62500J0D01*
G01*
X140652500Y-102745000D01*
G75*
G02*
X140590000Y-102682500I0J62500D01*
G01*
X140590000Y-102557500D01*
G75*
G02*
X140652500Y-102495000I62500J0D01*
G01*
G37*
G36*
G01*
X140652500Y-101995000D02*
X141352500Y-101995000D01*
G75*
G02*
X141415000Y-102057500I0J-62500D01*
G01*
X141415000Y-102182500D01*
G75*
G02*
X141352500Y-102245000I-62500J0D01*
G01*
X140652500Y-102245000D01*
G75*
G02*
X140590000Y-102182500I0J62500D01*
G01*
X140590000Y-102057500D01*
G75*
G02*
X140652500Y-101995000I62500J0D01*
G01*
G37*
G36*
G01*
X140652500Y-101495000D02*
X141352500Y-101495000D01*
G75*
G02*
X141415000Y-101557500I0J-62500D01*
G01*
X141415000Y-101682500D01*
G75*
G02*
X141352500Y-101745000I-62500J0D01*
G01*
X140652500Y-101745000D01*
G75*
G02*
X140590000Y-101682500I0J62500D01*
G01*
X140590000Y-101557500D01*
G75*
G02*
X140652500Y-101495000I62500J0D01*
G01*
G37*
G36*
G01*
X139439999Y-101695000D02*
X139990001Y-101695000D01*
G75*
G02*
X140240000Y-101944999I0J-249999D01*
G01*
X140240000Y-102495001D01*
G75*
G02*
X139990001Y-102745000I-249999J0D01*
G01*
X139439999Y-102745000D01*
G75*
G02*
X139190000Y-102495001I0J249999D01*
G01*
X139190000Y-101944999D01*
G75*
G02*
X139439999Y-101695000I249999J0D01*
G01*
G37*
G36*
G01*
X138139999Y-101695000D02*
X138690001Y-101695000D01*
G75*
G02*
X138940000Y-101944999I0J-249999D01*
G01*
X138940000Y-102495001D01*
G75*
G02*
X138690001Y-102745000I-249999J0D01*
G01*
X138139999Y-102745000D01*
G75*
G02*
X137890000Y-102495001I0J249999D01*
G01*
X137890000Y-101944999D01*
G75*
G02*
X138139999Y-101695000I249999J0D01*
G01*
G37*
G36*
G01*
X139439999Y-102995000D02*
X139990001Y-102995000D01*
G75*
G02*
X140240000Y-103244999I0J-249999D01*
G01*
X140240000Y-103795001D01*
G75*
G02*
X139990001Y-104045000I-249999J0D01*
G01*
X139439999Y-104045000D01*
G75*
G02*
X139190000Y-103795001I0J249999D01*
G01*
X139190000Y-103244999D01*
G75*
G02*
X139439999Y-102995000I249999J0D01*
G01*
G37*
G36*
G01*
X138139999Y-102995000D02*
X138690001Y-102995000D01*
G75*
G02*
X138940000Y-103244999I0J-249999D01*
G01*
X138940000Y-103795001D01*
G75*
G02*
X138690001Y-104045000I-249999J0D01*
G01*
X138139999Y-104045000D01*
G75*
G02*
X137890000Y-103795001I0J249999D01*
G01*
X137890000Y-103244999D01*
G75*
G02*
X138139999Y-102995000I249999J0D01*
G01*
G37*
%TD*%
%TO.C,U4*%
G36*
G01*
X129055000Y-77745000D02*
X128755000Y-77745000D01*
G75*
G02*
X128605000Y-77595000I0J150000D01*
G01*
X128605000Y-76245000D01*
G75*
G02*
X128755000Y-76095000I150000J0D01*
G01*
X129055000Y-76095000D01*
G75*
G02*
X129205000Y-76245000I0J-150000D01*
G01*
X129205000Y-77595000D01*
G75*
G02*
X129055000Y-77745000I-150000J0D01*
G01*
G37*
G36*
G01*
X130325000Y-77745000D02*
X130025000Y-77745000D01*
G75*
G02*
X129875000Y-77595000I0J150000D01*
G01*
X129875000Y-76245000D01*
G75*
G02*
X130025000Y-76095000I150000J0D01*
G01*
X130325000Y-76095000D01*
G75*
G02*
X130475000Y-76245000I0J-150000D01*
G01*
X130475000Y-77595000D01*
G75*
G02*
X130325000Y-77745000I-150000J0D01*
G01*
G37*
G36*
G01*
X131595000Y-77745000D02*
X131295000Y-77745000D01*
G75*
G02*
X131145000Y-77595000I0J150000D01*
G01*
X131145000Y-76245000D01*
G75*
G02*
X131295000Y-76095000I150000J0D01*
G01*
X131595000Y-76095000D01*
G75*
G02*
X131745000Y-76245000I0J-150000D01*
G01*
X131745000Y-77595000D01*
G75*
G02*
X131595000Y-77745000I-150000J0D01*
G01*
G37*
G36*
G01*
X132865000Y-77745000D02*
X132565000Y-77745000D01*
G75*
G02*
X132415000Y-77595000I0J150000D01*
G01*
X132415000Y-76245000D01*
G75*
G02*
X132565000Y-76095000I150000J0D01*
G01*
X132865000Y-76095000D01*
G75*
G02*
X133015000Y-76245000I0J-150000D01*
G01*
X133015000Y-77595000D01*
G75*
G02*
X132865000Y-77745000I-150000J0D01*
G01*
G37*
G36*
G01*
X132865000Y-72495000D02*
X132565000Y-72495000D01*
G75*
G02*
X132415000Y-72345000I0J150000D01*
G01*
X132415000Y-70995000D01*
G75*
G02*
X132565000Y-70845000I150000J0D01*
G01*
X132865000Y-70845000D01*
G75*
G02*
X133015000Y-70995000I0J-150000D01*
G01*
X133015000Y-72345000D01*
G75*
G02*
X132865000Y-72495000I-150000J0D01*
G01*
G37*
G36*
G01*
X131595000Y-72495000D02*
X131295000Y-72495000D01*
G75*
G02*
X131145000Y-72345000I0J150000D01*
G01*
X131145000Y-70995000D01*
G75*
G02*
X131295000Y-70845000I150000J0D01*
G01*
X131595000Y-70845000D01*
G75*
G02*
X131745000Y-70995000I0J-150000D01*
G01*
X131745000Y-72345000D01*
G75*
G02*
X131595000Y-72495000I-150000J0D01*
G01*
G37*
G36*
G01*
X130325000Y-72495000D02*
X130025000Y-72495000D01*
G75*
G02*
X129875000Y-72345000I0J150000D01*
G01*
X129875000Y-70995000D01*
G75*
G02*
X130025000Y-70845000I150000J0D01*
G01*
X130325000Y-70845000D01*
G75*
G02*
X130475000Y-70995000I0J-150000D01*
G01*
X130475000Y-72345000D01*
G75*
G02*
X130325000Y-72495000I-150000J0D01*
G01*
G37*
G36*
G01*
X129055000Y-72495000D02*
X128755000Y-72495000D01*
G75*
G02*
X128605000Y-72345000I0J150000D01*
G01*
X128605000Y-70995000D01*
G75*
G02*
X128755000Y-70845000I150000J0D01*
G01*
X129055000Y-70845000D01*
G75*
G02*
X129205000Y-70995000I0J-150000D01*
G01*
X129205000Y-72345000D01*
G75*
G02*
X129055000Y-72495000I-150000J0D01*
G01*
G37*
%TD*%
D13*
%TO.C,U2*%
X138430000Y-126135000D03*
X135890000Y-126135000D03*
X135890000Y-116435000D03*
X138430000Y-116435000D03*
%TD*%
%TO.C,U3*%
X147955000Y-116435000D03*
X145415000Y-116435000D03*
X145415000Y-126135000D03*
X147955000Y-126135000D03*
%TD*%
%TO.C,D7*%
G36*
G01*
X133606250Y-112045000D02*
X133093750Y-112045000D01*
G75*
G02*
X132875000Y-111826250I0J218750D01*
G01*
X132875000Y-111388750D01*
G75*
G02*
X133093750Y-111170000I218750J0D01*
G01*
X133606250Y-111170000D01*
G75*
G02*
X133825000Y-111388750I0J-218750D01*
G01*
X133825000Y-111826250D01*
G75*
G02*
X133606250Y-112045000I-218750J0D01*
G01*
G37*
G36*
G01*
X133606250Y-113620000D02*
X133093750Y-113620000D01*
G75*
G02*
X132875000Y-113401250I0J218750D01*
G01*
X132875000Y-112963750D01*
G75*
G02*
X133093750Y-112745000I218750J0D01*
G01*
X133606250Y-112745000D01*
G75*
G02*
X133825000Y-112963750I0J-218750D01*
G01*
X133825000Y-113401250D01*
G75*
G02*
X133606250Y-113620000I-218750J0D01*
G01*
G37*
%TD*%
%TO.C,D8*%
G36*
G01*
X143131250Y-113620000D02*
X142618750Y-113620000D01*
G75*
G02*
X142400000Y-113401250I0J218750D01*
G01*
X142400000Y-112963750D01*
G75*
G02*
X142618750Y-112745000I218750J0D01*
G01*
X143131250Y-112745000D01*
G75*
G02*
X143350000Y-112963750I0J-218750D01*
G01*
X143350000Y-113401250D01*
G75*
G02*
X143131250Y-113620000I-218750J0D01*
G01*
G37*
G36*
G01*
X143131250Y-112045000D02*
X142618750Y-112045000D01*
G75*
G02*
X142400000Y-111826250I0J218750D01*
G01*
X142400000Y-111388750D01*
G75*
G02*
X142618750Y-111170000I218750J0D01*
G01*
X143131250Y-111170000D01*
G75*
G02*
X143350000Y-111388750I0J-218750D01*
G01*
X143350000Y-111826250D01*
G75*
G02*
X143131250Y-112045000I-218750J0D01*
G01*
G37*
%TD*%
%TO.C,R32*%
G36*
G01*
X134980000Y-111170000D02*
X135530000Y-111170000D01*
G75*
G02*
X135730000Y-111370000I0J-200000D01*
G01*
X135730000Y-111770000D01*
G75*
G02*
X135530000Y-111970000I-200000J0D01*
G01*
X134980000Y-111970000D01*
G75*
G02*
X134780000Y-111770000I0J200000D01*
G01*
X134780000Y-111370000D01*
G75*
G02*
X134980000Y-111170000I200000J0D01*
G01*
G37*
G36*
G01*
X134980000Y-112820000D02*
X135530000Y-112820000D01*
G75*
G02*
X135730000Y-113020000I0J-200000D01*
G01*
X135730000Y-113420000D01*
G75*
G02*
X135530000Y-113620000I-200000J0D01*
G01*
X134980000Y-113620000D01*
G75*
G02*
X134780000Y-113420000I0J200000D01*
G01*
X134780000Y-113020000D01*
G75*
G02*
X134980000Y-112820000I200000J0D01*
G01*
G37*
%TD*%
%TO.C,R33*%
G36*
G01*
X144505000Y-112820000D02*
X145055000Y-112820000D01*
G75*
G02*
X145255000Y-113020000I0J-200000D01*
G01*
X145255000Y-113420000D01*
G75*
G02*
X145055000Y-113620000I-200000J0D01*
G01*
X144505000Y-113620000D01*
G75*
G02*
X144305000Y-113420000I0J200000D01*
G01*
X144305000Y-113020000D01*
G75*
G02*
X144505000Y-112820000I200000J0D01*
G01*
G37*
G36*
G01*
X144505000Y-111170000D02*
X145055000Y-111170000D01*
G75*
G02*
X145255000Y-111370000I0J-200000D01*
G01*
X145255000Y-111770000D01*
G75*
G02*
X145055000Y-111970000I-200000J0D01*
G01*
X144505000Y-111970000D01*
G75*
G02*
X144305000Y-111770000I0J200000D01*
G01*
X144305000Y-111370000D01*
G75*
G02*
X144505000Y-111170000I200000J0D01*
G01*
G37*
%TD*%
D14*
%TO.C,L1*%
X142875000Y-81910000D03*
X142875000Y-90810000D03*
%TD*%
%TO.C,R17*%
G36*
G01*
X158759999Y-122185000D02*
X160010001Y-122185000D01*
G75*
G02*
X160260000Y-122434999I0J-249999D01*
G01*
X160260000Y-123060001D01*
G75*
G02*
X160010001Y-123310000I-249999J0D01*
G01*
X158759999Y-123310000D01*
G75*
G02*
X158510000Y-123060001I0J249999D01*
G01*
X158510000Y-122434999D01*
G75*
G02*
X158759999Y-122185000I249999J0D01*
G01*
G37*
G36*
G01*
X158759999Y-119260000D02*
X160010001Y-119260000D01*
G75*
G02*
X160260000Y-119509999I0J-249999D01*
G01*
X160260000Y-120135001D01*
G75*
G02*
X160010001Y-120385000I-249999J0D01*
G01*
X158759999Y-120385000D01*
G75*
G02*
X158510000Y-120135001I0J249999D01*
G01*
X158510000Y-119509999D01*
G75*
G02*
X158759999Y-119260000I249999J0D01*
G01*
G37*
%TD*%
%TO.C,R18*%
G36*
G01*
X158759999Y-112275000D02*
X160010001Y-112275000D01*
G75*
G02*
X160260000Y-112524999I0J-249999D01*
G01*
X160260000Y-113150001D01*
G75*
G02*
X160010001Y-113400000I-249999J0D01*
G01*
X158759999Y-113400000D01*
G75*
G02*
X158510000Y-113150001I0J249999D01*
G01*
X158510000Y-112524999D01*
G75*
G02*
X158759999Y-112275000I249999J0D01*
G01*
G37*
G36*
G01*
X158759999Y-115200000D02*
X160010001Y-115200000D01*
G75*
G02*
X160260000Y-115449999I0J-249999D01*
G01*
X160260000Y-116075001D01*
G75*
G02*
X160010001Y-116325000I-249999J0D01*
G01*
X158759999Y-116325000D01*
G75*
G02*
X158510000Y-116075001I0J249999D01*
G01*
X158510000Y-115449999D01*
G75*
G02*
X158759999Y-115200000I249999J0D01*
G01*
G37*
%TD*%
%TO.C,R23*%
G36*
G01*
X158759999Y-101480000D02*
X160010001Y-101480000D01*
G75*
G02*
X160260000Y-101729999I0J-249999D01*
G01*
X160260000Y-102355001D01*
G75*
G02*
X160010001Y-102605000I-249999J0D01*
G01*
X158759999Y-102605000D01*
G75*
G02*
X158510000Y-102355001I0J249999D01*
G01*
X158510000Y-101729999D01*
G75*
G02*
X158759999Y-101480000I249999J0D01*
G01*
G37*
G36*
G01*
X158759999Y-104405000D02*
X160010001Y-104405000D01*
G75*
G02*
X160260000Y-104654999I0J-249999D01*
G01*
X160260000Y-105280001D01*
G75*
G02*
X160010001Y-105530000I-249999J0D01*
G01*
X158759999Y-105530000D01*
G75*
G02*
X158510000Y-105280001I0J249999D01*
G01*
X158510000Y-104654999D01*
G75*
G02*
X158759999Y-104405000I249999J0D01*
G01*
G37*
%TD*%
%TO.C,R24*%
G36*
G01*
X158759999Y-97420000D02*
X160010001Y-97420000D01*
G75*
G02*
X160260000Y-97669999I0J-249999D01*
G01*
X160260000Y-98295001D01*
G75*
G02*
X160010001Y-98545000I-249999J0D01*
G01*
X158759999Y-98545000D01*
G75*
G02*
X158510000Y-98295001I0J249999D01*
G01*
X158510000Y-97669999D01*
G75*
G02*
X158759999Y-97420000I249999J0D01*
G01*
G37*
G36*
G01*
X158759999Y-94495000D02*
X160010001Y-94495000D01*
G75*
G02*
X160260000Y-94744999I0J-249999D01*
G01*
X160260000Y-95370001D01*
G75*
G02*
X160010001Y-95620000I-249999J0D01*
G01*
X158759999Y-95620000D01*
G75*
G02*
X158510000Y-95370001I0J249999D01*
G01*
X158510000Y-94744999D01*
G75*
G02*
X158759999Y-94495000I249999J0D01*
G01*
G37*
%TD*%
%TO.C,R30*%
G36*
G01*
X158378999Y-86625000D02*
X159629001Y-86625000D01*
G75*
G02*
X159879000Y-86874999I0J-249999D01*
G01*
X159879000Y-87500001D01*
G75*
G02*
X159629001Y-87750000I-249999J0D01*
G01*
X158378999Y-87750000D01*
G75*
G02*
X158129000Y-87500001I0J249999D01*
G01*
X158129000Y-86874999D01*
G75*
G02*
X158378999Y-86625000I249999J0D01*
G01*
G37*
G36*
G01*
X158378999Y-83700000D02*
X159629001Y-83700000D01*
G75*
G02*
X159879000Y-83949999I0J-249999D01*
G01*
X159879000Y-84575001D01*
G75*
G02*
X159629001Y-84825000I-249999J0D01*
G01*
X158378999Y-84825000D01*
G75*
G02*
X158129000Y-84575001I0J249999D01*
G01*
X158129000Y-83949999D01*
G75*
G02*
X158378999Y-83700000I249999J0D01*
G01*
G37*
%TD*%
%TO.C,R31*%
G36*
G01*
X158378999Y-76715000D02*
X159629001Y-76715000D01*
G75*
G02*
X159879000Y-76964999I0J-249999D01*
G01*
X159879000Y-77590001D01*
G75*
G02*
X159629001Y-77840000I-249999J0D01*
G01*
X158378999Y-77840000D01*
G75*
G02*
X158129000Y-77590001I0J249999D01*
G01*
X158129000Y-76964999D01*
G75*
G02*
X158378999Y-76715000I249999J0D01*
G01*
G37*
G36*
G01*
X158378999Y-79640000D02*
X159629001Y-79640000D01*
G75*
G02*
X159879000Y-79889999I0J-249999D01*
G01*
X159879000Y-80515001D01*
G75*
G02*
X159629001Y-80765000I-249999J0D01*
G01*
X158378999Y-80765000D01*
G75*
G02*
X158129000Y-80515001I0J249999D01*
G01*
X158129000Y-79889999D01*
G75*
G02*
X158378999Y-79640000I249999J0D01*
G01*
G37*
%TD*%
M02*
