%TF.GenerationSoftware,KiCad,Pcbnew,5.1.10-88a1d61d58~90~ubuntu20.04.1*%
%TF.CreationDate,2021-08-03T18:26:50-06:00*%
%TF.ProjectId,ring_light_controller,72696e67-5f6c-4696-9768-745f636f6e74,5*%
%TF.SameCoordinates,Original*%
%TF.FileFunction,Copper,L2,Bot*%
%TF.FilePolarity,Positive*%
%FSLAX46Y46*%
G04 Gerber Fmt 4.6, Leading zero omitted, Abs format (unit mm)*
G04 Created by KiCad (PCBNEW 5.1.10-88a1d61d58~90~ubuntu20.04.1) date 2021-08-03 18:26:50*
%MOMM*%
%LPD*%
G01*
G04 APERTURE LIST*
%TA.AperFunction,WasherPad*%
%ADD10C,1.500000*%
%TD*%
%TA.AperFunction,ComponentPad*%
%ADD11O,2.000000X1.700000*%
%TD*%
%TA.AperFunction,ComponentPad*%
%ADD12C,0.900000*%
%TD*%
%TA.AperFunction,ComponentPad*%
%ADD13C,10.600000*%
%TD*%
%TA.AperFunction,ComponentPad*%
%ADD14R,3.500000X3.500000*%
%TD*%
%TA.AperFunction,ComponentPad*%
%ADD15O,1.700000X1.950000*%
%TD*%
%TA.AperFunction,ComponentPad*%
%ADD16R,1.700000X1.700000*%
%TD*%
%TA.AperFunction,ComponentPad*%
%ADD17O,1.700000X1.700000*%
%TD*%
%TA.AperFunction,ViaPad*%
%ADD18C,0.800000*%
%TD*%
%TA.AperFunction,ViaPad*%
%ADD19C,0.600000*%
%TD*%
%TA.AperFunction,Conductor*%
%ADD20C,0.750000*%
%TD*%
%TA.AperFunction,Conductor*%
%ADD21C,0.300000*%
%TD*%
%TA.AperFunction,Conductor*%
%ADD22C,0.250000*%
%TD*%
%TA.AperFunction,Conductor*%
%ADD23C,0.254000*%
%TD*%
%TA.AperFunction,Conductor*%
%ADD24C,0.100000*%
%TD*%
G04 APERTURE END LIST*
D10*
%TO.P,J2,*%
%TO.N,*%
X101124000Y-106680000D03*
X107124000Y-106680000D03*
%TD*%
%TO.P,J6,1*%
%TO.N,Net-(J6-Pad1)*%
%TA.AperFunction,ComponentPad*%
G36*
G01*
X177050000Y-102782000D02*
X178550000Y-102782000D01*
G75*
G02*
X178800000Y-103032000I0J-250000D01*
G01*
X178800000Y-104232000D01*
G75*
G02*
X178550000Y-104482000I-250000J0D01*
G01*
X177050000Y-104482000D01*
G75*
G02*
X176800000Y-104232000I0J250000D01*
G01*
X176800000Y-103032000D01*
G75*
G02*
X177050000Y-102782000I250000J0D01*
G01*
G37*
%TD.AperFunction*%
D11*
%TO.P,J6,2*%
%TO.N,+24V*%
X177800000Y-106132000D03*
%TD*%
D12*
%TO.P,H1,1*%
%TO.N,GND*%
X176800749Y-131809251D03*
X173990000Y-130645000D03*
X171179251Y-131809251D03*
X170015000Y-134620000D03*
X171179251Y-137430749D03*
X173990000Y-138595000D03*
X176800749Y-137430749D03*
X177965000Y-134620000D03*
D13*
X173990000Y-134620000D03*
%TD*%
%TO.P,H2,1*%
%TO.N,GND*%
X173990000Y-66040000D03*
D12*
X177965000Y-66040000D03*
X176800749Y-68850749D03*
X173990000Y-70015000D03*
X171179251Y-68850749D03*
X170015000Y-66040000D03*
X171179251Y-63229251D03*
X173990000Y-62065000D03*
X176800749Y-63229251D03*
%TD*%
%TO.P,H3,1*%
%TO.N,GND*%
X108855749Y-63229251D03*
X106045000Y-62065000D03*
X103234251Y-63229251D03*
X102070000Y-66040000D03*
X103234251Y-68850749D03*
X106045000Y-70015000D03*
X108855749Y-68850749D03*
X110020000Y-66040000D03*
D13*
X106045000Y-66040000D03*
%TD*%
%TO.P,H4,1*%
%TO.N,GND*%
X106045000Y-134620000D03*
D12*
X110020000Y-134620000D03*
X108855749Y-137430749D03*
X106045000Y-138595000D03*
X103234251Y-137430749D03*
X102070000Y-134620000D03*
X103234251Y-131809251D03*
X106045000Y-130645000D03*
X108855749Y-131809251D03*
%TD*%
D11*
%TO.P,J4,2*%
%TO.N,+24V*%
X177800000Y-123912000D03*
%TO.P,J4,1*%
%TO.N,Net-(J4-Pad1)*%
%TA.AperFunction,ComponentPad*%
G36*
G01*
X177050000Y-120562000D02*
X178550000Y-120562000D01*
G75*
G02*
X178800000Y-120812000I0J-250000D01*
G01*
X178800000Y-122012000D01*
G75*
G02*
X178550000Y-122262000I-250000J0D01*
G01*
X177050000Y-122262000D01*
G75*
G02*
X176800000Y-122012000I0J250000D01*
G01*
X176800000Y-120812000D01*
G75*
G02*
X177050000Y-120562000I250000J0D01*
G01*
G37*
%TD.AperFunction*%
%TD*%
%TO.P,J5,1*%
%TO.N,Net-(J5-Pad1)*%
%TA.AperFunction,ComponentPad*%
G36*
G01*
X177050000Y-111926000D02*
X178550000Y-111926000D01*
G75*
G02*
X178800000Y-112176000I0J-250000D01*
G01*
X178800000Y-113376000D01*
G75*
G02*
X178550000Y-113626000I-250000J0D01*
G01*
X177050000Y-113626000D01*
G75*
G02*
X176800000Y-113376000I0J250000D01*
G01*
X176800000Y-112176000D01*
G75*
G02*
X177050000Y-111926000I250000J0D01*
G01*
G37*
%TD.AperFunction*%
%TO.P,J5,2*%
%TO.N,+24V*%
X177800000Y-115276000D03*
%TD*%
%TO.P,J7,2*%
%TO.N,+24V*%
X177800000Y-97496000D03*
%TO.P,J7,1*%
%TO.N,Net-(J7-Pad1)*%
%TA.AperFunction,ComponentPad*%
G36*
G01*
X177050000Y-94146000D02*
X178550000Y-94146000D01*
G75*
G02*
X178800000Y-94396000I0J-250000D01*
G01*
X178800000Y-95596000D01*
G75*
G02*
X178550000Y-95846000I-250000J0D01*
G01*
X177050000Y-95846000D01*
G75*
G02*
X176800000Y-95596000I0J250000D01*
G01*
X176800000Y-94396000D01*
G75*
G02*
X177050000Y-94146000I250000J0D01*
G01*
G37*
%TD.AperFunction*%
%TD*%
D14*
%TO.P,J8,1*%
%TO.N,Net-(FB1-Pad2)*%
X111760000Y-83820000D03*
%TO.P,J8,2*%
%TO.N,GND*%
%TA.AperFunction,ComponentPad*%
G36*
G01*
X104260000Y-84820000D02*
X104260000Y-82820000D01*
G75*
G02*
X105010000Y-82070000I750000J0D01*
G01*
X106510000Y-82070000D01*
G75*
G02*
X107260000Y-82820000I0J-750000D01*
G01*
X107260000Y-84820000D01*
G75*
G02*
X106510000Y-85570000I-750000J0D01*
G01*
X105010000Y-85570000D01*
G75*
G02*
X104260000Y-84820000I0J750000D01*
G01*
G37*
%TD.AperFunction*%
%TO.P,J8,3*%
%TO.N,N/C*%
%TA.AperFunction,ComponentPad*%
G36*
G01*
X107010000Y-89395000D02*
X107010000Y-87645000D01*
G75*
G02*
X107885000Y-86770000I875000J0D01*
G01*
X109635000Y-86770000D01*
G75*
G02*
X110510000Y-87645000I0J-875000D01*
G01*
X110510000Y-89395000D01*
G75*
G02*
X109635000Y-90270000I-875000J0D01*
G01*
X107885000Y-90270000D01*
G75*
G02*
X107010000Y-89395000I0J875000D01*
G01*
G37*
%TD.AperFunction*%
%TD*%
D11*
%TO.P,J10,2*%
%TO.N,+24V*%
X177800000Y-88352000D03*
%TO.P,J10,1*%
%TO.N,Net-(J10-Pad1)*%
%TA.AperFunction,ComponentPad*%
G36*
G01*
X177050000Y-85002000D02*
X178550000Y-85002000D01*
G75*
G02*
X178800000Y-85252000I0J-250000D01*
G01*
X178800000Y-86452000D01*
G75*
G02*
X178550000Y-86702000I-250000J0D01*
G01*
X177050000Y-86702000D01*
G75*
G02*
X176800000Y-86452000I0J250000D01*
G01*
X176800000Y-85252000D01*
G75*
G02*
X177050000Y-85002000I250000J0D01*
G01*
G37*
%TD.AperFunction*%
%TD*%
%TO.P,J11,1*%
%TO.N,Net-(J11-Pad1)*%
%TA.AperFunction,ComponentPad*%
G36*
G01*
X177050000Y-76366000D02*
X178550000Y-76366000D01*
G75*
G02*
X178800000Y-76616000I0J-250000D01*
G01*
X178800000Y-77816000D01*
G75*
G02*
X178550000Y-78066000I-250000J0D01*
G01*
X177050000Y-78066000D01*
G75*
G02*
X176800000Y-77816000I0J250000D01*
G01*
X176800000Y-76616000D01*
G75*
G02*
X177050000Y-76366000I250000J0D01*
G01*
G37*
%TD.AperFunction*%
%TO.P,J11,2*%
%TO.N,+24V*%
X177800000Y-79716000D03*
%TD*%
%TO.P,J12,1*%
%TO.N,C_LED_CTRL*%
%TA.AperFunction,ComponentPad*%
G36*
G01*
X125270000Y-137451000D02*
X125270000Y-138901000D01*
G75*
G02*
X125020000Y-139151000I-250000J0D01*
G01*
X123820000Y-139151000D01*
G75*
G02*
X123570000Y-138901000I0J250000D01*
G01*
X123570000Y-137451000D01*
G75*
G02*
X123820000Y-137201000I250000J0D01*
G01*
X125020000Y-137201000D01*
G75*
G02*
X125270000Y-137451000I0J-250000D01*
G01*
G37*
%TD.AperFunction*%
D15*
%TO.P,J12,2*%
%TO.N,GND*%
X121920000Y-138176000D03*
%TO.P,J12,3*%
%TO.N,+5V*%
X119420000Y-138176000D03*
%TD*%
%TO.P,J13,1*%
%TO.N,TEMP_SEN*%
%TA.AperFunction,ComponentPad*%
G36*
G01*
X127115000Y-101180000D02*
X125615000Y-101180000D01*
G75*
G02*
X125365000Y-100930000I0J250000D01*
G01*
X125365000Y-99730000D01*
G75*
G02*
X125615000Y-99480000I250000J0D01*
G01*
X127115000Y-99480000D01*
G75*
G02*
X127365000Y-99730000I0J-250000D01*
G01*
X127365000Y-100930000D01*
G75*
G02*
X127115000Y-101180000I-250000J0D01*
G01*
G37*
%TD.AperFunction*%
D11*
%TO.P,J13,2*%
%TO.N,+5V*%
X126365000Y-97830000D03*
%TD*%
D16*
%TO.P,J9,1*%
%TO.N,+5V*%
X148336000Y-105156000D03*
D17*
%TO.P,J9,2*%
%TO.N,GND*%
X148336000Y-102616000D03*
%TO.P,J9,3*%
%TO.N,Net-(J9-Pad3)*%
X148336000Y-100076000D03*
%TD*%
D10*
%TO.P,J3,*%
%TO.N,*%
X107124000Y-119888000D03*
X101124000Y-119888000D03*
%TD*%
D18*
%TO.N,+5V*%
X150495000Y-84455000D03*
D19*
X147955000Y-94615000D03*
D18*
X118872000Y-117348000D03*
X119380000Y-121920000D03*
%TO.N,GND*%
X134620000Y-88900000D03*
X132715000Y-68580000D03*
X131445000Y-68580000D03*
X130175000Y-68580000D03*
X128905000Y-68580000D03*
X134620000Y-82550000D03*
X128270000Y-90805000D03*
X149860000Y-76200000D03*
D19*
X157480000Y-78740000D03*
X156845000Y-84455000D03*
X161290000Y-85090000D03*
X158115000Y-100330000D03*
X161290000Y-96520000D03*
X157480000Y-116205000D03*
X157480000Y-118745000D03*
X140970000Y-113030000D03*
X136525000Y-119380000D03*
X117729000Y-114173000D03*
X118999000Y-110998000D03*
X142240000Y-96520000D03*
D18*
X105156000Y-93472000D03*
D19*
%TO.N,C_LED_CTRL*%
X133985000Y-102870000D03*
X133350000Y-107950000D03*
%TD*%
D20*
%TO.N,+5V*%
X150495000Y-127635000D02*
X146685000Y-131445000D01*
X146685000Y-131445000D02*
X121920000Y-131445000D01*
X119420000Y-133945000D02*
X119420000Y-137160000D01*
X121920000Y-131445000D02*
X119420000Y-133945000D01*
D21*
X150495000Y-94615000D02*
X147955000Y-94615000D01*
D20*
X150495000Y-84455000D02*
X150495000Y-94615000D01*
X150495000Y-94615000D02*
X150495000Y-127635000D01*
D21*
X147955000Y-94615000D02*
X147955000Y-94615000D01*
D20*
X119420000Y-137160000D02*
X119420000Y-138176000D01*
D22*
X118872000Y-117348000D02*
X119380000Y-117856000D01*
X119380000Y-117856000D02*
X119380000Y-121920000D01*
%TO.N,C_LED_CTRL*%
X133350000Y-103505000D02*
X133350000Y-107950000D01*
X133985000Y-102870000D02*
X133350000Y-103505000D01*
%TD*%
D23*
%TO.N,GND*%
X174924625Y-59786274D02*
X175838720Y-59993113D01*
X176712199Y-60332790D01*
X177525877Y-60797846D01*
X178261877Y-61378061D01*
X178904035Y-62060695D01*
X179438238Y-62830746D01*
X179852750Y-63671294D01*
X180138469Y-64563880D01*
X180290746Y-65498893D01*
X180315000Y-66054405D01*
X180315001Y-134595498D01*
X180243726Y-135554625D01*
X180036887Y-136468720D01*
X179697210Y-137342199D01*
X179232156Y-138155873D01*
X178651936Y-138891881D01*
X177969305Y-139534035D01*
X177199254Y-140068238D01*
X176358704Y-140482751D01*
X175466120Y-140768469D01*
X174531107Y-140920746D01*
X173975595Y-140945000D01*
X106069488Y-140945000D01*
X105110375Y-140873726D01*
X104196280Y-140666887D01*
X103322801Y-140327210D01*
X102509127Y-139862156D01*
X101773119Y-139281936D01*
X101332509Y-138813552D01*
X102031053Y-138813552D01*
X102643155Y-139518303D01*
X103664133Y-140087851D01*
X104776605Y-140447272D01*
X105937822Y-140582754D01*
X107103156Y-140489090D01*
X108227827Y-140169881D01*
X109268612Y-139637394D01*
X109446845Y-139518303D01*
X110058947Y-138813552D01*
X106045000Y-134799605D01*
X102031053Y-138813552D01*
X101332509Y-138813552D01*
X101130965Y-138599305D01*
X100596762Y-137829254D01*
X100182249Y-136988704D01*
X99896531Y-136096120D01*
X99744254Y-135161107D01*
X99720006Y-134605728D01*
X99720045Y-134512822D01*
X100082246Y-134512822D01*
X100175910Y-135678156D01*
X100495119Y-136802827D01*
X101027606Y-137843612D01*
X101146697Y-138021845D01*
X101851448Y-138633947D01*
X105865395Y-134620000D01*
X106224605Y-134620000D01*
X110238552Y-138633947D01*
X110943303Y-138021845D01*
X110967733Y-137978050D01*
X117935000Y-137978050D01*
X117935000Y-138373949D01*
X117956487Y-138592110D01*
X118041401Y-138872033D01*
X118179294Y-139130013D01*
X118364866Y-139356134D01*
X118590986Y-139541706D01*
X118848966Y-139679599D01*
X119128889Y-139764513D01*
X119420000Y-139793185D01*
X119711110Y-139764513D01*
X119991033Y-139679599D01*
X120249013Y-139541706D01*
X120475134Y-139356134D01*
X120660706Y-139130014D01*
X120674462Y-139104278D01*
X120830951Y-139310429D01*
X121048807Y-139503496D01*
X121300142Y-139650352D01*
X121563110Y-139742476D01*
X121793000Y-139621155D01*
X121793000Y-138303000D01*
X121773000Y-138303000D01*
X121773000Y-138049000D01*
X121793000Y-138049000D01*
X121793000Y-136730845D01*
X122047000Y-136730845D01*
X122047000Y-138049000D01*
X122067000Y-138049000D01*
X122067000Y-138303000D01*
X122047000Y-138303000D01*
X122047000Y-139621155D01*
X122276890Y-139742476D01*
X122539858Y-139650352D01*
X122791193Y-139503496D01*
X123009049Y-139310429D01*
X123025286Y-139289039D01*
X123081595Y-139394386D01*
X123192038Y-139528962D01*
X123326614Y-139639405D01*
X123480150Y-139721472D01*
X123646746Y-139772008D01*
X123820000Y-139789072D01*
X125020000Y-139789072D01*
X125193254Y-139772008D01*
X125359850Y-139721472D01*
X125513386Y-139639405D01*
X125647962Y-139528962D01*
X125689424Y-139478439D01*
X140955000Y-139478439D01*
X140955000Y-139731561D01*
X141004381Y-139979821D01*
X141101247Y-140213676D01*
X141241875Y-140424140D01*
X141420860Y-140603125D01*
X141631324Y-140743753D01*
X141865179Y-140840619D01*
X142113439Y-140890000D01*
X142366561Y-140890000D01*
X142614821Y-140840619D01*
X142848676Y-140743753D01*
X143059140Y-140603125D01*
X143238125Y-140424140D01*
X143378753Y-140213676D01*
X143475619Y-139979821D01*
X143525000Y-139731561D01*
X143525000Y-139478439D01*
X143475619Y-139230179D01*
X143378753Y-138996324D01*
X143256629Y-138813552D01*
X169976053Y-138813552D01*
X170588155Y-139518303D01*
X171609133Y-140087851D01*
X172721605Y-140447272D01*
X173882822Y-140582754D01*
X175048156Y-140489090D01*
X176172827Y-140169881D01*
X177213612Y-139637394D01*
X177391845Y-139518303D01*
X178003947Y-138813552D01*
X173990000Y-134799605D01*
X169976053Y-138813552D01*
X143256629Y-138813552D01*
X143238125Y-138785860D01*
X143059140Y-138606875D01*
X142848676Y-138466247D01*
X142614821Y-138369381D01*
X142366561Y-138320000D01*
X142113439Y-138320000D01*
X141865179Y-138369381D01*
X141631324Y-138466247D01*
X141420860Y-138606875D01*
X141241875Y-138785860D01*
X141101247Y-138996324D01*
X141004381Y-139230179D01*
X140955000Y-139478439D01*
X125689424Y-139478439D01*
X125758405Y-139394386D01*
X125840472Y-139240850D01*
X125891008Y-139074254D01*
X125908072Y-138901000D01*
X125908072Y-137451000D01*
X125904132Y-137411000D01*
X126141637Y-137411000D01*
X126380236Y-137363540D01*
X126604992Y-137270443D01*
X126807267Y-137135287D01*
X126979287Y-136963267D01*
X127114443Y-136760992D01*
X127207540Y-136536236D01*
X127255000Y-136297637D01*
X127255000Y-136054363D01*
X127207540Y-135815764D01*
X127114443Y-135591008D01*
X126979287Y-135388733D01*
X126807267Y-135216713D01*
X126604992Y-135081557D01*
X126380236Y-134988460D01*
X126141637Y-134941000D01*
X125898363Y-134941000D01*
X125659764Y-134988460D01*
X125435008Y-135081557D01*
X125232733Y-135216713D01*
X125060713Y-135388733D01*
X124925557Y-135591008D01*
X124832460Y-135815764D01*
X124785000Y-136054363D01*
X124785000Y-136297637D01*
X124832460Y-136536236D01*
X124843516Y-136562928D01*
X123820000Y-136562928D01*
X123646746Y-136579992D01*
X123480150Y-136630528D01*
X123326614Y-136712595D01*
X123192038Y-136823038D01*
X123081595Y-136957614D01*
X123025286Y-137062961D01*
X123009049Y-137041571D01*
X122791193Y-136848504D01*
X122539858Y-136701648D01*
X122276890Y-136609524D01*
X122047000Y-136730845D01*
X121793000Y-136730845D01*
X121563110Y-136609524D01*
X121300142Y-136701648D01*
X121048807Y-136848504D01*
X120830951Y-137041571D01*
X120674462Y-137247722D01*
X120660706Y-137221986D01*
X120475134Y-136995866D01*
X120430000Y-136958825D01*
X120430000Y-134478439D01*
X140955000Y-134478439D01*
X140955000Y-134731561D01*
X141004381Y-134979821D01*
X141101247Y-135213676D01*
X141241875Y-135424140D01*
X141420860Y-135603125D01*
X141631324Y-135743753D01*
X141865179Y-135840619D01*
X142113439Y-135890000D01*
X142366561Y-135890000D01*
X142614821Y-135840619D01*
X142848676Y-135743753D01*
X143059140Y-135603125D01*
X143238125Y-135424140D01*
X143378753Y-135213676D01*
X143475619Y-134979821D01*
X143525000Y-134731561D01*
X143525000Y-134512822D01*
X168027246Y-134512822D01*
X168120910Y-135678156D01*
X168440119Y-136802827D01*
X168972606Y-137843612D01*
X169091697Y-138021845D01*
X169796448Y-138633947D01*
X173810395Y-134620000D01*
X174169605Y-134620000D01*
X178183552Y-138633947D01*
X178888303Y-138021845D01*
X179457851Y-137000867D01*
X179817272Y-135888395D01*
X179952754Y-134727178D01*
X179859090Y-133561844D01*
X179539881Y-132437173D01*
X179007394Y-131396388D01*
X178888303Y-131218155D01*
X178183552Y-130606053D01*
X174169605Y-134620000D01*
X173810395Y-134620000D01*
X169796448Y-130606053D01*
X169091697Y-131218155D01*
X168522149Y-132239133D01*
X168162728Y-133351605D01*
X168027246Y-134512822D01*
X143525000Y-134512822D01*
X143525000Y-134478439D01*
X143475619Y-134230179D01*
X143378753Y-133996324D01*
X143238125Y-133785860D01*
X143059140Y-133606875D01*
X142848676Y-133466247D01*
X142614821Y-133369381D01*
X142366561Y-133320000D01*
X142113439Y-133320000D01*
X141865179Y-133369381D01*
X141631324Y-133466247D01*
X141420860Y-133606875D01*
X141241875Y-133785860D01*
X141101247Y-133996324D01*
X141004381Y-134230179D01*
X140955000Y-134478439D01*
X120430000Y-134478439D01*
X120430000Y-134363355D01*
X122338356Y-132455000D01*
X146635392Y-132455000D01*
X146685000Y-132459886D01*
X146882994Y-132440385D01*
X147073380Y-132382632D01*
X147248840Y-132288847D01*
X147402633Y-132162633D01*
X147434261Y-132124094D01*
X149131907Y-130426448D01*
X169976053Y-130426448D01*
X173990000Y-134440395D01*
X178003947Y-130426448D01*
X177391845Y-129721697D01*
X176370867Y-129152149D01*
X175258395Y-128792728D01*
X174097178Y-128657246D01*
X172931844Y-128750910D01*
X171807173Y-129070119D01*
X170766388Y-129602606D01*
X170588155Y-129721697D01*
X169976053Y-130426448D01*
X149131907Y-130426448D01*
X151174100Y-128384256D01*
X151212633Y-128352633D01*
X151338847Y-128198840D01*
X151432632Y-128023380D01*
X151490385Y-127832994D01*
X151505000Y-127684608D01*
X151509886Y-127635000D01*
X151505000Y-127585392D01*
X151505000Y-119690363D01*
X174565000Y-119690363D01*
X174565000Y-119933637D01*
X174612460Y-120172236D01*
X174705557Y-120396992D01*
X174840713Y-120599267D01*
X175012733Y-120771287D01*
X175215008Y-120906443D01*
X175439764Y-120999540D01*
X175678363Y-121047000D01*
X175921637Y-121047000D01*
X176160236Y-120999540D01*
X176161928Y-120998839D01*
X176161928Y-122012000D01*
X176178992Y-122185254D01*
X176229528Y-122351850D01*
X176311595Y-122505386D01*
X176422038Y-122639962D01*
X176556614Y-122750405D01*
X176658337Y-122804777D01*
X176594866Y-122856866D01*
X176409294Y-123082986D01*
X176271401Y-123340966D01*
X176186487Y-123620889D01*
X176157815Y-123912000D01*
X176186487Y-124203111D01*
X176271401Y-124483034D01*
X176409294Y-124741014D01*
X176594866Y-124967134D01*
X176820986Y-125152706D01*
X177078966Y-125290599D01*
X177358889Y-125375513D01*
X177577050Y-125397000D01*
X178022950Y-125397000D01*
X178241111Y-125375513D01*
X178521034Y-125290599D01*
X178779014Y-125152706D01*
X179005134Y-124967134D01*
X179190706Y-124741014D01*
X179328599Y-124483034D01*
X179413513Y-124203111D01*
X179442185Y-123912000D01*
X179413513Y-123620889D01*
X179328599Y-123340966D01*
X179190706Y-123082986D01*
X179005134Y-122856866D01*
X178941663Y-122804777D01*
X179043386Y-122750405D01*
X179177962Y-122639962D01*
X179288405Y-122505386D01*
X179370472Y-122351850D01*
X179421008Y-122185254D01*
X179438072Y-122012000D01*
X179438072Y-120812000D01*
X179421008Y-120638746D01*
X179370472Y-120472150D01*
X179288405Y-120318614D01*
X179177962Y-120184038D01*
X179043386Y-120073595D01*
X178889850Y-119991528D01*
X178723254Y-119940992D01*
X178550000Y-119923928D01*
X177050000Y-119923928D01*
X177035000Y-119925405D01*
X177035000Y-119690363D01*
X176987540Y-119451764D01*
X176894443Y-119227008D01*
X176759287Y-119024733D01*
X176587267Y-118852713D01*
X176384992Y-118717557D01*
X176160236Y-118624460D01*
X175921637Y-118577000D01*
X175678363Y-118577000D01*
X175439764Y-118624460D01*
X175215008Y-118717557D01*
X175012733Y-118852713D01*
X174840713Y-119024733D01*
X174705557Y-119227008D01*
X174612460Y-119451764D01*
X174565000Y-119690363D01*
X151505000Y-119690363D01*
X151505000Y-111054363D01*
X174565000Y-111054363D01*
X174565000Y-111297637D01*
X174612460Y-111536236D01*
X174705557Y-111760992D01*
X174840713Y-111963267D01*
X175012733Y-112135287D01*
X175215008Y-112270443D01*
X175439764Y-112363540D01*
X175678363Y-112411000D01*
X175921637Y-112411000D01*
X176160236Y-112363540D01*
X176161928Y-112362839D01*
X176161928Y-113376000D01*
X176178992Y-113549254D01*
X176229528Y-113715850D01*
X176311595Y-113869386D01*
X176422038Y-114003962D01*
X176556614Y-114114405D01*
X176658337Y-114168777D01*
X176594866Y-114220866D01*
X176409294Y-114446986D01*
X176271401Y-114704966D01*
X176186487Y-114984889D01*
X176157815Y-115276000D01*
X176186487Y-115567111D01*
X176271401Y-115847034D01*
X176409294Y-116105014D01*
X176594866Y-116331134D01*
X176820986Y-116516706D01*
X177078966Y-116654599D01*
X177358889Y-116739513D01*
X177577050Y-116761000D01*
X178022950Y-116761000D01*
X178241111Y-116739513D01*
X178521034Y-116654599D01*
X178779014Y-116516706D01*
X179005134Y-116331134D01*
X179190706Y-116105014D01*
X179328599Y-115847034D01*
X179413513Y-115567111D01*
X179442185Y-115276000D01*
X179413513Y-114984889D01*
X179328599Y-114704966D01*
X179190706Y-114446986D01*
X179005134Y-114220866D01*
X178941663Y-114168777D01*
X179043386Y-114114405D01*
X179177962Y-114003962D01*
X179288405Y-113869386D01*
X179370472Y-113715850D01*
X179421008Y-113549254D01*
X179438072Y-113376000D01*
X179438072Y-112176000D01*
X179421008Y-112002746D01*
X179370472Y-111836150D01*
X179288405Y-111682614D01*
X179177962Y-111548038D01*
X179043386Y-111437595D01*
X178889850Y-111355528D01*
X178723254Y-111304992D01*
X178550000Y-111287928D01*
X177050000Y-111287928D01*
X177035000Y-111289405D01*
X177035000Y-111054363D01*
X176987540Y-110815764D01*
X176894443Y-110591008D01*
X176759287Y-110388733D01*
X176587267Y-110216713D01*
X176384992Y-110081557D01*
X176160236Y-109988460D01*
X175921637Y-109941000D01*
X175678363Y-109941000D01*
X175439764Y-109988460D01*
X175215008Y-110081557D01*
X175012733Y-110216713D01*
X174840713Y-110388733D01*
X174705557Y-110591008D01*
X174612460Y-110815764D01*
X174565000Y-111054363D01*
X151505000Y-111054363D01*
X151505000Y-101910363D01*
X174565000Y-101910363D01*
X174565000Y-102153637D01*
X174612460Y-102392236D01*
X174705557Y-102616992D01*
X174840713Y-102819267D01*
X175012733Y-102991287D01*
X175215008Y-103126443D01*
X175439764Y-103219540D01*
X175678363Y-103267000D01*
X175921637Y-103267000D01*
X176160236Y-103219540D01*
X176161928Y-103218839D01*
X176161928Y-104232000D01*
X176178992Y-104405254D01*
X176229528Y-104571850D01*
X176311595Y-104725386D01*
X176422038Y-104859962D01*
X176556614Y-104970405D01*
X176658337Y-105024777D01*
X176594866Y-105076866D01*
X176409294Y-105302986D01*
X176271401Y-105560966D01*
X176186487Y-105840889D01*
X176157815Y-106132000D01*
X176186487Y-106423111D01*
X176271401Y-106703034D01*
X176409294Y-106961014D01*
X176594866Y-107187134D01*
X176820986Y-107372706D01*
X177078966Y-107510599D01*
X177358889Y-107595513D01*
X177577050Y-107617000D01*
X178022950Y-107617000D01*
X178241111Y-107595513D01*
X178521034Y-107510599D01*
X178779014Y-107372706D01*
X179005134Y-107187134D01*
X179190706Y-106961014D01*
X179328599Y-106703034D01*
X179413513Y-106423111D01*
X179442185Y-106132000D01*
X179413513Y-105840889D01*
X179328599Y-105560966D01*
X179190706Y-105302986D01*
X179005134Y-105076866D01*
X178941663Y-105024777D01*
X179043386Y-104970405D01*
X179177962Y-104859962D01*
X179288405Y-104725386D01*
X179370472Y-104571850D01*
X179421008Y-104405254D01*
X179438072Y-104232000D01*
X179438072Y-103032000D01*
X179421008Y-102858746D01*
X179370472Y-102692150D01*
X179288405Y-102538614D01*
X179177962Y-102404038D01*
X179043386Y-102293595D01*
X178889850Y-102211528D01*
X178723254Y-102160992D01*
X178550000Y-102143928D01*
X177050000Y-102143928D01*
X177035000Y-102145405D01*
X177035000Y-101910363D01*
X176987540Y-101671764D01*
X176894443Y-101447008D01*
X176759287Y-101244733D01*
X176587267Y-101072713D01*
X176384992Y-100937557D01*
X176160236Y-100844460D01*
X175921637Y-100797000D01*
X175678363Y-100797000D01*
X175439764Y-100844460D01*
X175215008Y-100937557D01*
X175012733Y-101072713D01*
X174840713Y-101244733D01*
X174705557Y-101447008D01*
X174612460Y-101671764D01*
X174565000Y-101910363D01*
X151505000Y-101910363D01*
X151505000Y-93274363D01*
X174565000Y-93274363D01*
X174565000Y-93517637D01*
X174612460Y-93756236D01*
X174705557Y-93980992D01*
X174840713Y-94183267D01*
X175012733Y-94355287D01*
X175215008Y-94490443D01*
X175439764Y-94583540D01*
X175678363Y-94631000D01*
X175921637Y-94631000D01*
X176160236Y-94583540D01*
X176161928Y-94582839D01*
X176161928Y-95596000D01*
X176178992Y-95769254D01*
X176229528Y-95935850D01*
X176311595Y-96089386D01*
X176422038Y-96223962D01*
X176556614Y-96334405D01*
X176658337Y-96388777D01*
X176594866Y-96440866D01*
X176409294Y-96666986D01*
X176271401Y-96924966D01*
X176186487Y-97204889D01*
X176157815Y-97496000D01*
X176186487Y-97787111D01*
X176271401Y-98067034D01*
X176409294Y-98325014D01*
X176594866Y-98551134D01*
X176820986Y-98736706D01*
X177078966Y-98874599D01*
X177358889Y-98959513D01*
X177577050Y-98981000D01*
X178022950Y-98981000D01*
X178241111Y-98959513D01*
X178521034Y-98874599D01*
X178779014Y-98736706D01*
X179005134Y-98551134D01*
X179190706Y-98325014D01*
X179328599Y-98067034D01*
X179413513Y-97787111D01*
X179442185Y-97496000D01*
X179413513Y-97204889D01*
X179328599Y-96924966D01*
X179190706Y-96666986D01*
X179005134Y-96440866D01*
X178941663Y-96388777D01*
X179043386Y-96334405D01*
X179177962Y-96223962D01*
X179288405Y-96089386D01*
X179370472Y-95935850D01*
X179421008Y-95769254D01*
X179438072Y-95596000D01*
X179438072Y-94396000D01*
X179421008Y-94222746D01*
X179370472Y-94056150D01*
X179288405Y-93902614D01*
X179177962Y-93768038D01*
X179043386Y-93657595D01*
X178889850Y-93575528D01*
X178723254Y-93524992D01*
X178550000Y-93507928D01*
X177050000Y-93507928D01*
X177035000Y-93509405D01*
X177035000Y-93274363D01*
X176987540Y-93035764D01*
X176894443Y-92811008D01*
X176759287Y-92608733D01*
X176587267Y-92436713D01*
X176384992Y-92301557D01*
X176160236Y-92208460D01*
X175921637Y-92161000D01*
X175678363Y-92161000D01*
X175439764Y-92208460D01*
X175215008Y-92301557D01*
X175012733Y-92436713D01*
X174840713Y-92608733D01*
X174705557Y-92811008D01*
X174612460Y-93035764D01*
X174565000Y-93274363D01*
X151505000Y-93274363D01*
X151505000Y-84682623D01*
X151530000Y-84556939D01*
X151530000Y-84353061D01*
X151490226Y-84153102D01*
X151480808Y-84130363D01*
X174565000Y-84130363D01*
X174565000Y-84373637D01*
X174612460Y-84612236D01*
X174705557Y-84836992D01*
X174840713Y-85039267D01*
X175012733Y-85211287D01*
X175215008Y-85346443D01*
X175439764Y-85439540D01*
X175678363Y-85487000D01*
X175921637Y-85487000D01*
X176160236Y-85439540D01*
X176161928Y-85438839D01*
X176161928Y-86452000D01*
X176178992Y-86625254D01*
X176229528Y-86791850D01*
X176311595Y-86945386D01*
X176422038Y-87079962D01*
X176556614Y-87190405D01*
X176658337Y-87244777D01*
X176594866Y-87296866D01*
X176409294Y-87522986D01*
X176271401Y-87780966D01*
X176186487Y-88060889D01*
X176157815Y-88352000D01*
X176186487Y-88643111D01*
X176271401Y-88923034D01*
X176409294Y-89181014D01*
X176594866Y-89407134D01*
X176820986Y-89592706D01*
X177078966Y-89730599D01*
X177358889Y-89815513D01*
X177577050Y-89837000D01*
X178022950Y-89837000D01*
X178241111Y-89815513D01*
X178521034Y-89730599D01*
X178779014Y-89592706D01*
X179005134Y-89407134D01*
X179190706Y-89181014D01*
X179328599Y-88923034D01*
X179413513Y-88643111D01*
X179442185Y-88352000D01*
X179413513Y-88060889D01*
X179328599Y-87780966D01*
X179190706Y-87522986D01*
X179005134Y-87296866D01*
X178941663Y-87244777D01*
X179043386Y-87190405D01*
X179177962Y-87079962D01*
X179288405Y-86945386D01*
X179370472Y-86791850D01*
X179421008Y-86625254D01*
X179438072Y-86452000D01*
X179438072Y-85252000D01*
X179421008Y-85078746D01*
X179370472Y-84912150D01*
X179288405Y-84758614D01*
X179177962Y-84624038D01*
X179043386Y-84513595D01*
X178889850Y-84431528D01*
X178723254Y-84380992D01*
X178550000Y-84363928D01*
X177050000Y-84363928D01*
X177035000Y-84365405D01*
X177035000Y-84130363D01*
X176987540Y-83891764D01*
X176894443Y-83667008D01*
X176759287Y-83464733D01*
X176587267Y-83292713D01*
X176384992Y-83157557D01*
X176160236Y-83064460D01*
X175921637Y-83017000D01*
X175678363Y-83017000D01*
X175439764Y-83064460D01*
X175215008Y-83157557D01*
X175012733Y-83292713D01*
X174840713Y-83464733D01*
X174705557Y-83667008D01*
X174612460Y-83891764D01*
X174565000Y-84130363D01*
X151480808Y-84130363D01*
X151412205Y-83964744D01*
X151298937Y-83795226D01*
X151154774Y-83651063D01*
X150985256Y-83537795D01*
X150796898Y-83459774D01*
X150596939Y-83420000D01*
X150393061Y-83420000D01*
X150193102Y-83459774D01*
X150004744Y-83537795D01*
X149835226Y-83651063D01*
X149691063Y-83795226D01*
X149577795Y-83964744D01*
X149499774Y-84153102D01*
X149460000Y-84353061D01*
X149460000Y-84556939D01*
X149485000Y-84682624D01*
X149485001Y-93830000D01*
X148463120Y-93830000D01*
X148397889Y-93786414D01*
X148227729Y-93715932D01*
X148047089Y-93680000D01*
X147862911Y-93680000D01*
X147682271Y-93715932D01*
X147512111Y-93786414D01*
X147358972Y-93888738D01*
X147228738Y-94018972D01*
X147126414Y-94172111D01*
X147055932Y-94342271D01*
X147020000Y-94522911D01*
X147020000Y-94707089D01*
X147055932Y-94887729D01*
X147126414Y-95057889D01*
X147228738Y-95211028D01*
X147358972Y-95341262D01*
X147512111Y-95443586D01*
X147682271Y-95514068D01*
X147862911Y-95550000D01*
X148047089Y-95550000D01*
X148227729Y-95514068D01*
X148397889Y-95443586D01*
X148463120Y-95400000D01*
X149485000Y-95400000D01*
X149485000Y-99124893D01*
X149282632Y-98922525D01*
X149039411Y-98760010D01*
X148769158Y-98648068D01*
X148482260Y-98591000D01*
X148189740Y-98591000D01*
X147902842Y-98648068D01*
X147632589Y-98760010D01*
X147389368Y-98922525D01*
X147182525Y-99129368D01*
X147020010Y-99372589D01*
X146908068Y-99642842D01*
X146851000Y-99929740D01*
X146851000Y-100222260D01*
X146908068Y-100509158D01*
X147020010Y-100779411D01*
X147182525Y-101022632D01*
X147389368Y-101229475D01*
X147571534Y-101351195D01*
X147454645Y-101420822D01*
X147238412Y-101615731D01*
X147064359Y-101849080D01*
X146939175Y-102111901D01*
X146894524Y-102259110D01*
X147015845Y-102489000D01*
X148209000Y-102489000D01*
X148209000Y-102469000D01*
X148463000Y-102469000D01*
X148463000Y-102489000D01*
X148483000Y-102489000D01*
X148483000Y-102743000D01*
X148463000Y-102743000D01*
X148463000Y-102763000D01*
X148209000Y-102763000D01*
X148209000Y-102743000D01*
X147015845Y-102743000D01*
X146894524Y-102972890D01*
X146939175Y-103120099D01*
X147064359Y-103382920D01*
X147238412Y-103616269D01*
X147322466Y-103692034D01*
X147241820Y-103716498D01*
X147131506Y-103775463D01*
X147034815Y-103854815D01*
X146955463Y-103951506D01*
X146896498Y-104061820D01*
X146860188Y-104181518D01*
X146847928Y-104306000D01*
X146847928Y-106006000D01*
X146860188Y-106130482D01*
X146896498Y-106250180D01*
X146955463Y-106360494D01*
X147034815Y-106457185D01*
X147131506Y-106536537D01*
X147241820Y-106595502D01*
X147361518Y-106631812D01*
X147486000Y-106644072D01*
X149186000Y-106644072D01*
X149310482Y-106631812D01*
X149430180Y-106595502D01*
X149485000Y-106566199D01*
X149485001Y-127216643D01*
X146266645Y-130435000D01*
X121969608Y-130435000D01*
X121920000Y-130430114D01*
X121722005Y-130449615D01*
X121669986Y-130465395D01*
X121531620Y-130507368D01*
X121356160Y-130601153D01*
X121202367Y-130727367D01*
X121170744Y-130765900D01*
X118740906Y-133195739D01*
X118702367Y-133227367D01*
X118576153Y-133381160D01*
X118494982Y-133533021D01*
X118482368Y-133556621D01*
X118424615Y-133747006D01*
X118405114Y-133945000D01*
X118410000Y-133994608D01*
X118410001Y-136958825D01*
X118364866Y-136995866D01*
X118179294Y-137221986D01*
X118041401Y-137479966D01*
X117956487Y-137759889D01*
X117935000Y-137978050D01*
X110967733Y-137978050D01*
X111512851Y-137000867D01*
X111872272Y-135888395D01*
X112007754Y-134727178D01*
X111914090Y-133561844D01*
X111594881Y-132437173D01*
X111062394Y-131396388D01*
X110943303Y-131218155D01*
X110238552Y-130606053D01*
X106224605Y-134620000D01*
X105865395Y-134620000D01*
X101851448Y-130606053D01*
X101146697Y-131218155D01*
X100577149Y-132239133D01*
X100217728Y-133351605D01*
X100082246Y-134512822D01*
X99720045Y-134512822D01*
X99721769Y-130426448D01*
X102031053Y-130426448D01*
X106045000Y-134440395D01*
X110058947Y-130426448D01*
X109446845Y-129721697D01*
X108425867Y-129152149D01*
X107313395Y-128792728D01*
X106152178Y-128657246D01*
X104986844Y-128750910D01*
X103862173Y-129070119D01*
X102821388Y-129602606D01*
X102643155Y-129721697D01*
X102031053Y-130426448D01*
X99721769Y-130426448D01*
X99726276Y-119751589D01*
X99739000Y-119751589D01*
X99739000Y-120024411D01*
X99792225Y-120291989D01*
X99896629Y-120544043D01*
X100048201Y-120770886D01*
X100241114Y-120963799D01*
X100467957Y-121115371D01*
X100720011Y-121219775D01*
X100987589Y-121273000D01*
X101260411Y-121273000D01*
X101527989Y-121219775D01*
X101780043Y-121115371D01*
X102006886Y-120963799D01*
X102199799Y-120770886D01*
X102351371Y-120544043D01*
X102455775Y-120291989D01*
X102509000Y-120024411D01*
X102509000Y-119751589D01*
X105739000Y-119751589D01*
X105739000Y-120024411D01*
X105792225Y-120291989D01*
X105896629Y-120544043D01*
X106048201Y-120770886D01*
X106241114Y-120963799D01*
X106467957Y-121115371D01*
X106720011Y-121219775D01*
X106987589Y-121273000D01*
X107260411Y-121273000D01*
X107527989Y-121219775D01*
X107780043Y-121115371D01*
X108006886Y-120963799D01*
X108199799Y-120770886D01*
X108351371Y-120544043D01*
X108455775Y-120291989D01*
X108509000Y-120024411D01*
X108509000Y-119751589D01*
X108455775Y-119484011D01*
X108351371Y-119231957D01*
X108199799Y-119005114D01*
X108006886Y-118812201D01*
X107780043Y-118660629D01*
X107527989Y-118556225D01*
X107260411Y-118503000D01*
X106987589Y-118503000D01*
X106720011Y-118556225D01*
X106467957Y-118660629D01*
X106241114Y-118812201D01*
X106048201Y-119005114D01*
X105896629Y-119231957D01*
X105792225Y-119484011D01*
X105739000Y-119751589D01*
X102509000Y-119751589D01*
X102455775Y-119484011D01*
X102351371Y-119231957D01*
X102199799Y-119005114D01*
X102006886Y-118812201D01*
X101780043Y-118660629D01*
X101527989Y-118556225D01*
X101260411Y-118503000D01*
X100987589Y-118503000D01*
X100720011Y-118556225D01*
X100467957Y-118660629D01*
X100241114Y-118812201D01*
X100048201Y-119005114D01*
X99896629Y-119231957D01*
X99792225Y-119484011D01*
X99739000Y-119751589D01*
X99726276Y-119751589D01*
X99727333Y-117246061D01*
X117837000Y-117246061D01*
X117837000Y-117449939D01*
X117876774Y-117649898D01*
X117954795Y-117838256D01*
X118068063Y-118007774D01*
X118212226Y-118151937D01*
X118381744Y-118265205D01*
X118570102Y-118343226D01*
X118620000Y-118353151D01*
X118620001Y-121216288D01*
X118576063Y-121260226D01*
X118462795Y-121429744D01*
X118384774Y-121618102D01*
X118345000Y-121818061D01*
X118345000Y-122021939D01*
X118384774Y-122221898D01*
X118462795Y-122410256D01*
X118576063Y-122579774D01*
X118720226Y-122723937D01*
X118889744Y-122837205D01*
X119078102Y-122915226D01*
X119278061Y-122955000D01*
X119481939Y-122955000D01*
X119681898Y-122915226D01*
X119870256Y-122837205D01*
X120039774Y-122723937D01*
X120183937Y-122579774D01*
X120297205Y-122410256D01*
X120375226Y-122221898D01*
X120415000Y-122021939D01*
X120415000Y-121818061D01*
X120375226Y-121618102D01*
X120297205Y-121429744D01*
X120183937Y-121260226D01*
X120140000Y-121216289D01*
X120140000Y-117893322D01*
X120143676Y-117855999D01*
X120140000Y-117818676D01*
X120140000Y-117818667D01*
X120129003Y-117707014D01*
X120085546Y-117563753D01*
X120014974Y-117431724D01*
X119920001Y-117315999D01*
X119907000Y-117305329D01*
X119907000Y-117246061D01*
X119867226Y-117046102D01*
X119789205Y-116857744D01*
X119675937Y-116688226D01*
X119531774Y-116544063D01*
X119362256Y-116430795D01*
X119173898Y-116352774D01*
X118973939Y-116313000D01*
X118770061Y-116313000D01*
X118570102Y-116352774D01*
X118381744Y-116430795D01*
X118212226Y-116544063D01*
X118068063Y-116688226D01*
X117954795Y-116857744D01*
X117876774Y-117046102D01*
X117837000Y-117246061D01*
X99727333Y-117246061D01*
X99731852Y-106543589D01*
X99739000Y-106543589D01*
X99739000Y-106816411D01*
X99792225Y-107083989D01*
X99896629Y-107336043D01*
X100048201Y-107562886D01*
X100241114Y-107755799D01*
X100467957Y-107907371D01*
X100720011Y-108011775D01*
X100987589Y-108065000D01*
X101260411Y-108065000D01*
X101527989Y-108011775D01*
X101780043Y-107907371D01*
X102006886Y-107755799D01*
X102199799Y-107562886D01*
X102351371Y-107336043D01*
X102455775Y-107083989D01*
X102509000Y-106816411D01*
X102509000Y-106543589D01*
X105739000Y-106543589D01*
X105739000Y-106816411D01*
X105792225Y-107083989D01*
X105896629Y-107336043D01*
X106048201Y-107562886D01*
X106241114Y-107755799D01*
X106467957Y-107907371D01*
X106720011Y-108011775D01*
X106987589Y-108065000D01*
X107260411Y-108065000D01*
X107527989Y-108011775D01*
X107780043Y-107907371D01*
X107854064Y-107857911D01*
X132415000Y-107857911D01*
X132415000Y-108042089D01*
X132450932Y-108222729D01*
X132521414Y-108392889D01*
X132623738Y-108546028D01*
X132753972Y-108676262D01*
X132907111Y-108778586D01*
X133077271Y-108849068D01*
X133257911Y-108885000D01*
X133442089Y-108885000D01*
X133622729Y-108849068D01*
X133792889Y-108778586D01*
X133946028Y-108676262D01*
X134076262Y-108546028D01*
X134178586Y-108392889D01*
X134249068Y-108222729D01*
X134285000Y-108042089D01*
X134285000Y-107857911D01*
X134249068Y-107677271D01*
X134178586Y-107507111D01*
X134110000Y-107404465D01*
X134110000Y-103819801D01*
X134136649Y-103793153D01*
X134257729Y-103769068D01*
X134427889Y-103698586D01*
X134581028Y-103596262D01*
X134711262Y-103466028D01*
X134813586Y-103312889D01*
X134884068Y-103142729D01*
X134920000Y-102962089D01*
X134920000Y-102777911D01*
X134884068Y-102597271D01*
X134813586Y-102427111D01*
X134711262Y-102273972D01*
X134581028Y-102143738D01*
X134427889Y-102041414D01*
X134257729Y-101970932D01*
X134077089Y-101935000D01*
X133892911Y-101935000D01*
X133712271Y-101970932D01*
X133542111Y-102041414D01*
X133388972Y-102143738D01*
X133258738Y-102273972D01*
X133156414Y-102427111D01*
X133085932Y-102597271D01*
X133061847Y-102718351D01*
X132839002Y-102941197D01*
X132809999Y-102964999D01*
X132761215Y-103024443D01*
X132715026Y-103080724D01*
X132671451Y-103162247D01*
X132644454Y-103212754D01*
X132600997Y-103356015D01*
X132590000Y-103467668D01*
X132590000Y-103467678D01*
X132586324Y-103505000D01*
X132590000Y-103542323D01*
X132590001Y-107404463D01*
X132521414Y-107507111D01*
X132450932Y-107677271D01*
X132415000Y-107857911D01*
X107854064Y-107857911D01*
X108006886Y-107755799D01*
X108199799Y-107562886D01*
X108351371Y-107336043D01*
X108455775Y-107083989D01*
X108509000Y-106816411D01*
X108509000Y-106543589D01*
X108455775Y-106276011D01*
X108351371Y-106023957D01*
X108199799Y-105797114D01*
X108006886Y-105604201D01*
X107780043Y-105452629D01*
X107527989Y-105348225D01*
X107260411Y-105295000D01*
X106987589Y-105295000D01*
X106720011Y-105348225D01*
X106467957Y-105452629D01*
X106241114Y-105604201D01*
X106048201Y-105797114D01*
X105896629Y-106023957D01*
X105792225Y-106276011D01*
X105739000Y-106543589D01*
X102509000Y-106543589D01*
X102455775Y-106276011D01*
X102351371Y-106023957D01*
X102199799Y-105797114D01*
X102006886Y-105604201D01*
X101780043Y-105452629D01*
X101527989Y-105348225D01*
X101260411Y-105295000D01*
X100987589Y-105295000D01*
X100720011Y-105348225D01*
X100467957Y-105452629D01*
X100241114Y-105604201D01*
X100048201Y-105797114D01*
X99896629Y-106023957D01*
X99792225Y-106276011D01*
X99739000Y-106543589D01*
X99731852Y-106543589D01*
X99735530Y-97830000D01*
X124722815Y-97830000D01*
X124751487Y-98121111D01*
X124836401Y-98401034D01*
X124974294Y-98659014D01*
X125159866Y-98885134D01*
X125223337Y-98937223D01*
X125121614Y-98991595D01*
X124987038Y-99102038D01*
X124876595Y-99236614D01*
X124794528Y-99390150D01*
X124743992Y-99556746D01*
X124726928Y-99730000D01*
X124726928Y-100930000D01*
X124743992Y-101103254D01*
X124794528Y-101269850D01*
X124876595Y-101423386D01*
X124987038Y-101557962D01*
X125121614Y-101668405D01*
X125275150Y-101750472D01*
X125441746Y-101801008D01*
X125615000Y-101818072D01*
X127115000Y-101818072D01*
X127130000Y-101816595D01*
X127130000Y-102051637D01*
X127177460Y-102290236D01*
X127270557Y-102514992D01*
X127405713Y-102717267D01*
X127577733Y-102889287D01*
X127780008Y-103024443D01*
X128004764Y-103117540D01*
X128243363Y-103165000D01*
X128486637Y-103165000D01*
X128725236Y-103117540D01*
X128949992Y-103024443D01*
X129152267Y-102889287D01*
X129324287Y-102717267D01*
X129459443Y-102514992D01*
X129552540Y-102290236D01*
X129600000Y-102051637D01*
X129600000Y-101808363D01*
X129552540Y-101569764D01*
X129459443Y-101345008D01*
X129324287Y-101142733D01*
X129152267Y-100970713D01*
X128949992Y-100835557D01*
X128725236Y-100742460D01*
X128486637Y-100695000D01*
X128243363Y-100695000D01*
X128004764Y-100742460D01*
X128003072Y-100743161D01*
X128003072Y-99730000D01*
X127986008Y-99556746D01*
X127935472Y-99390150D01*
X127853405Y-99236614D01*
X127742962Y-99102038D01*
X127608386Y-98991595D01*
X127506663Y-98937223D01*
X127570134Y-98885134D01*
X127755706Y-98659014D01*
X127893599Y-98401034D01*
X127978513Y-98121111D01*
X128007185Y-97830000D01*
X127978513Y-97538889D01*
X127893599Y-97258966D01*
X127755706Y-97000986D01*
X127570134Y-96774866D01*
X127344014Y-96589294D01*
X127086034Y-96451401D01*
X126806111Y-96366487D01*
X126587950Y-96345000D01*
X126142050Y-96345000D01*
X125923889Y-96366487D01*
X125643966Y-96451401D01*
X125385986Y-96589294D01*
X125159866Y-96774866D01*
X124974294Y-97000986D01*
X124836401Y-97258966D01*
X124751487Y-97538889D01*
X124722815Y-97830000D01*
X99735530Y-97830000D01*
X99739830Y-87645000D01*
X106371928Y-87645000D01*
X106371928Y-89395000D01*
X106401001Y-89690186D01*
X106487104Y-89974028D01*
X106626927Y-90235618D01*
X106815097Y-90464903D01*
X107044382Y-90653073D01*
X107305972Y-90792896D01*
X107589814Y-90878999D01*
X107885000Y-90908072D01*
X109635000Y-90908072D01*
X109930186Y-90878999D01*
X110214028Y-90792896D01*
X110475618Y-90653073D01*
X110704903Y-90464903D01*
X110893073Y-90235618D01*
X111032896Y-89974028D01*
X111118999Y-89690186D01*
X111148072Y-89395000D01*
X111148072Y-87645000D01*
X111118999Y-87349814D01*
X111032896Y-87065972D01*
X110893073Y-86804382D01*
X110704903Y-86575097D01*
X110475618Y-86386927D01*
X110214028Y-86247104D01*
X110085357Y-86208072D01*
X113510000Y-86208072D01*
X113634482Y-86195812D01*
X113754180Y-86159502D01*
X113864494Y-86100537D01*
X113961185Y-86021185D01*
X114040537Y-85924494D01*
X114099502Y-85814180D01*
X114135812Y-85694482D01*
X114148072Y-85570000D01*
X114148072Y-82070000D01*
X114135812Y-81945518D01*
X114099502Y-81825820D01*
X114040537Y-81715506D01*
X113961185Y-81618815D01*
X113864494Y-81539463D01*
X113754180Y-81480498D01*
X113634482Y-81444188D01*
X113510000Y-81431928D01*
X110010000Y-81431928D01*
X109885518Y-81444188D01*
X109765820Y-81480498D01*
X109655506Y-81539463D01*
X109558815Y-81618815D01*
X109479463Y-81715506D01*
X109420498Y-81825820D01*
X109384188Y-81945518D01*
X109371928Y-82070000D01*
X109371928Y-85570000D01*
X109384188Y-85694482D01*
X109420498Y-85814180D01*
X109479463Y-85924494D01*
X109558815Y-86021185D01*
X109655506Y-86100537D01*
X109732131Y-86141494D01*
X109635000Y-86131928D01*
X107885000Y-86131928D01*
X107589814Y-86161001D01*
X107305972Y-86247104D01*
X107044382Y-86386927D01*
X106815097Y-86575097D01*
X106626927Y-86804382D01*
X106487104Y-87065972D01*
X106401001Y-87349814D01*
X106371928Y-87645000D01*
X99739830Y-87645000D01*
X99740706Y-85570000D01*
X103621928Y-85570000D01*
X103634188Y-85694482D01*
X103670498Y-85814180D01*
X103729463Y-85924494D01*
X103808815Y-86021185D01*
X103905506Y-86100537D01*
X104015820Y-86159502D01*
X104135518Y-86195812D01*
X104260000Y-86208072D01*
X105474250Y-86205000D01*
X105633000Y-86046250D01*
X105633000Y-83947000D01*
X105887000Y-83947000D01*
X105887000Y-86046250D01*
X106045750Y-86205000D01*
X107260000Y-86208072D01*
X107384482Y-86195812D01*
X107504180Y-86159502D01*
X107614494Y-86100537D01*
X107711185Y-86021185D01*
X107790537Y-85924494D01*
X107849502Y-85814180D01*
X107885812Y-85694482D01*
X107898072Y-85570000D01*
X107895000Y-84105750D01*
X107736250Y-83947000D01*
X105887000Y-83947000D01*
X105633000Y-83947000D01*
X103783750Y-83947000D01*
X103625000Y-84105750D01*
X103621928Y-85570000D01*
X99740706Y-85570000D01*
X99742183Y-82070000D01*
X103621928Y-82070000D01*
X103625000Y-83534250D01*
X103783750Y-83693000D01*
X105633000Y-83693000D01*
X105633000Y-81593750D01*
X105887000Y-81593750D01*
X105887000Y-83693000D01*
X107736250Y-83693000D01*
X107895000Y-83534250D01*
X107898072Y-82070000D01*
X107885812Y-81945518D01*
X107849502Y-81825820D01*
X107790537Y-81715506D01*
X107711185Y-81618815D01*
X107614494Y-81539463D01*
X107504180Y-81480498D01*
X107384482Y-81444188D01*
X107260000Y-81431928D01*
X106045750Y-81435000D01*
X105887000Y-81593750D01*
X105633000Y-81593750D01*
X105474250Y-81435000D01*
X104260000Y-81431928D01*
X104135518Y-81444188D01*
X104015820Y-81480498D01*
X103905506Y-81539463D01*
X103808815Y-81618815D01*
X103729463Y-81715506D01*
X103670498Y-81825820D01*
X103634188Y-81945518D01*
X103621928Y-82070000D01*
X99742183Y-82070000D01*
X99744959Y-75494363D01*
X174565000Y-75494363D01*
X174565000Y-75737637D01*
X174612460Y-75976236D01*
X174705557Y-76200992D01*
X174840713Y-76403267D01*
X175012733Y-76575287D01*
X175215008Y-76710443D01*
X175439764Y-76803540D01*
X175678363Y-76851000D01*
X175921637Y-76851000D01*
X176160236Y-76803540D01*
X176161928Y-76802839D01*
X176161928Y-77816000D01*
X176178992Y-77989254D01*
X176229528Y-78155850D01*
X176311595Y-78309386D01*
X176422038Y-78443962D01*
X176556614Y-78554405D01*
X176658337Y-78608777D01*
X176594866Y-78660866D01*
X176409294Y-78886986D01*
X176271401Y-79144966D01*
X176186487Y-79424889D01*
X176157815Y-79716000D01*
X176186487Y-80007111D01*
X176271401Y-80287034D01*
X176409294Y-80545014D01*
X176594866Y-80771134D01*
X176820986Y-80956706D01*
X177078966Y-81094599D01*
X177358889Y-81179513D01*
X177577050Y-81201000D01*
X178022950Y-81201000D01*
X178241111Y-81179513D01*
X178521034Y-81094599D01*
X178779014Y-80956706D01*
X179005134Y-80771134D01*
X179190706Y-80545014D01*
X179328599Y-80287034D01*
X179413513Y-80007111D01*
X179442185Y-79716000D01*
X179413513Y-79424889D01*
X179328599Y-79144966D01*
X179190706Y-78886986D01*
X179005134Y-78660866D01*
X178941663Y-78608777D01*
X179043386Y-78554405D01*
X179177962Y-78443962D01*
X179288405Y-78309386D01*
X179370472Y-78155850D01*
X179421008Y-77989254D01*
X179438072Y-77816000D01*
X179438072Y-76616000D01*
X179421008Y-76442746D01*
X179370472Y-76276150D01*
X179288405Y-76122614D01*
X179177962Y-75988038D01*
X179043386Y-75877595D01*
X178889850Y-75795528D01*
X178723254Y-75744992D01*
X178550000Y-75727928D01*
X177050000Y-75727928D01*
X177035000Y-75729405D01*
X177035000Y-75494363D01*
X176987540Y-75255764D01*
X176894443Y-75031008D01*
X176759287Y-74828733D01*
X176587267Y-74656713D01*
X176384992Y-74521557D01*
X176160236Y-74428460D01*
X175921637Y-74381000D01*
X175678363Y-74381000D01*
X175439764Y-74428460D01*
X175215008Y-74521557D01*
X175012733Y-74656713D01*
X174840713Y-74828733D01*
X174705557Y-75031008D01*
X174612460Y-75255764D01*
X174565000Y-75494363D01*
X99744959Y-75494363D01*
X99747181Y-70233552D01*
X102031053Y-70233552D01*
X102643155Y-70938303D01*
X103664133Y-71507851D01*
X104776605Y-71867272D01*
X105937822Y-72002754D01*
X107103156Y-71909090D01*
X108227827Y-71589881D01*
X109268612Y-71057394D01*
X109446845Y-70938303D01*
X110058947Y-70233552D01*
X169976053Y-70233552D01*
X170588155Y-70938303D01*
X171609133Y-71507851D01*
X172721605Y-71867272D01*
X173882822Y-72002754D01*
X175048156Y-71909090D01*
X176172827Y-71589881D01*
X177213612Y-71057394D01*
X177391845Y-70938303D01*
X178003947Y-70233552D01*
X173990000Y-66219605D01*
X169976053Y-70233552D01*
X110058947Y-70233552D01*
X106045000Y-66219605D01*
X102031053Y-70233552D01*
X99747181Y-70233552D01*
X99748699Y-66640252D01*
X99748154Y-66634693D01*
X99736584Y-65932822D01*
X100082246Y-65932822D01*
X100175910Y-67098156D01*
X100495119Y-68222827D01*
X101027606Y-69263612D01*
X101146697Y-69441845D01*
X101851448Y-70053947D01*
X105865395Y-66040000D01*
X106224605Y-66040000D01*
X110238552Y-70053947D01*
X110943303Y-69441845D01*
X111512851Y-68420867D01*
X111872272Y-67308395D01*
X112007754Y-66147178D01*
X111990526Y-65932822D01*
X168027246Y-65932822D01*
X168120910Y-67098156D01*
X168440119Y-68222827D01*
X168972606Y-69263612D01*
X169091697Y-69441845D01*
X169796448Y-70053947D01*
X173810395Y-66040000D01*
X174169605Y-66040000D01*
X178183552Y-70053947D01*
X178888303Y-69441845D01*
X179457851Y-68420867D01*
X179817272Y-67308395D01*
X179952754Y-66147178D01*
X179859090Y-64981844D01*
X179539881Y-63857173D01*
X179007394Y-62816388D01*
X178888303Y-62638155D01*
X178183552Y-62026053D01*
X174169605Y-66040000D01*
X173810395Y-66040000D01*
X169796448Y-62026053D01*
X169091697Y-62638155D01*
X168522149Y-63659133D01*
X168162728Y-64771605D01*
X168027246Y-65932822D01*
X111990526Y-65932822D01*
X111914090Y-64981844D01*
X111594881Y-63857173D01*
X111062394Y-62816388D01*
X110943303Y-62638155D01*
X110238552Y-62026053D01*
X106224605Y-66040000D01*
X105865395Y-66040000D01*
X101851448Y-62026053D01*
X101146697Y-62638155D01*
X100577149Y-63659133D01*
X100217728Y-64771605D01*
X100082246Y-65932822D01*
X99736584Y-65932822D01*
X99732340Y-65675401D01*
X99855571Y-64746332D01*
X100114773Y-63845688D01*
X100504251Y-62993247D01*
X101015450Y-62207738D01*
X101335717Y-61846448D01*
X102031053Y-61846448D01*
X106045000Y-65860395D01*
X110058947Y-61846448D01*
X169976053Y-61846448D01*
X173990000Y-65860395D01*
X178003947Y-61846448D01*
X177391845Y-61141697D01*
X176370867Y-60572149D01*
X175258395Y-60212728D01*
X174097178Y-60077246D01*
X172931844Y-60170910D01*
X171807173Y-60490119D01*
X170766388Y-61022606D01*
X170588155Y-61141697D01*
X169976053Y-61846448D01*
X110058947Y-61846448D01*
X109446845Y-61141697D01*
X108425867Y-60572149D01*
X107313395Y-60212728D01*
X106152178Y-60077246D01*
X104986844Y-60170910D01*
X103862173Y-60490119D01*
X102821388Y-61022606D01*
X102643155Y-61141697D01*
X102031053Y-61846448D01*
X101335717Y-61846448D01*
X101637141Y-61506416D01*
X102355663Y-60904691D01*
X103155236Y-60415778D01*
X104018291Y-60050420D01*
X104925865Y-59816645D01*
X105877590Y-59717548D01*
X106049889Y-59715000D01*
X173965513Y-59715000D01*
X174924625Y-59786274D01*
%TA.AperFunction,Conductor*%
D24*
G36*
X174924625Y-59786274D02*
G01*
X175838720Y-59993113D01*
X176712199Y-60332790D01*
X177525877Y-60797846D01*
X178261877Y-61378061D01*
X178904035Y-62060695D01*
X179438238Y-62830746D01*
X179852750Y-63671294D01*
X180138469Y-64563880D01*
X180290746Y-65498893D01*
X180315000Y-66054405D01*
X180315001Y-134595498D01*
X180243726Y-135554625D01*
X180036887Y-136468720D01*
X179697210Y-137342199D01*
X179232156Y-138155873D01*
X178651936Y-138891881D01*
X177969305Y-139534035D01*
X177199254Y-140068238D01*
X176358704Y-140482751D01*
X175466120Y-140768469D01*
X174531107Y-140920746D01*
X173975595Y-140945000D01*
X106069488Y-140945000D01*
X105110375Y-140873726D01*
X104196280Y-140666887D01*
X103322801Y-140327210D01*
X102509127Y-139862156D01*
X101773119Y-139281936D01*
X101332509Y-138813552D01*
X102031053Y-138813552D01*
X102643155Y-139518303D01*
X103664133Y-140087851D01*
X104776605Y-140447272D01*
X105937822Y-140582754D01*
X107103156Y-140489090D01*
X108227827Y-140169881D01*
X109268612Y-139637394D01*
X109446845Y-139518303D01*
X110058947Y-138813552D01*
X106045000Y-134799605D01*
X102031053Y-138813552D01*
X101332509Y-138813552D01*
X101130965Y-138599305D01*
X100596762Y-137829254D01*
X100182249Y-136988704D01*
X99896531Y-136096120D01*
X99744254Y-135161107D01*
X99720006Y-134605728D01*
X99720045Y-134512822D01*
X100082246Y-134512822D01*
X100175910Y-135678156D01*
X100495119Y-136802827D01*
X101027606Y-137843612D01*
X101146697Y-138021845D01*
X101851448Y-138633947D01*
X105865395Y-134620000D01*
X106224605Y-134620000D01*
X110238552Y-138633947D01*
X110943303Y-138021845D01*
X110967733Y-137978050D01*
X117935000Y-137978050D01*
X117935000Y-138373949D01*
X117956487Y-138592110D01*
X118041401Y-138872033D01*
X118179294Y-139130013D01*
X118364866Y-139356134D01*
X118590986Y-139541706D01*
X118848966Y-139679599D01*
X119128889Y-139764513D01*
X119420000Y-139793185D01*
X119711110Y-139764513D01*
X119991033Y-139679599D01*
X120249013Y-139541706D01*
X120475134Y-139356134D01*
X120660706Y-139130014D01*
X120674462Y-139104278D01*
X120830951Y-139310429D01*
X121048807Y-139503496D01*
X121300142Y-139650352D01*
X121563110Y-139742476D01*
X121793000Y-139621155D01*
X121793000Y-138303000D01*
X121773000Y-138303000D01*
X121773000Y-138049000D01*
X121793000Y-138049000D01*
X121793000Y-136730845D01*
X122047000Y-136730845D01*
X122047000Y-138049000D01*
X122067000Y-138049000D01*
X122067000Y-138303000D01*
X122047000Y-138303000D01*
X122047000Y-139621155D01*
X122276890Y-139742476D01*
X122539858Y-139650352D01*
X122791193Y-139503496D01*
X123009049Y-139310429D01*
X123025286Y-139289039D01*
X123081595Y-139394386D01*
X123192038Y-139528962D01*
X123326614Y-139639405D01*
X123480150Y-139721472D01*
X123646746Y-139772008D01*
X123820000Y-139789072D01*
X125020000Y-139789072D01*
X125193254Y-139772008D01*
X125359850Y-139721472D01*
X125513386Y-139639405D01*
X125647962Y-139528962D01*
X125689424Y-139478439D01*
X140955000Y-139478439D01*
X140955000Y-139731561D01*
X141004381Y-139979821D01*
X141101247Y-140213676D01*
X141241875Y-140424140D01*
X141420860Y-140603125D01*
X141631324Y-140743753D01*
X141865179Y-140840619D01*
X142113439Y-140890000D01*
X142366561Y-140890000D01*
X142614821Y-140840619D01*
X142848676Y-140743753D01*
X143059140Y-140603125D01*
X143238125Y-140424140D01*
X143378753Y-140213676D01*
X143475619Y-139979821D01*
X143525000Y-139731561D01*
X143525000Y-139478439D01*
X143475619Y-139230179D01*
X143378753Y-138996324D01*
X143256629Y-138813552D01*
X169976053Y-138813552D01*
X170588155Y-139518303D01*
X171609133Y-140087851D01*
X172721605Y-140447272D01*
X173882822Y-140582754D01*
X175048156Y-140489090D01*
X176172827Y-140169881D01*
X177213612Y-139637394D01*
X177391845Y-139518303D01*
X178003947Y-138813552D01*
X173990000Y-134799605D01*
X169976053Y-138813552D01*
X143256629Y-138813552D01*
X143238125Y-138785860D01*
X143059140Y-138606875D01*
X142848676Y-138466247D01*
X142614821Y-138369381D01*
X142366561Y-138320000D01*
X142113439Y-138320000D01*
X141865179Y-138369381D01*
X141631324Y-138466247D01*
X141420860Y-138606875D01*
X141241875Y-138785860D01*
X141101247Y-138996324D01*
X141004381Y-139230179D01*
X140955000Y-139478439D01*
X125689424Y-139478439D01*
X125758405Y-139394386D01*
X125840472Y-139240850D01*
X125891008Y-139074254D01*
X125908072Y-138901000D01*
X125908072Y-137451000D01*
X125904132Y-137411000D01*
X126141637Y-137411000D01*
X126380236Y-137363540D01*
X126604992Y-137270443D01*
X126807267Y-137135287D01*
X126979287Y-136963267D01*
X127114443Y-136760992D01*
X127207540Y-136536236D01*
X127255000Y-136297637D01*
X127255000Y-136054363D01*
X127207540Y-135815764D01*
X127114443Y-135591008D01*
X126979287Y-135388733D01*
X126807267Y-135216713D01*
X126604992Y-135081557D01*
X126380236Y-134988460D01*
X126141637Y-134941000D01*
X125898363Y-134941000D01*
X125659764Y-134988460D01*
X125435008Y-135081557D01*
X125232733Y-135216713D01*
X125060713Y-135388733D01*
X124925557Y-135591008D01*
X124832460Y-135815764D01*
X124785000Y-136054363D01*
X124785000Y-136297637D01*
X124832460Y-136536236D01*
X124843516Y-136562928D01*
X123820000Y-136562928D01*
X123646746Y-136579992D01*
X123480150Y-136630528D01*
X123326614Y-136712595D01*
X123192038Y-136823038D01*
X123081595Y-136957614D01*
X123025286Y-137062961D01*
X123009049Y-137041571D01*
X122791193Y-136848504D01*
X122539858Y-136701648D01*
X122276890Y-136609524D01*
X122047000Y-136730845D01*
X121793000Y-136730845D01*
X121563110Y-136609524D01*
X121300142Y-136701648D01*
X121048807Y-136848504D01*
X120830951Y-137041571D01*
X120674462Y-137247722D01*
X120660706Y-137221986D01*
X120475134Y-136995866D01*
X120430000Y-136958825D01*
X120430000Y-134478439D01*
X140955000Y-134478439D01*
X140955000Y-134731561D01*
X141004381Y-134979821D01*
X141101247Y-135213676D01*
X141241875Y-135424140D01*
X141420860Y-135603125D01*
X141631324Y-135743753D01*
X141865179Y-135840619D01*
X142113439Y-135890000D01*
X142366561Y-135890000D01*
X142614821Y-135840619D01*
X142848676Y-135743753D01*
X143059140Y-135603125D01*
X143238125Y-135424140D01*
X143378753Y-135213676D01*
X143475619Y-134979821D01*
X143525000Y-134731561D01*
X143525000Y-134512822D01*
X168027246Y-134512822D01*
X168120910Y-135678156D01*
X168440119Y-136802827D01*
X168972606Y-137843612D01*
X169091697Y-138021845D01*
X169796448Y-138633947D01*
X173810395Y-134620000D01*
X174169605Y-134620000D01*
X178183552Y-138633947D01*
X178888303Y-138021845D01*
X179457851Y-137000867D01*
X179817272Y-135888395D01*
X179952754Y-134727178D01*
X179859090Y-133561844D01*
X179539881Y-132437173D01*
X179007394Y-131396388D01*
X178888303Y-131218155D01*
X178183552Y-130606053D01*
X174169605Y-134620000D01*
X173810395Y-134620000D01*
X169796448Y-130606053D01*
X169091697Y-131218155D01*
X168522149Y-132239133D01*
X168162728Y-133351605D01*
X168027246Y-134512822D01*
X143525000Y-134512822D01*
X143525000Y-134478439D01*
X143475619Y-134230179D01*
X143378753Y-133996324D01*
X143238125Y-133785860D01*
X143059140Y-133606875D01*
X142848676Y-133466247D01*
X142614821Y-133369381D01*
X142366561Y-133320000D01*
X142113439Y-133320000D01*
X141865179Y-133369381D01*
X141631324Y-133466247D01*
X141420860Y-133606875D01*
X141241875Y-133785860D01*
X141101247Y-133996324D01*
X141004381Y-134230179D01*
X140955000Y-134478439D01*
X120430000Y-134478439D01*
X120430000Y-134363355D01*
X122338356Y-132455000D01*
X146635392Y-132455000D01*
X146685000Y-132459886D01*
X146882994Y-132440385D01*
X147073380Y-132382632D01*
X147248840Y-132288847D01*
X147402633Y-132162633D01*
X147434261Y-132124094D01*
X149131907Y-130426448D01*
X169976053Y-130426448D01*
X173990000Y-134440395D01*
X178003947Y-130426448D01*
X177391845Y-129721697D01*
X176370867Y-129152149D01*
X175258395Y-128792728D01*
X174097178Y-128657246D01*
X172931844Y-128750910D01*
X171807173Y-129070119D01*
X170766388Y-129602606D01*
X170588155Y-129721697D01*
X169976053Y-130426448D01*
X149131907Y-130426448D01*
X151174100Y-128384256D01*
X151212633Y-128352633D01*
X151338847Y-128198840D01*
X151432632Y-128023380D01*
X151490385Y-127832994D01*
X151505000Y-127684608D01*
X151509886Y-127635000D01*
X151505000Y-127585392D01*
X151505000Y-119690363D01*
X174565000Y-119690363D01*
X174565000Y-119933637D01*
X174612460Y-120172236D01*
X174705557Y-120396992D01*
X174840713Y-120599267D01*
X175012733Y-120771287D01*
X175215008Y-120906443D01*
X175439764Y-120999540D01*
X175678363Y-121047000D01*
X175921637Y-121047000D01*
X176160236Y-120999540D01*
X176161928Y-120998839D01*
X176161928Y-122012000D01*
X176178992Y-122185254D01*
X176229528Y-122351850D01*
X176311595Y-122505386D01*
X176422038Y-122639962D01*
X176556614Y-122750405D01*
X176658337Y-122804777D01*
X176594866Y-122856866D01*
X176409294Y-123082986D01*
X176271401Y-123340966D01*
X176186487Y-123620889D01*
X176157815Y-123912000D01*
X176186487Y-124203111D01*
X176271401Y-124483034D01*
X176409294Y-124741014D01*
X176594866Y-124967134D01*
X176820986Y-125152706D01*
X177078966Y-125290599D01*
X177358889Y-125375513D01*
X177577050Y-125397000D01*
X178022950Y-125397000D01*
X178241111Y-125375513D01*
X178521034Y-125290599D01*
X178779014Y-125152706D01*
X179005134Y-124967134D01*
X179190706Y-124741014D01*
X179328599Y-124483034D01*
X179413513Y-124203111D01*
X179442185Y-123912000D01*
X179413513Y-123620889D01*
X179328599Y-123340966D01*
X179190706Y-123082986D01*
X179005134Y-122856866D01*
X178941663Y-122804777D01*
X179043386Y-122750405D01*
X179177962Y-122639962D01*
X179288405Y-122505386D01*
X179370472Y-122351850D01*
X179421008Y-122185254D01*
X179438072Y-122012000D01*
X179438072Y-120812000D01*
X179421008Y-120638746D01*
X179370472Y-120472150D01*
X179288405Y-120318614D01*
X179177962Y-120184038D01*
X179043386Y-120073595D01*
X178889850Y-119991528D01*
X178723254Y-119940992D01*
X178550000Y-119923928D01*
X177050000Y-119923928D01*
X177035000Y-119925405D01*
X177035000Y-119690363D01*
X176987540Y-119451764D01*
X176894443Y-119227008D01*
X176759287Y-119024733D01*
X176587267Y-118852713D01*
X176384992Y-118717557D01*
X176160236Y-118624460D01*
X175921637Y-118577000D01*
X175678363Y-118577000D01*
X175439764Y-118624460D01*
X175215008Y-118717557D01*
X175012733Y-118852713D01*
X174840713Y-119024733D01*
X174705557Y-119227008D01*
X174612460Y-119451764D01*
X174565000Y-119690363D01*
X151505000Y-119690363D01*
X151505000Y-111054363D01*
X174565000Y-111054363D01*
X174565000Y-111297637D01*
X174612460Y-111536236D01*
X174705557Y-111760992D01*
X174840713Y-111963267D01*
X175012733Y-112135287D01*
X175215008Y-112270443D01*
X175439764Y-112363540D01*
X175678363Y-112411000D01*
X175921637Y-112411000D01*
X176160236Y-112363540D01*
X176161928Y-112362839D01*
X176161928Y-113376000D01*
X176178992Y-113549254D01*
X176229528Y-113715850D01*
X176311595Y-113869386D01*
X176422038Y-114003962D01*
X176556614Y-114114405D01*
X176658337Y-114168777D01*
X176594866Y-114220866D01*
X176409294Y-114446986D01*
X176271401Y-114704966D01*
X176186487Y-114984889D01*
X176157815Y-115276000D01*
X176186487Y-115567111D01*
X176271401Y-115847034D01*
X176409294Y-116105014D01*
X176594866Y-116331134D01*
X176820986Y-116516706D01*
X177078966Y-116654599D01*
X177358889Y-116739513D01*
X177577050Y-116761000D01*
X178022950Y-116761000D01*
X178241111Y-116739513D01*
X178521034Y-116654599D01*
X178779014Y-116516706D01*
X179005134Y-116331134D01*
X179190706Y-116105014D01*
X179328599Y-115847034D01*
X179413513Y-115567111D01*
X179442185Y-115276000D01*
X179413513Y-114984889D01*
X179328599Y-114704966D01*
X179190706Y-114446986D01*
X179005134Y-114220866D01*
X178941663Y-114168777D01*
X179043386Y-114114405D01*
X179177962Y-114003962D01*
X179288405Y-113869386D01*
X179370472Y-113715850D01*
X179421008Y-113549254D01*
X179438072Y-113376000D01*
X179438072Y-112176000D01*
X179421008Y-112002746D01*
X179370472Y-111836150D01*
X179288405Y-111682614D01*
X179177962Y-111548038D01*
X179043386Y-111437595D01*
X178889850Y-111355528D01*
X178723254Y-111304992D01*
X178550000Y-111287928D01*
X177050000Y-111287928D01*
X177035000Y-111289405D01*
X177035000Y-111054363D01*
X176987540Y-110815764D01*
X176894443Y-110591008D01*
X176759287Y-110388733D01*
X176587267Y-110216713D01*
X176384992Y-110081557D01*
X176160236Y-109988460D01*
X175921637Y-109941000D01*
X175678363Y-109941000D01*
X175439764Y-109988460D01*
X175215008Y-110081557D01*
X175012733Y-110216713D01*
X174840713Y-110388733D01*
X174705557Y-110591008D01*
X174612460Y-110815764D01*
X174565000Y-111054363D01*
X151505000Y-111054363D01*
X151505000Y-101910363D01*
X174565000Y-101910363D01*
X174565000Y-102153637D01*
X174612460Y-102392236D01*
X174705557Y-102616992D01*
X174840713Y-102819267D01*
X175012733Y-102991287D01*
X175215008Y-103126443D01*
X175439764Y-103219540D01*
X175678363Y-103267000D01*
X175921637Y-103267000D01*
X176160236Y-103219540D01*
X176161928Y-103218839D01*
X176161928Y-104232000D01*
X176178992Y-104405254D01*
X176229528Y-104571850D01*
X176311595Y-104725386D01*
X176422038Y-104859962D01*
X176556614Y-104970405D01*
X176658337Y-105024777D01*
X176594866Y-105076866D01*
X176409294Y-105302986D01*
X176271401Y-105560966D01*
X176186487Y-105840889D01*
X176157815Y-106132000D01*
X176186487Y-106423111D01*
X176271401Y-106703034D01*
X176409294Y-106961014D01*
X176594866Y-107187134D01*
X176820986Y-107372706D01*
X177078966Y-107510599D01*
X177358889Y-107595513D01*
X177577050Y-107617000D01*
X178022950Y-107617000D01*
X178241111Y-107595513D01*
X178521034Y-107510599D01*
X178779014Y-107372706D01*
X179005134Y-107187134D01*
X179190706Y-106961014D01*
X179328599Y-106703034D01*
X179413513Y-106423111D01*
X179442185Y-106132000D01*
X179413513Y-105840889D01*
X179328599Y-105560966D01*
X179190706Y-105302986D01*
X179005134Y-105076866D01*
X178941663Y-105024777D01*
X179043386Y-104970405D01*
X179177962Y-104859962D01*
X179288405Y-104725386D01*
X179370472Y-104571850D01*
X179421008Y-104405254D01*
X179438072Y-104232000D01*
X179438072Y-103032000D01*
X179421008Y-102858746D01*
X179370472Y-102692150D01*
X179288405Y-102538614D01*
X179177962Y-102404038D01*
X179043386Y-102293595D01*
X178889850Y-102211528D01*
X178723254Y-102160992D01*
X178550000Y-102143928D01*
X177050000Y-102143928D01*
X177035000Y-102145405D01*
X177035000Y-101910363D01*
X176987540Y-101671764D01*
X176894443Y-101447008D01*
X176759287Y-101244733D01*
X176587267Y-101072713D01*
X176384992Y-100937557D01*
X176160236Y-100844460D01*
X175921637Y-100797000D01*
X175678363Y-100797000D01*
X175439764Y-100844460D01*
X175215008Y-100937557D01*
X175012733Y-101072713D01*
X174840713Y-101244733D01*
X174705557Y-101447008D01*
X174612460Y-101671764D01*
X174565000Y-101910363D01*
X151505000Y-101910363D01*
X151505000Y-93274363D01*
X174565000Y-93274363D01*
X174565000Y-93517637D01*
X174612460Y-93756236D01*
X174705557Y-93980992D01*
X174840713Y-94183267D01*
X175012733Y-94355287D01*
X175215008Y-94490443D01*
X175439764Y-94583540D01*
X175678363Y-94631000D01*
X175921637Y-94631000D01*
X176160236Y-94583540D01*
X176161928Y-94582839D01*
X176161928Y-95596000D01*
X176178992Y-95769254D01*
X176229528Y-95935850D01*
X176311595Y-96089386D01*
X176422038Y-96223962D01*
X176556614Y-96334405D01*
X176658337Y-96388777D01*
X176594866Y-96440866D01*
X176409294Y-96666986D01*
X176271401Y-96924966D01*
X176186487Y-97204889D01*
X176157815Y-97496000D01*
X176186487Y-97787111D01*
X176271401Y-98067034D01*
X176409294Y-98325014D01*
X176594866Y-98551134D01*
X176820986Y-98736706D01*
X177078966Y-98874599D01*
X177358889Y-98959513D01*
X177577050Y-98981000D01*
X178022950Y-98981000D01*
X178241111Y-98959513D01*
X178521034Y-98874599D01*
X178779014Y-98736706D01*
X179005134Y-98551134D01*
X179190706Y-98325014D01*
X179328599Y-98067034D01*
X179413513Y-97787111D01*
X179442185Y-97496000D01*
X179413513Y-97204889D01*
X179328599Y-96924966D01*
X179190706Y-96666986D01*
X179005134Y-96440866D01*
X178941663Y-96388777D01*
X179043386Y-96334405D01*
X179177962Y-96223962D01*
X179288405Y-96089386D01*
X179370472Y-95935850D01*
X179421008Y-95769254D01*
X179438072Y-95596000D01*
X179438072Y-94396000D01*
X179421008Y-94222746D01*
X179370472Y-94056150D01*
X179288405Y-93902614D01*
X179177962Y-93768038D01*
X179043386Y-93657595D01*
X178889850Y-93575528D01*
X178723254Y-93524992D01*
X178550000Y-93507928D01*
X177050000Y-93507928D01*
X177035000Y-93509405D01*
X177035000Y-93274363D01*
X176987540Y-93035764D01*
X176894443Y-92811008D01*
X176759287Y-92608733D01*
X176587267Y-92436713D01*
X176384992Y-92301557D01*
X176160236Y-92208460D01*
X175921637Y-92161000D01*
X175678363Y-92161000D01*
X175439764Y-92208460D01*
X175215008Y-92301557D01*
X175012733Y-92436713D01*
X174840713Y-92608733D01*
X174705557Y-92811008D01*
X174612460Y-93035764D01*
X174565000Y-93274363D01*
X151505000Y-93274363D01*
X151505000Y-84682623D01*
X151530000Y-84556939D01*
X151530000Y-84353061D01*
X151490226Y-84153102D01*
X151480808Y-84130363D01*
X174565000Y-84130363D01*
X174565000Y-84373637D01*
X174612460Y-84612236D01*
X174705557Y-84836992D01*
X174840713Y-85039267D01*
X175012733Y-85211287D01*
X175215008Y-85346443D01*
X175439764Y-85439540D01*
X175678363Y-85487000D01*
X175921637Y-85487000D01*
X176160236Y-85439540D01*
X176161928Y-85438839D01*
X176161928Y-86452000D01*
X176178992Y-86625254D01*
X176229528Y-86791850D01*
X176311595Y-86945386D01*
X176422038Y-87079962D01*
X176556614Y-87190405D01*
X176658337Y-87244777D01*
X176594866Y-87296866D01*
X176409294Y-87522986D01*
X176271401Y-87780966D01*
X176186487Y-88060889D01*
X176157815Y-88352000D01*
X176186487Y-88643111D01*
X176271401Y-88923034D01*
X176409294Y-89181014D01*
X176594866Y-89407134D01*
X176820986Y-89592706D01*
X177078966Y-89730599D01*
X177358889Y-89815513D01*
X177577050Y-89837000D01*
X178022950Y-89837000D01*
X178241111Y-89815513D01*
X178521034Y-89730599D01*
X178779014Y-89592706D01*
X179005134Y-89407134D01*
X179190706Y-89181014D01*
X179328599Y-88923034D01*
X179413513Y-88643111D01*
X179442185Y-88352000D01*
X179413513Y-88060889D01*
X179328599Y-87780966D01*
X179190706Y-87522986D01*
X179005134Y-87296866D01*
X178941663Y-87244777D01*
X179043386Y-87190405D01*
X179177962Y-87079962D01*
X179288405Y-86945386D01*
X179370472Y-86791850D01*
X179421008Y-86625254D01*
X179438072Y-86452000D01*
X179438072Y-85252000D01*
X179421008Y-85078746D01*
X179370472Y-84912150D01*
X179288405Y-84758614D01*
X179177962Y-84624038D01*
X179043386Y-84513595D01*
X178889850Y-84431528D01*
X178723254Y-84380992D01*
X178550000Y-84363928D01*
X177050000Y-84363928D01*
X177035000Y-84365405D01*
X177035000Y-84130363D01*
X176987540Y-83891764D01*
X176894443Y-83667008D01*
X176759287Y-83464733D01*
X176587267Y-83292713D01*
X176384992Y-83157557D01*
X176160236Y-83064460D01*
X175921637Y-83017000D01*
X175678363Y-83017000D01*
X175439764Y-83064460D01*
X175215008Y-83157557D01*
X175012733Y-83292713D01*
X174840713Y-83464733D01*
X174705557Y-83667008D01*
X174612460Y-83891764D01*
X174565000Y-84130363D01*
X151480808Y-84130363D01*
X151412205Y-83964744D01*
X151298937Y-83795226D01*
X151154774Y-83651063D01*
X150985256Y-83537795D01*
X150796898Y-83459774D01*
X150596939Y-83420000D01*
X150393061Y-83420000D01*
X150193102Y-83459774D01*
X150004744Y-83537795D01*
X149835226Y-83651063D01*
X149691063Y-83795226D01*
X149577795Y-83964744D01*
X149499774Y-84153102D01*
X149460000Y-84353061D01*
X149460000Y-84556939D01*
X149485000Y-84682624D01*
X149485001Y-93830000D01*
X148463120Y-93830000D01*
X148397889Y-93786414D01*
X148227729Y-93715932D01*
X148047089Y-93680000D01*
X147862911Y-93680000D01*
X147682271Y-93715932D01*
X147512111Y-93786414D01*
X147358972Y-93888738D01*
X147228738Y-94018972D01*
X147126414Y-94172111D01*
X147055932Y-94342271D01*
X147020000Y-94522911D01*
X147020000Y-94707089D01*
X147055932Y-94887729D01*
X147126414Y-95057889D01*
X147228738Y-95211028D01*
X147358972Y-95341262D01*
X147512111Y-95443586D01*
X147682271Y-95514068D01*
X147862911Y-95550000D01*
X148047089Y-95550000D01*
X148227729Y-95514068D01*
X148397889Y-95443586D01*
X148463120Y-95400000D01*
X149485000Y-95400000D01*
X149485000Y-99124893D01*
X149282632Y-98922525D01*
X149039411Y-98760010D01*
X148769158Y-98648068D01*
X148482260Y-98591000D01*
X148189740Y-98591000D01*
X147902842Y-98648068D01*
X147632589Y-98760010D01*
X147389368Y-98922525D01*
X147182525Y-99129368D01*
X147020010Y-99372589D01*
X146908068Y-99642842D01*
X146851000Y-99929740D01*
X146851000Y-100222260D01*
X146908068Y-100509158D01*
X147020010Y-100779411D01*
X147182525Y-101022632D01*
X147389368Y-101229475D01*
X147571534Y-101351195D01*
X147454645Y-101420822D01*
X147238412Y-101615731D01*
X147064359Y-101849080D01*
X146939175Y-102111901D01*
X146894524Y-102259110D01*
X147015845Y-102489000D01*
X148209000Y-102489000D01*
X148209000Y-102469000D01*
X148463000Y-102469000D01*
X148463000Y-102489000D01*
X148483000Y-102489000D01*
X148483000Y-102743000D01*
X148463000Y-102743000D01*
X148463000Y-102763000D01*
X148209000Y-102763000D01*
X148209000Y-102743000D01*
X147015845Y-102743000D01*
X146894524Y-102972890D01*
X146939175Y-103120099D01*
X147064359Y-103382920D01*
X147238412Y-103616269D01*
X147322466Y-103692034D01*
X147241820Y-103716498D01*
X147131506Y-103775463D01*
X147034815Y-103854815D01*
X146955463Y-103951506D01*
X146896498Y-104061820D01*
X146860188Y-104181518D01*
X146847928Y-104306000D01*
X146847928Y-106006000D01*
X146860188Y-106130482D01*
X146896498Y-106250180D01*
X146955463Y-106360494D01*
X147034815Y-106457185D01*
X147131506Y-106536537D01*
X147241820Y-106595502D01*
X147361518Y-106631812D01*
X147486000Y-106644072D01*
X149186000Y-106644072D01*
X149310482Y-106631812D01*
X149430180Y-106595502D01*
X149485000Y-106566199D01*
X149485001Y-127216643D01*
X146266645Y-130435000D01*
X121969608Y-130435000D01*
X121920000Y-130430114D01*
X121722005Y-130449615D01*
X121669986Y-130465395D01*
X121531620Y-130507368D01*
X121356160Y-130601153D01*
X121202367Y-130727367D01*
X121170744Y-130765900D01*
X118740906Y-133195739D01*
X118702367Y-133227367D01*
X118576153Y-133381160D01*
X118494982Y-133533021D01*
X118482368Y-133556621D01*
X118424615Y-133747006D01*
X118405114Y-133945000D01*
X118410000Y-133994608D01*
X118410001Y-136958825D01*
X118364866Y-136995866D01*
X118179294Y-137221986D01*
X118041401Y-137479966D01*
X117956487Y-137759889D01*
X117935000Y-137978050D01*
X110967733Y-137978050D01*
X111512851Y-137000867D01*
X111872272Y-135888395D01*
X112007754Y-134727178D01*
X111914090Y-133561844D01*
X111594881Y-132437173D01*
X111062394Y-131396388D01*
X110943303Y-131218155D01*
X110238552Y-130606053D01*
X106224605Y-134620000D01*
X105865395Y-134620000D01*
X101851448Y-130606053D01*
X101146697Y-131218155D01*
X100577149Y-132239133D01*
X100217728Y-133351605D01*
X100082246Y-134512822D01*
X99720045Y-134512822D01*
X99721769Y-130426448D01*
X102031053Y-130426448D01*
X106045000Y-134440395D01*
X110058947Y-130426448D01*
X109446845Y-129721697D01*
X108425867Y-129152149D01*
X107313395Y-128792728D01*
X106152178Y-128657246D01*
X104986844Y-128750910D01*
X103862173Y-129070119D01*
X102821388Y-129602606D01*
X102643155Y-129721697D01*
X102031053Y-130426448D01*
X99721769Y-130426448D01*
X99726276Y-119751589D01*
X99739000Y-119751589D01*
X99739000Y-120024411D01*
X99792225Y-120291989D01*
X99896629Y-120544043D01*
X100048201Y-120770886D01*
X100241114Y-120963799D01*
X100467957Y-121115371D01*
X100720011Y-121219775D01*
X100987589Y-121273000D01*
X101260411Y-121273000D01*
X101527989Y-121219775D01*
X101780043Y-121115371D01*
X102006886Y-120963799D01*
X102199799Y-120770886D01*
X102351371Y-120544043D01*
X102455775Y-120291989D01*
X102509000Y-120024411D01*
X102509000Y-119751589D01*
X105739000Y-119751589D01*
X105739000Y-120024411D01*
X105792225Y-120291989D01*
X105896629Y-120544043D01*
X106048201Y-120770886D01*
X106241114Y-120963799D01*
X106467957Y-121115371D01*
X106720011Y-121219775D01*
X106987589Y-121273000D01*
X107260411Y-121273000D01*
X107527989Y-121219775D01*
X107780043Y-121115371D01*
X108006886Y-120963799D01*
X108199799Y-120770886D01*
X108351371Y-120544043D01*
X108455775Y-120291989D01*
X108509000Y-120024411D01*
X108509000Y-119751589D01*
X108455775Y-119484011D01*
X108351371Y-119231957D01*
X108199799Y-119005114D01*
X108006886Y-118812201D01*
X107780043Y-118660629D01*
X107527989Y-118556225D01*
X107260411Y-118503000D01*
X106987589Y-118503000D01*
X106720011Y-118556225D01*
X106467957Y-118660629D01*
X106241114Y-118812201D01*
X106048201Y-119005114D01*
X105896629Y-119231957D01*
X105792225Y-119484011D01*
X105739000Y-119751589D01*
X102509000Y-119751589D01*
X102455775Y-119484011D01*
X102351371Y-119231957D01*
X102199799Y-119005114D01*
X102006886Y-118812201D01*
X101780043Y-118660629D01*
X101527989Y-118556225D01*
X101260411Y-118503000D01*
X100987589Y-118503000D01*
X100720011Y-118556225D01*
X100467957Y-118660629D01*
X100241114Y-118812201D01*
X100048201Y-119005114D01*
X99896629Y-119231957D01*
X99792225Y-119484011D01*
X99739000Y-119751589D01*
X99726276Y-119751589D01*
X99727333Y-117246061D01*
X117837000Y-117246061D01*
X117837000Y-117449939D01*
X117876774Y-117649898D01*
X117954795Y-117838256D01*
X118068063Y-118007774D01*
X118212226Y-118151937D01*
X118381744Y-118265205D01*
X118570102Y-118343226D01*
X118620000Y-118353151D01*
X118620001Y-121216288D01*
X118576063Y-121260226D01*
X118462795Y-121429744D01*
X118384774Y-121618102D01*
X118345000Y-121818061D01*
X118345000Y-122021939D01*
X118384774Y-122221898D01*
X118462795Y-122410256D01*
X118576063Y-122579774D01*
X118720226Y-122723937D01*
X118889744Y-122837205D01*
X119078102Y-122915226D01*
X119278061Y-122955000D01*
X119481939Y-122955000D01*
X119681898Y-122915226D01*
X119870256Y-122837205D01*
X120039774Y-122723937D01*
X120183937Y-122579774D01*
X120297205Y-122410256D01*
X120375226Y-122221898D01*
X120415000Y-122021939D01*
X120415000Y-121818061D01*
X120375226Y-121618102D01*
X120297205Y-121429744D01*
X120183937Y-121260226D01*
X120140000Y-121216289D01*
X120140000Y-117893322D01*
X120143676Y-117855999D01*
X120140000Y-117818676D01*
X120140000Y-117818667D01*
X120129003Y-117707014D01*
X120085546Y-117563753D01*
X120014974Y-117431724D01*
X119920001Y-117315999D01*
X119907000Y-117305329D01*
X119907000Y-117246061D01*
X119867226Y-117046102D01*
X119789205Y-116857744D01*
X119675937Y-116688226D01*
X119531774Y-116544063D01*
X119362256Y-116430795D01*
X119173898Y-116352774D01*
X118973939Y-116313000D01*
X118770061Y-116313000D01*
X118570102Y-116352774D01*
X118381744Y-116430795D01*
X118212226Y-116544063D01*
X118068063Y-116688226D01*
X117954795Y-116857744D01*
X117876774Y-117046102D01*
X117837000Y-117246061D01*
X99727333Y-117246061D01*
X99731852Y-106543589D01*
X99739000Y-106543589D01*
X99739000Y-106816411D01*
X99792225Y-107083989D01*
X99896629Y-107336043D01*
X100048201Y-107562886D01*
X100241114Y-107755799D01*
X100467957Y-107907371D01*
X100720011Y-108011775D01*
X100987589Y-108065000D01*
X101260411Y-108065000D01*
X101527989Y-108011775D01*
X101780043Y-107907371D01*
X102006886Y-107755799D01*
X102199799Y-107562886D01*
X102351371Y-107336043D01*
X102455775Y-107083989D01*
X102509000Y-106816411D01*
X102509000Y-106543589D01*
X105739000Y-106543589D01*
X105739000Y-106816411D01*
X105792225Y-107083989D01*
X105896629Y-107336043D01*
X106048201Y-107562886D01*
X106241114Y-107755799D01*
X106467957Y-107907371D01*
X106720011Y-108011775D01*
X106987589Y-108065000D01*
X107260411Y-108065000D01*
X107527989Y-108011775D01*
X107780043Y-107907371D01*
X107854064Y-107857911D01*
X132415000Y-107857911D01*
X132415000Y-108042089D01*
X132450932Y-108222729D01*
X132521414Y-108392889D01*
X132623738Y-108546028D01*
X132753972Y-108676262D01*
X132907111Y-108778586D01*
X133077271Y-108849068D01*
X133257911Y-108885000D01*
X133442089Y-108885000D01*
X133622729Y-108849068D01*
X133792889Y-108778586D01*
X133946028Y-108676262D01*
X134076262Y-108546028D01*
X134178586Y-108392889D01*
X134249068Y-108222729D01*
X134285000Y-108042089D01*
X134285000Y-107857911D01*
X134249068Y-107677271D01*
X134178586Y-107507111D01*
X134110000Y-107404465D01*
X134110000Y-103819801D01*
X134136649Y-103793153D01*
X134257729Y-103769068D01*
X134427889Y-103698586D01*
X134581028Y-103596262D01*
X134711262Y-103466028D01*
X134813586Y-103312889D01*
X134884068Y-103142729D01*
X134920000Y-102962089D01*
X134920000Y-102777911D01*
X134884068Y-102597271D01*
X134813586Y-102427111D01*
X134711262Y-102273972D01*
X134581028Y-102143738D01*
X134427889Y-102041414D01*
X134257729Y-101970932D01*
X134077089Y-101935000D01*
X133892911Y-101935000D01*
X133712271Y-101970932D01*
X133542111Y-102041414D01*
X133388972Y-102143738D01*
X133258738Y-102273972D01*
X133156414Y-102427111D01*
X133085932Y-102597271D01*
X133061847Y-102718351D01*
X132839002Y-102941197D01*
X132809999Y-102964999D01*
X132761215Y-103024443D01*
X132715026Y-103080724D01*
X132671451Y-103162247D01*
X132644454Y-103212754D01*
X132600997Y-103356015D01*
X132590000Y-103467668D01*
X132590000Y-103467678D01*
X132586324Y-103505000D01*
X132590000Y-103542323D01*
X132590001Y-107404463D01*
X132521414Y-107507111D01*
X132450932Y-107677271D01*
X132415000Y-107857911D01*
X107854064Y-107857911D01*
X108006886Y-107755799D01*
X108199799Y-107562886D01*
X108351371Y-107336043D01*
X108455775Y-107083989D01*
X108509000Y-106816411D01*
X108509000Y-106543589D01*
X108455775Y-106276011D01*
X108351371Y-106023957D01*
X108199799Y-105797114D01*
X108006886Y-105604201D01*
X107780043Y-105452629D01*
X107527989Y-105348225D01*
X107260411Y-105295000D01*
X106987589Y-105295000D01*
X106720011Y-105348225D01*
X106467957Y-105452629D01*
X106241114Y-105604201D01*
X106048201Y-105797114D01*
X105896629Y-106023957D01*
X105792225Y-106276011D01*
X105739000Y-106543589D01*
X102509000Y-106543589D01*
X102455775Y-106276011D01*
X102351371Y-106023957D01*
X102199799Y-105797114D01*
X102006886Y-105604201D01*
X101780043Y-105452629D01*
X101527989Y-105348225D01*
X101260411Y-105295000D01*
X100987589Y-105295000D01*
X100720011Y-105348225D01*
X100467957Y-105452629D01*
X100241114Y-105604201D01*
X100048201Y-105797114D01*
X99896629Y-106023957D01*
X99792225Y-106276011D01*
X99739000Y-106543589D01*
X99731852Y-106543589D01*
X99735530Y-97830000D01*
X124722815Y-97830000D01*
X124751487Y-98121111D01*
X124836401Y-98401034D01*
X124974294Y-98659014D01*
X125159866Y-98885134D01*
X125223337Y-98937223D01*
X125121614Y-98991595D01*
X124987038Y-99102038D01*
X124876595Y-99236614D01*
X124794528Y-99390150D01*
X124743992Y-99556746D01*
X124726928Y-99730000D01*
X124726928Y-100930000D01*
X124743992Y-101103254D01*
X124794528Y-101269850D01*
X124876595Y-101423386D01*
X124987038Y-101557962D01*
X125121614Y-101668405D01*
X125275150Y-101750472D01*
X125441746Y-101801008D01*
X125615000Y-101818072D01*
X127115000Y-101818072D01*
X127130000Y-101816595D01*
X127130000Y-102051637D01*
X127177460Y-102290236D01*
X127270557Y-102514992D01*
X127405713Y-102717267D01*
X127577733Y-102889287D01*
X127780008Y-103024443D01*
X128004764Y-103117540D01*
X128243363Y-103165000D01*
X128486637Y-103165000D01*
X128725236Y-103117540D01*
X128949992Y-103024443D01*
X129152267Y-102889287D01*
X129324287Y-102717267D01*
X129459443Y-102514992D01*
X129552540Y-102290236D01*
X129600000Y-102051637D01*
X129600000Y-101808363D01*
X129552540Y-101569764D01*
X129459443Y-101345008D01*
X129324287Y-101142733D01*
X129152267Y-100970713D01*
X128949992Y-100835557D01*
X128725236Y-100742460D01*
X128486637Y-100695000D01*
X128243363Y-100695000D01*
X128004764Y-100742460D01*
X128003072Y-100743161D01*
X128003072Y-99730000D01*
X127986008Y-99556746D01*
X127935472Y-99390150D01*
X127853405Y-99236614D01*
X127742962Y-99102038D01*
X127608386Y-98991595D01*
X127506663Y-98937223D01*
X127570134Y-98885134D01*
X127755706Y-98659014D01*
X127893599Y-98401034D01*
X127978513Y-98121111D01*
X128007185Y-97830000D01*
X127978513Y-97538889D01*
X127893599Y-97258966D01*
X127755706Y-97000986D01*
X127570134Y-96774866D01*
X127344014Y-96589294D01*
X127086034Y-96451401D01*
X126806111Y-96366487D01*
X126587950Y-96345000D01*
X126142050Y-96345000D01*
X125923889Y-96366487D01*
X125643966Y-96451401D01*
X125385986Y-96589294D01*
X125159866Y-96774866D01*
X124974294Y-97000986D01*
X124836401Y-97258966D01*
X124751487Y-97538889D01*
X124722815Y-97830000D01*
X99735530Y-97830000D01*
X99739830Y-87645000D01*
X106371928Y-87645000D01*
X106371928Y-89395000D01*
X106401001Y-89690186D01*
X106487104Y-89974028D01*
X106626927Y-90235618D01*
X106815097Y-90464903D01*
X107044382Y-90653073D01*
X107305972Y-90792896D01*
X107589814Y-90878999D01*
X107885000Y-90908072D01*
X109635000Y-90908072D01*
X109930186Y-90878999D01*
X110214028Y-90792896D01*
X110475618Y-90653073D01*
X110704903Y-90464903D01*
X110893073Y-90235618D01*
X111032896Y-89974028D01*
X111118999Y-89690186D01*
X111148072Y-89395000D01*
X111148072Y-87645000D01*
X111118999Y-87349814D01*
X111032896Y-87065972D01*
X110893073Y-86804382D01*
X110704903Y-86575097D01*
X110475618Y-86386927D01*
X110214028Y-86247104D01*
X110085357Y-86208072D01*
X113510000Y-86208072D01*
X113634482Y-86195812D01*
X113754180Y-86159502D01*
X113864494Y-86100537D01*
X113961185Y-86021185D01*
X114040537Y-85924494D01*
X114099502Y-85814180D01*
X114135812Y-85694482D01*
X114148072Y-85570000D01*
X114148072Y-82070000D01*
X114135812Y-81945518D01*
X114099502Y-81825820D01*
X114040537Y-81715506D01*
X113961185Y-81618815D01*
X113864494Y-81539463D01*
X113754180Y-81480498D01*
X113634482Y-81444188D01*
X113510000Y-81431928D01*
X110010000Y-81431928D01*
X109885518Y-81444188D01*
X109765820Y-81480498D01*
X109655506Y-81539463D01*
X109558815Y-81618815D01*
X109479463Y-81715506D01*
X109420498Y-81825820D01*
X109384188Y-81945518D01*
X109371928Y-82070000D01*
X109371928Y-85570000D01*
X109384188Y-85694482D01*
X109420498Y-85814180D01*
X109479463Y-85924494D01*
X109558815Y-86021185D01*
X109655506Y-86100537D01*
X109732131Y-86141494D01*
X109635000Y-86131928D01*
X107885000Y-86131928D01*
X107589814Y-86161001D01*
X107305972Y-86247104D01*
X107044382Y-86386927D01*
X106815097Y-86575097D01*
X106626927Y-86804382D01*
X106487104Y-87065972D01*
X106401001Y-87349814D01*
X106371928Y-87645000D01*
X99739830Y-87645000D01*
X99740706Y-85570000D01*
X103621928Y-85570000D01*
X103634188Y-85694482D01*
X103670498Y-85814180D01*
X103729463Y-85924494D01*
X103808815Y-86021185D01*
X103905506Y-86100537D01*
X104015820Y-86159502D01*
X104135518Y-86195812D01*
X104260000Y-86208072D01*
X105474250Y-86205000D01*
X105633000Y-86046250D01*
X105633000Y-83947000D01*
X105887000Y-83947000D01*
X105887000Y-86046250D01*
X106045750Y-86205000D01*
X107260000Y-86208072D01*
X107384482Y-86195812D01*
X107504180Y-86159502D01*
X107614494Y-86100537D01*
X107711185Y-86021185D01*
X107790537Y-85924494D01*
X107849502Y-85814180D01*
X107885812Y-85694482D01*
X107898072Y-85570000D01*
X107895000Y-84105750D01*
X107736250Y-83947000D01*
X105887000Y-83947000D01*
X105633000Y-83947000D01*
X103783750Y-83947000D01*
X103625000Y-84105750D01*
X103621928Y-85570000D01*
X99740706Y-85570000D01*
X99742183Y-82070000D01*
X103621928Y-82070000D01*
X103625000Y-83534250D01*
X103783750Y-83693000D01*
X105633000Y-83693000D01*
X105633000Y-81593750D01*
X105887000Y-81593750D01*
X105887000Y-83693000D01*
X107736250Y-83693000D01*
X107895000Y-83534250D01*
X107898072Y-82070000D01*
X107885812Y-81945518D01*
X107849502Y-81825820D01*
X107790537Y-81715506D01*
X107711185Y-81618815D01*
X107614494Y-81539463D01*
X107504180Y-81480498D01*
X107384482Y-81444188D01*
X107260000Y-81431928D01*
X106045750Y-81435000D01*
X105887000Y-81593750D01*
X105633000Y-81593750D01*
X105474250Y-81435000D01*
X104260000Y-81431928D01*
X104135518Y-81444188D01*
X104015820Y-81480498D01*
X103905506Y-81539463D01*
X103808815Y-81618815D01*
X103729463Y-81715506D01*
X103670498Y-81825820D01*
X103634188Y-81945518D01*
X103621928Y-82070000D01*
X99742183Y-82070000D01*
X99744959Y-75494363D01*
X174565000Y-75494363D01*
X174565000Y-75737637D01*
X174612460Y-75976236D01*
X174705557Y-76200992D01*
X174840713Y-76403267D01*
X175012733Y-76575287D01*
X175215008Y-76710443D01*
X175439764Y-76803540D01*
X175678363Y-76851000D01*
X175921637Y-76851000D01*
X176160236Y-76803540D01*
X176161928Y-76802839D01*
X176161928Y-77816000D01*
X176178992Y-77989254D01*
X176229528Y-78155850D01*
X176311595Y-78309386D01*
X176422038Y-78443962D01*
X176556614Y-78554405D01*
X176658337Y-78608777D01*
X176594866Y-78660866D01*
X176409294Y-78886986D01*
X176271401Y-79144966D01*
X176186487Y-79424889D01*
X176157815Y-79716000D01*
X176186487Y-80007111D01*
X176271401Y-80287034D01*
X176409294Y-80545014D01*
X176594866Y-80771134D01*
X176820986Y-80956706D01*
X177078966Y-81094599D01*
X177358889Y-81179513D01*
X177577050Y-81201000D01*
X178022950Y-81201000D01*
X178241111Y-81179513D01*
X178521034Y-81094599D01*
X178779014Y-80956706D01*
X179005134Y-80771134D01*
X179190706Y-80545014D01*
X179328599Y-80287034D01*
X179413513Y-80007111D01*
X179442185Y-79716000D01*
X179413513Y-79424889D01*
X179328599Y-79144966D01*
X179190706Y-78886986D01*
X179005134Y-78660866D01*
X178941663Y-78608777D01*
X179043386Y-78554405D01*
X179177962Y-78443962D01*
X179288405Y-78309386D01*
X179370472Y-78155850D01*
X179421008Y-77989254D01*
X179438072Y-77816000D01*
X179438072Y-76616000D01*
X179421008Y-76442746D01*
X179370472Y-76276150D01*
X179288405Y-76122614D01*
X179177962Y-75988038D01*
X179043386Y-75877595D01*
X178889850Y-75795528D01*
X178723254Y-75744992D01*
X178550000Y-75727928D01*
X177050000Y-75727928D01*
X177035000Y-75729405D01*
X177035000Y-75494363D01*
X176987540Y-75255764D01*
X176894443Y-75031008D01*
X176759287Y-74828733D01*
X176587267Y-74656713D01*
X176384992Y-74521557D01*
X176160236Y-74428460D01*
X175921637Y-74381000D01*
X175678363Y-74381000D01*
X175439764Y-74428460D01*
X175215008Y-74521557D01*
X175012733Y-74656713D01*
X174840713Y-74828733D01*
X174705557Y-75031008D01*
X174612460Y-75255764D01*
X174565000Y-75494363D01*
X99744959Y-75494363D01*
X99747181Y-70233552D01*
X102031053Y-70233552D01*
X102643155Y-70938303D01*
X103664133Y-71507851D01*
X104776605Y-71867272D01*
X105937822Y-72002754D01*
X107103156Y-71909090D01*
X108227827Y-71589881D01*
X109268612Y-71057394D01*
X109446845Y-70938303D01*
X110058947Y-70233552D01*
X169976053Y-70233552D01*
X170588155Y-70938303D01*
X171609133Y-71507851D01*
X172721605Y-71867272D01*
X173882822Y-72002754D01*
X175048156Y-71909090D01*
X176172827Y-71589881D01*
X177213612Y-71057394D01*
X177391845Y-70938303D01*
X178003947Y-70233552D01*
X173990000Y-66219605D01*
X169976053Y-70233552D01*
X110058947Y-70233552D01*
X106045000Y-66219605D01*
X102031053Y-70233552D01*
X99747181Y-70233552D01*
X99748699Y-66640252D01*
X99748154Y-66634693D01*
X99736584Y-65932822D01*
X100082246Y-65932822D01*
X100175910Y-67098156D01*
X100495119Y-68222827D01*
X101027606Y-69263612D01*
X101146697Y-69441845D01*
X101851448Y-70053947D01*
X105865395Y-66040000D01*
X106224605Y-66040000D01*
X110238552Y-70053947D01*
X110943303Y-69441845D01*
X111512851Y-68420867D01*
X111872272Y-67308395D01*
X112007754Y-66147178D01*
X111990526Y-65932822D01*
X168027246Y-65932822D01*
X168120910Y-67098156D01*
X168440119Y-68222827D01*
X168972606Y-69263612D01*
X169091697Y-69441845D01*
X169796448Y-70053947D01*
X173810395Y-66040000D01*
X174169605Y-66040000D01*
X178183552Y-70053947D01*
X178888303Y-69441845D01*
X179457851Y-68420867D01*
X179817272Y-67308395D01*
X179952754Y-66147178D01*
X179859090Y-64981844D01*
X179539881Y-63857173D01*
X179007394Y-62816388D01*
X178888303Y-62638155D01*
X178183552Y-62026053D01*
X174169605Y-66040000D01*
X173810395Y-66040000D01*
X169796448Y-62026053D01*
X169091697Y-62638155D01*
X168522149Y-63659133D01*
X168162728Y-64771605D01*
X168027246Y-65932822D01*
X111990526Y-65932822D01*
X111914090Y-64981844D01*
X111594881Y-63857173D01*
X111062394Y-62816388D01*
X110943303Y-62638155D01*
X110238552Y-62026053D01*
X106224605Y-66040000D01*
X105865395Y-66040000D01*
X101851448Y-62026053D01*
X101146697Y-62638155D01*
X100577149Y-63659133D01*
X100217728Y-64771605D01*
X100082246Y-65932822D01*
X99736584Y-65932822D01*
X99732340Y-65675401D01*
X99855571Y-64746332D01*
X100114773Y-63845688D01*
X100504251Y-62993247D01*
X101015450Y-62207738D01*
X101335717Y-61846448D01*
X102031053Y-61846448D01*
X106045000Y-65860395D01*
X110058947Y-61846448D01*
X169976053Y-61846448D01*
X173990000Y-65860395D01*
X178003947Y-61846448D01*
X177391845Y-61141697D01*
X176370867Y-60572149D01*
X175258395Y-60212728D01*
X174097178Y-60077246D01*
X172931844Y-60170910D01*
X171807173Y-60490119D01*
X170766388Y-61022606D01*
X170588155Y-61141697D01*
X169976053Y-61846448D01*
X110058947Y-61846448D01*
X109446845Y-61141697D01*
X108425867Y-60572149D01*
X107313395Y-60212728D01*
X106152178Y-60077246D01*
X104986844Y-60170910D01*
X103862173Y-60490119D01*
X102821388Y-61022606D01*
X102643155Y-61141697D01*
X102031053Y-61846448D01*
X101335717Y-61846448D01*
X101637141Y-61506416D01*
X102355663Y-60904691D01*
X103155236Y-60415778D01*
X104018291Y-60050420D01*
X104925865Y-59816645D01*
X105877590Y-59717548D01*
X106049889Y-59715000D01*
X173965513Y-59715000D01*
X174924625Y-59786274D01*
G37*
%TD.AperFunction*%
%TD*%
M02*
