%TF.GenerationSoftware,KiCad,Pcbnew,5.1.10-88a1d61d58~90~ubuntu20.04.1*%
%TF.CreationDate,2021-07-29T16:23:07-06:00*%
%TF.ProjectId,ring_light_controller,72696e67-5f6c-4696-9768-745f636f6e74,5*%
%TF.SameCoordinates,Original*%
%TF.FileFunction,Soldermask,Top*%
%TF.FilePolarity,Negative*%
%FSLAX46Y46*%
G04 Gerber Fmt 4.6, Leading zero omitted, Abs format (unit mm)*
G04 Created by KiCad (PCBNEW 5.1.10-88a1d61d58~90~ubuntu20.04.1) date 2021-07-29 16:23:07*
%MOMM*%
%LPD*%
G01*
G04 APERTURE LIST*
%ADD10R,1.500000X4.000000*%
%ADD11C,1.500000*%
%ADD12O,2.000000X1.700000*%
%ADD13C,1.200000*%
%ADD14C,1.300000*%
%ADD15R,2.200000X1.500000*%
%ADD16R,0.900000X1.200000*%
%ADD17C,0.900000*%
%ADD18C,10.600000*%
%ADD19R,3.500000X3.500000*%
%ADD20O,1.700000X1.950000*%
%ADD21R,0.900000X0.800000*%
%ADD22C,1.000000*%
%ADD23R,2.600000X2.600000*%
%ADD24R,1.470000X1.410000*%
%ADD25R,5.400000X2.900000*%
%ADD26R,1.700000X1.700000*%
%ADD27O,1.700000X1.700000*%
G04 APERTURE END LIST*
D10*
%TO.C,J2*%
X103124000Y-103180000D03*
X101124000Y-110180000D03*
X108124000Y-110180000D03*
D11*
X101124000Y-106680000D03*
X107124000Y-106680000D03*
%TD*%
%TO.C,R27*%
G36*
G01*
X143579000Y-99804000D02*
X143949000Y-99804000D01*
G75*
G02*
X144084000Y-99939000I0J-135000D01*
G01*
X144084000Y-100209000D01*
G75*
G02*
X143949000Y-100344000I-135000J0D01*
G01*
X143579000Y-100344000D01*
G75*
G02*
X143444000Y-100209000I0J135000D01*
G01*
X143444000Y-99939000D01*
G75*
G02*
X143579000Y-99804000I135000J0D01*
G01*
G37*
G36*
G01*
X143579000Y-100824000D02*
X143949000Y-100824000D01*
G75*
G02*
X144084000Y-100959000I0J-135000D01*
G01*
X144084000Y-101229000D01*
G75*
G02*
X143949000Y-101364000I-135000J0D01*
G01*
X143579000Y-101364000D01*
G75*
G02*
X143444000Y-101229000I0J135000D01*
G01*
X143444000Y-100959000D01*
G75*
G02*
X143579000Y-100824000I135000J0D01*
G01*
G37*
%TD*%
%TO.C,J6*%
G36*
G01*
X177050000Y-102782000D02*
X178550000Y-102782000D01*
G75*
G02*
X178800000Y-103032000I0J-250000D01*
G01*
X178800000Y-104232000D01*
G75*
G02*
X178550000Y-104482000I-250000J0D01*
G01*
X177050000Y-104482000D01*
G75*
G02*
X176800000Y-104232000I0J250000D01*
G01*
X176800000Y-103032000D01*
G75*
G02*
X177050000Y-102782000I250000J0D01*
G01*
G37*
D12*
X177800000Y-106132000D03*
D13*
X175800000Y-102032000D03*
%TD*%
D14*
%TO.C,J1*%
X142240000Y-134605000D03*
X142240000Y-139605000D03*
D15*
X144540000Y-133105000D03*
X139940000Y-132605000D03*
X139540000Y-139805000D03*
X145140000Y-139605000D03*
%TD*%
%TO.C,C1*%
G36*
G01*
X137015000Y-99075001D02*
X137015000Y-97774999D01*
G75*
G02*
X137264999Y-97525000I249999J0D01*
G01*
X137915001Y-97525000D01*
G75*
G02*
X138165000Y-97774999I0J-249999D01*
G01*
X138165000Y-99075001D01*
G75*
G02*
X137915001Y-99325000I-249999J0D01*
G01*
X137264999Y-99325000D01*
G75*
G02*
X137015000Y-99075001I0J249999D01*
G01*
G37*
G36*
G01*
X139965000Y-99075001D02*
X139965000Y-97774999D01*
G75*
G02*
X140214999Y-97525000I249999J0D01*
G01*
X140865001Y-97525000D01*
G75*
G02*
X141115000Y-97774999I0J-249999D01*
G01*
X141115000Y-99075001D01*
G75*
G02*
X140865001Y-99325000I-249999J0D01*
G01*
X140214999Y-99325000D01*
G75*
G02*
X139965000Y-99075001I0J249999D01*
G01*
G37*
%TD*%
%TO.C,C2*%
G36*
G01*
X136175000Y-73825001D02*
X136175000Y-72224999D01*
G75*
G02*
X136424999Y-71975000I249999J0D01*
G01*
X140525001Y-71975000D01*
G75*
G02*
X140775000Y-72224999I0J-249999D01*
G01*
X140775000Y-73825001D01*
G75*
G02*
X140525001Y-74075000I-249999J0D01*
G01*
X136424999Y-74075000D01*
G75*
G02*
X136175000Y-73825001I0J249999D01*
G01*
G37*
G36*
G01*
X144975000Y-73825001D02*
X144975000Y-72224999D01*
G75*
G02*
X145224999Y-71975000I249999J0D01*
G01*
X149325001Y-71975000D01*
G75*
G02*
X149575000Y-72224999I0J-249999D01*
G01*
X149575000Y-73825001D01*
G75*
G02*
X149325001Y-74075000I-249999J0D01*
G01*
X145224999Y-74075000D01*
G75*
G02*
X144975000Y-73825001I0J249999D01*
G01*
G37*
%TD*%
%TO.C,C3*%
G36*
G01*
X123275000Y-82160000D02*
X124375000Y-82160000D01*
G75*
G02*
X124625000Y-82410000I0J-250000D01*
G01*
X124625000Y-85235000D01*
G75*
G02*
X124375000Y-85485000I-250000J0D01*
G01*
X123275000Y-85485000D01*
G75*
G02*
X123025000Y-85235000I0J250000D01*
G01*
X123025000Y-82410000D01*
G75*
G02*
X123275000Y-82160000I250000J0D01*
G01*
G37*
G36*
G01*
X123275000Y-87235000D02*
X124375000Y-87235000D01*
G75*
G02*
X124625000Y-87485000I0J-250000D01*
G01*
X124625000Y-90310000D01*
G75*
G02*
X124375000Y-90560000I-250000J0D01*
G01*
X123275000Y-90560000D01*
G75*
G02*
X123025000Y-90310000I0J250000D01*
G01*
X123025000Y-87485000D01*
G75*
G02*
X123275000Y-87235000I250000J0D01*
G01*
G37*
%TD*%
%TO.C,C4*%
G36*
G01*
X121480000Y-75095001D02*
X121480000Y-73494999D01*
G75*
G02*
X121729999Y-73245000I249999J0D01*
G01*
X125830001Y-73245000D01*
G75*
G02*
X126080000Y-73494999I0J-249999D01*
G01*
X126080000Y-75095001D01*
G75*
G02*
X125830001Y-75345000I-249999J0D01*
G01*
X121729999Y-75345000D01*
G75*
G02*
X121480000Y-75095001I0J249999D01*
G01*
G37*
G36*
G01*
X112680000Y-75095001D02*
X112680000Y-73494999D01*
G75*
G02*
X112929999Y-73245000I249999J0D01*
G01*
X117030001Y-73245000D01*
G75*
G02*
X117280000Y-73494999I0J-249999D01*
G01*
X117280000Y-75095001D01*
G75*
G02*
X117030001Y-75345000I-249999J0D01*
G01*
X112929999Y-75345000D01*
G75*
G02*
X112680000Y-75095001I0J249999D01*
G01*
G37*
%TD*%
%TO.C,D1*%
G36*
G01*
X145798250Y-96424000D02*
X145285750Y-96424000D01*
G75*
G02*
X145067000Y-96205250I0J218750D01*
G01*
X145067000Y-95767750D01*
G75*
G02*
X145285750Y-95549000I218750J0D01*
G01*
X145798250Y-95549000D01*
G75*
G02*
X146017000Y-95767750I0J-218750D01*
G01*
X146017000Y-96205250D01*
G75*
G02*
X145798250Y-96424000I-218750J0D01*
G01*
G37*
G36*
G01*
X145798250Y-97999000D02*
X145285750Y-97999000D01*
G75*
G02*
X145067000Y-97780250I0J218750D01*
G01*
X145067000Y-97342750D01*
G75*
G02*
X145285750Y-97124000I218750J0D01*
G01*
X145798250Y-97124000D01*
G75*
G02*
X146017000Y-97342750I0J-218750D01*
G01*
X146017000Y-97780250D01*
G75*
G02*
X145798250Y-97999000I-218750J0D01*
G01*
G37*
%TD*%
%TO.C,D2*%
G36*
G01*
X156165000Y-119123750D02*
X156165000Y-119636250D01*
G75*
G02*
X155946250Y-119855000I-218750J0D01*
G01*
X155508750Y-119855000D01*
G75*
G02*
X155290000Y-119636250I0J218750D01*
G01*
X155290000Y-119123750D01*
G75*
G02*
X155508750Y-118905000I218750J0D01*
G01*
X155946250Y-118905000D01*
G75*
G02*
X156165000Y-119123750I0J-218750D01*
G01*
G37*
G36*
G01*
X154590000Y-119123750D02*
X154590000Y-119636250D01*
G75*
G02*
X154371250Y-119855000I-218750J0D01*
G01*
X153933750Y-119855000D01*
G75*
G02*
X153715000Y-119636250I0J218750D01*
G01*
X153715000Y-119123750D01*
G75*
G02*
X153933750Y-118905000I218750J0D01*
G01*
X154371250Y-118905000D01*
G75*
G02*
X154590000Y-119123750I0J-218750D01*
G01*
G37*
%TD*%
%TO.C,D3*%
G36*
G01*
X155530000Y-100708750D02*
X155530000Y-101221250D01*
G75*
G02*
X155311250Y-101440000I-218750J0D01*
G01*
X154873750Y-101440000D01*
G75*
G02*
X154655000Y-101221250I0J218750D01*
G01*
X154655000Y-100708750D01*
G75*
G02*
X154873750Y-100490000I218750J0D01*
G01*
X155311250Y-100490000D01*
G75*
G02*
X155530000Y-100708750I0J-218750D01*
G01*
G37*
G36*
G01*
X153955000Y-100708750D02*
X153955000Y-101221250D01*
G75*
G02*
X153736250Y-101440000I-218750J0D01*
G01*
X153298750Y-101440000D01*
G75*
G02*
X153080000Y-101221250I0J218750D01*
G01*
X153080000Y-100708750D01*
G75*
G02*
X153298750Y-100490000I218750J0D01*
G01*
X153736250Y-100490000D01*
G75*
G02*
X153955000Y-100708750I0J-218750D01*
G01*
G37*
%TD*%
%TO.C,D4*%
G36*
G01*
X153955000Y-82928750D02*
X153955000Y-83441250D01*
G75*
G02*
X153736250Y-83660000I-218750J0D01*
G01*
X153298750Y-83660000D01*
G75*
G02*
X153080000Y-83441250I0J218750D01*
G01*
X153080000Y-82928750D01*
G75*
G02*
X153298750Y-82710000I218750J0D01*
G01*
X153736250Y-82710000D01*
G75*
G02*
X153955000Y-82928750I0J-218750D01*
G01*
G37*
G36*
G01*
X155530000Y-82928750D02*
X155530000Y-83441250D01*
G75*
G02*
X155311250Y-83660000I-218750J0D01*
G01*
X154873750Y-83660000D01*
G75*
G02*
X154655000Y-83441250I0J218750D01*
G01*
X154655000Y-82928750D01*
G75*
G02*
X154873750Y-82710000I218750J0D01*
G01*
X155311250Y-82710000D01*
G75*
G02*
X155530000Y-82928750I0J-218750D01*
G01*
G37*
%TD*%
%TO.C,D5*%
G36*
G01*
X132670000Y-87373750D02*
X132670000Y-87886250D01*
G75*
G02*
X132451250Y-88105000I-218750J0D01*
G01*
X132013750Y-88105000D01*
G75*
G02*
X131795000Y-87886250I0J218750D01*
G01*
X131795000Y-87373750D01*
G75*
G02*
X132013750Y-87155000I218750J0D01*
G01*
X132451250Y-87155000D01*
G75*
G02*
X132670000Y-87373750I0J-218750D01*
G01*
G37*
G36*
G01*
X131095000Y-87373750D02*
X131095000Y-87886250D01*
G75*
G02*
X130876250Y-88105000I-218750J0D01*
G01*
X130438750Y-88105000D01*
G75*
G02*
X130220000Y-87886250I0J218750D01*
G01*
X130220000Y-87373750D01*
G75*
G02*
X130438750Y-87155000I218750J0D01*
G01*
X130876250Y-87155000D01*
G75*
G02*
X131095000Y-87373750I0J-218750D01*
G01*
G37*
%TD*%
D16*
%TO.C,D6*%
X129795000Y-80645000D03*
X133095000Y-80645000D03*
%TD*%
%TO.C,FB1*%
G36*
G01*
X118340000Y-83438750D02*
X118340000Y-84201250D01*
G75*
G02*
X118121250Y-84420000I-218750J0D01*
G01*
X117683750Y-84420000D01*
G75*
G02*
X117465000Y-84201250I0J218750D01*
G01*
X117465000Y-83438750D01*
G75*
G02*
X117683750Y-83220000I218750J0D01*
G01*
X118121250Y-83220000D01*
G75*
G02*
X118340000Y-83438750I0J-218750D01*
G01*
G37*
G36*
G01*
X116215000Y-83438750D02*
X116215000Y-84201250D01*
G75*
G02*
X115996250Y-84420000I-218750J0D01*
G01*
X115558750Y-84420000D01*
G75*
G02*
X115340000Y-84201250I0J218750D01*
G01*
X115340000Y-83438750D01*
G75*
G02*
X115558750Y-83220000I218750J0D01*
G01*
X115996250Y-83220000D01*
G75*
G02*
X116215000Y-83438750I0J-218750D01*
G01*
G37*
%TD*%
D17*
%TO.C,H1*%
X176800749Y-131809251D03*
X173990000Y-130645000D03*
X171179251Y-131809251D03*
X170015000Y-134620000D03*
X171179251Y-137430749D03*
X173990000Y-138595000D03*
X176800749Y-137430749D03*
X177965000Y-134620000D03*
D18*
X173990000Y-134620000D03*
%TD*%
%TO.C,H2*%
X173990000Y-66040000D03*
D17*
X177965000Y-66040000D03*
X176800749Y-68850749D03*
X173990000Y-70015000D03*
X171179251Y-68850749D03*
X170015000Y-66040000D03*
X171179251Y-63229251D03*
X173990000Y-62065000D03*
X176800749Y-63229251D03*
%TD*%
%TO.C,H3*%
X108855749Y-63229251D03*
X106045000Y-62065000D03*
X103234251Y-63229251D03*
X102070000Y-66040000D03*
X103234251Y-68850749D03*
X106045000Y-70015000D03*
X108855749Y-68850749D03*
X110020000Y-66040000D03*
D18*
X106045000Y-66040000D03*
%TD*%
%TO.C,H4*%
X106045000Y-134620000D03*
D17*
X110020000Y-134620000D03*
X108855749Y-137430749D03*
X106045000Y-138595000D03*
X103234251Y-137430749D03*
X102070000Y-134620000D03*
X103234251Y-131809251D03*
X106045000Y-130645000D03*
X108855749Y-131809251D03*
%TD*%
D13*
%TO.C,J4*%
X175800000Y-119812000D03*
D12*
X177800000Y-123912000D03*
G36*
G01*
X177050000Y-120562000D02*
X178550000Y-120562000D01*
G75*
G02*
X178800000Y-120812000I0J-250000D01*
G01*
X178800000Y-122012000D01*
G75*
G02*
X178550000Y-122262000I-250000J0D01*
G01*
X177050000Y-122262000D01*
G75*
G02*
X176800000Y-122012000I0J250000D01*
G01*
X176800000Y-120812000D01*
G75*
G02*
X177050000Y-120562000I250000J0D01*
G01*
G37*
%TD*%
%TO.C,J5*%
G36*
G01*
X177050000Y-111926000D02*
X178550000Y-111926000D01*
G75*
G02*
X178800000Y-112176000I0J-250000D01*
G01*
X178800000Y-113376000D01*
G75*
G02*
X178550000Y-113626000I-250000J0D01*
G01*
X177050000Y-113626000D01*
G75*
G02*
X176800000Y-113376000I0J250000D01*
G01*
X176800000Y-112176000D01*
G75*
G02*
X177050000Y-111926000I250000J0D01*
G01*
G37*
X177800000Y-115276000D03*
D13*
X175800000Y-111176000D03*
%TD*%
%TO.C,J7*%
X175800000Y-93396000D03*
D12*
X177800000Y-97496000D03*
G36*
G01*
X177050000Y-94146000D02*
X178550000Y-94146000D01*
G75*
G02*
X178800000Y-94396000I0J-250000D01*
G01*
X178800000Y-95596000D01*
G75*
G02*
X178550000Y-95846000I-250000J0D01*
G01*
X177050000Y-95846000D01*
G75*
G02*
X176800000Y-95596000I0J250000D01*
G01*
X176800000Y-94396000D01*
G75*
G02*
X177050000Y-94146000I250000J0D01*
G01*
G37*
%TD*%
D19*
%TO.C,J8*%
X111760000Y-83820000D03*
G36*
G01*
X104260000Y-84820000D02*
X104260000Y-82820000D01*
G75*
G02*
X105010000Y-82070000I750000J0D01*
G01*
X106510000Y-82070000D01*
G75*
G02*
X107260000Y-82820000I0J-750000D01*
G01*
X107260000Y-84820000D01*
G75*
G02*
X106510000Y-85570000I-750000J0D01*
G01*
X105010000Y-85570000D01*
G75*
G02*
X104260000Y-84820000I0J750000D01*
G01*
G37*
G36*
G01*
X107010000Y-89395000D02*
X107010000Y-87645000D01*
G75*
G02*
X107885000Y-86770000I875000J0D01*
G01*
X109635000Y-86770000D01*
G75*
G02*
X110510000Y-87645000I0J-875000D01*
G01*
X110510000Y-89395000D01*
G75*
G02*
X109635000Y-90270000I-875000J0D01*
G01*
X107885000Y-90270000D01*
G75*
G02*
X107010000Y-89395000I0J875000D01*
G01*
G37*
%TD*%
D13*
%TO.C,J10*%
X175800000Y-84252000D03*
D12*
X177800000Y-88352000D03*
G36*
G01*
X177050000Y-85002000D02*
X178550000Y-85002000D01*
G75*
G02*
X178800000Y-85252000I0J-250000D01*
G01*
X178800000Y-86452000D01*
G75*
G02*
X178550000Y-86702000I-250000J0D01*
G01*
X177050000Y-86702000D01*
G75*
G02*
X176800000Y-86452000I0J250000D01*
G01*
X176800000Y-85252000D01*
G75*
G02*
X177050000Y-85002000I250000J0D01*
G01*
G37*
%TD*%
%TO.C,J11*%
G36*
G01*
X177050000Y-76366000D02*
X178550000Y-76366000D01*
G75*
G02*
X178800000Y-76616000I0J-250000D01*
G01*
X178800000Y-77816000D01*
G75*
G02*
X178550000Y-78066000I-250000J0D01*
G01*
X177050000Y-78066000D01*
G75*
G02*
X176800000Y-77816000I0J250000D01*
G01*
X176800000Y-76616000D01*
G75*
G02*
X177050000Y-76366000I250000J0D01*
G01*
G37*
X177800000Y-79716000D03*
D13*
X175800000Y-75616000D03*
%TD*%
%TO.C,J12*%
G36*
G01*
X125270000Y-137451000D02*
X125270000Y-138901000D01*
G75*
G02*
X125020000Y-139151000I-250000J0D01*
G01*
X123820000Y-139151000D01*
G75*
G02*
X123570000Y-138901000I0J250000D01*
G01*
X123570000Y-137451000D01*
G75*
G02*
X123820000Y-137201000I250000J0D01*
G01*
X125020000Y-137201000D01*
G75*
G02*
X125270000Y-137451000I0J-250000D01*
G01*
G37*
D20*
X121920000Y-138176000D03*
X119420000Y-138176000D03*
D13*
X126020000Y-136176000D03*
%TD*%
D21*
%TO.C,Q1*%
X121174000Y-113858000D03*
X121174000Y-115758000D03*
X123174000Y-114808000D03*
%TD*%
%TO.C,Q2*%
X164830000Y-121285000D03*
X162830000Y-122235000D03*
X162830000Y-120335000D03*
%TD*%
%TO.C,Q3*%
X162830000Y-113985000D03*
X162830000Y-115885000D03*
X164830000Y-114935000D03*
%TD*%
%TO.C,Q4*%
X171180000Y-121285000D03*
X169180000Y-122235000D03*
X169180000Y-120335000D03*
%TD*%
%TO.C,Q5*%
X171180000Y-114935000D03*
X169180000Y-115885000D03*
X169180000Y-113985000D03*
%TD*%
%TO.C,Q6*%
X162830000Y-102555000D03*
X162830000Y-104455000D03*
X164830000Y-103505000D03*
%TD*%
%TO.C,Q7*%
X162830000Y-96205000D03*
X162830000Y-98105000D03*
X164830000Y-97155000D03*
%TD*%
%TO.C,Q8*%
X169180000Y-102555000D03*
X169180000Y-104455000D03*
X171180000Y-103505000D03*
%TD*%
%TO.C,Q9*%
X171180000Y-97155000D03*
X169180000Y-98105000D03*
X169180000Y-96205000D03*
%TD*%
%TO.C,Q10*%
X162830000Y-84775000D03*
X162830000Y-86675000D03*
X164830000Y-85725000D03*
%TD*%
%TO.C,Q11*%
X162830000Y-78425000D03*
X162830000Y-80325000D03*
X164830000Y-79375000D03*
%TD*%
%TO.C,Q12*%
X171180000Y-85725000D03*
X169180000Y-86675000D03*
X169180000Y-84775000D03*
%TD*%
%TO.C,Q13*%
X171180000Y-79375000D03*
X169180000Y-80325000D03*
X169180000Y-78425000D03*
%TD*%
%TO.C,R1*%
G36*
G01*
X143362000Y-97199000D02*
X143912000Y-97199000D01*
G75*
G02*
X144112000Y-97399000I0J-200000D01*
G01*
X144112000Y-97799000D01*
G75*
G02*
X143912000Y-97999000I-200000J0D01*
G01*
X143362000Y-97999000D01*
G75*
G02*
X143162000Y-97799000I0J200000D01*
G01*
X143162000Y-97399000D01*
G75*
G02*
X143362000Y-97199000I200000J0D01*
G01*
G37*
G36*
G01*
X143362000Y-95549000D02*
X143912000Y-95549000D01*
G75*
G02*
X144112000Y-95749000I0J-200000D01*
G01*
X144112000Y-96149000D01*
G75*
G02*
X143912000Y-96349000I-200000J0D01*
G01*
X143362000Y-96349000D01*
G75*
G02*
X143162000Y-96149000I0J200000D01*
G01*
X143162000Y-95749000D01*
G75*
G02*
X143362000Y-95549000I200000J0D01*
G01*
G37*
%TD*%
%TO.C,R2*%
G36*
G01*
X155365000Y-117750000D02*
X155365000Y-117200000D01*
G75*
G02*
X155565000Y-117000000I200000J0D01*
G01*
X155965000Y-117000000D01*
G75*
G02*
X156165000Y-117200000I0J-200000D01*
G01*
X156165000Y-117750000D01*
G75*
G02*
X155965000Y-117950000I-200000J0D01*
G01*
X155565000Y-117950000D01*
G75*
G02*
X155365000Y-117750000I0J200000D01*
G01*
G37*
G36*
G01*
X153715000Y-117750000D02*
X153715000Y-117200000D01*
G75*
G02*
X153915000Y-117000000I200000J0D01*
G01*
X154315000Y-117000000D01*
G75*
G02*
X154515000Y-117200000I0J-200000D01*
G01*
X154515000Y-117750000D01*
G75*
G02*
X154315000Y-117950000I-200000J0D01*
G01*
X153915000Y-117950000D01*
G75*
G02*
X153715000Y-117750000I0J200000D01*
G01*
G37*
%TD*%
%TO.C,R3*%
G36*
G01*
X153080000Y-99335000D02*
X153080000Y-98785000D01*
G75*
G02*
X153280000Y-98585000I200000J0D01*
G01*
X153680000Y-98585000D01*
G75*
G02*
X153880000Y-98785000I0J-200000D01*
G01*
X153880000Y-99335000D01*
G75*
G02*
X153680000Y-99535000I-200000J0D01*
G01*
X153280000Y-99535000D01*
G75*
G02*
X153080000Y-99335000I0J200000D01*
G01*
G37*
G36*
G01*
X154730000Y-99335000D02*
X154730000Y-98785000D01*
G75*
G02*
X154930000Y-98585000I200000J0D01*
G01*
X155330000Y-98585000D01*
G75*
G02*
X155530000Y-98785000I0J-200000D01*
G01*
X155530000Y-99335000D01*
G75*
G02*
X155330000Y-99535000I-200000J0D01*
G01*
X154930000Y-99535000D01*
G75*
G02*
X154730000Y-99335000I0J200000D01*
G01*
G37*
%TD*%
%TO.C,R4*%
G36*
G01*
X154730000Y-81555000D02*
X154730000Y-81005000D01*
G75*
G02*
X154930000Y-80805000I200000J0D01*
G01*
X155330000Y-80805000D01*
G75*
G02*
X155530000Y-81005000I0J-200000D01*
G01*
X155530000Y-81555000D01*
G75*
G02*
X155330000Y-81755000I-200000J0D01*
G01*
X154930000Y-81755000D01*
G75*
G02*
X154730000Y-81555000I0J200000D01*
G01*
G37*
G36*
G01*
X153080000Y-81555000D02*
X153080000Y-81005000D01*
G75*
G02*
X153280000Y-80805000I200000J0D01*
G01*
X153680000Y-80805000D01*
G75*
G02*
X153880000Y-81005000I0J-200000D01*
G01*
X153880000Y-81555000D01*
G75*
G02*
X153680000Y-81755000I-200000J0D01*
G01*
X153280000Y-81755000D01*
G75*
G02*
X153080000Y-81555000I0J200000D01*
G01*
G37*
%TD*%
%TO.C,R5*%
G36*
G01*
X130220000Y-86000000D02*
X130220000Y-85450000D01*
G75*
G02*
X130420000Y-85250000I200000J0D01*
G01*
X130820000Y-85250000D01*
G75*
G02*
X131020000Y-85450000I0J-200000D01*
G01*
X131020000Y-86000000D01*
G75*
G02*
X130820000Y-86200000I-200000J0D01*
G01*
X130420000Y-86200000D01*
G75*
G02*
X130220000Y-86000000I0J200000D01*
G01*
G37*
G36*
G01*
X131870000Y-86000000D02*
X131870000Y-85450000D01*
G75*
G02*
X132070000Y-85250000I200000J0D01*
G01*
X132470000Y-85250000D01*
G75*
G02*
X132670000Y-85450000I0J-200000D01*
G01*
X132670000Y-86000000D01*
G75*
G02*
X132470000Y-86200000I-200000J0D01*
G01*
X132070000Y-86200000D01*
G75*
G02*
X131870000Y-86000000I0J200000D01*
G01*
G37*
%TD*%
%TO.C,R7*%
G36*
G01*
X120509000Y-111818000D02*
X120509000Y-111448000D01*
G75*
G02*
X120644000Y-111313000I135000J0D01*
G01*
X120914000Y-111313000D01*
G75*
G02*
X121049000Y-111448000I0J-135000D01*
G01*
X121049000Y-111818000D01*
G75*
G02*
X120914000Y-111953000I-135000J0D01*
G01*
X120644000Y-111953000D01*
G75*
G02*
X120509000Y-111818000I0J135000D01*
G01*
G37*
G36*
G01*
X119489000Y-111818000D02*
X119489000Y-111448000D01*
G75*
G02*
X119624000Y-111313000I135000J0D01*
G01*
X119894000Y-111313000D01*
G75*
G02*
X120029000Y-111448000I0J-135000D01*
G01*
X120029000Y-111818000D01*
G75*
G02*
X119894000Y-111953000I-135000J0D01*
G01*
X119624000Y-111953000D01*
G75*
G02*
X119489000Y-111818000I0J135000D01*
G01*
G37*
%TD*%
%TO.C,R9*%
G36*
G01*
X138615000Y-114445000D02*
X138245000Y-114445000D01*
G75*
G02*
X138110000Y-114310000I0J135000D01*
G01*
X138110000Y-114040000D01*
G75*
G02*
X138245000Y-113905000I135000J0D01*
G01*
X138615000Y-113905000D01*
G75*
G02*
X138750000Y-114040000I0J-135000D01*
G01*
X138750000Y-114310000D01*
G75*
G02*
X138615000Y-114445000I-135000J0D01*
G01*
G37*
G36*
G01*
X138615000Y-113425000D02*
X138245000Y-113425000D01*
G75*
G02*
X138110000Y-113290000I0J135000D01*
G01*
X138110000Y-113020000D01*
G75*
G02*
X138245000Y-112885000I135000J0D01*
G01*
X138615000Y-112885000D01*
G75*
G02*
X138750000Y-113020000I0J-135000D01*
G01*
X138750000Y-113290000D01*
G75*
G02*
X138615000Y-113425000I-135000J0D01*
G01*
G37*
%TD*%
%TO.C,R10*%
G36*
G01*
X148140000Y-114445000D02*
X147770000Y-114445000D01*
G75*
G02*
X147635000Y-114310000I0J135000D01*
G01*
X147635000Y-114040000D01*
G75*
G02*
X147770000Y-113905000I135000J0D01*
G01*
X148140000Y-113905000D01*
G75*
G02*
X148275000Y-114040000I0J-135000D01*
G01*
X148275000Y-114310000D01*
G75*
G02*
X148140000Y-114445000I-135000J0D01*
G01*
G37*
G36*
G01*
X148140000Y-113425000D02*
X147770000Y-113425000D01*
G75*
G02*
X147635000Y-113290000I0J135000D01*
G01*
X147635000Y-113020000D01*
G75*
G02*
X147770000Y-112885000I135000J0D01*
G01*
X148140000Y-112885000D01*
G75*
G02*
X148275000Y-113020000I0J-135000D01*
G01*
X148275000Y-113290000D01*
G75*
G02*
X148140000Y-113425000I-135000J0D01*
G01*
G37*
%TD*%
%TO.C,R11*%
G36*
G01*
X118814000Y-114413000D02*
X119184000Y-114413000D01*
G75*
G02*
X119319000Y-114548000I0J-135000D01*
G01*
X119319000Y-114818000D01*
G75*
G02*
X119184000Y-114953000I-135000J0D01*
G01*
X118814000Y-114953000D01*
G75*
G02*
X118679000Y-114818000I0J135000D01*
G01*
X118679000Y-114548000D01*
G75*
G02*
X118814000Y-114413000I135000J0D01*
G01*
G37*
G36*
G01*
X118814000Y-113393000D02*
X119184000Y-113393000D01*
G75*
G02*
X119319000Y-113528000I0J-135000D01*
G01*
X119319000Y-113798000D01*
G75*
G02*
X119184000Y-113933000I-135000J0D01*
G01*
X118814000Y-113933000D01*
G75*
G02*
X118679000Y-113798000I0J135000D01*
G01*
X118679000Y-113528000D01*
G75*
G02*
X118814000Y-113393000I135000J0D01*
G01*
G37*
%TD*%
%TO.C,R12*%
G36*
G01*
X121735000Y-99300000D02*
X122105000Y-99300000D01*
G75*
G02*
X122240000Y-99435000I0J-135000D01*
G01*
X122240000Y-99705000D01*
G75*
G02*
X122105000Y-99840000I-135000J0D01*
G01*
X121735000Y-99840000D01*
G75*
G02*
X121600000Y-99705000I0J135000D01*
G01*
X121600000Y-99435000D01*
G75*
G02*
X121735000Y-99300000I135000J0D01*
G01*
G37*
G36*
G01*
X121735000Y-98280000D02*
X122105000Y-98280000D01*
G75*
G02*
X122240000Y-98415000I0J-135000D01*
G01*
X122240000Y-98685000D01*
G75*
G02*
X122105000Y-98820000I-135000J0D01*
G01*
X121735000Y-98820000D01*
G75*
G02*
X121600000Y-98685000I0J135000D01*
G01*
X121600000Y-98415000D01*
G75*
G02*
X121735000Y-98280000I135000J0D01*
G01*
G37*
%TD*%
%TO.C,R13*%
G36*
G01*
X166820000Y-119235000D02*
X167190000Y-119235000D01*
G75*
G02*
X167325000Y-119370000I0J-135000D01*
G01*
X167325000Y-119640000D01*
G75*
G02*
X167190000Y-119775000I-135000J0D01*
G01*
X166820000Y-119775000D01*
G75*
G02*
X166685000Y-119640000I0J135000D01*
G01*
X166685000Y-119370000D01*
G75*
G02*
X166820000Y-119235000I135000J0D01*
G01*
G37*
G36*
G01*
X166820000Y-120255000D02*
X167190000Y-120255000D01*
G75*
G02*
X167325000Y-120390000I0J-135000D01*
G01*
X167325000Y-120660000D01*
G75*
G02*
X167190000Y-120795000I-135000J0D01*
G01*
X166820000Y-120795000D01*
G75*
G02*
X166685000Y-120660000I0J135000D01*
G01*
X166685000Y-120390000D01*
G75*
G02*
X166820000Y-120255000I135000J0D01*
G01*
G37*
%TD*%
%TO.C,R14*%
G36*
G01*
X166820000Y-112250000D02*
X167190000Y-112250000D01*
G75*
G02*
X167325000Y-112385000I0J-135000D01*
G01*
X167325000Y-112655000D01*
G75*
G02*
X167190000Y-112790000I-135000J0D01*
G01*
X166820000Y-112790000D01*
G75*
G02*
X166685000Y-112655000I0J135000D01*
G01*
X166685000Y-112385000D01*
G75*
G02*
X166820000Y-112250000I135000J0D01*
G01*
G37*
G36*
G01*
X166820000Y-113270000D02*
X167190000Y-113270000D01*
G75*
G02*
X167325000Y-113405000I0J-135000D01*
G01*
X167325000Y-113675000D01*
G75*
G02*
X167190000Y-113810000I-135000J0D01*
G01*
X166820000Y-113810000D01*
G75*
G02*
X166685000Y-113675000I0J135000D01*
G01*
X166685000Y-113405000D01*
G75*
G02*
X166820000Y-113270000I135000J0D01*
G01*
G37*
%TD*%
%TO.C,R15*%
G36*
G01*
X162800000Y-118295000D02*
X162800000Y-117925000D01*
G75*
G02*
X162935000Y-117790000I135000J0D01*
G01*
X163205000Y-117790000D01*
G75*
G02*
X163340000Y-117925000I0J-135000D01*
G01*
X163340000Y-118295000D01*
G75*
G02*
X163205000Y-118430000I-135000J0D01*
G01*
X162935000Y-118430000D01*
G75*
G02*
X162800000Y-118295000I0J135000D01*
G01*
G37*
G36*
G01*
X161780000Y-118295000D02*
X161780000Y-117925000D01*
G75*
G02*
X161915000Y-117790000I135000J0D01*
G01*
X162185000Y-117790000D01*
G75*
G02*
X162320000Y-117925000I0J-135000D01*
G01*
X162320000Y-118295000D01*
G75*
G02*
X162185000Y-118430000I-135000J0D01*
G01*
X161915000Y-118430000D01*
G75*
G02*
X161780000Y-118295000I0J135000D01*
G01*
G37*
%TD*%
%TO.C,R16*%
G36*
G01*
X162800000Y-111945000D02*
X162800000Y-111575000D01*
G75*
G02*
X162935000Y-111440000I135000J0D01*
G01*
X163205000Y-111440000D01*
G75*
G02*
X163340000Y-111575000I0J-135000D01*
G01*
X163340000Y-111945000D01*
G75*
G02*
X163205000Y-112080000I-135000J0D01*
G01*
X162935000Y-112080000D01*
G75*
G02*
X162800000Y-111945000I0J135000D01*
G01*
G37*
G36*
G01*
X161780000Y-111945000D02*
X161780000Y-111575000D01*
G75*
G02*
X161915000Y-111440000I135000J0D01*
G01*
X162185000Y-111440000D01*
G75*
G02*
X162320000Y-111575000I0J-135000D01*
G01*
X162320000Y-111945000D01*
G75*
G02*
X162185000Y-112080000I-135000J0D01*
G01*
X161915000Y-112080000D01*
G75*
G02*
X161780000Y-111945000I0J135000D01*
G01*
G37*
%TD*%
%TO.C,R19*%
G36*
G01*
X166820000Y-101455000D02*
X167190000Y-101455000D01*
G75*
G02*
X167325000Y-101590000I0J-135000D01*
G01*
X167325000Y-101860000D01*
G75*
G02*
X167190000Y-101995000I-135000J0D01*
G01*
X166820000Y-101995000D01*
G75*
G02*
X166685000Y-101860000I0J135000D01*
G01*
X166685000Y-101590000D01*
G75*
G02*
X166820000Y-101455000I135000J0D01*
G01*
G37*
G36*
G01*
X166820000Y-102475000D02*
X167190000Y-102475000D01*
G75*
G02*
X167325000Y-102610000I0J-135000D01*
G01*
X167325000Y-102880000D01*
G75*
G02*
X167190000Y-103015000I-135000J0D01*
G01*
X166820000Y-103015000D01*
G75*
G02*
X166685000Y-102880000I0J135000D01*
G01*
X166685000Y-102610000D01*
G75*
G02*
X166820000Y-102475000I135000J0D01*
G01*
G37*
%TD*%
%TO.C,R20*%
G36*
G01*
X166820000Y-95105000D02*
X167190000Y-95105000D01*
G75*
G02*
X167325000Y-95240000I0J-135000D01*
G01*
X167325000Y-95510000D01*
G75*
G02*
X167190000Y-95645000I-135000J0D01*
G01*
X166820000Y-95645000D01*
G75*
G02*
X166685000Y-95510000I0J135000D01*
G01*
X166685000Y-95240000D01*
G75*
G02*
X166820000Y-95105000I135000J0D01*
G01*
G37*
G36*
G01*
X166820000Y-96125000D02*
X167190000Y-96125000D01*
G75*
G02*
X167325000Y-96260000I0J-135000D01*
G01*
X167325000Y-96530000D01*
G75*
G02*
X167190000Y-96665000I-135000J0D01*
G01*
X166820000Y-96665000D01*
G75*
G02*
X166685000Y-96530000I0J135000D01*
G01*
X166685000Y-96260000D01*
G75*
G02*
X166820000Y-96125000I135000J0D01*
G01*
G37*
%TD*%
%TO.C,R21*%
G36*
G01*
X162165000Y-101150000D02*
X162165000Y-100780000D01*
G75*
G02*
X162300000Y-100645000I135000J0D01*
G01*
X162570000Y-100645000D01*
G75*
G02*
X162705000Y-100780000I0J-135000D01*
G01*
X162705000Y-101150000D01*
G75*
G02*
X162570000Y-101285000I-135000J0D01*
G01*
X162300000Y-101285000D01*
G75*
G02*
X162165000Y-101150000I0J135000D01*
G01*
G37*
G36*
G01*
X161145000Y-101150000D02*
X161145000Y-100780000D01*
G75*
G02*
X161280000Y-100645000I135000J0D01*
G01*
X161550000Y-100645000D01*
G75*
G02*
X161685000Y-100780000I0J-135000D01*
G01*
X161685000Y-101150000D01*
G75*
G02*
X161550000Y-101285000I-135000J0D01*
G01*
X161280000Y-101285000D01*
G75*
G02*
X161145000Y-101150000I0J135000D01*
G01*
G37*
%TD*%
%TO.C,R22*%
G36*
G01*
X162165000Y-94165000D02*
X162165000Y-93795000D01*
G75*
G02*
X162300000Y-93660000I135000J0D01*
G01*
X162570000Y-93660000D01*
G75*
G02*
X162705000Y-93795000I0J-135000D01*
G01*
X162705000Y-94165000D01*
G75*
G02*
X162570000Y-94300000I-135000J0D01*
G01*
X162300000Y-94300000D01*
G75*
G02*
X162165000Y-94165000I0J135000D01*
G01*
G37*
G36*
G01*
X161145000Y-94165000D02*
X161145000Y-93795000D01*
G75*
G02*
X161280000Y-93660000I135000J0D01*
G01*
X161550000Y-93660000D01*
G75*
G02*
X161685000Y-93795000I0J-135000D01*
G01*
X161685000Y-94165000D01*
G75*
G02*
X161550000Y-94300000I-135000J0D01*
G01*
X161280000Y-94300000D01*
G75*
G02*
X161145000Y-94165000I0J135000D01*
G01*
G37*
%TD*%
%TO.C,R25*%
G36*
G01*
X166820000Y-84695000D02*
X167190000Y-84695000D01*
G75*
G02*
X167325000Y-84830000I0J-135000D01*
G01*
X167325000Y-85100000D01*
G75*
G02*
X167190000Y-85235000I-135000J0D01*
G01*
X166820000Y-85235000D01*
G75*
G02*
X166685000Y-85100000I0J135000D01*
G01*
X166685000Y-84830000D01*
G75*
G02*
X166820000Y-84695000I135000J0D01*
G01*
G37*
G36*
G01*
X166820000Y-83675000D02*
X167190000Y-83675000D01*
G75*
G02*
X167325000Y-83810000I0J-135000D01*
G01*
X167325000Y-84080000D01*
G75*
G02*
X167190000Y-84215000I-135000J0D01*
G01*
X166820000Y-84215000D01*
G75*
G02*
X166685000Y-84080000I0J135000D01*
G01*
X166685000Y-83810000D01*
G75*
G02*
X166820000Y-83675000I135000J0D01*
G01*
G37*
%TD*%
%TO.C,R26*%
G36*
G01*
X166820000Y-77325000D02*
X167190000Y-77325000D01*
G75*
G02*
X167325000Y-77460000I0J-135000D01*
G01*
X167325000Y-77730000D01*
G75*
G02*
X167190000Y-77865000I-135000J0D01*
G01*
X166820000Y-77865000D01*
G75*
G02*
X166685000Y-77730000I0J135000D01*
G01*
X166685000Y-77460000D01*
G75*
G02*
X166820000Y-77325000I135000J0D01*
G01*
G37*
G36*
G01*
X166820000Y-78345000D02*
X167190000Y-78345000D01*
G75*
G02*
X167325000Y-78480000I0J-135000D01*
G01*
X167325000Y-78750000D01*
G75*
G02*
X167190000Y-78885000I-135000J0D01*
G01*
X166820000Y-78885000D01*
G75*
G02*
X166685000Y-78750000I0J135000D01*
G01*
X166685000Y-78480000D01*
G75*
G02*
X166820000Y-78345000I135000J0D01*
G01*
G37*
%TD*%
%TO.C,R28*%
G36*
G01*
X160510000Y-83370000D02*
X160510000Y-83000000D01*
G75*
G02*
X160645000Y-82865000I135000J0D01*
G01*
X160915000Y-82865000D01*
G75*
G02*
X161050000Y-83000000I0J-135000D01*
G01*
X161050000Y-83370000D01*
G75*
G02*
X160915000Y-83505000I-135000J0D01*
G01*
X160645000Y-83505000D01*
G75*
G02*
X160510000Y-83370000I0J135000D01*
G01*
G37*
G36*
G01*
X161530000Y-83370000D02*
X161530000Y-83000000D01*
G75*
G02*
X161665000Y-82865000I135000J0D01*
G01*
X161935000Y-82865000D01*
G75*
G02*
X162070000Y-83000000I0J-135000D01*
G01*
X162070000Y-83370000D01*
G75*
G02*
X161935000Y-83505000I-135000J0D01*
G01*
X161665000Y-83505000D01*
G75*
G02*
X161530000Y-83370000I0J135000D01*
G01*
G37*
%TD*%
%TO.C,R29*%
G36*
G01*
X161530000Y-77020000D02*
X161530000Y-76650000D01*
G75*
G02*
X161665000Y-76515000I135000J0D01*
G01*
X161935000Y-76515000D01*
G75*
G02*
X162070000Y-76650000I0J-135000D01*
G01*
X162070000Y-77020000D01*
G75*
G02*
X161935000Y-77155000I-135000J0D01*
G01*
X161665000Y-77155000D01*
G75*
G02*
X161530000Y-77020000I0J135000D01*
G01*
G37*
G36*
G01*
X160510000Y-77020000D02*
X160510000Y-76650000D01*
G75*
G02*
X160645000Y-76515000I135000J0D01*
G01*
X160915000Y-76515000D01*
G75*
G02*
X161050000Y-76650000I0J-135000D01*
G01*
X161050000Y-77020000D01*
G75*
G02*
X160915000Y-77155000I-135000J0D01*
G01*
X160645000Y-77155000D01*
G75*
G02*
X160510000Y-77020000I0J135000D01*
G01*
G37*
%TD*%
D22*
%TO.C,TP4*%
X138430000Y-111125000D03*
%TD*%
%TO.C,TP5*%
X147955000Y-111125000D03*
%TD*%
%TO.C,TP10*%
X156210000Y-114300000D03*
%TD*%
%TO.C,TP12*%
X156210000Y-95885000D03*
%TD*%
%TO.C,TP14*%
X155575000Y-78105000D03*
%TD*%
%TO.C,U1*%
G36*
G01*
X140252500Y-100520000D02*
X140377500Y-100520000D01*
G75*
G02*
X140440000Y-100582500I0J-62500D01*
G01*
X140440000Y-101282500D01*
G75*
G02*
X140377500Y-101345000I-62500J0D01*
G01*
X140252500Y-101345000D01*
G75*
G02*
X140190000Y-101282500I0J62500D01*
G01*
X140190000Y-100582500D01*
G75*
G02*
X140252500Y-100520000I62500J0D01*
G01*
G37*
G36*
G01*
X139752500Y-100520000D02*
X139877500Y-100520000D01*
G75*
G02*
X139940000Y-100582500I0J-62500D01*
G01*
X139940000Y-101282500D01*
G75*
G02*
X139877500Y-101345000I-62500J0D01*
G01*
X139752500Y-101345000D01*
G75*
G02*
X139690000Y-101282500I0J62500D01*
G01*
X139690000Y-100582500D01*
G75*
G02*
X139752500Y-100520000I62500J0D01*
G01*
G37*
G36*
G01*
X139252500Y-100520000D02*
X139377500Y-100520000D01*
G75*
G02*
X139440000Y-100582500I0J-62500D01*
G01*
X139440000Y-101282500D01*
G75*
G02*
X139377500Y-101345000I-62500J0D01*
G01*
X139252500Y-101345000D01*
G75*
G02*
X139190000Y-101282500I0J62500D01*
G01*
X139190000Y-100582500D01*
G75*
G02*
X139252500Y-100520000I62500J0D01*
G01*
G37*
G36*
G01*
X138752500Y-100520000D02*
X138877500Y-100520000D01*
G75*
G02*
X138940000Y-100582500I0J-62500D01*
G01*
X138940000Y-101282500D01*
G75*
G02*
X138877500Y-101345000I-62500J0D01*
G01*
X138752500Y-101345000D01*
G75*
G02*
X138690000Y-101282500I0J62500D01*
G01*
X138690000Y-100582500D01*
G75*
G02*
X138752500Y-100520000I62500J0D01*
G01*
G37*
G36*
G01*
X138252500Y-100520000D02*
X138377500Y-100520000D01*
G75*
G02*
X138440000Y-100582500I0J-62500D01*
G01*
X138440000Y-101282500D01*
G75*
G02*
X138377500Y-101345000I-62500J0D01*
G01*
X138252500Y-101345000D01*
G75*
G02*
X138190000Y-101282500I0J62500D01*
G01*
X138190000Y-100582500D01*
G75*
G02*
X138252500Y-100520000I62500J0D01*
G01*
G37*
G36*
G01*
X137752500Y-100520000D02*
X137877500Y-100520000D01*
G75*
G02*
X137940000Y-100582500I0J-62500D01*
G01*
X137940000Y-101282500D01*
G75*
G02*
X137877500Y-101345000I-62500J0D01*
G01*
X137752500Y-101345000D01*
G75*
G02*
X137690000Y-101282500I0J62500D01*
G01*
X137690000Y-100582500D01*
G75*
G02*
X137752500Y-100520000I62500J0D01*
G01*
G37*
G36*
G01*
X136777500Y-101495000D02*
X137477500Y-101495000D01*
G75*
G02*
X137540000Y-101557500I0J-62500D01*
G01*
X137540000Y-101682500D01*
G75*
G02*
X137477500Y-101745000I-62500J0D01*
G01*
X136777500Y-101745000D01*
G75*
G02*
X136715000Y-101682500I0J62500D01*
G01*
X136715000Y-101557500D01*
G75*
G02*
X136777500Y-101495000I62500J0D01*
G01*
G37*
G36*
G01*
X136777500Y-101995000D02*
X137477500Y-101995000D01*
G75*
G02*
X137540000Y-102057500I0J-62500D01*
G01*
X137540000Y-102182500D01*
G75*
G02*
X137477500Y-102245000I-62500J0D01*
G01*
X136777500Y-102245000D01*
G75*
G02*
X136715000Y-102182500I0J62500D01*
G01*
X136715000Y-102057500D01*
G75*
G02*
X136777500Y-101995000I62500J0D01*
G01*
G37*
G36*
G01*
X136777500Y-102495000D02*
X137477500Y-102495000D01*
G75*
G02*
X137540000Y-102557500I0J-62500D01*
G01*
X137540000Y-102682500D01*
G75*
G02*
X137477500Y-102745000I-62500J0D01*
G01*
X136777500Y-102745000D01*
G75*
G02*
X136715000Y-102682500I0J62500D01*
G01*
X136715000Y-102557500D01*
G75*
G02*
X136777500Y-102495000I62500J0D01*
G01*
G37*
G36*
G01*
X136777500Y-102995000D02*
X137477500Y-102995000D01*
G75*
G02*
X137540000Y-103057500I0J-62500D01*
G01*
X137540000Y-103182500D01*
G75*
G02*
X137477500Y-103245000I-62500J0D01*
G01*
X136777500Y-103245000D01*
G75*
G02*
X136715000Y-103182500I0J62500D01*
G01*
X136715000Y-103057500D01*
G75*
G02*
X136777500Y-102995000I62500J0D01*
G01*
G37*
G36*
G01*
X136777500Y-103495000D02*
X137477500Y-103495000D01*
G75*
G02*
X137540000Y-103557500I0J-62500D01*
G01*
X137540000Y-103682500D01*
G75*
G02*
X137477500Y-103745000I-62500J0D01*
G01*
X136777500Y-103745000D01*
G75*
G02*
X136715000Y-103682500I0J62500D01*
G01*
X136715000Y-103557500D01*
G75*
G02*
X136777500Y-103495000I62500J0D01*
G01*
G37*
G36*
G01*
X136777500Y-103995000D02*
X137477500Y-103995000D01*
G75*
G02*
X137540000Y-104057500I0J-62500D01*
G01*
X137540000Y-104182500D01*
G75*
G02*
X137477500Y-104245000I-62500J0D01*
G01*
X136777500Y-104245000D01*
G75*
G02*
X136715000Y-104182500I0J62500D01*
G01*
X136715000Y-104057500D01*
G75*
G02*
X136777500Y-103995000I62500J0D01*
G01*
G37*
G36*
G01*
X137752500Y-104395000D02*
X137877500Y-104395000D01*
G75*
G02*
X137940000Y-104457500I0J-62500D01*
G01*
X137940000Y-105157500D01*
G75*
G02*
X137877500Y-105220000I-62500J0D01*
G01*
X137752500Y-105220000D01*
G75*
G02*
X137690000Y-105157500I0J62500D01*
G01*
X137690000Y-104457500D01*
G75*
G02*
X137752500Y-104395000I62500J0D01*
G01*
G37*
G36*
G01*
X138252500Y-104395000D02*
X138377500Y-104395000D01*
G75*
G02*
X138440000Y-104457500I0J-62500D01*
G01*
X138440000Y-105157500D01*
G75*
G02*
X138377500Y-105220000I-62500J0D01*
G01*
X138252500Y-105220000D01*
G75*
G02*
X138190000Y-105157500I0J62500D01*
G01*
X138190000Y-104457500D01*
G75*
G02*
X138252500Y-104395000I62500J0D01*
G01*
G37*
G36*
G01*
X138752500Y-104395000D02*
X138877500Y-104395000D01*
G75*
G02*
X138940000Y-104457500I0J-62500D01*
G01*
X138940000Y-105157500D01*
G75*
G02*
X138877500Y-105220000I-62500J0D01*
G01*
X138752500Y-105220000D01*
G75*
G02*
X138690000Y-105157500I0J62500D01*
G01*
X138690000Y-104457500D01*
G75*
G02*
X138752500Y-104395000I62500J0D01*
G01*
G37*
G36*
G01*
X139252500Y-104395000D02*
X139377500Y-104395000D01*
G75*
G02*
X139440000Y-104457500I0J-62500D01*
G01*
X139440000Y-105157500D01*
G75*
G02*
X139377500Y-105220000I-62500J0D01*
G01*
X139252500Y-105220000D01*
G75*
G02*
X139190000Y-105157500I0J62500D01*
G01*
X139190000Y-104457500D01*
G75*
G02*
X139252500Y-104395000I62500J0D01*
G01*
G37*
G36*
G01*
X139752500Y-104395000D02*
X139877500Y-104395000D01*
G75*
G02*
X139940000Y-104457500I0J-62500D01*
G01*
X139940000Y-105157500D01*
G75*
G02*
X139877500Y-105220000I-62500J0D01*
G01*
X139752500Y-105220000D01*
G75*
G02*
X139690000Y-105157500I0J62500D01*
G01*
X139690000Y-104457500D01*
G75*
G02*
X139752500Y-104395000I62500J0D01*
G01*
G37*
G36*
G01*
X140252500Y-104395000D02*
X140377500Y-104395000D01*
G75*
G02*
X140440000Y-104457500I0J-62500D01*
G01*
X140440000Y-105157500D01*
G75*
G02*
X140377500Y-105220000I-62500J0D01*
G01*
X140252500Y-105220000D01*
G75*
G02*
X140190000Y-105157500I0J62500D01*
G01*
X140190000Y-104457500D01*
G75*
G02*
X140252500Y-104395000I62500J0D01*
G01*
G37*
G36*
G01*
X140652500Y-103995000D02*
X141352500Y-103995000D01*
G75*
G02*
X141415000Y-104057500I0J-62500D01*
G01*
X141415000Y-104182500D01*
G75*
G02*
X141352500Y-104245000I-62500J0D01*
G01*
X140652500Y-104245000D01*
G75*
G02*
X140590000Y-104182500I0J62500D01*
G01*
X140590000Y-104057500D01*
G75*
G02*
X140652500Y-103995000I62500J0D01*
G01*
G37*
G36*
G01*
X140652500Y-103495000D02*
X141352500Y-103495000D01*
G75*
G02*
X141415000Y-103557500I0J-62500D01*
G01*
X141415000Y-103682500D01*
G75*
G02*
X141352500Y-103745000I-62500J0D01*
G01*
X140652500Y-103745000D01*
G75*
G02*
X140590000Y-103682500I0J62500D01*
G01*
X140590000Y-103557500D01*
G75*
G02*
X140652500Y-103495000I62500J0D01*
G01*
G37*
G36*
G01*
X140652500Y-102995000D02*
X141352500Y-102995000D01*
G75*
G02*
X141415000Y-103057500I0J-62500D01*
G01*
X141415000Y-103182500D01*
G75*
G02*
X141352500Y-103245000I-62500J0D01*
G01*
X140652500Y-103245000D01*
G75*
G02*
X140590000Y-103182500I0J62500D01*
G01*
X140590000Y-103057500D01*
G75*
G02*
X140652500Y-102995000I62500J0D01*
G01*
G37*
G36*
G01*
X140652500Y-102495000D02*
X141352500Y-102495000D01*
G75*
G02*
X141415000Y-102557500I0J-62500D01*
G01*
X141415000Y-102682500D01*
G75*
G02*
X141352500Y-102745000I-62500J0D01*
G01*
X140652500Y-102745000D01*
G75*
G02*
X140590000Y-102682500I0J62500D01*
G01*
X140590000Y-102557500D01*
G75*
G02*
X140652500Y-102495000I62500J0D01*
G01*
G37*
G36*
G01*
X140652500Y-101995000D02*
X141352500Y-101995000D01*
G75*
G02*
X141415000Y-102057500I0J-62500D01*
G01*
X141415000Y-102182500D01*
G75*
G02*
X141352500Y-102245000I-62500J0D01*
G01*
X140652500Y-102245000D01*
G75*
G02*
X140590000Y-102182500I0J62500D01*
G01*
X140590000Y-102057500D01*
G75*
G02*
X140652500Y-101995000I62500J0D01*
G01*
G37*
G36*
G01*
X140652500Y-101495000D02*
X141352500Y-101495000D01*
G75*
G02*
X141415000Y-101557500I0J-62500D01*
G01*
X141415000Y-101682500D01*
G75*
G02*
X141352500Y-101745000I-62500J0D01*
G01*
X140652500Y-101745000D01*
G75*
G02*
X140590000Y-101682500I0J62500D01*
G01*
X140590000Y-101557500D01*
G75*
G02*
X140652500Y-101495000I62500J0D01*
G01*
G37*
D23*
X139065000Y-102870000D03*
%TD*%
%TO.C,U4*%
G36*
G01*
X129055000Y-77745000D02*
X128755000Y-77745000D01*
G75*
G02*
X128605000Y-77595000I0J150000D01*
G01*
X128605000Y-76245000D01*
G75*
G02*
X128755000Y-76095000I150000J0D01*
G01*
X129055000Y-76095000D01*
G75*
G02*
X129205000Y-76245000I0J-150000D01*
G01*
X129205000Y-77595000D01*
G75*
G02*
X129055000Y-77745000I-150000J0D01*
G01*
G37*
G36*
G01*
X130325000Y-77745000D02*
X130025000Y-77745000D01*
G75*
G02*
X129875000Y-77595000I0J150000D01*
G01*
X129875000Y-76245000D01*
G75*
G02*
X130025000Y-76095000I150000J0D01*
G01*
X130325000Y-76095000D01*
G75*
G02*
X130475000Y-76245000I0J-150000D01*
G01*
X130475000Y-77595000D01*
G75*
G02*
X130325000Y-77745000I-150000J0D01*
G01*
G37*
G36*
G01*
X131595000Y-77745000D02*
X131295000Y-77745000D01*
G75*
G02*
X131145000Y-77595000I0J150000D01*
G01*
X131145000Y-76245000D01*
G75*
G02*
X131295000Y-76095000I150000J0D01*
G01*
X131595000Y-76095000D01*
G75*
G02*
X131745000Y-76245000I0J-150000D01*
G01*
X131745000Y-77595000D01*
G75*
G02*
X131595000Y-77745000I-150000J0D01*
G01*
G37*
G36*
G01*
X132865000Y-77745000D02*
X132565000Y-77745000D01*
G75*
G02*
X132415000Y-77595000I0J150000D01*
G01*
X132415000Y-76245000D01*
G75*
G02*
X132565000Y-76095000I150000J0D01*
G01*
X132865000Y-76095000D01*
G75*
G02*
X133015000Y-76245000I0J-150000D01*
G01*
X133015000Y-77595000D01*
G75*
G02*
X132865000Y-77745000I-150000J0D01*
G01*
G37*
G36*
G01*
X132865000Y-72495000D02*
X132565000Y-72495000D01*
G75*
G02*
X132415000Y-72345000I0J150000D01*
G01*
X132415000Y-70995000D01*
G75*
G02*
X132565000Y-70845000I150000J0D01*
G01*
X132865000Y-70845000D01*
G75*
G02*
X133015000Y-70995000I0J-150000D01*
G01*
X133015000Y-72345000D01*
G75*
G02*
X132865000Y-72495000I-150000J0D01*
G01*
G37*
G36*
G01*
X131595000Y-72495000D02*
X131295000Y-72495000D01*
G75*
G02*
X131145000Y-72345000I0J150000D01*
G01*
X131145000Y-70995000D01*
G75*
G02*
X131295000Y-70845000I150000J0D01*
G01*
X131595000Y-70845000D01*
G75*
G02*
X131745000Y-70995000I0J-150000D01*
G01*
X131745000Y-72345000D01*
G75*
G02*
X131595000Y-72495000I-150000J0D01*
G01*
G37*
G36*
G01*
X130325000Y-72495000D02*
X130025000Y-72495000D01*
G75*
G02*
X129875000Y-72345000I0J150000D01*
G01*
X129875000Y-70995000D01*
G75*
G02*
X130025000Y-70845000I150000J0D01*
G01*
X130325000Y-70845000D01*
G75*
G02*
X130475000Y-70995000I0J-150000D01*
G01*
X130475000Y-72345000D01*
G75*
G02*
X130325000Y-72495000I-150000J0D01*
G01*
G37*
G36*
G01*
X129055000Y-72495000D02*
X128755000Y-72495000D01*
G75*
G02*
X128605000Y-72345000I0J150000D01*
G01*
X128605000Y-70995000D01*
G75*
G02*
X128755000Y-70845000I150000J0D01*
G01*
X129055000Y-70845000D01*
G75*
G02*
X129205000Y-70995000I0J-150000D01*
G01*
X129205000Y-72345000D01*
G75*
G02*
X129055000Y-72495000I-150000J0D01*
G01*
G37*
%TD*%
D24*
%TO.C,U2*%
X138430000Y-126135000D03*
X135890000Y-126135000D03*
X135890000Y-116435000D03*
X138430000Y-116435000D03*
%TD*%
%TO.C,U3*%
X147955000Y-116435000D03*
X145415000Y-116435000D03*
X145415000Y-126135000D03*
X147955000Y-126135000D03*
%TD*%
%TO.C,D7*%
G36*
G01*
X133606250Y-112045000D02*
X133093750Y-112045000D01*
G75*
G02*
X132875000Y-111826250I0J218750D01*
G01*
X132875000Y-111388750D01*
G75*
G02*
X133093750Y-111170000I218750J0D01*
G01*
X133606250Y-111170000D01*
G75*
G02*
X133825000Y-111388750I0J-218750D01*
G01*
X133825000Y-111826250D01*
G75*
G02*
X133606250Y-112045000I-218750J0D01*
G01*
G37*
G36*
G01*
X133606250Y-113620000D02*
X133093750Y-113620000D01*
G75*
G02*
X132875000Y-113401250I0J218750D01*
G01*
X132875000Y-112963750D01*
G75*
G02*
X133093750Y-112745000I218750J0D01*
G01*
X133606250Y-112745000D01*
G75*
G02*
X133825000Y-112963750I0J-218750D01*
G01*
X133825000Y-113401250D01*
G75*
G02*
X133606250Y-113620000I-218750J0D01*
G01*
G37*
%TD*%
%TO.C,D8*%
G36*
G01*
X143131250Y-113620000D02*
X142618750Y-113620000D01*
G75*
G02*
X142400000Y-113401250I0J218750D01*
G01*
X142400000Y-112963750D01*
G75*
G02*
X142618750Y-112745000I218750J0D01*
G01*
X143131250Y-112745000D01*
G75*
G02*
X143350000Y-112963750I0J-218750D01*
G01*
X143350000Y-113401250D01*
G75*
G02*
X143131250Y-113620000I-218750J0D01*
G01*
G37*
G36*
G01*
X143131250Y-112045000D02*
X142618750Y-112045000D01*
G75*
G02*
X142400000Y-111826250I0J218750D01*
G01*
X142400000Y-111388750D01*
G75*
G02*
X142618750Y-111170000I218750J0D01*
G01*
X143131250Y-111170000D01*
G75*
G02*
X143350000Y-111388750I0J-218750D01*
G01*
X143350000Y-111826250D01*
G75*
G02*
X143131250Y-112045000I-218750J0D01*
G01*
G37*
%TD*%
%TO.C,R32*%
G36*
G01*
X134980000Y-111170000D02*
X135530000Y-111170000D01*
G75*
G02*
X135730000Y-111370000I0J-200000D01*
G01*
X135730000Y-111770000D01*
G75*
G02*
X135530000Y-111970000I-200000J0D01*
G01*
X134980000Y-111970000D01*
G75*
G02*
X134780000Y-111770000I0J200000D01*
G01*
X134780000Y-111370000D01*
G75*
G02*
X134980000Y-111170000I200000J0D01*
G01*
G37*
G36*
G01*
X134980000Y-112820000D02*
X135530000Y-112820000D01*
G75*
G02*
X135730000Y-113020000I0J-200000D01*
G01*
X135730000Y-113420000D01*
G75*
G02*
X135530000Y-113620000I-200000J0D01*
G01*
X134980000Y-113620000D01*
G75*
G02*
X134780000Y-113420000I0J200000D01*
G01*
X134780000Y-113020000D01*
G75*
G02*
X134980000Y-112820000I200000J0D01*
G01*
G37*
%TD*%
%TO.C,R33*%
G36*
G01*
X144505000Y-112820000D02*
X145055000Y-112820000D01*
G75*
G02*
X145255000Y-113020000I0J-200000D01*
G01*
X145255000Y-113420000D01*
G75*
G02*
X145055000Y-113620000I-200000J0D01*
G01*
X144505000Y-113620000D01*
G75*
G02*
X144305000Y-113420000I0J200000D01*
G01*
X144305000Y-113020000D01*
G75*
G02*
X144505000Y-112820000I200000J0D01*
G01*
G37*
G36*
G01*
X144505000Y-111170000D02*
X145055000Y-111170000D01*
G75*
G02*
X145255000Y-111370000I0J-200000D01*
G01*
X145255000Y-111770000D01*
G75*
G02*
X145055000Y-111970000I-200000J0D01*
G01*
X144505000Y-111970000D01*
G75*
G02*
X144305000Y-111770000I0J200000D01*
G01*
X144305000Y-111370000D01*
G75*
G02*
X144505000Y-111170000I200000J0D01*
G01*
G37*
%TD*%
%TO.C,J13*%
G36*
G01*
X127115000Y-101180000D02*
X125615000Y-101180000D01*
G75*
G02*
X125365000Y-100930000I0J250000D01*
G01*
X125365000Y-99730000D01*
G75*
G02*
X125615000Y-99480000I250000J0D01*
G01*
X127115000Y-99480000D01*
G75*
G02*
X127365000Y-99730000I0J-250000D01*
G01*
X127365000Y-100930000D01*
G75*
G02*
X127115000Y-101180000I-250000J0D01*
G01*
G37*
D12*
X126365000Y-97830000D03*
D13*
X128365000Y-101930000D03*
%TD*%
D22*
%TO.C,TP1*%
X134112000Y-94996000D03*
%TD*%
D25*
%TO.C,L1*%
X142875000Y-81910000D03*
X142875000Y-90810000D03*
%TD*%
%TO.C,R17*%
G36*
G01*
X158759998Y-122185000D02*
X160010002Y-122185000D01*
G75*
G02*
X160260000Y-122434998I0J-249998D01*
G01*
X160260000Y-123060002D01*
G75*
G02*
X160010002Y-123310000I-249998J0D01*
G01*
X158759998Y-123310000D01*
G75*
G02*
X158510000Y-123060002I0J249998D01*
G01*
X158510000Y-122434998D01*
G75*
G02*
X158759998Y-122185000I249998J0D01*
G01*
G37*
G36*
G01*
X158759998Y-119260000D02*
X160010002Y-119260000D01*
G75*
G02*
X160260000Y-119509998I0J-249998D01*
G01*
X160260000Y-120135002D01*
G75*
G02*
X160010002Y-120385000I-249998J0D01*
G01*
X158759998Y-120385000D01*
G75*
G02*
X158510000Y-120135002I0J249998D01*
G01*
X158510000Y-119509998D01*
G75*
G02*
X158759998Y-119260000I249998J0D01*
G01*
G37*
%TD*%
%TO.C,R18*%
G36*
G01*
X158759998Y-112275000D02*
X160010002Y-112275000D01*
G75*
G02*
X160260000Y-112524998I0J-249998D01*
G01*
X160260000Y-113150002D01*
G75*
G02*
X160010002Y-113400000I-249998J0D01*
G01*
X158759998Y-113400000D01*
G75*
G02*
X158510000Y-113150002I0J249998D01*
G01*
X158510000Y-112524998D01*
G75*
G02*
X158759998Y-112275000I249998J0D01*
G01*
G37*
G36*
G01*
X158759998Y-115200000D02*
X160010002Y-115200000D01*
G75*
G02*
X160260000Y-115449998I0J-249998D01*
G01*
X160260000Y-116075002D01*
G75*
G02*
X160010002Y-116325000I-249998J0D01*
G01*
X158759998Y-116325000D01*
G75*
G02*
X158510000Y-116075002I0J249998D01*
G01*
X158510000Y-115449998D01*
G75*
G02*
X158759998Y-115200000I249998J0D01*
G01*
G37*
%TD*%
%TO.C,R23*%
G36*
G01*
X158759998Y-101480000D02*
X160010002Y-101480000D01*
G75*
G02*
X160260000Y-101729998I0J-249998D01*
G01*
X160260000Y-102355002D01*
G75*
G02*
X160010002Y-102605000I-249998J0D01*
G01*
X158759998Y-102605000D01*
G75*
G02*
X158510000Y-102355002I0J249998D01*
G01*
X158510000Y-101729998D01*
G75*
G02*
X158759998Y-101480000I249998J0D01*
G01*
G37*
G36*
G01*
X158759998Y-104405000D02*
X160010002Y-104405000D01*
G75*
G02*
X160260000Y-104654998I0J-249998D01*
G01*
X160260000Y-105280002D01*
G75*
G02*
X160010002Y-105530000I-249998J0D01*
G01*
X158759998Y-105530000D01*
G75*
G02*
X158510000Y-105280002I0J249998D01*
G01*
X158510000Y-104654998D01*
G75*
G02*
X158759998Y-104405000I249998J0D01*
G01*
G37*
%TD*%
%TO.C,R24*%
G36*
G01*
X158759998Y-97420000D02*
X160010002Y-97420000D01*
G75*
G02*
X160260000Y-97669998I0J-249998D01*
G01*
X160260000Y-98295002D01*
G75*
G02*
X160010002Y-98545000I-249998J0D01*
G01*
X158759998Y-98545000D01*
G75*
G02*
X158510000Y-98295002I0J249998D01*
G01*
X158510000Y-97669998D01*
G75*
G02*
X158759998Y-97420000I249998J0D01*
G01*
G37*
G36*
G01*
X158759998Y-94495000D02*
X160010002Y-94495000D01*
G75*
G02*
X160260000Y-94744998I0J-249998D01*
G01*
X160260000Y-95370002D01*
G75*
G02*
X160010002Y-95620000I-249998J0D01*
G01*
X158759998Y-95620000D01*
G75*
G02*
X158510000Y-95370002I0J249998D01*
G01*
X158510000Y-94744998D01*
G75*
G02*
X158759998Y-94495000I249998J0D01*
G01*
G37*
%TD*%
%TO.C,R30*%
G36*
G01*
X158378998Y-86625000D02*
X159629002Y-86625000D01*
G75*
G02*
X159879000Y-86874998I0J-249998D01*
G01*
X159879000Y-87500002D01*
G75*
G02*
X159629002Y-87750000I-249998J0D01*
G01*
X158378998Y-87750000D01*
G75*
G02*
X158129000Y-87500002I0J249998D01*
G01*
X158129000Y-86874998D01*
G75*
G02*
X158378998Y-86625000I249998J0D01*
G01*
G37*
G36*
G01*
X158378998Y-83700000D02*
X159629002Y-83700000D01*
G75*
G02*
X159879000Y-83949998I0J-249998D01*
G01*
X159879000Y-84575002D01*
G75*
G02*
X159629002Y-84825000I-249998J0D01*
G01*
X158378998Y-84825000D01*
G75*
G02*
X158129000Y-84575002I0J249998D01*
G01*
X158129000Y-83949998D01*
G75*
G02*
X158378998Y-83700000I249998J0D01*
G01*
G37*
%TD*%
%TO.C,R31*%
G36*
G01*
X158378998Y-76715000D02*
X159629002Y-76715000D01*
G75*
G02*
X159879000Y-76964998I0J-249998D01*
G01*
X159879000Y-77590002D01*
G75*
G02*
X159629002Y-77840000I-249998J0D01*
G01*
X158378998Y-77840000D01*
G75*
G02*
X158129000Y-77590002I0J249998D01*
G01*
X158129000Y-76964998D01*
G75*
G02*
X158378998Y-76715000I249998J0D01*
G01*
G37*
G36*
G01*
X158378998Y-79640000D02*
X159629002Y-79640000D01*
G75*
G02*
X159879000Y-79889998I0J-249998D01*
G01*
X159879000Y-80515002D01*
G75*
G02*
X159629002Y-80765000I-249998J0D01*
G01*
X158378998Y-80765000D01*
G75*
G02*
X158129000Y-80515002I0J249998D01*
G01*
X158129000Y-79889998D01*
G75*
G02*
X158378998Y-79640000I249998J0D01*
G01*
G37*
%TD*%
D26*
%TO.C,J9*%
X148336000Y-105156000D03*
D27*
X148336000Y-102616000D03*
X148336000Y-100076000D03*
%TD*%
D11*
%TO.C,J3*%
X107124000Y-119888000D03*
X101124000Y-119888000D03*
D10*
X108124000Y-123388000D03*
X101124000Y-123388000D03*
X103124000Y-116388000D03*
%TD*%
D22*
%TO.C,TP2*%
X117357001Y-107705001D03*
%TD*%
%TO.C,TP3*%
X122428000Y-123952000D03*
%TD*%
%TO.C,TP6*%
X116840000Y-88900000D03*
%TD*%
%TO.C,D9*%
G36*
G01*
X104104749Y-94808001D02*
X104617249Y-94808001D01*
G75*
G02*
X104835999Y-95026751I0J-218750D01*
G01*
X104835999Y-95464251D01*
G75*
G02*
X104617249Y-95683001I-218750J0D01*
G01*
X104104749Y-95683001D01*
G75*
G02*
X103885999Y-95464251I0J218750D01*
G01*
X103885999Y-95026751D01*
G75*
G02*
X104104749Y-94808001I218750J0D01*
G01*
G37*
G36*
G01*
X104104749Y-96383001D02*
X104617249Y-96383001D01*
G75*
G02*
X104835999Y-96601751I0J-218750D01*
G01*
X104835999Y-97039251D01*
G75*
G02*
X104617249Y-97258001I-218750J0D01*
G01*
X104104749Y-97258001D01*
G75*
G02*
X103885999Y-97039251I0J218750D01*
G01*
X103885999Y-96601751D01*
G75*
G02*
X104104749Y-96383001I218750J0D01*
G01*
G37*
%TD*%
%TO.C,R6*%
G36*
G01*
X105897000Y-94787000D02*
X106447000Y-94787000D01*
G75*
G02*
X106647000Y-94987000I0J-200000D01*
G01*
X106647000Y-95387000D01*
G75*
G02*
X106447000Y-95587000I-200000J0D01*
G01*
X105897000Y-95587000D01*
G75*
G02*
X105697000Y-95387000I0J200000D01*
G01*
X105697000Y-94987000D01*
G75*
G02*
X105897000Y-94787000I200000J0D01*
G01*
G37*
G36*
G01*
X105897000Y-96437000D02*
X106447000Y-96437000D01*
G75*
G02*
X106647000Y-96637000I0J-200000D01*
G01*
X106647000Y-97037000D01*
G75*
G02*
X106447000Y-97237000I-200000J0D01*
G01*
X105897000Y-97237000D01*
G75*
G02*
X105697000Y-97037000I0J200000D01*
G01*
X105697000Y-96637000D01*
G75*
G02*
X105897000Y-96437000I200000J0D01*
G01*
G37*
%TD*%
%TO.C,D10*%
G36*
G01*
X115064250Y-109886000D02*
X114551750Y-109886000D01*
G75*
G02*
X114333000Y-109667250I0J218750D01*
G01*
X114333000Y-109229750D01*
G75*
G02*
X114551750Y-109011000I218750J0D01*
G01*
X115064250Y-109011000D01*
G75*
G02*
X115283000Y-109229750I0J-218750D01*
G01*
X115283000Y-109667250D01*
G75*
G02*
X115064250Y-109886000I-218750J0D01*
G01*
G37*
G36*
G01*
X115064250Y-111461000D02*
X114551750Y-111461000D01*
G75*
G02*
X114333000Y-111242250I0J218750D01*
G01*
X114333000Y-110804750D01*
G75*
G02*
X114551750Y-110586000I218750J0D01*
G01*
X115064250Y-110586000D01*
G75*
G02*
X115283000Y-110804750I0J-218750D01*
G01*
X115283000Y-111242250D01*
G75*
G02*
X115064250Y-111461000I-218750J0D01*
G01*
G37*
%TD*%
%TO.C,D11*%
G36*
G01*
X114551750Y-122219000D02*
X115064250Y-122219000D01*
G75*
G02*
X115283000Y-122437750I0J-218750D01*
G01*
X115283000Y-122875250D01*
G75*
G02*
X115064250Y-123094000I-218750J0D01*
G01*
X114551750Y-123094000D01*
G75*
G02*
X114333000Y-122875250I0J218750D01*
G01*
X114333000Y-122437750D01*
G75*
G02*
X114551750Y-122219000I218750J0D01*
G01*
G37*
G36*
G01*
X114551750Y-123794000D02*
X115064250Y-123794000D01*
G75*
G02*
X115283000Y-124012750I0J-218750D01*
G01*
X115283000Y-124450250D01*
G75*
G02*
X115064250Y-124669000I-218750J0D01*
G01*
X114551750Y-124669000D01*
G75*
G02*
X114333000Y-124450250I0J218750D01*
G01*
X114333000Y-124012750D01*
G75*
G02*
X114551750Y-123794000I218750J0D01*
G01*
G37*
%TD*%
%TO.C,R8*%
G36*
G01*
X116655000Y-110476000D02*
X117025000Y-110476000D01*
G75*
G02*
X117160000Y-110611000I0J-135000D01*
G01*
X117160000Y-110881000D01*
G75*
G02*
X117025000Y-111016000I-135000J0D01*
G01*
X116655000Y-111016000D01*
G75*
G02*
X116520000Y-110881000I0J135000D01*
G01*
X116520000Y-110611000D01*
G75*
G02*
X116655000Y-110476000I135000J0D01*
G01*
G37*
G36*
G01*
X116655000Y-109456000D02*
X117025000Y-109456000D01*
G75*
G02*
X117160000Y-109591000I0J-135000D01*
G01*
X117160000Y-109861000D01*
G75*
G02*
X117025000Y-109996000I-135000J0D01*
G01*
X116655000Y-109996000D01*
G75*
G02*
X116520000Y-109861000I0J135000D01*
G01*
X116520000Y-109591000D01*
G75*
G02*
X116655000Y-109456000I135000J0D01*
G01*
G37*
%TD*%
%TO.C,R34*%
G36*
G01*
X117025000Y-124224000D02*
X116655000Y-124224000D01*
G75*
G02*
X116520000Y-124089000I0J135000D01*
G01*
X116520000Y-123819000D01*
G75*
G02*
X116655000Y-123684000I135000J0D01*
G01*
X117025000Y-123684000D01*
G75*
G02*
X117160000Y-123819000I0J-135000D01*
G01*
X117160000Y-124089000D01*
G75*
G02*
X117025000Y-124224000I-135000J0D01*
G01*
G37*
G36*
G01*
X117025000Y-123204000D02*
X116655000Y-123204000D01*
G75*
G02*
X116520000Y-123069000I0J135000D01*
G01*
X116520000Y-122799000D01*
G75*
G02*
X116655000Y-122664000I135000J0D01*
G01*
X117025000Y-122664000D01*
G75*
G02*
X117160000Y-122799000I0J-135000D01*
G01*
X117160000Y-123069000D01*
G75*
G02*
X117025000Y-123204000I-135000J0D01*
G01*
G37*
%TD*%
M02*
