%TF.GenerationSoftware,KiCad,Pcbnew,5.1.10-88a1d61d58~88~ubuntu20.04.1*%
%TF.CreationDate,2021-07-08T16:26:14-06:00*%
%TF.ProjectId,ring_light_controller,72696e67-5f6c-4696-9768-745f636f6e74,1*%
%TF.SameCoordinates,Original*%
%TF.FileFunction,Legend,Top*%
%TF.FilePolarity,Positive*%
%FSLAX46Y46*%
G04 Gerber Fmt 4.6, Leading zero omitted, Abs format (unit mm)*
G04 Created by KiCad (PCBNEW 5.1.10-88a1d61d58~88~ubuntu20.04.1) date 2021-07-08 16:26:14*
%MOMM*%
%LPD*%
G01*
G04 APERTURE LIST*
%ADD10C,0.300000*%
%ADD11C,0.150000*%
%ADD12C,0.200000*%
%ADD13C,0.120000*%
%ADD14C,0.127000*%
G04 APERTURE END LIST*
D10*
X121348571Y-81895142D02*
X122491428Y-81895142D01*
X121920000Y-82466571D02*
X121920000Y-81323714D01*
X120840571Y-90531142D02*
X121983428Y-90531142D01*
X128460571Y-87483142D02*
X129603428Y-87483142D01*
X129032000Y-88054571D02*
X129032000Y-86911714D01*
X139636571Y-75291142D02*
X140779428Y-75291142D01*
X140208000Y-75862571D02*
X140208000Y-74719714D01*
X111696571Y-76307142D02*
X112839428Y-76307142D01*
X112268000Y-76878571D02*
X112268000Y-75735714D01*
X133540571Y-87483142D02*
X134683428Y-87483142D01*
X146240571Y-74783142D02*
X147383428Y-74783142D01*
X125412571Y-76307142D02*
X126555428Y-76307142D01*
D11*
X117880380Y-132437142D02*
X117832761Y-132484761D01*
X117689904Y-132532380D01*
X117594666Y-132532380D01*
X117451809Y-132484761D01*
X117356571Y-132389523D01*
X117308952Y-132294285D01*
X117261333Y-132103809D01*
X117261333Y-131960952D01*
X117308952Y-131770476D01*
X117356571Y-131675238D01*
X117451809Y-131580000D01*
X117594666Y-131532380D01*
X117689904Y-131532380D01*
X117832761Y-131580000D01*
X117880380Y-131627619D01*
X118451809Y-132532380D02*
X118356571Y-132484761D01*
X118308952Y-132437142D01*
X118261333Y-132341904D01*
X118261333Y-132056190D01*
X118308952Y-131960952D01*
X118356571Y-131913333D01*
X118451809Y-131865714D01*
X118594666Y-131865714D01*
X118689904Y-131913333D01*
X118737523Y-131960952D01*
X118785142Y-132056190D01*
X118785142Y-132341904D01*
X118737523Y-132437142D01*
X118689904Y-132484761D01*
X118594666Y-132532380D01*
X118451809Y-132532380D01*
X119356571Y-132532380D02*
X119261333Y-132484761D01*
X119213714Y-132389523D01*
X119213714Y-131532380D01*
X119880380Y-132532380D02*
X119785142Y-132484761D01*
X119737523Y-132437142D01*
X119689904Y-132341904D01*
X119689904Y-132056190D01*
X119737523Y-131960952D01*
X119785142Y-131913333D01*
X119880380Y-131865714D01*
X120023238Y-131865714D01*
X120118476Y-131913333D01*
X120166095Y-131960952D01*
X120213714Y-132056190D01*
X120213714Y-132341904D01*
X120166095Y-132437142D01*
X120118476Y-132484761D01*
X120023238Y-132532380D01*
X119880380Y-132532380D01*
X120642285Y-132532380D02*
X120642285Y-131865714D01*
X120642285Y-132056190D02*
X120689904Y-131960952D01*
X120737523Y-131913333D01*
X120832761Y-131865714D01*
X120928000Y-131865714D01*
X122594666Y-132437142D02*
X122547047Y-132484761D01*
X122404190Y-132532380D01*
X122308952Y-132532380D01*
X122166095Y-132484761D01*
X122070857Y-132389523D01*
X122023238Y-132294285D01*
X121975619Y-132103809D01*
X121975619Y-131960952D01*
X122023238Y-131770476D01*
X122070857Y-131675238D01*
X122166095Y-131580000D01*
X122308952Y-131532380D01*
X122404190Y-131532380D01*
X122547047Y-131580000D01*
X122594666Y-131627619D01*
X123023238Y-132532380D02*
X123023238Y-131532380D01*
X123451809Y-132532380D02*
X123451809Y-132008571D01*
X123404190Y-131913333D01*
X123308952Y-131865714D01*
X123166095Y-131865714D01*
X123070857Y-131913333D01*
X123023238Y-131960952D01*
X124356571Y-132532380D02*
X124356571Y-132008571D01*
X124308952Y-131913333D01*
X124213714Y-131865714D01*
X124023238Y-131865714D01*
X123928000Y-131913333D01*
X124356571Y-132484761D02*
X124261333Y-132532380D01*
X124023238Y-132532380D01*
X123928000Y-132484761D01*
X123880380Y-132389523D01*
X123880380Y-132294285D01*
X123928000Y-132199047D01*
X124023238Y-132151428D01*
X124261333Y-132151428D01*
X124356571Y-132103809D01*
X124832761Y-131865714D02*
X124832761Y-132532380D01*
X124832761Y-131960952D02*
X124880380Y-131913333D01*
X124975619Y-131865714D01*
X125118476Y-131865714D01*
X125213714Y-131913333D01*
X125261333Y-132008571D01*
X125261333Y-132532380D01*
X125737523Y-131865714D02*
X125737523Y-132532380D01*
X125737523Y-131960952D02*
X125785142Y-131913333D01*
X125880380Y-131865714D01*
X126023238Y-131865714D01*
X126118476Y-131913333D01*
X126166095Y-132008571D01*
X126166095Y-132532380D01*
X127023238Y-132484761D02*
X126928000Y-132532380D01*
X126737523Y-132532380D01*
X126642285Y-132484761D01*
X126594666Y-132389523D01*
X126594666Y-132008571D01*
X126642285Y-131913333D01*
X126737523Y-131865714D01*
X126928000Y-131865714D01*
X127023238Y-131913333D01*
X127070857Y-132008571D01*
X127070857Y-132103809D01*
X126594666Y-132199047D01*
X127642285Y-132532380D02*
X127547047Y-132484761D01*
X127499428Y-132389523D01*
X127499428Y-131532380D01*
D12*
X114760952Y-76668380D02*
X114760952Y-77382666D01*
X114713333Y-77525523D01*
X114618095Y-77620761D01*
X114475238Y-77668380D01*
X114380000Y-77668380D01*
X115713333Y-77668380D02*
X115237142Y-77668380D01*
X115237142Y-76668380D01*
X116618095Y-77573142D02*
X116570476Y-77620761D01*
X116427619Y-77668380D01*
X116332380Y-77668380D01*
X116189523Y-77620761D01*
X116094285Y-77525523D01*
X116046666Y-77430285D01*
X115999047Y-77239809D01*
X115999047Y-77096952D01*
X116046666Y-76906476D01*
X116094285Y-76811238D01*
X116189523Y-76716000D01*
X116332380Y-76668380D01*
X116427619Y-76668380D01*
X116570476Y-76716000D01*
X116618095Y-76763619D01*
X117332380Y-76668380D02*
X117332380Y-77382666D01*
X117284761Y-77525523D01*
X117189523Y-77620761D01*
X117046666Y-77668380D01*
X116951428Y-77668380D01*
X118284761Y-77668380D02*
X117808571Y-77668380D01*
X117808571Y-76668380D01*
X119189523Y-77573142D02*
X119141904Y-77620761D01*
X118999047Y-77668380D01*
X118903809Y-77668380D01*
X118760952Y-77620761D01*
X118665714Y-77525523D01*
X118618095Y-77430285D01*
X118570476Y-77239809D01*
X118570476Y-77096952D01*
X118618095Y-76906476D01*
X118665714Y-76811238D01*
X118760952Y-76716000D01*
X118903809Y-76668380D01*
X118999047Y-76668380D01*
X119141904Y-76716000D01*
X119189523Y-76763619D01*
X119903809Y-76668380D02*
X119903809Y-77382666D01*
X119856190Y-77525523D01*
X119760952Y-77620761D01*
X119618095Y-77668380D01*
X119522857Y-77668380D01*
X120856190Y-77668380D02*
X120380000Y-77668380D01*
X120380000Y-76668380D01*
X121760952Y-77573142D02*
X121713333Y-77620761D01*
X121570476Y-77668380D01*
X121475238Y-77668380D01*
X121332380Y-77620761D01*
X121237142Y-77525523D01*
X121189523Y-77430285D01*
X121141904Y-77239809D01*
X121141904Y-77096952D01*
X121189523Y-76906476D01*
X121237142Y-76811238D01*
X121332380Y-76716000D01*
X121475238Y-76668380D01*
X121570476Y-76668380D01*
X121713333Y-76716000D01*
X121760952Y-76763619D01*
X122475238Y-76668380D02*
X122475238Y-77382666D01*
X122427619Y-77525523D01*
X122332380Y-77620761D01*
X122189523Y-77668380D01*
X122094285Y-77668380D01*
X123427619Y-77668380D02*
X122951428Y-77668380D01*
X122951428Y-76668380D01*
X124332380Y-77573142D02*
X124284761Y-77620761D01*
X124141904Y-77668380D01*
X124046666Y-77668380D01*
X123903809Y-77620761D01*
X123808571Y-77525523D01*
X123760952Y-77430285D01*
X123713333Y-77239809D01*
X123713333Y-77096952D01*
X123760952Y-76906476D01*
X123808571Y-76811238D01*
X123903809Y-76716000D01*
X124046666Y-76668380D01*
X124141904Y-76668380D01*
X124284761Y-76716000D01*
X124332380Y-76763619D01*
D10*
X165479428Y-61297428D02*
X165979428Y-62011714D01*
X166336571Y-61297428D02*
X166336571Y-62797428D01*
X165765142Y-62797428D01*
X165622285Y-62726000D01*
X165550857Y-62654571D01*
X165479428Y-62511714D01*
X165479428Y-62297428D01*
X165550857Y-62154571D01*
X165622285Y-62083142D01*
X165765142Y-62011714D01*
X166336571Y-62011714D01*
X164836571Y-61297428D02*
X164836571Y-62297428D01*
X164836571Y-62797428D02*
X164908000Y-62726000D01*
X164836571Y-62654571D01*
X164765142Y-62726000D01*
X164836571Y-62797428D01*
X164836571Y-62654571D01*
X164122285Y-62297428D02*
X164122285Y-61297428D01*
X164122285Y-62154571D02*
X164050857Y-62226000D01*
X163908000Y-62297428D01*
X163693714Y-62297428D01*
X163550857Y-62226000D01*
X163479428Y-62083142D01*
X163479428Y-61297428D01*
X162122285Y-62297428D02*
X162122285Y-61083142D01*
X162193714Y-60940285D01*
X162265142Y-60868857D01*
X162408000Y-60797428D01*
X162622285Y-60797428D01*
X162765142Y-60868857D01*
X162122285Y-61368857D02*
X162265142Y-61297428D01*
X162550857Y-61297428D01*
X162693714Y-61368857D01*
X162765142Y-61440285D01*
X162836571Y-61583142D01*
X162836571Y-62011714D01*
X162765142Y-62154571D01*
X162693714Y-62226000D01*
X162550857Y-62297428D01*
X162265142Y-62297428D01*
X162122285Y-62226000D01*
X159550857Y-61297428D02*
X160265142Y-61297428D01*
X160265142Y-62797428D01*
X159050857Y-61297428D02*
X159050857Y-62297428D01*
X159050857Y-62797428D02*
X159122285Y-62726000D01*
X159050857Y-62654571D01*
X158979428Y-62726000D01*
X159050857Y-62797428D01*
X159050857Y-62654571D01*
X157693714Y-62297428D02*
X157693714Y-61083142D01*
X157765142Y-60940285D01*
X157836571Y-60868857D01*
X157979428Y-60797428D01*
X158193714Y-60797428D01*
X158336571Y-60868857D01*
X157693714Y-61368857D02*
X157836571Y-61297428D01*
X158122285Y-61297428D01*
X158265142Y-61368857D01*
X158336571Y-61440285D01*
X158408000Y-61583142D01*
X158408000Y-62011714D01*
X158336571Y-62154571D01*
X158265142Y-62226000D01*
X158122285Y-62297428D01*
X157836571Y-62297428D01*
X157693714Y-62226000D01*
X156979428Y-61297428D02*
X156979428Y-62797428D01*
X156336571Y-61297428D02*
X156336571Y-62083142D01*
X156408000Y-62226000D01*
X156550857Y-62297428D01*
X156765142Y-62297428D01*
X156908000Y-62226000D01*
X156979428Y-62154571D01*
X155836571Y-62297428D02*
X155265142Y-62297428D01*
X155622285Y-62797428D02*
X155622285Y-61511714D01*
X155550857Y-61368857D01*
X155408000Y-61297428D01*
X155265142Y-61297428D01*
X152765142Y-61440285D02*
X152836571Y-61368857D01*
X153050857Y-61297428D01*
X153193714Y-61297428D01*
X153408000Y-61368857D01*
X153550857Y-61511714D01*
X153622285Y-61654571D01*
X153693714Y-61940285D01*
X153693714Y-62154571D01*
X153622285Y-62440285D01*
X153550857Y-62583142D01*
X153408000Y-62726000D01*
X153193714Y-62797428D01*
X153050857Y-62797428D01*
X152836571Y-62726000D01*
X152765142Y-62654571D01*
X151908000Y-61297428D02*
X152050857Y-61368857D01*
X152122285Y-61440285D01*
X152193714Y-61583142D01*
X152193714Y-62011714D01*
X152122285Y-62154571D01*
X152050857Y-62226000D01*
X151908000Y-62297428D01*
X151693714Y-62297428D01*
X151550857Y-62226000D01*
X151479428Y-62154571D01*
X151408000Y-62011714D01*
X151408000Y-61583142D01*
X151479428Y-61440285D01*
X151550857Y-61368857D01*
X151693714Y-61297428D01*
X151908000Y-61297428D01*
X150765142Y-62297428D02*
X150765142Y-61297428D01*
X150765142Y-62154571D02*
X150693714Y-62226000D01*
X150550857Y-62297428D01*
X150336571Y-62297428D01*
X150193714Y-62226000D01*
X150122285Y-62083142D01*
X150122285Y-61297428D01*
X149622285Y-62297428D02*
X149050857Y-62297428D01*
X149408000Y-62797428D02*
X149408000Y-61511714D01*
X149336571Y-61368857D01*
X149193714Y-61297428D01*
X149050857Y-61297428D01*
X148550857Y-61297428D02*
X148550857Y-62297428D01*
X148550857Y-62011714D02*
X148479428Y-62154571D01*
X148408000Y-62226000D01*
X148265142Y-62297428D01*
X148122285Y-62297428D01*
X147408000Y-61297428D02*
X147550857Y-61368857D01*
X147622285Y-61440285D01*
X147693714Y-61583142D01*
X147693714Y-62011714D01*
X147622285Y-62154571D01*
X147550857Y-62226000D01*
X147408000Y-62297428D01*
X147193714Y-62297428D01*
X147050857Y-62226000D01*
X146979428Y-62154571D01*
X146908000Y-62011714D01*
X146908000Y-61583142D01*
X146979428Y-61440285D01*
X147050857Y-61368857D01*
X147193714Y-61297428D01*
X147408000Y-61297428D01*
X146050857Y-61297428D02*
X146193714Y-61368857D01*
X146265142Y-61511714D01*
X146265142Y-62797428D01*
X145265142Y-61297428D02*
X145408000Y-61368857D01*
X145479428Y-61511714D01*
X145479428Y-62797428D01*
X144122285Y-61368857D02*
X144265142Y-61297428D01*
X144550857Y-61297428D01*
X144693714Y-61368857D01*
X144765142Y-61511714D01*
X144765142Y-62083142D01*
X144693714Y-62226000D01*
X144550857Y-62297428D01*
X144265142Y-62297428D01*
X144122285Y-62226000D01*
X144050857Y-62083142D01*
X144050857Y-61940285D01*
X144765142Y-61797428D01*
X143408000Y-61297428D02*
X143408000Y-62297428D01*
X143408000Y-62011714D02*
X143336571Y-62154571D01*
X143265142Y-62226000D01*
X143122285Y-62297428D01*
X142979428Y-62297428D01*
X141479428Y-62297428D02*
X141122285Y-61297428D01*
X140765142Y-62297428D01*
X139550857Y-62297428D02*
X139550857Y-61297428D01*
X139908000Y-62868857D02*
X140265142Y-61797428D01*
X139336571Y-61797428D01*
D11*
X128856490Y-79057500D02*
G75*
G03*
X128856490Y-79057500I-141990J0D01*
G01*
X140488303Y-100076000D02*
G75*
G03*
X140488303Y-100076000I-89803J0D01*
G01*
X131532380Y-100869523D02*
X131532380Y-100298095D01*
X132532380Y-100583809D02*
X131532380Y-100583809D01*
X132008571Y-99964761D02*
X132008571Y-99631428D01*
X132532380Y-99488571D02*
X132532380Y-99964761D01*
X131532380Y-99964761D01*
X131532380Y-99488571D01*
X132532380Y-99060000D02*
X131532380Y-99060000D01*
X132246666Y-98726666D01*
X131532380Y-98393333D01*
X132532380Y-98393333D01*
X132532380Y-97917142D02*
X131532380Y-97917142D01*
X131532380Y-97536190D01*
X131580000Y-97440952D01*
X131627619Y-97393333D01*
X131722857Y-97345714D01*
X131865714Y-97345714D01*
X131960952Y-97393333D01*
X132008571Y-97440952D01*
X132056190Y-97536190D01*
X132056190Y-97917142D01*
X108037380Y-118475000D02*
X108037380Y-118284523D01*
X108085000Y-118189285D01*
X108180238Y-118094047D01*
X108370714Y-118046428D01*
X108704047Y-118046428D01*
X108894523Y-118094047D01*
X108989761Y-118189285D01*
X109037380Y-118284523D01*
X109037380Y-118475000D01*
X108989761Y-118570238D01*
X108894523Y-118665476D01*
X108704047Y-118713095D01*
X108370714Y-118713095D01*
X108180238Y-118665476D01*
X108085000Y-118570238D01*
X108037380Y-118475000D01*
X108037380Y-117617857D02*
X108846904Y-117617857D01*
X108942142Y-117570238D01*
X108989761Y-117522619D01*
X109037380Y-117427380D01*
X109037380Y-117236904D01*
X108989761Y-117141666D01*
X108942142Y-117094047D01*
X108846904Y-117046428D01*
X108037380Y-117046428D01*
X108037380Y-116713095D02*
X108037380Y-116141666D01*
X109037380Y-116427380D02*
X108037380Y-116427380D01*
X109037380Y-106568809D02*
X108037380Y-106568809D01*
X109037380Y-106092619D02*
X108037380Y-106092619D01*
X109037380Y-105521190D01*
X108037380Y-105521190D01*
X145589523Y-109291428D02*
X145922857Y-109291428D01*
X145922857Y-108767619D02*
X145922857Y-109767619D01*
X145446666Y-109767619D01*
X145113333Y-108815238D02*
X144970476Y-108767619D01*
X144732380Y-108767619D01*
X144637142Y-108815238D01*
X144589523Y-108862857D01*
X144541904Y-108958095D01*
X144541904Y-109053333D01*
X144589523Y-109148571D01*
X144637142Y-109196190D01*
X144732380Y-109243809D01*
X144922857Y-109291428D01*
X145018095Y-109339047D01*
X145065714Y-109386666D01*
X145113333Y-109481904D01*
X145113333Y-109577142D01*
X145065714Y-109672380D01*
X145018095Y-109720000D01*
X144922857Y-109767619D01*
X144684761Y-109767619D01*
X144541904Y-109720000D01*
X144160952Y-109672380D02*
X144113333Y-109720000D01*
X144018095Y-109767619D01*
X143780000Y-109767619D01*
X143684761Y-109720000D01*
X143637142Y-109672380D01*
X143589523Y-109577142D01*
X143589523Y-109481904D01*
X143637142Y-109339047D01*
X144208571Y-108767619D01*
X143589523Y-108767619D01*
X136064523Y-109291428D02*
X136397857Y-109291428D01*
X136397857Y-108767619D02*
X136397857Y-109767619D01*
X135921666Y-109767619D01*
X135588333Y-108815238D02*
X135445476Y-108767619D01*
X135207380Y-108767619D01*
X135112142Y-108815238D01*
X135064523Y-108862857D01*
X135016904Y-108958095D01*
X135016904Y-109053333D01*
X135064523Y-109148571D01*
X135112142Y-109196190D01*
X135207380Y-109243809D01*
X135397857Y-109291428D01*
X135493095Y-109339047D01*
X135540714Y-109386666D01*
X135588333Y-109481904D01*
X135588333Y-109577142D01*
X135540714Y-109672380D01*
X135493095Y-109720000D01*
X135397857Y-109767619D01*
X135159761Y-109767619D01*
X135016904Y-109720000D01*
X134064523Y-108767619D02*
X134635952Y-108767619D01*
X134350238Y-108767619D02*
X134350238Y-109767619D01*
X134445476Y-109624761D01*
X134540714Y-109529523D01*
X134635952Y-109481904D01*
X153162380Y-89892142D02*
X153114761Y-89939761D01*
X152971904Y-89987380D01*
X152876666Y-89987380D01*
X152733809Y-89939761D01*
X152638571Y-89844523D01*
X152590952Y-89749285D01*
X152543333Y-89558809D01*
X152543333Y-89415952D01*
X152590952Y-89225476D01*
X152638571Y-89130238D01*
X152733809Y-89035000D01*
X152876666Y-88987380D01*
X152971904Y-88987380D01*
X153114761Y-89035000D01*
X153162380Y-89082619D01*
X153590952Y-89987380D02*
X153590952Y-88987380D01*
X154019523Y-89987380D02*
X154019523Y-89463571D01*
X153971904Y-89368333D01*
X153876666Y-89320714D01*
X153733809Y-89320714D01*
X153638571Y-89368333D01*
X153590952Y-89415952D01*
X154924285Y-89987380D02*
X154924285Y-89463571D01*
X154876666Y-89368333D01*
X154781428Y-89320714D01*
X154590952Y-89320714D01*
X154495714Y-89368333D01*
X154924285Y-89939761D02*
X154829047Y-89987380D01*
X154590952Y-89987380D01*
X154495714Y-89939761D01*
X154448095Y-89844523D01*
X154448095Y-89749285D01*
X154495714Y-89654047D01*
X154590952Y-89606428D01*
X154829047Y-89606428D01*
X154924285Y-89558809D01*
X155400476Y-89320714D02*
X155400476Y-89987380D01*
X155400476Y-89415952D02*
X155448095Y-89368333D01*
X155543333Y-89320714D01*
X155686190Y-89320714D01*
X155781428Y-89368333D01*
X155829047Y-89463571D01*
X155829047Y-89987380D01*
X156305238Y-89320714D02*
X156305238Y-89987380D01*
X156305238Y-89415952D02*
X156352857Y-89368333D01*
X156448095Y-89320714D01*
X156590952Y-89320714D01*
X156686190Y-89368333D01*
X156733809Y-89463571D01*
X156733809Y-89987380D01*
X157590952Y-89939761D02*
X157495714Y-89987380D01*
X157305238Y-89987380D01*
X157210000Y-89939761D01*
X157162380Y-89844523D01*
X157162380Y-89463571D01*
X157210000Y-89368333D01*
X157305238Y-89320714D01*
X157495714Y-89320714D01*
X157590952Y-89368333D01*
X157638571Y-89463571D01*
X157638571Y-89558809D01*
X157162380Y-89654047D01*
X158210000Y-89987380D02*
X158114761Y-89939761D01*
X158067142Y-89844523D01*
X158067142Y-88987380D01*
X159305238Y-89082619D02*
X159352857Y-89035000D01*
X159448095Y-88987380D01*
X159686190Y-88987380D01*
X159781428Y-89035000D01*
X159829047Y-89082619D01*
X159876666Y-89177857D01*
X159876666Y-89273095D01*
X159829047Y-89415952D01*
X159257619Y-89987380D01*
X159876666Y-89987380D01*
X153162380Y-108307142D02*
X153114761Y-108354761D01*
X152971904Y-108402380D01*
X152876666Y-108402380D01*
X152733809Y-108354761D01*
X152638571Y-108259523D01*
X152590952Y-108164285D01*
X152543333Y-107973809D01*
X152543333Y-107830952D01*
X152590952Y-107640476D01*
X152638571Y-107545238D01*
X152733809Y-107450000D01*
X152876666Y-107402380D01*
X152971904Y-107402380D01*
X153114761Y-107450000D01*
X153162380Y-107497619D01*
X153590952Y-108402380D02*
X153590952Y-107402380D01*
X154019523Y-108402380D02*
X154019523Y-107878571D01*
X153971904Y-107783333D01*
X153876666Y-107735714D01*
X153733809Y-107735714D01*
X153638571Y-107783333D01*
X153590952Y-107830952D01*
X154924285Y-108402380D02*
X154924285Y-107878571D01*
X154876666Y-107783333D01*
X154781428Y-107735714D01*
X154590952Y-107735714D01*
X154495714Y-107783333D01*
X154924285Y-108354761D02*
X154829047Y-108402380D01*
X154590952Y-108402380D01*
X154495714Y-108354761D01*
X154448095Y-108259523D01*
X154448095Y-108164285D01*
X154495714Y-108069047D01*
X154590952Y-108021428D01*
X154829047Y-108021428D01*
X154924285Y-107973809D01*
X155400476Y-107735714D02*
X155400476Y-108402380D01*
X155400476Y-107830952D02*
X155448095Y-107783333D01*
X155543333Y-107735714D01*
X155686190Y-107735714D01*
X155781428Y-107783333D01*
X155829047Y-107878571D01*
X155829047Y-108402380D01*
X156305238Y-107735714D02*
X156305238Y-108402380D01*
X156305238Y-107830952D02*
X156352857Y-107783333D01*
X156448095Y-107735714D01*
X156590952Y-107735714D01*
X156686190Y-107783333D01*
X156733809Y-107878571D01*
X156733809Y-108402380D01*
X157590952Y-108354761D02*
X157495714Y-108402380D01*
X157305238Y-108402380D01*
X157210000Y-108354761D01*
X157162380Y-108259523D01*
X157162380Y-107878571D01*
X157210000Y-107783333D01*
X157305238Y-107735714D01*
X157495714Y-107735714D01*
X157590952Y-107783333D01*
X157638571Y-107878571D01*
X157638571Y-107973809D01*
X157162380Y-108069047D01*
X158210000Y-108402380D02*
X158114761Y-108354761D01*
X158067142Y-108259523D01*
X158067142Y-107402380D01*
X159876666Y-108402380D02*
X159305238Y-108402380D01*
X159590952Y-108402380D02*
X159590952Y-107402380D01*
X159495714Y-107545238D01*
X159400476Y-107640476D01*
X159305238Y-107688095D01*
X153162380Y-126087142D02*
X153114761Y-126134761D01*
X152971904Y-126182380D01*
X152876666Y-126182380D01*
X152733809Y-126134761D01*
X152638571Y-126039523D01*
X152590952Y-125944285D01*
X152543333Y-125753809D01*
X152543333Y-125610952D01*
X152590952Y-125420476D01*
X152638571Y-125325238D01*
X152733809Y-125230000D01*
X152876666Y-125182380D01*
X152971904Y-125182380D01*
X153114761Y-125230000D01*
X153162380Y-125277619D01*
X153590952Y-126182380D02*
X153590952Y-125182380D01*
X154019523Y-126182380D02*
X154019523Y-125658571D01*
X153971904Y-125563333D01*
X153876666Y-125515714D01*
X153733809Y-125515714D01*
X153638571Y-125563333D01*
X153590952Y-125610952D01*
X154924285Y-126182380D02*
X154924285Y-125658571D01*
X154876666Y-125563333D01*
X154781428Y-125515714D01*
X154590952Y-125515714D01*
X154495714Y-125563333D01*
X154924285Y-126134761D02*
X154829047Y-126182380D01*
X154590952Y-126182380D01*
X154495714Y-126134761D01*
X154448095Y-126039523D01*
X154448095Y-125944285D01*
X154495714Y-125849047D01*
X154590952Y-125801428D01*
X154829047Y-125801428D01*
X154924285Y-125753809D01*
X155400476Y-125515714D02*
X155400476Y-126182380D01*
X155400476Y-125610952D02*
X155448095Y-125563333D01*
X155543333Y-125515714D01*
X155686190Y-125515714D01*
X155781428Y-125563333D01*
X155829047Y-125658571D01*
X155829047Y-126182380D01*
X156305238Y-125515714D02*
X156305238Y-126182380D01*
X156305238Y-125610952D02*
X156352857Y-125563333D01*
X156448095Y-125515714D01*
X156590952Y-125515714D01*
X156686190Y-125563333D01*
X156733809Y-125658571D01*
X156733809Y-126182380D01*
X157590952Y-126134761D02*
X157495714Y-126182380D01*
X157305238Y-126182380D01*
X157210000Y-126134761D01*
X157162380Y-126039523D01*
X157162380Y-125658571D01*
X157210000Y-125563333D01*
X157305238Y-125515714D01*
X157495714Y-125515714D01*
X157590952Y-125563333D01*
X157638571Y-125658571D01*
X157638571Y-125753809D01*
X157162380Y-125849047D01*
X158210000Y-126182380D02*
X158114761Y-126134761D01*
X158067142Y-126039523D01*
X158067142Y-125182380D01*
X159543333Y-125182380D02*
X159638571Y-125182380D01*
X159733809Y-125230000D01*
X159781428Y-125277619D01*
X159829047Y-125372857D01*
X159876666Y-125563333D01*
X159876666Y-125801428D01*
X159829047Y-125991904D01*
X159781428Y-126087142D01*
X159733809Y-126134761D01*
X159638571Y-126182380D01*
X159543333Y-126182380D01*
X159448095Y-126134761D01*
X159400476Y-126087142D01*
X159352857Y-125991904D01*
X159305238Y-125801428D01*
X159305238Y-125563333D01*
X159352857Y-125372857D01*
X159400476Y-125277619D01*
X159448095Y-125230000D01*
X159543333Y-125182380D01*
X173355000Y-127000000D02*
X173355000Y-109220000D01*
X151765000Y-127000000D02*
X173355000Y-127000000D01*
X151765000Y-109220000D02*
X151765000Y-127000000D01*
X151765000Y-109220000D02*
X151765000Y-91440000D01*
X173355000Y-109220000D02*
X151765000Y-109220000D01*
X173355000Y-91440000D02*
X173355000Y-109220000D01*
X173355000Y-73660000D02*
X173355000Y-91440000D01*
X151765000Y-73660000D02*
X173355000Y-73660000D01*
X151765000Y-91440000D02*
X151765000Y-73660000D01*
X173355000Y-91440000D02*
X151765000Y-91440000D01*
D13*
%TO.C,C1*%
X138353748Y-99335000D02*
X139776252Y-99335000D01*
X138353748Y-97515000D02*
X139776252Y-97515000D01*
%TO.C,C2*%
X137615000Y-77220563D02*
X138679437Y-78285000D01*
X137615000Y-68829437D02*
X138679437Y-67765000D01*
X137615000Y-68829437D02*
X137615000Y-71715000D01*
X137615000Y-77220563D02*
X137615000Y-74335000D01*
X138679437Y-78285000D02*
X148135000Y-78285000D01*
X138679437Y-67765000D02*
X148135000Y-67765000D01*
X148135000Y-67765000D02*
X148135000Y-71715000D01*
X148135000Y-78285000D02*
X148135000Y-74335000D01*
%TO.C,C3*%
X121479437Y-82950000D02*
X120415000Y-84014437D01*
X126170563Y-82950000D02*
X127235000Y-84014437D01*
X126170563Y-82950000D02*
X124885000Y-82950000D01*
X121479437Y-82950000D02*
X122765000Y-82950000D01*
X120415000Y-84014437D02*
X120415000Y-89770000D01*
X127235000Y-84014437D02*
X127235000Y-89770000D01*
X127235000Y-89770000D02*
X124885000Y-89770000D01*
X120415000Y-89770000D02*
X122765000Y-89770000D01*
%TO.C,C4*%
X124640000Y-79555000D02*
X124640000Y-75605000D01*
X124640000Y-69035000D02*
X124640000Y-72985000D01*
X115184437Y-69035000D02*
X124640000Y-69035000D01*
X115184437Y-79555000D02*
X124640000Y-79555000D01*
X114120000Y-78490563D02*
X114120000Y-75605000D01*
X114120000Y-70099437D02*
X114120000Y-72985000D01*
X114120000Y-70099437D02*
X115184437Y-69035000D01*
X114120000Y-78490563D02*
X115184437Y-79555000D01*
%TO.C,D1*%
X145315000Y-96990000D02*
X145315000Y-99275000D01*
X145315000Y-99275000D02*
X146785000Y-99275000D01*
X146785000Y-99275000D02*
X146785000Y-96990000D01*
%TO.C,D2*%
X156425000Y-118645000D02*
X154140000Y-118645000D01*
X156425000Y-120115000D02*
X156425000Y-118645000D01*
X154140000Y-120115000D02*
X156425000Y-120115000D01*
%TO.C,D3*%
X155790000Y-100230000D02*
X153505000Y-100230000D01*
X155790000Y-101700000D02*
X155790000Y-100230000D01*
X153505000Y-101700000D02*
X155790000Y-101700000D01*
%TO.C,D4*%
X153505000Y-83920000D02*
X155790000Y-83920000D01*
X155790000Y-83920000D02*
X155790000Y-82450000D01*
X155790000Y-82450000D02*
X153505000Y-82450000D01*
%TO.C,D5*%
X132930000Y-86895000D02*
X130645000Y-86895000D01*
X132930000Y-88365000D02*
X132930000Y-86895000D01*
X130645000Y-88365000D02*
X132930000Y-88365000D01*
%TO.C,D6*%
X129195000Y-79645000D02*
X133095000Y-79645000D01*
X129195000Y-81645000D02*
X133095000Y-81645000D01*
X129195000Y-79645000D02*
X129195000Y-81645000D01*
%TO.C,FB1*%
X117239622Y-83260000D02*
X116440378Y-83260000D01*
X117239622Y-84380000D02*
X116440378Y-84380000D01*
%TO.C,J1*%
X144653000Y-141097000D02*
X144653000Y-131699000D01*
X144653000Y-131699000D02*
X140335000Y-131699000D01*
X140335000Y-131699000D02*
X140335000Y-141097000D01*
X140335000Y-141097000D02*
X144653000Y-141097000D01*
%TO.C,J2*%
X106255000Y-100655000D02*
X105005000Y-100655000D01*
X106255000Y-101905000D02*
X106255000Y-100655000D01*
X100755000Y-110305000D02*
X100755000Y-106005000D01*
X103705000Y-110305000D02*
X100755000Y-110305000D01*
X103705000Y-111055000D02*
X103705000Y-110305000D01*
X100755000Y-106005000D02*
X100755000Y-102765000D01*
X103705000Y-101705000D02*
X102365000Y-101705000D01*
X103705000Y-100955000D02*
X103705000Y-101705000D01*
X105955000Y-111055000D02*
X105955000Y-109255000D01*
X105205000Y-111055000D02*
X105955000Y-111055000D01*
X105205000Y-109255000D02*
X105205000Y-111055000D01*
X105955000Y-109255000D02*
X105205000Y-109255000D01*
X105955000Y-102755000D02*
X105955000Y-100955000D01*
X105205000Y-102755000D02*
X105955000Y-102755000D01*
X105205000Y-100955000D02*
X105205000Y-102755000D01*
X105955000Y-100955000D02*
X105205000Y-100955000D01*
X105955000Y-107755000D02*
X105955000Y-104255000D01*
X105205000Y-107755000D02*
X105955000Y-107755000D01*
X105205000Y-104255000D02*
X105205000Y-107755000D01*
X105955000Y-104255000D02*
X105205000Y-104255000D01*
X105965000Y-111065000D02*
X105965000Y-100945000D01*
X99995000Y-111065000D02*
X105965000Y-111065000D01*
X99995000Y-100945000D02*
X99995000Y-111065000D01*
X105965000Y-100945000D02*
X99995000Y-100945000D01*
%TO.C,J3*%
X105965000Y-112415000D02*
X99995000Y-112415000D01*
X99995000Y-112415000D02*
X99995000Y-122535000D01*
X99995000Y-122535000D02*
X105965000Y-122535000D01*
X105965000Y-122535000D02*
X105965000Y-112415000D01*
X105955000Y-115725000D02*
X105205000Y-115725000D01*
X105205000Y-115725000D02*
X105205000Y-119225000D01*
X105205000Y-119225000D02*
X105955000Y-119225000D01*
X105955000Y-119225000D02*
X105955000Y-115725000D01*
X105955000Y-112425000D02*
X105205000Y-112425000D01*
X105205000Y-112425000D02*
X105205000Y-114225000D01*
X105205000Y-114225000D02*
X105955000Y-114225000D01*
X105955000Y-114225000D02*
X105955000Y-112425000D01*
X105955000Y-120725000D02*
X105205000Y-120725000D01*
X105205000Y-120725000D02*
X105205000Y-122525000D01*
X105205000Y-122525000D02*
X105955000Y-122525000D01*
X105955000Y-122525000D02*
X105955000Y-120725000D01*
X103705000Y-112425000D02*
X103705000Y-113175000D01*
X103705000Y-113175000D02*
X102365000Y-113175000D01*
X100755000Y-117475000D02*
X100755000Y-114235000D01*
X103705000Y-122525000D02*
X103705000Y-121775000D01*
X103705000Y-121775000D02*
X100755000Y-121775000D01*
X100755000Y-121775000D02*
X100755000Y-117475000D01*
X106255000Y-113375000D02*
X106255000Y-112125000D01*
X106255000Y-112125000D02*
X105005000Y-112125000D01*
%TO.C,J4*%
X174070000Y-126385000D02*
X180040000Y-126385000D01*
X180040000Y-126385000D02*
X180040000Y-118765000D01*
X180040000Y-118765000D02*
X174070000Y-118765000D01*
X174070000Y-118765000D02*
X174070000Y-126385000D01*
X174080000Y-123075000D02*
X174830000Y-123075000D01*
X174830000Y-123075000D02*
X174830000Y-122075000D01*
X174830000Y-122075000D02*
X174080000Y-122075000D01*
X174080000Y-122075000D02*
X174080000Y-123075000D01*
X174080000Y-126375000D02*
X174830000Y-126375000D01*
X174830000Y-126375000D02*
X174830000Y-124575000D01*
X174830000Y-124575000D02*
X174080000Y-124575000D01*
X174080000Y-124575000D02*
X174080000Y-126375000D01*
X174080000Y-120575000D02*
X174830000Y-120575000D01*
X174830000Y-120575000D02*
X174830000Y-118775000D01*
X174830000Y-118775000D02*
X174080000Y-118775000D01*
X174080000Y-118775000D02*
X174080000Y-120575000D01*
X176330000Y-126375000D02*
X176330000Y-125625000D01*
X176330000Y-125625000D02*
X177670000Y-125625000D01*
X179280000Y-122575000D02*
X179280000Y-124565000D01*
X176330000Y-118775000D02*
X176330000Y-119525000D01*
X176330000Y-119525000D02*
X179280000Y-119525000D01*
X179280000Y-119525000D02*
X179280000Y-122575000D01*
X173780000Y-125425000D02*
X173780000Y-126675000D01*
X173780000Y-126675000D02*
X175030000Y-126675000D01*
%TO.C,J5*%
X173780000Y-117785000D02*
X175030000Y-117785000D01*
X173780000Y-116535000D02*
X173780000Y-117785000D01*
X179280000Y-110635000D02*
X179280000Y-113685000D01*
X176330000Y-110635000D02*
X179280000Y-110635000D01*
X176330000Y-109885000D02*
X176330000Y-110635000D01*
X179280000Y-113685000D02*
X179280000Y-115675000D01*
X176330000Y-116735000D02*
X177670000Y-116735000D01*
X176330000Y-117485000D02*
X176330000Y-116735000D01*
X174080000Y-109885000D02*
X174080000Y-111685000D01*
X174830000Y-109885000D02*
X174080000Y-109885000D01*
X174830000Y-111685000D02*
X174830000Y-109885000D01*
X174080000Y-111685000D02*
X174830000Y-111685000D01*
X174080000Y-115685000D02*
X174080000Y-117485000D01*
X174830000Y-115685000D02*
X174080000Y-115685000D01*
X174830000Y-117485000D02*
X174830000Y-115685000D01*
X174080000Y-117485000D02*
X174830000Y-117485000D01*
X174080000Y-113185000D02*
X174080000Y-114185000D01*
X174830000Y-113185000D02*
X174080000Y-113185000D01*
X174830000Y-114185000D02*
X174830000Y-113185000D01*
X174080000Y-114185000D02*
X174830000Y-114185000D01*
X174070000Y-109875000D02*
X174070000Y-117495000D01*
X180040000Y-109875000D02*
X174070000Y-109875000D01*
X180040000Y-117495000D02*
X180040000Y-109875000D01*
X174070000Y-117495000D02*
X180040000Y-117495000D01*
%TO.C,J6*%
X173780000Y-108895000D02*
X175030000Y-108895000D01*
X173780000Y-107645000D02*
X173780000Y-108895000D01*
X179280000Y-101745000D02*
X179280000Y-104795000D01*
X176330000Y-101745000D02*
X179280000Y-101745000D01*
X176330000Y-100995000D02*
X176330000Y-101745000D01*
X179280000Y-104795000D02*
X179280000Y-106785000D01*
X176330000Y-107845000D02*
X177670000Y-107845000D01*
X176330000Y-108595000D02*
X176330000Y-107845000D01*
X174080000Y-100995000D02*
X174080000Y-102795000D01*
X174830000Y-100995000D02*
X174080000Y-100995000D01*
X174830000Y-102795000D02*
X174830000Y-100995000D01*
X174080000Y-102795000D02*
X174830000Y-102795000D01*
X174080000Y-106795000D02*
X174080000Y-108595000D01*
X174830000Y-106795000D02*
X174080000Y-106795000D01*
X174830000Y-108595000D02*
X174830000Y-106795000D01*
X174080000Y-108595000D02*
X174830000Y-108595000D01*
X174080000Y-104295000D02*
X174080000Y-105295000D01*
X174830000Y-104295000D02*
X174080000Y-104295000D01*
X174830000Y-105295000D02*
X174830000Y-104295000D01*
X174080000Y-105295000D02*
X174830000Y-105295000D01*
X174070000Y-100985000D02*
X174070000Y-108605000D01*
X180040000Y-100985000D02*
X174070000Y-100985000D01*
X180040000Y-108605000D02*
X180040000Y-100985000D01*
X174070000Y-108605000D02*
X180040000Y-108605000D01*
%TO.C,J7*%
X174070000Y-99715000D02*
X180040000Y-99715000D01*
X180040000Y-99715000D02*
X180040000Y-92095000D01*
X180040000Y-92095000D02*
X174070000Y-92095000D01*
X174070000Y-92095000D02*
X174070000Y-99715000D01*
X174080000Y-96405000D02*
X174830000Y-96405000D01*
X174830000Y-96405000D02*
X174830000Y-95405000D01*
X174830000Y-95405000D02*
X174080000Y-95405000D01*
X174080000Y-95405000D02*
X174080000Y-96405000D01*
X174080000Y-99705000D02*
X174830000Y-99705000D01*
X174830000Y-99705000D02*
X174830000Y-97905000D01*
X174830000Y-97905000D02*
X174080000Y-97905000D01*
X174080000Y-97905000D02*
X174080000Y-99705000D01*
X174080000Y-93905000D02*
X174830000Y-93905000D01*
X174830000Y-93905000D02*
X174830000Y-92105000D01*
X174830000Y-92105000D02*
X174080000Y-92105000D01*
X174080000Y-92105000D02*
X174080000Y-93905000D01*
X176330000Y-99705000D02*
X176330000Y-98955000D01*
X176330000Y-98955000D02*
X177670000Y-98955000D01*
X179280000Y-95905000D02*
X179280000Y-97895000D01*
X176330000Y-92105000D02*
X176330000Y-92855000D01*
X176330000Y-92855000D02*
X179280000Y-92855000D01*
X179280000Y-92855000D02*
X179280000Y-95905000D01*
X173780000Y-98755000D02*
X173780000Y-100005000D01*
X173780000Y-100005000D02*
X175030000Y-100005000D01*
%TO.C,J8*%
X112660000Y-79220000D02*
X112660000Y-81820000D01*
X97960000Y-79220000D02*
X112660000Y-79220000D01*
X112660000Y-88420000D02*
X110760000Y-88420000D01*
X112660000Y-85720000D02*
X112660000Y-88420000D01*
X97960000Y-88420000D02*
X97960000Y-79220000D01*
X106760000Y-88420000D02*
X97960000Y-88420000D01*
X111810000Y-79020000D02*
X112860000Y-79020000D01*
X112860000Y-80070000D02*
X112860000Y-79020000D01*
%TO.C,J9*%
X148430000Y-105535000D02*
X147320000Y-105535000D01*
X148430000Y-104775000D02*
X148430000Y-105535000D01*
X146756529Y-104015000D02*
X146210000Y-104015000D01*
X148430000Y-104015000D02*
X147883471Y-104015000D01*
X146210000Y-104015000D02*
X146210000Y-101540000D01*
X148430000Y-104015000D02*
X148430000Y-101540000D01*
X147012470Y-101540000D02*
X146210000Y-101540000D01*
X148430000Y-101540000D02*
X147627530Y-101540000D01*
%TO.C,J10*%
X174070000Y-90825000D02*
X180040000Y-90825000D01*
X180040000Y-90825000D02*
X180040000Y-83205000D01*
X180040000Y-83205000D02*
X174070000Y-83205000D01*
X174070000Y-83205000D02*
X174070000Y-90825000D01*
X174080000Y-87515000D02*
X174830000Y-87515000D01*
X174830000Y-87515000D02*
X174830000Y-86515000D01*
X174830000Y-86515000D02*
X174080000Y-86515000D01*
X174080000Y-86515000D02*
X174080000Y-87515000D01*
X174080000Y-90815000D02*
X174830000Y-90815000D01*
X174830000Y-90815000D02*
X174830000Y-89015000D01*
X174830000Y-89015000D02*
X174080000Y-89015000D01*
X174080000Y-89015000D02*
X174080000Y-90815000D01*
X174080000Y-85015000D02*
X174830000Y-85015000D01*
X174830000Y-85015000D02*
X174830000Y-83215000D01*
X174830000Y-83215000D02*
X174080000Y-83215000D01*
X174080000Y-83215000D02*
X174080000Y-85015000D01*
X176330000Y-90815000D02*
X176330000Y-90065000D01*
X176330000Y-90065000D02*
X177670000Y-90065000D01*
X179280000Y-87015000D02*
X179280000Y-89005000D01*
X176330000Y-83215000D02*
X176330000Y-83965000D01*
X176330000Y-83965000D02*
X179280000Y-83965000D01*
X179280000Y-83965000D02*
X179280000Y-87015000D01*
X173780000Y-89865000D02*
X173780000Y-91115000D01*
X173780000Y-91115000D02*
X175030000Y-91115000D01*
%TO.C,J11*%
X173780000Y-82225000D02*
X175030000Y-82225000D01*
X173780000Y-80975000D02*
X173780000Y-82225000D01*
X179280000Y-75075000D02*
X179280000Y-78125000D01*
X176330000Y-75075000D02*
X179280000Y-75075000D01*
X176330000Y-74325000D02*
X176330000Y-75075000D01*
X179280000Y-78125000D02*
X179280000Y-80115000D01*
X176330000Y-81175000D02*
X177670000Y-81175000D01*
X176330000Y-81925000D02*
X176330000Y-81175000D01*
X174080000Y-74325000D02*
X174080000Y-76125000D01*
X174830000Y-74325000D02*
X174080000Y-74325000D01*
X174830000Y-76125000D02*
X174830000Y-74325000D01*
X174080000Y-76125000D02*
X174830000Y-76125000D01*
X174080000Y-80125000D02*
X174080000Y-81925000D01*
X174830000Y-80125000D02*
X174080000Y-80125000D01*
X174830000Y-81925000D02*
X174830000Y-80125000D01*
X174080000Y-81925000D02*
X174830000Y-81925000D01*
X174080000Y-77625000D02*
X174080000Y-78625000D01*
X174830000Y-77625000D02*
X174080000Y-77625000D01*
X174830000Y-78625000D02*
X174830000Y-77625000D01*
X174080000Y-78625000D02*
X174830000Y-78625000D01*
X174070000Y-74315000D02*
X174070000Y-81935000D01*
X180040000Y-74315000D02*
X174070000Y-74315000D01*
X180040000Y-81935000D02*
X180040000Y-74315000D01*
X174070000Y-81935000D02*
X180040000Y-81935000D01*
%TO.C,J12*%
X116570000Y-134410000D02*
X116570000Y-135660000D01*
X117820000Y-134410000D02*
X116570000Y-134410000D01*
X126220000Y-139910000D02*
X121920000Y-139910000D01*
X126220000Y-136960000D02*
X126220000Y-139910000D01*
X126970000Y-136960000D02*
X126220000Y-136960000D01*
X121920000Y-139910000D02*
X118680000Y-139910000D01*
X117620000Y-136960000D02*
X117620000Y-138300000D01*
X116870000Y-136960000D02*
X117620000Y-136960000D01*
X126970000Y-134710000D02*
X125170000Y-134710000D01*
X126970000Y-135460000D02*
X126970000Y-134710000D01*
X125170000Y-135460000D02*
X126970000Y-135460000D01*
X125170000Y-134710000D02*
X125170000Y-135460000D01*
X118670000Y-134710000D02*
X116870000Y-134710000D01*
X118670000Y-135460000D02*
X118670000Y-134710000D01*
X116870000Y-135460000D02*
X118670000Y-135460000D01*
X116870000Y-134710000D02*
X116870000Y-135460000D01*
X123670000Y-134710000D02*
X120170000Y-134710000D01*
X123670000Y-135460000D02*
X123670000Y-134710000D01*
X120170000Y-135460000D02*
X123670000Y-135460000D01*
X120170000Y-134710000D02*
X120170000Y-135460000D01*
X126980000Y-134700000D02*
X116860000Y-134700000D01*
X126980000Y-140670000D02*
X126980000Y-134700000D01*
X116860000Y-140670000D02*
X126980000Y-140670000D01*
X116860000Y-134700000D02*
X116860000Y-140670000D01*
%TO.C,L1*%
X149175000Y-92660000D02*
X146175000Y-92660000D01*
X149175000Y-80060000D02*
X149175000Y-92660000D01*
X146175000Y-80060000D02*
X149175000Y-80060000D01*
X136575000Y-80060000D02*
X139575000Y-80060000D01*
X136575000Y-92660000D02*
X136575000Y-80060000D01*
X139575000Y-92660000D02*
X136575000Y-92660000D01*
%TO.C,Q1*%
X113790000Y-113340000D02*
X112330000Y-113340000D01*
X113790000Y-110180000D02*
X111630000Y-110180000D01*
X113790000Y-110180000D02*
X113790000Y-111110000D01*
X113790000Y-113340000D02*
X113790000Y-112410000D01*
%TO.C,Q2*%
X164590000Y-122865000D02*
X164590000Y-121935000D01*
X164590000Y-119705000D02*
X164590000Y-120635000D01*
X164590000Y-119705000D02*
X162430000Y-119705000D01*
X164590000Y-122865000D02*
X163130000Y-122865000D01*
%TO.C,Q3*%
X164590000Y-116515000D02*
X163130000Y-116515000D01*
X164590000Y-113355000D02*
X162430000Y-113355000D01*
X164590000Y-113355000D02*
X164590000Y-114285000D01*
X164590000Y-116515000D02*
X164590000Y-115585000D01*
%TO.C,Q4*%
X170940000Y-122865000D02*
X170940000Y-121935000D01*
X170940000Y-119705000D02*
X170940000Y-120635000D01*
X170940000Y-119705000D02*
X168780000Y-119705000D01*
X170940000Y-122865000D02*
X169480000Y-122865000D01*
%TO.C,Q5*%
X170940000Y-116515000D02*
X170940000Y-115585000D01*
X170940000Y-113355000D02*
X170940000Y-114285000D01*
X170940000Y-113355000D02*
X168780000Y-113355000D01*
X170940000Y-116515000D02*
X169480000Y-116515000D01*
%TO.C,Q6*%
X164590000Y-105085000D02*
X163130000Y-105085000D01*
X164590000Y-101925000D02*
X162430000Y-101925000D01*
X164590000Y-101925000D02*
X164590000Y-102855000D01*
X164590000Y-105085000D02*
X164590000Y-104155000D01*
%TO.C,Q7*%
X164590000Y-98735000D02*
X163130000Y-98735000D01*
X164590000Y-95575000D02*
X162430000Y-95575000D01*
X164590000Y-95575000D02*
X164590000Y-96505000D01*
X164590000Y-98735000D02*
X164590000Y-97805000D01*
%TO.C,Q8*%
X170940000Y-105085000D02*
X169480000Y-105085000D01*
X170940000Y-101925000D02*
X168780000Y-101925000D01*
X170940000Y-101925000D02*
X170940000Y-102855000D01*
X170940000Y-105085000D02*
X170940000Y-104155000D01*
%TO.C,Q9*%
X170940000Y-98735000D02*
X170940000Y-97805000D01*
X170940000Y-95575000D02*
X170940000Y-96505000D01*
X170940000Y-95575000D02*
X168780000Y-95575000D01*
X170940000Y-98735000D02*
X169480000Y-98735000D01*
%TO.C,Q10*%
X164590000Y-87305000D02*
X163130000Y-87305000D01*
X164590000Y-84145000D02*
X162430000Y-84145000D01*
X164590000Y-84145000D02*
X164590000Y-85075000D01*
X164590000Y-87305000D02*
X164590000Y-86375000D01*
%TO.C,Q11*%
X164590000Y-80955000D02*
X163130000Y-80955000D01*
X164590000Y-77795000D02*
X162430000Y-77795000D01*
X164590000Y-77795000D02*
X164590000Y-78725000D01*
X164590000Y-80955000D02*
X164590000Y-80025000D01*
%TO.C,Q12*%
X170940000Y-87305000D02*
X170940000Y-86375000D01*
X170940000Y-84145000D02*
X170940000Y-85075000D01*
X170940000Y-84145000D02*
X168780000Y-84145000D01*
X170940000Y-87305000D02*
X169480000Y-87305000D01*
%TO.C,Q13*%
X170940000Y-80955000D02*
X170940000Y-80025000D01*
X170940000Y-77795000D02*
X170940000Y-78725000D01*
X170940000Y-77795000D02*
X168780000Y-77795000D01*
X170940000Y-80955000D02*
X169480000Y-80955000D01*
%TO.C,R1*%
X144667500Y-97552742D02*
X144667500Y-98027258D01*
X143622500Y-97552742D02*
X143622500Y-98027258D01*
%TO.C,R2*%
X154702742Y-116952500D02*
X155177258Y-116952500D01*
X154702742Y-117997500D02*
X155177258Y-117997500D01*
%TO.C,R3*%
X154067742Y-99582500D02*
X154542258Y-99582500D01*
X154067742Y-98537500D02*
X154542258Y-98537500D01*
%TO.C,R4*%
X154067742Y-80757500D02*
X154542258Y-80757500D01*
X154067742Y-81802500D02*
X154542258Y-81802500D01*
%TO.C,R5*%
X131207742Y-86247500D02*
X131682258Y-86247500D01*
X131207742Y-85202500D02*
X131682258Y-85202500D01*
%TO.C,R7*%
X110971359Y-108205000D02*
X111278641Y-108205000D01*
X110971359Y-108965000D02*
X111278641Y-108965000D01*
%TO.C,R9*%
X138810000Y-113818641D02*
X138810000Y-113511359D01*
X138050000Y-113818641D02*
X138050000Y-113511359D01*
%TO.C,R10*%
X148335000Y-113818641D02*
X148335000Y-113511359D01*
X147575000Y-113818641D02*
X147575000Y-113511359D01*
%TO.C,R11*%
X110235000Y-110971359D02*
X110235000Y-111278641D01*
X109475000Y-110971359D02*
X109475000Y-111278641D01*
%TO.C,R12*%
X122300000Y-98906359D02*
X122300000Y-99213641D01*
X121540000Y-98906359D02*
X121540000Y-99213641D01*
%TO.C,R13*%
X166625000Y-119861359D02*
X166625000Y-120168641D01*
X167385000Y-119861359D02*
X167385000Y-120168641D01*
%TO.C,R14*%
X166625000Y-112876359D02*
X166625000Y-113183641D01*
X167385000Y-112876359D02*
X167385000Y-113183641D01*
%TO.C,R15*%
X162406359Y-117730000D02*
X162713641Y-117730000D01*
X162406359Y-118490000D02*
X162713641Y-118490000D01*
%TO.C,R16*%
X162406359Y-111380000D02*
X162713641Y-111380000D01*
X162406359Y-112140000D02*
X162713641Y-112140000D01*
%TO.C,R17*%
X158862500Y-121047742D02*
X158862500Y-121522258D01*
X159907500Y-121047742D02*
X159907500Y-121522258D01*
%TO.C,R18*%
X158862500Y-114697742D02*
X158862500Y-115172258D01*
X159907500Y-114697742D02*
X159907500Y-115172258D01*
%TO.C,R19*%
X166625000Y-102081359D02*
X166625000Y-102388641D01*
X167385000Y-102081359D02*
X167385000Y-102388641D01*
%TO.C,R20*%
X166625000Y-95731359D02*
X166625000Y-96038641D01*
X167385000Y-95731359D02*
X167385000Y-96038641D01*
%TO.C,R21*%
X161771359Y-100585000D02*
X162078641Y-100585000D01*
X161771359Y-101345000D02*
X162078641Y-101345000D01*
%TO.C,R22*%
X161771359Y-93600000D02*
X162078641Y-93600000D01*
X161771359Y-94360000D02*
X162078641Y-94360000D01*
%TO.C,R23*%
X158862500Y-103267742D02*
X158862500Y-103742258D01*
X159907500Y-103267742D02*
X159907500Y-103742258D01*
%TO.C,R24*%
X158862500Y-96917742D02*
X158862500Y-97392258D01*
X159907500Y-96917742D02*
X159907500Y-97392258D01*
%TO.C,R25*%
X167385000Y-84301359D02*
X167385000Y-84608641D01*
X166625000Y-84301359D02*
X166625000Y-84608641D01*
%TO.C,R26*%
X166625000Y-77951359D02*
X166625000Y-78258641D01*
X167385000Y-77951359D02*
X167385000Y-78258641D01*
%TO.C,R27*%
X144400000Y-102716359D02*
X144400000Y-103023641D01*
X145160000Y-102716359D02*
X145160000Y-103023641D01*
%TO.C,R28*%
X161136359Y-83565000D02*
X161443641Y-83565000D01*
X161136359Y-82805000D02*
X161443641Y-82805000D01*
%TO.C,R29*%
X161136359Y-76455000D02*
X161443641Y-76455000D01*
X161136359Y-77215000D02*
X161443641Y-77215000D01*
%TO.C,R30*%
X159907500Y-85487742D02*
X159907500Y-85962258D01*
X158862500Y-85487742D02*
X158862500Y-85962258D01*
%TO.C,R31*%
X159907500Y-79137742D02*
X159907500Y-79612258D01*
X158862500Y-79137742D02*
X158862500Y-79612258D01*
%TO.C,TP4*%
X139130000Y-111125000D02*
G75*
G03*
X139130000Y-111125000I-700000J0D01*
G01*
%TO.C,TP5*%
X148655000Y-111125000D02*
G75*
G03*
X148655000Y-111125000I-700000J0D01*
G01*
%TO.C,TP10*%
X156910000Y-114300000D02*
G75*
G03*
X156910000Y-114300000I-700000J0D01*
G01*
%TO.C,TP12*%
X156910000Y-95885000D02*
G75*
G03*
X156910000Y-95885000I-700000J0D01*
G01*
%TO.C,TP14*%
X156275000Y-78105000D02*
G75*
G03*
X156275000Y-78105000I-700000J0D01*
G01*
%TO.C,U1*%
X141175000Y-101235000D02*
X141175000Y-100760000D01*
X136955000Y-104980000D02*
X137430000Y-104980000D01*
X136955000Y-104505000D02*
X136955000Y-104980000D01*
X136955000Y-100760000D02*
X137430000Y-100760000D01*
X136955000Y-101235000D02*
X136955000Y-100760000D01*
X141175000Y-104980000D02*
X140700000Y-104980000D01*
X141175000Y-104505000D02*
X141175000Y-104980000D01*
%TO.C,U4*%
X128250000Y-74295000D02*
X128250000Y-77745000D01*
X128250000Y-74295000D02*
X128250000Y-72345000D01*
X133370000Y-74295000D02*
X133370000Y-76245000D01*
X133370000Y-74295000D02*
X133370000Y-72345000D01*
D14*
%TO.C,U2*%
X139600000Y-117885000D02*
X139600000Y-124685000D01*
X134720000Y-124685000D02*
X134720000Y-117885000D01*
D12*
X138510000Y-115035000D02*
G75*
G03*
X138510000Y-115035000I-100000J0D01*
G01*
%TO.C,U3*%
X148035000Y-115035000D02*
G75*
G03*
X148035000Y-115035000I-100000J0D01*
G01*
D14*
X144245000Y-124685000D02*
X144245000Y-117885000D01*
X149125000Y-117885000D02*
X149125000Y-124685000D01*
D13*
%TO.C,D7*%
X132615000Y-111595000D02*
X132615000Y-113880000D01*
X132615000Y-113880000D02*
X134085000Y-113880000D01*
X134085000Y-113880000D02*
X134085000Y-111595000D01*
%TO.C,D8*%
X143610000Y-113880000D02*
X143610000Y-111595000D01*
X142140000Y-113880000D02*
X143610000Y-113880000D01*
X142140000Y-111595000D02*
X142140000Y-113880000D01*
%TO.C,R32*%
X134732500Y-112157742D02*
X134732500Y-112632258D01*
X135777500Y-112157742D02*
X135777500Y-112632258D01*
%TO.C,R33*%
X145302500Y-112157742D02*
X145302500Y-112632258D01*
X144257500Y-112157742D02*
X144257500Y-112632258D01*
%TO.C,J13*%
X123615000Y-103180000D02*
X124865000Y-103180000D01*
X123615000Y-101930000D02*
X123615000Y-103180000D01*
X129115000Y-96030000D02*
X129115000Y-99080000D01*
X126165000Y-96030000D02*
X129115000Y-96030000D01*
X126165000Y-95280000D02*
X126165000Y-96030000D01*
X129115000Y-99080000D02*
X129115000Y-101070000D01*
X126165000Y-102130000D02*
X127505000Y-102130000D01*
X126165000Y-102880000D02*
X126165000Y-102130000D01*
X123915000Y-95280000D02*
X123915000Y-97080000D01*
X124665000Y-95280000D02*
X123915000Y-95280000D01*
X124665000Y-97080000D02*
X124665000Y-95280000D01*
X123915000Y-97080000D02*
X124665000Y-97080000D01*
X123915000Y-101080000D02*
X123915000Y-102880000D01*
X124665000Y-101080000D02*
X123915000Y-101080000D01*
X124665000Y-102880000D02*
X124665000Y-101080000D01*
X123915000Y-102880000D02*
X124665000Y-102880000D01*
X123915000Y-98580000D02*
X123915000Y-99580000D01*
X124665000Y-98580000D02*
X123915000Y-98580000D01*
X124665000Y-99580000D02*
X124665000Y-98580000D01*
X123915000Y-99580000D02*
X124665000Y-99580000D01*
X123905000Y-95270000D02*
X123905000Y-102890000D01*
X129875000Y-95270000D02*
X123905000Y-95270000D01*
X129875000Y-102890000D02*
X129875000Y-95270000D01*
X123905000Y-102890000D02*
X129875000Y-102890000D01*
%TO.C,TP1*%
X134812000Y-94996000D02*
G75*
G03*
X134812000Y-94996000I-700000J0D01*
G01*
%TD*%
M02*
