M48
; DRILL file {KiCad 5.1.10-88a1d61d58~88~ubuntu20.04.1} date Fri Jul  9 08:27:41 2021
; FORMAT={-:-/ absolute / inch / decimal}
; #@! TF.CreationDate,2021-07-09T08:27:41-06:00
; #@! TF.GenerationSoftware,Kicad,Pcbnew,5.1.10-88a1d61d58~88~ubuntu20.04.1
; #@! TF.FileFunction,Plated,1,2,PTH
FMAT,2
INCH
T1C0.0118
T2C0.0157
T3C0.0236
T4C0.0256
T5C0.0374
T6C0.0394
T7C0.2087
%
G90
G05
T1
X4.275Y-4.375
X4.325Y-4.25
X4.55Y-4.2
X4.8Y-4.175
X5.25Y-4.25
X5.275Y-4.05
X5.375Y-4.7
X5.525Y-5.1
X5.55Y-4.45
X5.6Y-3.8
X5.6Y-5.05
X5.825Y-3.725
X6.175Y-3.325
X6.2Y-3.1
X6.2Y-4.575
X6.2Y-4.675
X6.225Y-3.95
X6.35Y-3.35
X6.35Y-3.8
T2
X5.05Y-3.575
X5.075Y-2.7
X5.125Y-2.7
X5.175Y-2.7
X5.225Y-2.7
X5.3Y-3.25
X5.3Y-3.5
X5.825Y-3.925
X5.9Y-3.0
X5.925Y-3.325
T3
X4.0185Y-2.6
X4.0185Y-5.3
X4.0643Y-2.4893
X4.0643Y-2.7107
X4.0643Y-5.1893
X4.0643Y-5.4107
X4.175Y-2.4435
X4.175Y-2.7565
X4.175Y-5.1435
X4.175Y-5.4565
X4.2857Y-2.4893
X4.2857Y-2.7107
X4.2857Y-5.1893
X4.2857Y-5.4107
X4.3315Y-2.6
X4.3315Y-5.3
X6.6935Y-2.6
X6.6935Y-5.3
X6.7393Y-2.4893
X6.7393Y-2.7107
X6.7393Y-5.1893
X6.7393Y-5.4107
X6.85Y-2.4435
X6.85Y-2.7565
X6.85Y-5.1435
X6.85Y-5.4565
X6.9607Y-2.4893
X6.9607Y-2.7107
X6.9607Y-5.1893
X6.9607Y-5.4107
X7.0065Y-2.6
X7.0065Y-5.3
T4
X5.8Y-4.025
X5.8Y-4.075
X5.8Y-4.125
T5
X4.075Y-4.075
X4.075Y-4.1734
X4.075Y-4.2719
X4.075Y-4.5266
X4.075Y-4.625
X4.075Y-4.7234
X4.7016Y-5.4
X4.8Y-5.4
X4.8984Y-5.4
T6
X4.975Y-3.8516
X4.975Y-3.95
X6.95Y-3.0266
X6.95Y-3.125
X6.95Y-3.3766
X6.95Y-3.475
X6.95Y-3.7266
X6.95Y-3.825
X6.95Y-4.0766
X6.95Y-4.175
X6.95Y-4.4266
X6.95Y-4.525
X6.95Y-4.7766
X6.95Y-4.875
T7
X4.175Y-2.6
X4.175Y-5.3
X6.85Y-2.6
X6.85Y-5.3
T6
G00X4.1638Y-3.2606
M15
G01X4.1638Y-3.3394
M16
G05
G00X4.2425Y-3.485
M15
G01X4.3213Y-3.485
M16
G05
G00X4.4Y-3.2606
M15
G01X4.4Y-3.3394
M16
G05
T0
M30
