%TF.GenerationSoftware,KiCad,Pcbnew,5.1.10-88a1d61d58~90~ubuntu20.04.1*%
%TF.CreationDate,2021-07-29T16:23:07-06:00*%
%TF.ProjectId,ring_light_controller,72696e67-5f6c-4696-9768-745f636f6e74,5*%
%TF.SameCoordinates,Original*%
%TF.FileFunction,Copper,L1,Top*%
%TF.FilePolarity,Positive*%
%FSLAX46Y46*%
G04 Gerber Fmt 4.6, Leading zero omitted, Abs format (unit mm)*
G04 Created by KiCad (PCBNEW 5.1.10-88a1d61d58~90~ubuntu20.04.1) date 2021-07-29 16:23:07*
%MOMM*%
%LPD*%
G01*
G04 APERTURE LIST*
%TA.AperFunction,SMDPad,CuDef*%
%ADD10R,1.500000X4.000000*%
%TD*%
%TA.AperFunction,WasherPad*%
%ADD11C,1.500000*%
%TD*%
%TA.AperFunction,ComponentPad*%
%ADD12O,2.000000X1.700000*%
%TD*%
%TA.AperFunction,SMDPad,CuDef*%
%ADD13R,2.200000X1.500000*%
%TD*%
%TA.AperFunction,SMDPad,CuDef*%
%ADD14R,0.900000X1.200000*%
%TD*%
%TA.AperFunction,ComponentPad*%
%ADD15C,0.900000*%
%TD*%
%TA.AperFunction,ComponentPad*%
%ADD16C,10.600000*%
%TD*%
%TA.AperFunction,ComponentPad*%
%ADD17R,3.500000X3.500000*%
%TD*%
%TA.AperFunction,ComponentPad*%
%ADD18O,1.700000X1.950000*%
%TD*%
%TA.AperFunction,SMDPad,CuDef*%
%ADD19R,0.900000X0.800000*%
%TD*%
%TA.AperFunction,SMDPad,CuDef*%
%ADD20C,1.000000*%
%TD*%
%TA.AperFunction,SMDPad,CuDef*%
%ADD21R,2.600000X2.600000*%
%TD*%
%TA.AperFunction,SMDPad,CuDef*%
%ADD22R,1.470000X1.410000*%
%TD*%
%TA.AperFunction,SMDPad,CuDef*%
%ADD23R,5.400000X2.900000*%
%TD*%
%TA.AperFunction,ComponentPad*%
%ADD24R,1.700000X1.700000*%
%TD*%
%TA.AperFunction,ComponentPad*%
%ADD25O,1.700000X1.700000*%
%TD*%
%TA.AperFunction,ViaPad*%
%ADD26C,0.800000*%
%TD*%
%TA.AperFunction,ViaPad*%
%ADD27C,0.600000*%
%TD*%
%TA.AperFunction,Conductor*%
%ADD28C,0.250000*%
%TD*%
%TA.AperFunction,Conductor*%
%ADD29C,0.750000*%
%TD*%
%TA.AperFunction,Conductor*%
%ADD30C,1.000000*%
%TD*%
%TA.AperFunction,Conductor*%
%ADD31C,0.300000*%
%TD*%
%TA.AperFunction,Conductor*%
%ADD32C,0.500000*%
%TD*%
G04 APERTURE END LIST*
D10*
%TO.P,J2,R*%
%TO.N,LOAD_IN*%
X103124000Y-103180000D03*
%TO.P,J2,S*%
%TO.N,GND*%
X101124000Y-110180000D03*
%TO.P,J2,T*%
%TO.N,RX*%
X108124000Y-110180000D03*
D11*
%TO.P,J2,*%
%TO.N,*%
X101124000Y-106680000D03*
X107124000Y-106680000D03*
%TD*%
%TO.P,R27,1*%
%TO.N,Net-(J9-Pad3)*%
%TA.AperFunction,SMDPad,CuDef*%
G36*
G01*
X143579000Y-99804000D02*
X143949000Y-99804000D01*
G75*
G02*
X144084000Y-99939000I0J-135000D01*
G01*
X144084000Y-100209000D01*
G75*
G02*
X143949000Y-100344000I-135000J0D01*
G01*
X143579000Y-100344000D01*
G75*
G02*
X143444000Y-100209000I0J135000D01*
G01*
X143444000Y-99939000D01*
G75*
G02*
X143579000Y-99804000I135000J0D01*
G01*
G37*
%TD.AperFunction*%
%TO.P,R27,2*%
%TO.N,PROGRAM*%
%TA.AperFunction,SMDPad,CuDef*%
G36*
G01*
X143579000Y-100824000D02*
X143949000Y-100824000D01*
G75*
G02*
X144084000Y-100959000I0J-135000D01*
G01*
X144084000Y-101229000D01*
G75*
G02*
X143949000Y-101364000I-135000J0D01*
G01*
X143579000Y-101364000D01*
G75*
G02*
X143444000Y-101229000I0J135000D01*
G01*
X143444000Y-100959000D01*
G75*
G02*
X143579000Y-100824000I135000J0D01*
G01*
G37*
%TD.AperFunction*%
%TD*%
%TO.P,J6,1*%
%TO.N,Net-(J6-Pad1)*%
%TA.AperFunction,ComponentPad*%
G36*
G01*
X177050000Y-102782000D02*
X178550000Y-102782000D01*
G75*
G02*
X178800000Y-103032000I0J-250000D01*
G01*
X178800000Y-104232000D01*
G75*
G02*
X178550000Y-104482000I-250000J0D01*
G01*
X177050000Y-104482000D01*
G75*
G02*
X176800000Y-104232000I0J250000D01*
G01*
X176800000Y-103032000D01*
G75*
G02*
X177050000Y-102782000I250000J0D01*
G01*
G37*
%TD.AperFunction*%
D12*
%TO.P,J6,2*%
%TO.N,+24V*%
X177800000Y-106132000D03*
%TD*%
D13*
%TO.P,J1,T*%
%TO.N,Net-(J1-PadT)*%
X144540000Y-133105000D03*
%TO.P,J1,G*%
%TO.N,Net-(J1-PadG)*%
X139940000Y-132605000D03*
%TO.P,J1,S*%
%TO.N,Net-(J1-PadS)*%
X139540000Y-139805000D03*
X145140000Y-139605000D03*
%TD*%
%TO.P,C1,1*%
%TO.N,+5V*%
%TA.AperFunction,SMDPad,CuDef*%
G36*
G01*
X137015000Y-99075001D02*
X137015000Y-97774999D01*
G75*
G02*
X137264999Y-97525000I249999J0D01*
G01*
X137915001Y-97525000D01*
G75*
G02*
X138165000Y-97774999I0J-249999D01*
G01*
X138165000Y-99075001D01*
G75*
G02*
X137915001Y-99325000I-249999J0D01*
G01*
X137264999Y-99325000D01*
G75*
G02*
X137015000Y-99075001I0J249999D01*
G01*
G37*
%TD.AperFunction*%
%TO.P,C1,2*%
%TO.N,GND*%
%TA.AperFunction,SMDPad,CuDef*%
G36*
G01*
X139965000Y-99075001D02*
X139965000Y-97774999D01*
G75*
G02*
X140214999Y-97525000I249999J0D01*
G01*
X140865001Y-97525000D01*
G75*
G02*
X141115000Y-97774999I0J-249999D01*
G01*
X141115000Y-99075001D01*
G75*
G02*
X140865001Y-99325000I-249999J0D01*
G01*
X140214999Y-99325000D01*
G75*
G02*
X139965000Y-99075001I0J249999D01*
G01*
G37*
%TD.AperFunction*%
%TD*%
%TO.P,C2,1*%
%TO.N,+5V*%
%TA.AperFunction,SMDPad,CuDef*%
G36*
G01*
X136175000Y-73825001D02*
X136175000Y-72224999D01*
G75*
G02*
X136424999Y-71975000I249999J0D01*
G01*
X140525001Y-71975000D01*
G75*
G02*
X140775000Y-72224999I0J-249999D01*
G01*
X140775000Y-73825001D01*
G75*
G02*
X140525001Y-74075000I-249999J0D01*
G01*
X136424999Y-74075000D01*
G75*
G02*
X136175000Y-73825001I0J249999D01*
G01*
G37*
%TD.AperFunction*%
%TO.P,C2,2*%
%TO.N,GND*%
%TA.AperFunction,SMDPad,CuDef*%
G36*
G01*
X144975000Y-73825001D02*
X144975000Y-72224999D01*
G75*
G02*
X145224999Y-71975000I249999J0D01*
G01*
X149325001Y-71975000D01*
G75*
G02*
X149575000Y-72224999I0J-249999D01*
G01*
X149575000Y-73825001D01*
G75*
G02*
X149325001Y-74075000I-249999J0D01*
G01*
X145224999Y-74075000D01*
G75*
G02*
X144975000Y-73825001I0J249999D01*
G01*
G37*
%TD.AperFunction*%
%TD*%
%TO.P,C3,1*%
%TO.N,+24V*%
%TA.AperFunction,SMDPad,CuDef*%
G36*
G01*
X123275000Y-82160000D02*
X124375000Y-82160000D01*
G75*
G02*
X124625000Y-82410000I0J-250000D01*
G01*
X124625000Y-85235000D01*
G75*
G02*
X124375000Y-85485000I-250000J0D01*
G01*
X123275000Y-85485000D01*
G75*
G02*
X123025000Y-85235000I0J250000D01*
G01*
X123025000Y-82410000D01*
G75*
G02*
X123275000Y-82160000I250000J0D01*
G01*
G37*
%TD.AperFunction*%
%TO.P,C3,2*%
%TO.N,GND*%
%TA.AperFunction,SMDPad,CuDef*%
G36*
G01*
X123275000Y-87235000D02*
X124375000Y-87235000D01*
G75*
G02*
X124625000Y-87485000I0J-250000D01*
G01*
X124625000Y-90310000D01*
G75*
G02*
X124375000Y-90560000I-250000J0D01*
G01*
X123275000Y-90560000D01*
G75*
G02*
X123025000Y-90310000I0J250000D01*
G01*
X123025000Y-87485000D01*
G75*
G02*
X123275000Y-87235000I250000J0D01*
G01*
G37*
%TD.AperFunction*%
%TD*%
%TO.P,C4,2*%
%TO.N,GND*%
%TA.AperFunction,SMDPad,CuDef*%
G36*
G01*
X121480000Y-75095001D02*
X121480000Y-73494999D01*
G75*
G02*
X121729999Y-73245000I249999J0D01*
G01*
X125830001Y-73245000D01*
G75*
G02*
X126080000Y-73494999I0J-249999D01*
G01*
X126080000Y-75095001D01*
G75*
G02*
X125830001Y-75345000I-249999J0D01*
G01*
X121729999Y-75345000D01*
G75*
G02*
X121480000Y-75095001I0J249999D01*
G01*
G37*
%TD.AperFunction*%
%TO.P,C4,1*%
%TO.N,+24V*%
%TA.AperFunction,SMDPad,CuDef*%
G36*
G01*
X112680000Y-75095001D02*
X112680000Y-73494999D01*
G75*
G02*
X112929999Y-73245000I249999J0D01*
G01*
X117030001Y-73245000D01*
G75*
G02*
X117280000Y-73494999I0J-249999D01*
G01*
X117280000Y-75095001D01*
G75*
G02*
X117030001Y-75345000I-249999J0D01*
G01*
X112929999Y-75345000D01*
G75*
G02*
X112680000Y-75095001I0J249999D01*
G01*
G37*
%TD.AperFunction*%
%TD*%
%TO.P,D1,2*%
%TO.N,Net-(D1-Pad2)*%
%TA.AperFunction,SMDPad,CuDef*%
G36*
G01*
X145798250Y-96424000D02*
X145285750Y-96424000D01*
G75*
G02*
X145067000Y-96205250I0J218750D01*
G01*
X145067000Y-95767750D01*
G75*
G02*
X145285750Y-95549000I218750J0D01*
G01*
X145798250Y-95549000D01*
G75*
G02*
X146017000Y-95767750I0J-218750D01*
G01*
X146017000Y-96205250D01*
G75*
G02*
X145798250Y-96424000I-218750J0D01*
G01*
G37*
%TD.AperFunction*%
%TO.P,D1,1*%
%TO.N,GND*%
%TA.AperFunction,SMDPad,CuDef*%
G36*
G01*
X145798250Y-97999000D02*
X145285750Y-97999000D01*
G75*
G02*
X145067000Y-97780250I0J218750D01*
G01*
X145067000Y-97342750D01*
G75*
G02*
X145285750Y-97124000I218750J0D01*
G01*
X145798250Y-97124000D01*
G75*
G02*
X146017000Y-97342750I0J-218750D01*
G01*
X146017000Y-97780250D01*
G75*
G02*
X145798250Y-97999000I-218750J0D01*
G01*
G37*
%TD.AperFunction*%
%TD*%
%TO.P,D2,1*%
%TO.N,GND*%
%TA.AperFunction,SMDPad,CuDef*%
G36*
G01*
X156165000Y-119123750D02*
X156165000Y-119636250D01*
G75*
G02*
X155946250Y-119855000I-218750J0D01*
G01*
X155508750Y-119855000D01*
G75*
G02*
X155290000Y-119636250I0J218750D01*
G01*
X155290000Y-119123750D01*
G75*
G02*
X155508750Y-118905000I218750J0D01*
G01*
X155946250Y-118905000D01*
G75*
G02*
X156165000Y-119123750I0J-218750D01*
G01*
G37*
%TD.AperFunction*%
%TO.P,D2,2*%
%TO.N,Net-(D2-Pad2)*%
%TA.AperFunction,SMDPad,CuDef*%
G36*
G01*
X154590000Y-119123750D02*
X154590000Y-119636250D01*
G75*
G02*
X154371250Y-119855000I-218750J0D01*
G01*
X153933750Y-119855000D01*
G75*
G02*
X153715000Y-119636250I0J218750D01*
G01*
X153715000Y-119123750D01*
G75*
G02*
X153933750Y-118905000I218750J0D01*
G01*
X154371250Y-118905000D01*
G75*
G02*
X154590000Y-119123750I0J-218750D01*
G01*
G37*
%TD.AperFunction*%
%TD*%
%TO.P,D3,1*%
%TO.N,GND*%
%TA.AperFunction,SMDPad,CuDef*%
G36*
G01*
X155530000Y-100708750D02*
X155530000Y-101221250D01*
G75*
G02*
X155311250Y-101440000I-218750J0D01*
G01*
X154873750Y-101440000D01*
G75*
G02*
X154655000Y-101221250I0J218750D01*
G01*
X154655000Y-100708750D01*
G75*
G02*
X154873750Y-100490000I218750J0D01*
G01*
X155311250Y-100490000D01*
G75*
G02*
X155530000Y-100708750I0J-218750D01*
G01*
G37*
%TD.AperFunction*%
%TO.P,D3,2*%
%TO.N,Net-(D3-Pad2)*%
%TA.AperFunction,SMDPad,CuDef*%
G36*
G01*
X153955000Y-100708750D02*
X153955000Y-101221250D01*
G75*
G02*
X153736250Y-101440000I-218750J0D01*
G01*
X153298750Y-101440000D01*
G75*
G02*
X153080000Y-101221250I0J218750D01*
G01*
X153080000Y-100708750D01*
G75*
G02*
X153298750Y-100490000I218750J0D01*
G01*
X153736250Y-100490000D01*
G75*
G02*
X153955000Y-100708750I0J-218750D01*
G01*
G37*
%TD.AperFunction*%
%TD*%
%TO.P,D4,2*%
%TO.N,Net-(D4-Pad2)*%
%TA.AperFunction,SMDPad,CuDef*%
G36*
G01*
X153955000Y-82928750D02*
X153955000Y-83441250D01*
G75*
G02*
X153736250Y-83660000I-218750J0D01*
G01*
X153298750Y-83660000D01*
G75*
G02*
X153080000Y-83441250I0J218750D01*
G01*
X153080000Y-82928750D01*
G75*
G02*
X153298750Y-82710000I218750J0D01*
G01*
X153736250Y-82710000D01*
G75*
G02*
X153955000Y-82928750I0J-218750D01*
G01*
G37*
%TD.AperFunction*%
%TO.P,D4,1*%
%TO.N,GND*%
%TA.AperFunction,SMDPad,CuDef*%
G36*
G01*
X155530000Y-82928750D02*
X155530000Y-83441250D01*
G75*
G02*
X155311250Y-83660000I-218750J0D01*
G01*
X154873750Y-83660000D01*
G75*
G02*
X154655000Y-83441250I0J218750D01*
G01*
X154655000Y-82928750D01*
G75*
G02*
X154873750Y-82710000I218750J0D01*
G01*
X155311250Y-82710000D01*
G75*
G02*
X155530000Y-82928750I0J-218750D01*
G01*
G37*
%TD.AperFunction*%
%TD*%
%TO.P,D5,1*%
%TO.N,GND*%
%TA.AperFunction,SMDPad,CuDef*%
G36*
G01*
X132670000Y-87373750D02*
X132670000Y-87886250D01*
G75*
G02*
X132451250Y-88105000I-218750J0D01*
G01*
X132013750Y-88105000D01*
G75*
G02*
X131795000Y-87886250I0J218750D01*
G01*
X131795000Y-87373750D01*
G75*
G02*
X132013750Y-87155000I218750J0D01*
G01*
X132451250Y-87155000D01*
G75*
G02*
X132670000Y-87373750I0J-218750D01*
G01*
G37*
%TD.AperFunction*%
%TO.P,D5,2*%
%TO.N,Net-(D5-Pad2)*%
%TA.AperFunction,SMDPad,CuDef*%
G36*
G01*
X131095000Y-87373750D02*
X131095000Y-87886250D01*
G75*
G02*
X130876250Y-88105000I-218750J0D01*
G01*
X130438750Y-88105000D01*
G75*
G02*
X130220000Y-87886250I0J218750D01*
G01*
X130220000Y-87373750D01*
G75*
G02*
X130438750Y-87155000I218750J0D01*
G01*
X130876250Y-87155000D01*
G75*
G02*
X131095000Y-87373750I0J-218750D01*
G01*
G37*
%TD.AperFunction*%
%TD*%
D14*
%TO.P,D6,1*%
%TO.N,Net-(D6-Pad1)*%
X129795000Y-80645000D03*
%TO.P,D6,2*%
%TO.N,GND*%
X133095000Y-80645000D03*
%TD*%
%TO.P,FB1,1*%
%TO.N,+24V*%
%TA.AperFunction,SMDPad,CuDef*%
G36*
G01*
X118340000Y-83438750D02*
X118340000Y-84201250D01*
G75*
G02*
X118121250Y-84420000I-218750J0D01*
G01*
X117683750Y-84420000D01*
G75*
G02*
X117465000Y-84201250I0J218750D01*
G01*
X117465000Y-83438750D01*
G75*
G02*
X117683750Y-83220000I218750J0D01*
G01*
X118121250Y-83220000D01*
G75*
G02*
X118340000Y-83438750I0J-218750D01*
G01*
G37*
%TD.AperFunction*%
%TO.P,FB1,2*%
%TO.N,Net-(FB1-Pad2)*%
%TA.AperFunction,SMDPad,CuDef*%
G36*
G01*
X116215000Y-83438750D02*
X116215000Y-84201250D01*
G75*
G02*
X115996250Y-84420000I-218750J0D01*
G01*
X115558750Y-84420000D01*
G75*
G02*
X115340000Y-84201250I0J218750D01*
G01*
X115340000Y-83438750D01*
G75*
G02*
X115558750Y-83220000I218750J0D01*
G01*
X115996250Y-83220000D01*
G75*
G02*
X116215000Y-83438750I0J-218750D01*
G01*
G37*
%TD.AperFunction*%
%TD*%
D15*
%TO.P,H1,1*%
%TO.N,GND*%
X176800749Y-131809251D03*
X173990000Y-130645000D03*
X171179251Y-131809251D03*
X170015000Y-134620000D03*
X171179251Y-137430749D03*
X173990000Y-138595000D03*
X176800749Y-137430749D03*
X177965000Y-134620000D03*
D16*
X173990000Y-134620000D03*
%TD*%
%TO.P,H2,1*%
%TO.N,GND*%
X173990000Y-66040000D03*
D15*
X177965000Y-66040000D03*
X176800749Y-68850749D03*
X173990000Y-70015000D03*
X171179251Y-68850749D03*
X170015000Y-66040000D03*
X171179251Y-63229251D03*
X173990000Y-62065000D03*
X176800749Y-63229251D03*
%TD*%
%TO.P,H3,1*%
%TO.N,GND*%
X108855749Y-63229251D03*
X106045000Y-62065000D03*
X103234251Y-63229251D03*
X102070000Y-66040000D03*
X103234251Y-68850749D03*
X106045000Y-70015000D03*
X108855749Y-68850749D03*
X110020000Y-66040000D03*
D16*
X106045000Y-66040000D03*
%TD*%
%TO.P,H4,1*%
%TO.N,GND*%
X106045000Y-134620000D03*
D15*
X110020000Y-134620000D03*
X108855749Y-137430749D03*
X106045000Y-138595000D03*
X103234251Y-137430749D03*
X102070000Y-134620000D03*
X103234251Y-131809251D03*
X106045000Y-130645000D03*
X108855749Y-131809251D03*
%TD*%
D12*
%TO.P,J4,2*%
%TO.N,+24V*%
X177800000Y-123912000D03*
%TO.P,J4,1*%
%TO.N,Net-(J4-Pad1)*%
%TA.AperFunction,ComponentPad*%
G36*
G01*
X177050000Y-120562000D02*
X178550000Y-120562000D01*
G75*
G02*
X178800000Y-120812000I0J-250000D01*
G01*
X178800000Y-122012000D01*
G75*
G02*
X178550000Y-122262000I-250000J0D01*
G01*
X177050000Y-122262000D01*
G75*
G02*
X176800000Y-122012000I0J250000D01*
G01*
X176800000Y-120812000D01*
G75*
G02*
X177050000Y-120562000I250000J0D01*
G01*
G37*
%TD.AperFunction*%
%TD*%
%TO.P,J5,1*%
%TO.N,Net-(J5-Pad1)*%
%TA.AperFunction,ComponentPad*%
G36*
G01*
X177050000Y-111926000D02*
X178550000Y-111926000D01*
G75*
G02*
X178800000Y-112176000I0J-250000D01*
G01*
X178800000Y-113376000D01*
G75*
G02*
X178550000Y-113626000I-250000J0D01*
G01*
X177050000Y-113626000D01*
G75*
G02*
X176800000Y-113376000I0J250000D01*
G01*
X176800000Y-112176000D01*
G75*
G02*
X177050000Y-111926000I250000J0D01*
G01*
G37*
%TD.AperFunction*%
%TO.P,J5,2*%
%TO.N,+24V*%
X177800000Y-115276000D03*
%TD*%
%TO.P,J7,2*%
%TO.N,+24V*%
X177800000Y-97496000D03*
%TO.P,J7,1*%
%TO.N,Net-(J7-Pad1)*%
%TA.AperFunction,ComponentPad*%
G36*
G01*
X177050000Y-94146000D02*
X178550000Y-94146000D01*
G75*
G02*
X178800000Y-94396000I0J-250000D01*
G01*
X178800000Y-95596000D01*
G75*
G02*
X178550000Y-95846000I-250000J0D01*
G01*
X177050000Y-95846000D01*
G75*
G02*
X176800000Y-95596000I0J250000D01*
G01*
X176800000Y-94396000D01*
G75*
G02*
X177050000Y-94146000I250000J0D01*
G01*
G37*
%TD.AperFunction*%
%TD*%
D17*
%TO.P,J8,1*%
%TO.N,Net-(FB1-Pad2)*%
X111760000Y-83820000D03*
%TO.P,J8,2*%
%TO.N,GND*%
%TA.AperFunction,ComponentPad*%
G36*
G01*
X104260000Y-84820000D02*
X104260000Y-82820000D01*
G75*
G02*
X105010000Y-82070000I750000J0D01*
G01*
X106510000Y-82070000D01*
G75*
G02*
X107260000Y-82820000I0J-750000D01*
G01*
X107260000Y-84820000D01*
G75*
G02*
X106510000Y-85570000I-750000J0D01*
G01*
X105010000Y-85570000D01*
G75*
G02*
X104260000Y-84820000I0J750000D01*
G01*
G37*
%TD.AperFunction*%
%TO.P,J8,3*%
%TO.N,N/C*%
%TA.AperFunction,ComponentPad*%
G36*
G01*
X107010000Y-89395000D02*
X107010000Y-87645000D01*
G75*
G02*
X107885000Y-86770000I875000J0D01*
G01*
X109635000Y-86770000D01*
G75*
G02*
X110510000Y-87645000I0J-875000D01*
G01*
X110510000Y-89395000D01*
G75*
G02*
X109635000Y-90270000I-875000J0D01*
G01*
X107885000Y-90270000D01*
G75*
G02*
X107010000Y-89395000I0J875000D01*
G01*
G37*
%TD.AperFunction*%
%TD*%
D12*
%TO.P,J10,2*%
%TO.N,+24V*%
X177800000Y-88352000D03*
%TO.P,J10,1*%
%TO.N,Net-(J10-Pad1)*%
%TA.AperFunction,ComponentPad*%
G36*
G01*
X177050000Y-85002000D02*
X178550000Y-85002000D01*
G75*
G02*
X178800000Y-85252000I0J-250000D01*
G01*
X178800000Y-86452000D01*
G75*
G02*
X178550000Y-86702000I-250000J0D01*
G01*
X177050000Y-86702000D01*
G75*
G02*
X176800000Y-86452000I0J250000D01*
G01*
X176800000Y-85252000D01*
G75*
G02*
X177050000Y-85002000I250000J0D01*
G01*
G37*
%TD.AperFunction*%
%TD*%
%TO.P,J11,1*%
%TO.N,Net-(J11-Pad1)*%
%TA.AperFunction,ComponentPad*%
G36*
G01*
X177050000Y-76366000D02*
X178550000Y-76366000D01*
G75*
G02*
X178800000Y-76616000I0J-250000D01*
G01*
X178800000Y-77816000D01*
G75*
G02*
X178550000Y-78066000I-250000J0D01*
G01*
X177050000Y-78066000D01*
G75*
G02*
X176800000Y-77816000I0J250000D01*
G01*
X176800000Y-76616000D01*
G75*
G02*
X177050000Y-76366000I250000J0D01*
G01*
G37*
%TD.AperFunction*%
%TO.P,J11,2*%
%TO.N,+24V*%
X177800000Y-79716000D03*
%TD*%
%TO.P,J12,1*%
%TO.N,C_LED_CTRL*%
%TA.AperFunction,ComponentPad*%
G36*
G01*
X125270000Y-137451000D02*
X125270000Y-138901000D01*
G75*
G02*
X125020000Y-139151000I-250000J0D01*
G01*
X123820000Y-139151000D01*
G75*
G02*
X123570000Y-138901000I0J250000D01*
G01*
X123570000Y-137451000D01*
G75*
G02*
X123820000Y-137201000I250000J0D01*
G01*
X125020000Y-137201000D01*
G75*
G02*
X125270000Y-137451000I0J-250000D01*
G01*
G37*
%TD.AperFunction*%
D18*
%TO.P,J12,2*%
%TO.N,GND*%
X121920000Y-138176000D03*
%TO.P,J12,3*%
%TO.N,+5V*%
X119420000Y-138176000D03*
%TD*%
D19*
%TO.P,Q1,1*%
%TO.N,LOAD_IN*%
X121174000Y-113858000D03*
%TO.P,Q1,2*%
%TO.N,LOAD_OUT*%
X121174000Y-115758000D03*
%TO.P,Q1,3*%
%TO.N,+5V*%
X123174000Y-114808000D03*
%TD*%
%TO.P,Q2,3*%
%TO.N,Net-(Q2-Pad3)*%
X164830000Y-121285000D03*
%TO.P,Q2,2*%
%TO.N,GND*%
X162830000Y-122235000D03*
%TO.P,Q2,1*%
%TO.N,Net-(Q2-Pad1)*%
X162830000Y-120335000D03*
%TD*%
%TO.P,Q3,1*%
%TO.N,Net-(Q3-Pad1)*%
X162830000Y-113985000D03*
%TO.P,Q3,2*%
%TO.N,GND*%
X162830000Y-115885000D03*
%TO.P,Q3,3*%
%TO.N,Net-(Q3-Pad3)*%
X164830000Y-114935000D03*
%TD*%
%TO.P,Q4,3*%
%TO.N,Net-(J4-Pad1)*%
X171180000Y-121285000D03*
%TO.P,Q4,2*%
%TO.N,Net-(Q4-Pad2)*%
X169180000Y-122235000D03*
%TO.P,Q4,1*%
%TO.N,Net-(Q2-Pad3)*%
X169180000Y-120335000D03*
%TD*%
%TO.P,Q5,3*%
%TO.N,Net-(J5-Pad1)*%
X171180000Y-114935000D03*
%TO.P,Q5,2*%
%TO.N,Net-(Q5-Pad2)*%
X169180000Y-115885000D03*
%TO.P,Q5,1*%
%TO.N,Net-(Q3-Pad3)*%
X169180000Y-113985000D03*
%TD*%
%TO.P,Q6,1*%
%TO.N,Net-(Q6-Pad1)*%
X162830000Y-102555000D03*
%TO.P,Q6,2*%
%TO.N,GND*%
X162830000Y-104455000D03*
%TO.P,Q6,3*%
%TO.N,Net-(Q6-Pad3)*%
X164830000Y-103505000D03*
%TD*%
%TO.P,Q7,1*%
%TO.N,Net-(Q7-Pad1)*%
X162830000Y-96205000D03*
%TO.P,Q7,2*%
%TO.N,GND*%
X162830000Y-98105000D03*
%TO.P,Q7,3*%
%TO.N,Net-(Q7-Pad3)*%
X164830000Y-97155000D03*
%TD*%
%TO.P,Q8,1*%
%TO.N,Net-(Q6-Pad3)*%
X169180000Y-102555000D03*
%TO.P,Q8,2*%
%TO.N,Net-(Q8-Pad2)*%
X169180000Y-104455000D03*
%TO.P,Q8,3*%
%TO.N,Net-(J6-Pad1)*%
X171180000Y-103505000D03*
%TD*%
%TO.P,Q9,3*%
%TO.N,Net-(J7-Pad1)*%
X171180000Y-97155000D03*
%TO.P,Q9,2*%
%TO.N,Net-(Q9-Pad2)*%
X169180000Y-98105000D03*
%TO.P,Q9,1*%
%TO.N,Net-(Q7-Pad3)*%
X169180000Y-96205000D03*
%TD*%
%TO.P,Q10,1*%
%TO.N,Net-(Q10-Pad1)*%
X162830000Y-84775000D03*
%TO.P,Q10,2*%
%TO.N,GND*%
X162830000Y-86675000D03*
%TO.P,Q10,3*%
%TO.N,Net-(Q10-Pad3)*%
X164830000Y-85725000D03*
%TD*%
%TO.P,Q11,1*%
%TO.N,Net-(Q11-Pad1)*%
X162830000Y-78425000D03*
%TO.P,Q11,2*%
%TO.N,GND*%
X162830000Y-80325000D03*
%TO.P,Q11,3*%
%TO.N,Net-(Q11-Pad3)*%
X164830000Y-79375000D03*
%TD*%
%TO.P,Q12,3*%
%TO.N,Net-(J10-Pad1)*%
X171180000Y-85725000D03*
%TO.P,Q12,2*%
%TO.N,Net-(Q12-Pad2)*%
X169180000Y-86675000D03*
%TO.P,Q12,1*%
%TO.N,Net-(Q10-Pad3)*%
X169180000Y-84775000D03*
%TD*%
%TO.P,Q13,3*%
%TO.N,Net-(J11-Pad1)*%
X171180000Y-79375000D03*
%TO.P,Q13,2*%
%TO.N,Net-(Q13-Pad2)*%
X169180000Y-80325000D03*
%TO.P,Q13,1*%
%TO.N,Net-(Q11-Pad3)*%
X169180000Y-78425000D03*
%TD*%
%TO.P,R1,2*%
%TO.N,INDICATOR*%
%TA.AperFunction,SMDPad,CuDef*%
G36*
G01*
X143362000Y-97199000D02*
X143912000Y-97199000D01*
G75*
G02*
X144112000Y-97399000I0J-200000D01*
G01*
X144112000Y-97799000D01*
G75*
G02*
X143912000Y-97999000I-200000J0D01*
G01*
X143362000Y-97999000D01*
G75*
G02*
X143162000Y-97799000I0J200000D01*
G01*
X143162000Y-97399000D01*
G75*
G02*
X143362000Y-97199000I200000J0D01*
G01*
G37*
%TD.AperFunction*%
%TO.P,R1,1*%
%TO.N,Net-(D1-Pad2)*%
%TA.AperFunction,SMDPad,CuDef*%
G36*
G01*
X143362000Y-95549000D02*
X143912000Y-95549000D01*
G75*
G02*
X144112000Y-95749000I0J-200000D01*
G01*
X144112000Y-96149000D01*
G75*
G02*
X143912000Y-96349000I-200000J0D01*
G01*
X143362000Y-96349000D01*
G75*
G02*
X143162000Y-96149000I0J200000D01*
G01*
X143162000Y-95749000D01*
G75*
G02*
X143362000Y-95549000I200000J0D01*
G01*
G37*
%TD.AperFunction*%
%TD*%
%TO.P,R2,2*%
%TO.N,CHN_0_CTRL*%
%TA.AperFunction,SMDPad,CuDef*%
G36*
G01*
X155365000Y-117750000D02*
X155365000Y-117200000D01*
G75*
G02*
X155565000Y-117000000I200000J0D01*
G01*
X155965000Y-117000000D01*
G75*
G02*
X156165000Y-117200000I0J-200000D01*
G01*
X156165000Y-117750000D01*
G75*
G02*
X155965000Y-117950000I-200000J0D01*
G01*
X155565000Y-117950000D01*
G75*
G02*
X155365000Y-117750000I0J200000D01*
G01*
G37*
%TD.AperFunction*%
%TO.P,R2,1*%
%TO.N,Net-(D2-Pad2)*%
%TA.AperFunction,SMDPad,CuDef*%
G36*
G01*
X153715000Y-117750000D02*
X153715000Y-117200000D01*
G75*
G02*
X153915000Y-117000000I200000J0D01*
G01*
X154315000Y-117000000D01*
G75*
G02*
X154515000Y-117200000I0J-200000D01*
G01*
X154515000Y-117750000D01*
G75*
G02*
X154315000Y-117950000I-200000J0D01*
G01*
X153915000Y-117950000D01*
G75*
G02*
X153715000Y-117750000I0J200000D01*
G01*
G37*
%TD.AperFunction*%
%TD*%
%TO.P,R3,1*%
%TO.N,Net-(D3-Pad2)*%
%TA.AperFunction,SMDPad,CuDef*%
G36*
G01*
X153080000Y-99335000D02*
X153080000Y-98785000D01*
G75*
G02*
X153280000Y-98585000I200000J0D01*
G01*
X153680000Y-98585000D01*
G75*
G02*
X153880000Y-98785000I0J-200000D01*
G01*
X153880000Y-99335000D01*
G75*
G02*
X153680000Y-99535000I-200000J0D01*
G01*
X153280000Y-99535000D01*
G75*
G02*
X153080000Y-99335000I0J200000D01*
G01*
G37*
%TD.AperFunction*%
%TO.P,R3,2*%
%TO.N,CHN_1_CTRL*%
%TA.AperFunction,SMDPad,CuDef*%
G36*
G01*
X154730000Y-99335000D02*
X154730000Y-98785000D01*
G75*
G02*
X154930000Y-98585000I200000J0D01*
G01*
X155330000Y-98585000D01*
G75*
G02*
X155530000Y-98785000I0J-200000D01*
G01*
X155530000Y-99335000D01*
G75*
G02*
X155330000Y-99535000I-200000J0D01*
G01*
X154930000Y-99535000D01*
G75*
G02*
X154730000Y-99335000I0J200000D01*
G01*
G37*
%TD.AperFunction*%
%TD*%
%TO.P,R4,2*%
%TO.N,CHN_2_CTRL*%
%TA.AperFunction,SMDPad,CuDef*%
G36*
G01*
X154730000Y-81555000D02*
X154730000Y-81005000D01*
G75*
G02*
X154930000Y-80805000I200000J0D01*
G01*
X155330000Y-80805000D01*
G75*
G02*
X155530000Y-81005000I0J-200000D01*
G01*
X155530000Y-81555000D01*
G75*
G02*
X155330000Y-81755000I-200000J0D01*
G01*
X154930000Y-81755000D01*
G75*
G02*
X154730000Y-81555000I0J200000D01*
G01*
G37*
%TD.AperFunction*%
%TO.P,R4,1*%
%TO.N,Net-(D4-Pad2)*%
%TA.AperFunction,SMDPad,CuDef*%
G36*
G01*
X153080000Y-81555000D02*
X153080000Y-81005000D01*
G75*
G02*
X153280000Y-80805000I200000J0D01*
G01*
X153680000Y-80805000D01*
G75*
G02*
X153880000Y-81005000I0J-200000D01*
G01*
X153880000Y-81555000D01*
G75*
G02*
X153680000Y-81755000I-200000J0D01*
G01*
X153280000Y-81755000D01*
G75*
G02*
X153080000Y-81555000I0J200000D01*
G01*
G37*
%TD.AperFunction*%
%TD*%
%TO.P,R5,1*%
%TO.N,Net-(D5-Pad2)*%
%TA.AperFunction,SMDPad,CuDef*%
G36*
G01*
X130220000Y-86000000D02*
X130220000Y-85450000D01*
G75*
G02*
X130420000Y-85250000I200000J0D01*
G01*
X130820000Y-85250000D01*
G75*
G02*
X131020000Y-85450000I0J-200000D01*
G01*
X131020000Y-86000000D01*
G75*
G02*
X130820000Y-86200000I-200000J0D01*
G01*
X130420000Y-86200000D01*
G75*
G02*
X130220000Y-86000000I0J200000D01*
G01*
G37*
%TD.AperFunction*%
%TO.P,R5,2*%
%TO.N,+5V*%
%TA.AperFunction,SMDPad,CuDef*%
G36*
G01*
X131870000Y-86000000D02*
X131870000Y-85450000D01*
G75*
G02*
X132070000Y-85250000I200000J0D01*
G01*
X132470000Y-85250000D01*
G75*
G02*
X132670000Y-85450000I0J-200000D01*
G01*
X132670000Y-86000000D01*
G75*
G02*
X132470000Y-86200000I-200000J0D01*
G01*
X132070000Y-86200000D01*
G75*
G02*
X131870000Y-86000000I0J200000D01*
G01*
G37*
%TD.AperFunction*%
%TD*%
%TO.P,R7,2*%
%TO.N,LOAD_IN*%
%TA.AperFunction,SMDPad,CuDef*%
G36*
G01*
X120509000Y-111818000D02*
X120509000Y-111448000D01*
G75*
G02*
X120644000Y-111313000I135000J0D01*
G01*
X120914000Y-111313000D01*
G75*
G02*
X121049000Y-111448000I0J-135000D01*
G01*
X121049000Y-111818000D01*
G75*
G02*
X120914000Y-111953000I-135000J0D01*
G01*
X120644000Y-111953000D01*
G75*
G02*
X120509000Y-111818000I0J135000D01*
G01*
G37*
%TD.AperFunction*%
%TO.P,R7,1*%
%TO.N,GND*%
%TA.AperFunction,SMDPad,CuDef*%
G36*
G01*
X119489000Y-111818000D02*
X119489000Y-111448000D01*
G75*
G02*
X119624000Y-111313000I135000J0D01*
G01*
X119894000Y-111313000D01*
G75*
G02*
X120029000Y-111448000I0J-135000D01*
G01*
X120029000Y-111818000D01*
G75*
G02*
X119894000Y-111953000I-135000J0D01*
G01*
X119624000Y-111953000D01*
G75*
G02*
X119489000Y-111818000I0J135000D01*
G01*
G37*
%TD.AperFunction*%
%TD*%
%TO.P,R9,1*%
%TO.N,Net-(R9-Pad1)*%
%TA.AperFunction,SMDPad,CuDef*%
G36*
G01*
X138615000Y-114445000D02*
X138245000Y-114445000D01*
G75*
G02*
X138110000Y-114310000I0J135000D01*
G01*
X138110000Y-114040000D01*
G75*
G02*
X138245000Y-113905000I135000J0D01*
G01*
X138615000Y-113905000D01*
G75*
G02*
X138750000Y-114040000I0J-135000D01*
G01*
X138750000Y-114310000D01*
G75*
G02*
X138615000Y-114445000I-135000J0D01*
G01*
G37*
%TD.AperFunction*%
%TO.P,R9,2*%
%TO.N,FS1*%
%TA.AperFunction,SMDPad,CuDef*%
G36*
G01*
X138615000Y-113425000D02*
X138245000Y-113425000D01*
G75*
G02*
X138110000Y-113290000I0J135000D01*
G01*
X138110000Y-113020000D01*
G75*
G02*
X138245000Y-112885000I135000J0D01*
G01*
X138615000Y-112885000D01*
G75*
G02*
X138750000Y-113020000I0J-135000D01*
G01*
X138750000Y-113290000D01*
G75*
G02*
X138615000Y-113425000I-135000J0D01*
G01*
G37*
%TD.AperFunction*%
%TD*%
%TO.P,R10,1*%
%TO.N,Net-(R10-Pad1)*%
%TA.AperFunction,SMDPad,CuDef*%
G36*
G01*
X148140000Y-114445000D02*
X147770000Y-114445000D01*
G75*
G02*
X147635000Y-114310000I0J135000D01*
G01*
X147635000Y-114040000D01*
G75*
G02*
X147770000Y-113905000I135000J0D01*
G01*
X148140000Y-113905000D01*
G75*
G02*
X148275000Y-114040000I0J-135000D01*
G01*
X148275000Y-114310000D01*
G75*
G02*
X148140000Y-114445000I-135000J0D01*
G01*
G37*
%TD.AperFunction*%
%TO.P,R10,2*%
%TO.N,FS2*%
%TA.AperFunction,SMDPad,CuDef*%
G36*
G01*
X148140000Y-113425000D02*
X147770000Y-113425000D01*
G75*
G02*
X147635000Y-113290000I0J135000D01*
G01*
X147635000Y-113020000D01*
G75*
G02*
X147770000Y-112885000I135000J0D01*
G01*
X148140000Y-112885000D01*
G75*
G02*
X148275000Y-113020000I0J-135000D01*
G01*
X148275000Y-113290000D01*
G75*
G02*
X148140000Y-113425000I-135000J0D01*
G01*
G37*
%TD.AperFunction*%
%TD*%
%TO.P,R11,2*%
%TO.N,LOAD_OUT*%
%TA.AperFunction,SMDPad,CuDef*%
G36*
G01*
X118814000Y-114413000D02*
X119184000Y-114413000D01*
G75*
G02*
X119319000Y-114548000I0J-135000D01*
G01*
X119319000Y-114818000D01*
G75*
G02*
X119184000Y-114953000I-135000J0D01*
G01*
X118814000Y-114953000D01*
G75*
G02*
X118679000Y-114818000I0J135000D01*
G01*
X118679000Y-114548000D01*
G75*
G02*
X118814000Y-114413000I135000J0D01*
G01*
G37*
%TD.AperFunction*%
%TO.P,R11,1*%
%TO.N,GND*%
%TA.AperFunction,SMDPad,CuDef*%
G36*
G01*
X118814000Y-113393000D02*
X119184000Y-113393000D01*
G75*
G02*
X119319000Y-113528000I0J-135000D01*
G01*
X119319000Y-113798000D01*
G75*
G02*
X119184000Y-113933000I-135000J0D01*
G01*
X118814000Y-113933000D01*
G75*
G02*
X118679000Y-113798000I0J135000D01*
G01*
X118679000Y-113528000D01*
G75*
G02*
X118814000Y-113393000I135000J0D01*
G01*
G37*
%TD.AperFunction*%
%TD*%
%TO.P,R12,2*%
%TO.N,TEMP_SEN*%
%TA.AperFunction,SMDPad,CuDef*%
G36*
G01*
X121735000Y-99300000D02*
X122105000Y-99300000D01*
G75*
G02*
X122240000Y-99435000I0J-135000D01*
G01*
X122240000Y-99705000D01*
G75*
G02*
X122105000Y-99840000I-135000J0D01*
G01*
X121735000Y-99840000D01*
G75*
G02*
X121600000Y-99705000I0J135000D01*
G01*
X121600000Y-99435000D01*
G75*
G02*
X121735000Y-99300000I135000J0D01*
G01*
G37*
%TD.AperFunction*%
%TO.P,R12,1*%
%TO.N,GND*%
%TA.AperFunction,SMDPad,CuDef*%
G36*
G01*
X121735000Y-98280000D02*
X122105000Y-98280000D01*
G75*
G02*
X122240000Y-98415000I0J-135000D01*
G01*
X122240000Y-98685000D01*
G75*
G02*
X122105000Y-98820000I-135000J0D01*
G01*
X121735000Y-98820000D01*
G75*
G02*
X121600000Y-98685000I0J135000D01*
G01*
X121600000Y-98415000D01*
G75*
G02*
X121735000Y-98280000I135000J0D01*
G01*
G37*
%TD.AperFunction*%
%TD*%
%TO.P,R13,1*%
%TO.N,CHN_0_CTRL*%
%TA.AperFunction,SMDPad,CuDef*%
G36*
G01*
X166820000Y-119235000D02*
X167190000Y-119235000D01*
G75*
G02*
X167325000Y-119370000I0J-135000D01*
G01*
X167325000Y-119640000D01*
G75*
G02*
X167190000Y-119775000I-135000J0D01*
G01*
X166820000Y-119775000D01*
G75*
G02*
X166685000Y-119640000I0J135000D01*
G01*
X166685000Y-119370000D01*
G75*
G02*
X166820000Y-119235000I135000J0D01*
G01*
G37*
%TD.AperFunction*%
%TO.P,R13,2*%
%TO.N,Net-(Q2-Pad3)*%
%TA.AperFunction,SMDPad,CuDef*%
G36*
G01*
X166820000Y-120255000D02*
X167190000Y-120255000D01*
G75*
G02*
X167325000Y-120390000I0J-135000D01*
G01*
X167325000Y-120660000D01*
G75*
G02*
X167190000Y-120795000I-135000J0D01*
G01*
X166820000Y-120795000D01*
G75*
G02*
X166685000Y-120660000I0J135000D01*
G01*
X166685000Y-120390000D01*
G75*
G02*
X166820000Y-120255000I135000J0D01*
G01*
G37*
%TD.AperFunction*%
%TD*%
%TO.P,R14,1*%
%TO.N,CHN_0_CTRL*%
%TA.AperFunction,SMDPad,CuDef*%
G36*
G01*
X166820000Y-112250000D02*
X167190000Y-112250000D01*
G75*
G02*
X167325000Y-112385000I0J-135000D01*
G01*
X167325000Y-112655000D01*
G75*
G02*
X167190000Y-112790000I-135000J0D01*
G01*
X166820000Y-112790000D01*
G75*
G02*
X166685000Y-112655000I0J135000D01*
G01*
X166685000Y-112385000D01*
G75*
G02*
X166820000Y-112250000I135000J0D01*
G01*
G37*
%TD.AperFunction*%
%TO.P,R14,2*%
%TO.N,Net-(Q3-Pad3)*%
%TA.AperFunction,SMDPad,CuDef*%
G36*
G01*
X166820000Y-113270000D02*
X167190000Y-113270000D01*
G75*
G02*
X167325000Y-113405000I0J-135000D01*
G01*
X167325000Y-113675000D01*
G75*
G02*
X167190000Y-113810000I-135000J0D01*
G01*
X166820000Y-113810000D01*
G75*
G02*
X166685000Y-113675000I0J135000D01*
G01*
X166685000Y-113405000D01*
G75*
G02*
X166820000Y-113270000I135000J0D01*
G01*
G37*
%TD.AperFunction*%
%TD*%
%TO.P,R15,2*%
%TO.N,Net-(Q2-Pad1)*%
%TA.AperFunction,SMDPad,CuDef*%
G36*
G01*
X162800000Y-118295000D02*
X162800000Y-117925000D01*
G75*
G02*
X162935000Y-117790000I135000J0D01*
G01*
X163205000Y-117790000D01*
G75*
G02*
X163340000Y-117925000I0J-135000D01*
G01*
X163340000Y-118295000D01*
G75*
G02*
X163205000Y-118430000I-135000J0D01*
G01*
X162935000Y-118430000D01*
G75*
G02*
X162800000Y-118295000I0J135000D01*
G01*
G37*
%TD.AperFunction*%
%TO.P,R15,1*%
%TO.N,Net-(Q4-Pad2)*%
%TA.AperFunction,SMDPad,CuDef*%
G36*
G01*
X161780000Y-118295000D02*
X161780000Y-117925000D01*
G75*
G02*
X161915000Y-117790000I135000J0D01*
G01*
X162185000Y-117790000D01*
G75*
G02*
X162320000Y-117925000I0J-135000D01*
G01*
X162320000Y-118295000D01*
G75*
G02*
X162185000Y-118430000I-135000J0D01*
G01*
X161915000Y-118430000D01*
G75*
G02*
X161780000Y-118295000I0J135000D01*
G01*
G37*
%TD.AperFunction*%
%TD*%
%TO.P,R16,2*%
%TO.N,Net-(Q3-Pad1)*%
%TA.AperFunction,SMDPad,CuDef*%
G36*
G01*
X162800000Y-111945000D02*
X162800000Y-111575000D01*
G75*
G02*
X162935000Y-111440000I135000J0D01*
G01*
X163205000Y-111440000D01*
G75*
G02*
X163340000Y-111575000I0J-135000D01*
G01*
X163340000Y-111945000D01*
G75*
G02*
X163205000Y-112080000I-135000J0D01*
G01*
X162935000Y-112080000D01*
G75*
G02*
X162800000Y-111945000I0J135000D01*
G01*
G37*
%TD.AperFunction*%
%TO.P,R16,1*%
%TO.N,Net-(Q5-Pad2)*%
%TA.AperFunction,SMDPad,CuDef*%
G36*
G01*
X161780000Y-111945000D02*
X161780000Y-111575000D01*
G75*
G02*
X161915000Y-111440000I135000J0D01*
G01*
X162185000Y-111440000D01*
G75*
G02*
X162320000Y-111575000I0J-135000D01*
G01*
X162320000Y-111945000D01*
G75*
G02*
X162185000Y-112080000I-135000J0D01*
G01*
X161915000Y-112080000D01*
G75*
G02*
X161780000Y-111945000I0J135000D01*
G01*
G37*
%TD.AperFunction*%
%TD*%
%TO.P,R19,1*%
%TO.N,CHN_1_CTRL*%
%TA.AperFunction,SMDPad,CuDef*%
G36*
G01*
X166820000Y-101455000D02*
X167190000Y-101455000D01*
G75*
G02*
X167325000Y-101590000I0J-135000D01*
G01*
X167325000Y-101860000D01*
G75*
G02*
X167190000Y-101995000I-135000J0D01*
G01*
X166820000Y-101995000D01*
G75*
G02*
X166685000Y-101860000I0J135000D01*
G01*
X166685000Y-101590000D01*
G75*
G02*
X166820000Y-101455000I135000J0D01*
G01*
G37*
%TD.AperFunction*%
%TO.P,R19,2*%
%TO.N,Net-(Q6-Pad3)*%
%TA.AperFunction,SMDPad,CuDef*%
G36*
G01*
X166820000Y-102475000D02*
X167190000Y-102475000D01*
G75*
G02*
X167325000Y-102610000I0J-135000D01*
G01*
X167325000Y-102880000D01*
G75*
G02*
X167190000Y-103015000I-135000J0D01*
G01*
X166820000Y-103015000D01*
G75*
G02*
X166685000Y-102880000I0J135000D01*
G01*
X166685000Y-102610000D01*
G75*
G02*
X166820000Y-102475000I135000J0D01*
G01*
G37*
%TD.AperFunction*%
%TD*%
%TO.P,R20,1*%
%TO.N,CHN_1_CTRL*%
%TA.AperFunction,SMDPad,CuDef*%
G36*
G01*
X166820000Y-95105000D02*
X167190000Y-95105000D01*
G75*
G02*
X167325000Y-95240000I0J-135000D01*
G01*
X167325000Y-95510000D01*
G75*
G02*
X167190000Y-95645000I-135000J0D01*
G01*
X166820000Y-95645000D01*
G75*
G02*
X166685000Y-95510000I0J135000D01*
G01*
X166685000Y-95240000D01*
G75*
G02*
X166820000Y-95105000I135000J0D01*
G01*
G37*
%TD.AperFunction*%
%TO.P,R20,2*%
%TO.N,Net-(Q7-Pad3)*%
%TA.AperFunction,SMDPad,CuDef*%
G36*
G01*
X166820000Y-96125000D02*
X167190000Y-96125000D01*
G75*
G02*
X167325000Y-96260000I0J-135000D01*
G01*
X167325000Y-96530000D01*
G75*
G02*
X167190000Y-96665000I-135000J0D01*
G01*
X166820000Y-96665000D01*
G75*
G02*
X166685000Y-96530000I0J135000D01*
G01*
X166685000Y-96260000D01*
G75*
G02*
X166820000Y-96125000I135000J0D01*
G01*
G37*
%TD.AperFunction*%
%TD*%
%TO.P,R21,2*%
%TO.N,Net-(Q6-Pad1)*%
%TA.AperFunction,SMDPad,CuDef*%
G36*
G01*
X162165000Y-101150000D02*
X162165000Y-100780000D01*
G75*
G02*
X162300000Y-100645000I135000J0D01*
G01*
X162570000Y-100645000D01*
G75*
G02*
X162705000Y-100780000I0J-135000D01*
G01*
X162705000Y-101150000D01*
G75*
G02*
X162570000Y-101285000I-135000J0D01*
G01*
X162300000Y-101285000D01*
G75*
G02*
X162165000Y-101150000I0J135000D01*
G01*
G37*
%TD.AperFunction*%
%TO.P,R21,1*%
%TO.N,Net-(Q8-Pad2)*%
%TA.AperFunction,SMDPad,CuDef*%
G36*
G01*
X161145000Y-101150000D02*
X161145000Y-100780000D01*
G75*
G02*
X161280000Y-100645000I135000J0D01*
G01*
X161550000Y-100645000D01*
G75*
G02*
X161685000Y-100780000I0J-135000D01*
G01*
X161685000Y-101150000D01*
G75*
G02*
X161550000Y-101285000I-135000J0D01*
G01*
X161280000Y-101285000D01*
G75*
G02*
X161145000Y-101150000I0J135000D01*
G01*
G37*
%TD.AperFunction*%
%TD*%
%TO.P,R22,2*%
%TO.N,Net-(Q7-Pad1)*%
%TA.AperFunction,SMDPad,CuDef*%
G36*
G01*
X162165000Y-94165000D02*
X162165000Y-93795000D01*
G75*
G02*
X162300000Y-93660000I135000J0D01*
G01*
X162570000Y-93660000D01*
G75*
G02*
X162705000Y-93795000I0J-135000D01*
G01*
X162705000Y-94165000D01*
G75*
G02*
X162570000Y-94300000I-135000J0D01*
G01*
X162300000Y-94300000D01*
G75*
G02*
X162165000Y-94165000I0J135000D01*
G01*
G37*
%TD.AperFunction*%
%TO.P,R22,1*%
%TO.N,Net-(Q9-Pad2)*%
%TA.AperFunction,SMDPad,CuDef*%
G36*
G01*
X161145000Y-94165000D02*
X161145000Y-93795000D01*
G75*
G02*
X161280000Y-93660000I135000J0D01*
G01*
X161550000Y-93660000D01*
G75*
G02*
X161685000Y-93795000I0J-135000D01*
G01*
X161685000Y-94165000D01*
G75*
G02*
X161550000Y-94300000I-135000J0D01*
G01*
X161280000Y-94300000D01*
G75*
G02*
X161145000Y-94165000I0J135000D01*
G01*
G37*
%TD.AperFunction*%
%TD*%
%TO.P,R25,2*%
%TO.N,Net-(Q10-Pad3)*%
%TA.AperFunction,SMDPad,CuDef*%
G36*
G01*
X166820000Y-84695000D02*
X167190000Y-84695000D01*
G75*
G02*
X167325000Y-84830000I0J-135000D01*
G01*
X167325000Y-85100000D01*
G75*
G02*
X167190000Y-85235000I-135000J0D01*
G01*
X166820000Y-85235000D01*
G75*
G02*
X166685000Y-85100000I0J135000D01*
G01*
X166685000Y-84830000D01*
G75*
G02*
X166820000Y-84695000I135000J0D01*
G01*
G37*
%TD.AperFunction*%
%TO.P,R25,1*%
%TO.N,CHN_2_CTRL*%
%TA.AperFunction,SMDPad,CuDef*%
G36*
G01*
X166820000Y-83675000D02*
X167190000Y-83675000D01*
G75*
G02*
X167325000Y-83810000I0J-135000D01*
G01*
X167325000Y-84080000D01*
G75*
G02*
X167190000Y-84215000I-135000J0D01*
G01*
X166820000Y-84215000D01*
G75*
G02*
X166685000Y-84080000I0J135000D01*
G01*
X166685000Y-83810000D01*
G75*
G02*
X166820000Y-83675000I135000J0D01*
G01*
G37*
%TD.AperFunction*%
%TD*%
%TO.P,R26,1*%
%TO.N,CHN_2_CTRL*%
%TA.AperFunction,SMDPad,CuDef*%
G36*
G01*
X166820000Y-77325000D02*
X167190000Y-77325000D01*
G75*
G02*
X167325000Y-77460000I0J-135000D01*
G01*
X167325000Y-77730000D01*
G75*
G02*
X167190000Y-77865000I-135000J0D01*
G01*
X166820000Y-77865000D01*
G75*
G02*
X166685000Y-77730000I0J135000D01*
G01*
X166685000Y-77460000D01*
G75*
G02*
X166820000Y-77325000I135000J0D01*
G01*
G37*
%TD.AperFunction*%
%TO.P,R26,2*%
%TO.N,Net-(Q11-Pad3)*%
%TA.AperFunction,SMDPad,CuDef*%
G36*
G01*
X166820000Y-78345000D02*
X167190000Y-78345000D01*
G75*
G02*
X167325000Y-78480000I0J-135000D01*
G01*
X167325000Y-78750000D01*
G75*
G02*
X167190000Y-78885000I-135000J0D01*
G01*
X166820000Y-78885000D01*
G75*
G02*
X166685000Y-78750000I0J135000D01*
G01*
X166685000Y-78480000D01*
G75*
G02*
X166820000Y-78345000I135000J0D01*
G01*
G37*
%TD.AperFunction*%
%TD*%
%TO.P,R28,1*%
%TO.N,Net-(Q12-Pad2)*%
%TA.AperFunction,SMDPad,CuDef*%
G36*
G01*
X160510000Y-83370000D02*
X160510000Y-83000000D01*
G75*
G02*
X160645000Y-82865000I135000J0D01*
G01*
X160915000Y-82865000D01*
G75*
G02*
X161050000Y-83000000I0J-135000D01*
G01*
X161050000Y-83370000D01*
G75*
G02*
X160915000Y-83505000I-135000J0D01*
G01*
X160645000Y-83505000D01*
G75*
G02*
X160510000Y-83370000I0J135000D01*
G01*
G37*
%TD.AperFunction*%
%TO.P,R28,2*%
%TO.N,Net-(Q10-Pad1)*%
%TA.AperFunction,SMDPad,CuDef*%
G36*
G01*
X161530000Y-83370000D02*
X161530000Y-83000000D01*
G75*
G02*
X161665000Y-82865000I135000J0D01*
G01*
X161935000Y-82865000D01*
G75*
G02*
X162070000Y-83000000I0J-135000D01*
G01*
X162070000Y-83370000D01*
G75*
G02*
X161935000Y-83505000I-135000J0D01*
G01*
X161665000Y-83505000D01*
G75*
G02*
X161530000Y-83370000I0J135000D01*
G01*
G37*
%TD.AperFunction*%
%TD*%
%TO.P,R29,2*%
%TO.N,Net-(Q11-Pad1)*%
%TA.AperFunction,SMDPad,CuDef*%
G36*
G01*
X161530000Y-77020000D02*
X161530000Y-76650000D01*
G75*
G02*
X161665000Y-76515000I135000J0D01*
G01*
X161935000Y-76515000D01*
G75*
G02*
X162070000Y-76650000I0J-135000D01*
G01*
X162070000Y-77020000D01*
G75*
G02*
X161935000Y-77155000I-135000J0D01*
G01*
X161665000Y-77155000D01*
G75*
G02*
X161530000Y-77020000I0J135000D01*
G01*
G37*
%TD.AperFunction*%
%TO.P,R29,1*%
%TO.N,Net-(Q13-Pad2)*%
%TA.AperFunction,SMDPad,CuDef*%
G36*
G01*
X160510000Y-77020000D02*
X160510000Y-76650000D01*
G75*
G02*
X160645000Y-76515000I135000J0D01*
G01*
X160915000Y-76515000D01*
G75*
G02*
X161050000Y-76650000I0J-135000D01*
G01*
X161050000Y-77020000D01*
G75*
G02*
X160915000Y-77155000I-135000J0D01*
G01*
X160645000Y-77155000D01*
G75*
G02*
X160510000Y-77020000I0J135000D01*
G01*
G37*
%TD.AperFunction*%
%TD*%
D20*
%TO.P,TP4,1*%
%TO.N,FS1*%
X138430000Y-111125000D03*
%TD*%
%TO.P,TP5,1*%
%TO.N,FS2*%
X147955000Y-111125000D03*
%TD*%
%TO.P,TP10,1*%
%TO.N,CHN_0_CTRL*%
X156210000Y-114300000D03*
%TD*%
%TO.P,TP12,1*%
%TO.N,CHN_1_CTRL*%
X156210000Y-95885000D03*
%TD*%
%TO.P,TP14,1*%
%TO.N,CHN_2_CTRL*%
X155575000Y-78105000D03*
%TD*%
%TO.P,U1,1*%
%TO.N,Net-(U1-Pad1)*%
%TA.AperFunction,SMDPad,CuDef*%
G36*
G01*
X140252500Y-100520000D02*
X140377500Y-100520000D01*
G75*
G02*
X140440000Y-100582500I0J-62500D01*
G01*
X140440000Y-101282500D01*
G75*
G02*
X140377500Y-101345000I-62500J0D01*
G01*
X140252500Y-101345000D01*
G75*
G02*
X140190000Y-101282500I0J62500D01*
G01*
X140190000Y-100582500D01*
G75*
G02*
X140252500Y-100520000I62500J0D01*
G01*
G37*
%TD.AperFunction*%
%TO.P,U1,2*%
%TO.N,Net-(U1-Pad2)*%
%TA.AperFunction,SMDPad,CuDef*%
G36*
G01*
X139752500Y-100520000D02*
X139877500Y-100520000D01*
G75*
G02*
X139940000Y-100582500I0J-62500D01*
G01*
X139940000Y-101282500D01*
G75*
G02*
X139877500Y-101345000I-62500J0D01*
G01*
X139752500Y-101345000D01*
G75*
G02*
X139690000Y-101282500I0J62500D01*
G01*
X139690000Y-100582500D01*
G75*
G02*
X139752500Y-100520000I62500J0D01*
G01*
G37*
%TD.AperFunction*%
%TO.P,U1,3*%
%TO.N,GND*%
%TA.AperFunction,SMDPad,CuDef*%
G36*
G01*
X139252500Y-100520000D02*
X139377500Y-100520000D01*
G75*
G02*
X139440000Y-100582500I0J-62500D01*
G01*
X139440000Y-101282500D01*
G75*
G02*
X139377500Y-101345000I-62500J0D01*
G01*
X139252500Y-101345000D01*
G75*
G02*
X139190000Y-101282500I0J62500D01*
G01*
X139190000Y-100582500D01*
G75*
G02*
X139252500Y-100520000I62500J0D01*
G01*
G37*
%TD.AperFunction*%
%TO.P,U1,4*%
%TO.N,+5V*%
%TA.AperFunction,SMDPad,CuDef*%
G36*
G01*
X138752500Y-100520000D02*
X138877500Y-100520000D01*
G75*
G02*
X138940000Y-100582500I0J-62500D01*
G01*
X138940000Y-101282500D01*
G75*
G02*
X138877500Y-101345000I-62500J0D01*
G01*
X138752500Y-101345000D01*
G75*
G02*
X138690000Y-101282500I0J62500D01*
G01*
X138690000Y-100582500D01*
G75*
G02*
X138752500Y-100520000I62500J0D01*
G01*
G37*
%TD.AperFunction*%
%TO.P,U1,5*%
%TO.N,Net-(U1-Pad5)*%
%TA.AperFunction,SMDPad,CuDef*%
G36*
G01*
X138252500Y-100520000D02*
X138377500Y-100520000D01*
G75*
G02*
X138440000Y-100582500I0J-62500D01*
G01*
X138440000Y-101282500D01*
G75*
G02*
X138377500Y-101345000I-62500J0D01*
G01*
X138252500Y-101345000D01*
G75*
G02*
X138190000Y-101282500I0J62500D01*
G01*
X138190000Y-100582500D01*
G75*
G02*
X138252500Y-100520000I62500J0D01*
G01*
G37*
%TD.AperFunction*%
%TO.P,U1,6*%
%TO.N,TEMP_SEN*%
%TA.AperFunction,SMDPad,CuDef*%
G36*
G01*
X137752500Y-100520000D02*
X137877500Y-100520000D01*
G75*
G02*
X137940000Y-100582500I0J-62500D01*
G01*
X137940000Y-101282500D01*
G75*
G02*
X137877500Y-101345000I-62500J0D01*
G01*
X137752500Y-101345000D01*
G75*
G02*
X137690000Y-101282500I0J62500D01*
G01*
X137690000Y-100582500D01*
G75*
G02*
X137752500Y-100520000I62500J0D01*
G01*
G37*
%TD.AperFunction*%
%TO.P,U1,7*%
%TO.N,C_LED_CTRL*%
%TA.AperFunction,SMDPad,CuDef*%
G36*
G01*
X136777500Y-101495000D02*
X137477500Y-101495000D01*
G75*
G02*
X137540000Y-101557500I0J-62500D01*
G01*
X137540000Y-101682500D01*
G75*
G02*
X137477500Y-101745000I-62500J0D01*
G01*
X136777500Y-101745000D01*
G75*
G02*
X136715000Y-101682500I0J62500D01*
G01*
X136715000Y-101557500D01*
G75*
G02*
X136777500Y-101495000I62500J0D01*
G01*
G37*
%TD.AperFunction*%
%TO.P,U1,8*%
%TO.N,Net-(U1-Pad8)*%
%TA.AperFunction,SMDPad,CuDef*%
G36*
G01*
X136777500Y-101995000D02*
X137477500Y-101995000D01*
G75*
G02*
X137540000Y-102057500I0J-62500D01*
G01*
X137540000Y-102182500D01*
G75*
G02*
X137477500Y-102245000I-62500J0D01*
G01*
X136777500Y-102245000D01*
G75*
G02*
X136715000Y-102182500I0J62500D01*
G01*
X136715000Y-102057500D01*
G75*
G02*
X136777500Y-101995000I62500J0D01*
G01*
G37*
%TD.AperFunction*%
%TO.P,U1,9*%
%TO.N,Net-(U1-Pad9)*%
%TA.AperFunction,SMDPad,CuDef*%
G36*
G01*
X136777500Y-102495000D02*
X137477500Y-102495000D01*
G75*
G02*
X137540000Y-102557500I0J-62500D01*
G01*
X137540000Y-102682500D01*
G75*
G02*
X137477500Y-102745000I-62500J0D01*
G01*
X136777500Y-102745000D01*
G75*
G02*
X136715000Y-102682500I0J62500D01*
G01*
X136715000Y-102557500D01*
G75*
G02*
X136777500Y-102495000I62500J0D01*
G01*
G37*
%TD.AperFunction*%
%TO.P,U1,10*%
%TO.N,Net-(U1-Pad10)*%
%TA.AperFunction,SMDPad,CuDef*%
G36*
G01*
X136777500Y-102995000D02*
X137477500Y-102995000D01*
G75*
G02*
X137540000Y-103057500I0J-62500D01*
G01*
X137540000Y-103182500D01*
G75*
G02*
X137477500Y-103245000I-62500J0D01*
G01*
X136777500Y-103245000D01*
G75*
G02*
X136715000Y-103182500I0J62500D01*
G01*
X136715000Y-103057500D01*
G75*
G02*
X136777500Y-102995000I62500J0D01*
G01*
G37*
%TD.AperFunction*%
%TO.P,U1,11*%
%TO.N,Net-(U1-Pad11)*%
%TA.AperFunction,SMDPad,CuDef*%
G36*
G01*
X136777500Y-103495000D02*
X137477500Y-103495000D01*
G75*
G02*
X137540000Y-103557500I0J-62500D01*
G01*
X137540000Y-103682500D01*
G75*
G02*
X137477500Y-103745000I-62500J0D01*
G01*
X136777500Y-103745000D01*
G75*
G02*
X136715000Y-103682500I0J62500D01*
G01*
X136715000Y-103557500D01*
G75*
G02*
X136777500Y-103495000I62500J0D01*
G01*
G37*
%TD.AperFunction*%
%TO.P,U1,12*%
%TO.N,LOAD_IN*%
%TA.AperFunction,SMDPad,CuDef*%
G36*
G01*
X136777500Y-103995000D02*
X137477500Y-103995000D01*
G75*
G02*
X137540000Y-104057500I0J-62500D01*
G01*
X137540000Y-104182500D01*
G75*
G02*
X137477500Y-104245000I-62500J0D01*
G01*
X136777500Y-104245000D01*
G75*
G02*
X136715000Y-104182500I0J62500D01*
G01*
X136715000Y-104057500D01*
G75*
G02*
X136777500Y-103995000I62500J0D01*
G01*
G37*
%TD.AperFunction*%
%TO.P,U1,13*%
%TO.N,RX*%
%TA.AperFunction,SMDPad,CuDef*%
G36*
G01*
X137752500Y-104395000D02*
X137877500Y-104395000D01*
G75*
G02*
X137940000Y-104457500I0J-62500D01*
G01*
X137940000Y-105157500D01*
G75*
G02*
X137877500Y-105220000I-62500J0D01*
G01*
X137752500Y-105220000D01*
G75*
G02*
X137690000Y-105157500I0J62500D01*
G01*
X137690000Y-104457500D01*
G75*
G02*
X137752500Y-104395000I62500J0D01*
G01*
G37*
%TD.AperFunction*%
%TO.P,U1,14*%
%TO.N,TX*%
%TA.AperFunction,SMDPad,CuDef*%
G36*
G01*
X138252500Y-104395000D02*
X138377500Y-104395000D01*
G75*
G02*
X138440000Y-104457500I0J-62500D01*
G01*
X138440000Y-105157500D01*
G75*
G02*
X138377500Y-105220000I-62500J0D01*
G01*
X138252500Y-105220000D01*
G75*
G02*
X138190000Y-105157500I0J62500D01*
G01*
X138190000Y-104457500D01*
G75*
G02*
X138252500Y-104395000I62500J0D01*
G01*
G37*
%TD.AperFunction*%
%TO.P,U1,15*%
%TO.N,Net-(U1-Pad15)*%
%TA.AperFunction,SMDPad,CuDef*%
G36*
G01*
X138752500Y-104395000D02*
X138877500Y-104395000D01*
G75*
G02*
X138940000Y-104457500I0J-62500D01*
G01*
X138940000Y-105157500D01*
G75*
G02*
X138877500Y-105220000I-62500J0D01*
G01*
X138752500Y-105220000D01*
G75*
G02*
X138690000Y-105157500I0J62500D01*
G01*
X138690000Y-104457500D01*
G75*
G02*
X138752500Y-104395000I62500J0D01*
G01*
G37*
%TD.AperFunction*%
%TO.P,U1,16*%
%TO.N,Net-(U1-Pad16)*%
%TA.AperFunction,SMDPad,CuDef*%
G36*
G01*
X139252500Y-104395000D02*
X139377500Y-104395000D01*
G75*
G02*
X139440000Y-104457500I0J-62500D01*
G01*
X139440000Y-105157500D01*
G75*
G02*
X139377500Y-105220000I-62500J0D01*
G01*
X139252500Y-105220000D01*
G75*
G02*
X139190000Y-105157500I0J62500D01*
G01*
X139190000Y-104457500D01*
G75*
G02*
X139252500Y-104395000I62500J0D01*
G01*
G37*
%TD.AperFunction*%
%TO.P,U1,17*%
%TO.N,FS1*%
%TA.AperFunction,SMDPad,CuDef*%
G36*
G01*
X139752500Y-104395000D02*
X139877500Y-104395000D01*
G75*
G02*
X139940000Y-104457500I0J-62500D01*
G01*
X139940000Y-105157500D01*
G75*
G02*
X139877500Y-105220000I-62500J0D01*
G01*
X139752500Y-105220000D01*
G75*
G02*
X139690000Y-105157500I0J62500D01*
G01*
X139690000Y-104457500D01*
G75*
G02*
X139752500Y-104395000I62500J0D01*
G01*
G37*
%TD.AperFunction*%
%TO.P,U1,18*%
%TO.N,FS2*%
%TA.AperFunction,SMDPad,CuDef*%
G36*
G01*
X140252500Y-104395000D02*
X140377500Y-104395000D01*
G75*
G02*
X140440000Y-104457500I0J-62500D01*
G01*
X140440000Y-105157500D01*
G75*
G02*
X140377500Y-105220000I-62500J0D01*
G01*
X140252500Y-105220000D01*
G75*
G02*
X140190000Y-105157500I0J62500D01*
G01*
X140190000Y-104457500D01*
G75*
G02*
X140252500Y-104395000I62500J0D01*
G01*
G37*
%TD.AperFunction*%
%TO.P,U1,19*%
%TO.N,Net-(U1-Pad19)*%
%TA.AperFunction,SMDPad,CuDef*%
G36*
G01*
X140652500Y-103995000D02*
X141352500Y-103995000D01*
G75*
G02*
X141415000Y-104057500I0J-62500D01*
G01*
X141415000Y-104182500D01*
G75*
G02*
X141352500Y-104245000I-62500J0D01*
G01*
X140652500Y-104245000D01*
G75*
G02*
X140590000Y-104182500I0J62500D01*
G01*
X140590000Y-104057500D01*
G75*
G02*
X140652500Y-103995000I62500J0D01*
G01*
G37*
%TD.AperFunction*%
%TO.P,U1,20*%
%TO.N,CHN_0_CTRL*%
%TA.AperFunction,SMDPad,CuDef*%
G36*
G01*
X140652500Y-103495000D02*
X141352500Y-103495000D01*
G75*
G02*
X141415000Y-103557500I0J-62500D01*
G01*
X141415000Y-103682500D01*
G75*
G02*
X141352500Y-103745000I-62500J0D01*
G01*
X140652500Y-103745000D01*
G75*
G02*
X140590000Y-103682500I0J62500D01*
G01*
X140590000Y-103557500D01*
G75*
G02*
X140652500Y-103495000I62500J0D01*
G01*
G37*
%TD.AperFunction*%
%TO.P,U1,21*%
%TO.N,CHN_1_CTRL*%
%TA.AperFunction,SMDPad,CuDef*%
G36*
G01*
X140652500Y-102995000D02*
X141352500Y-102995000D01*
G75*
G02*
X141415000Y-103057500I0J-62500D01*
G01*
X141415000Y-103182500D01*
G75*
G02*
X141352500Y-103245000I-62500J0D01*
G01*
X140652500Y-103245000D01*
G75*
G02*
X140590000Y-103182500I0J62500D01*
G01*
X140590000Y-103057500D01*
G75*
G02*
X140652500Y-102995000I62500J0D01*
G01*
G37*
%TD.AperFunction*%
%TO.P,U1,22*%
%TO.N,CHN_2_CTRL*%
%TA.AperFunction,SMDPad,CuDef*%
G36*
G01*
X140652500Y-102495000D02*
X141352500Y-102495000D01*
G75*
G02*
X141415000Y-102557500I0J-62500D01*
G01*
X141415000Y-102682500D01*
G75*
G02*
X141352500Y-102745000I-62500J0D01*
G01*
X140652500Y-102745000D01*
G75*
G02*
X140590000Y-102682500I0J62500D01*
G01*
X140590000Y-102557500D01*
G75*
G02*
X140652500Y-102495000I62500J0D01*
G01*
G37*
%TD.AperFunction*%
%TO.P,U1,23*%
%TO.N,PROGRAM*%
%TA.AperFunction,SMDPad,CuDef*%
G36*
G01*
X140652500Y-101995000D02*
X141352500Y-101995000D01*
G75*
G02*
X141415000Y-102057500I0J-62500D01*
G01*
X141415000Y-102182500D01*
G75*
G02*
X141352500Y-102245000I-62500J0D01*
G01*
X140652500Y-102245000D01*
G75*
G02*
X140590000Y-102182500I0J62500D01*
G01*
X140590000Y-102057500D01*
G75*
G02*
X140652500Y-101995000I62500J0D01*
G01*
G37*
%TD.AperFunction*%
%TO.P,U1,24*%
%TO.N,INDICATOR*%
%TA.AperFunction,SMDPad,CuDef*%
G36*
G01*
X140652500Y-101495000D02*
X141352500Y-101495000D01*
G75*
G02*
X141415000Y-101557500I0J-62500D01*
G01*
X141415000Y-101682500D01*
G75*
G02*
X141352500Y-101745000I-62500J0D01*
G01*
X140652500Y-101745000D01*
G75*
G02*
X140590000Y-101682500I0J62500D01*
G01*
X140590000Y-101557500D01*
G75*
G02*
X140652500Y-101495000I62500J0D01*
G01*
G37*
%TD.AperFunction*%
D21*
%TO.P,U1,25*%
%TO.N,GND*%
X139065000Y-102870000D03*
%TD*%
%TO.P,U4,1*%
%TO.N,+24V*%
%TA.AperFunction,SMDPad,CuDef*%
G36*
G01*
X129055000Y-77745000D02*
X128755000Y-77745000D01*
G75*
G02*
X128605000Y-77595000I0J150000D01*
G01*
X128605000Y-76245000D01*
G75*
G02*
X128755000Y-76095000I150000J0D01*
G01*
X129055000Y-76095000D01*
G75*
G02*
X129205000Y-76245000I0J-150000D01*
G01*
X129205000Y-77595000D01*
G75*
G02*
X129055000Y-77745000I-150000J0D01*
G01*
G37*
%TD.AperFunction*%
%TO.P,U4,2*%
%TO.N,Net-(D6-Pad1)*%
%TA.AperFunction,SMDPad,CuDef*%
G36*
G01*
X130325000Y-77745000D02*
X130025000Y-77745000D01*
G75*
G02*
X129875000Y-77595000I0J150000D01*
G01*
X129875000Y-76245000D01*
G75*
G02*
X130025000Y-76095000I150000J0D01*
G01*
X130325000Y-76095000D01*
G75*
G02*
X130475000Y-76245000I0J-150000D01*
G01*
X130475000Y-77595000D01*
G75*
G02*
X130325000Y-77745000I-150000J0D01*
G01*
G37*
%TD.AperFunction*%
%TO.P,U4,3*%
%TO.N,+5V*%
%TA.AperFunction,SMDPad,CuDef*%
G36*
G01*
X131595000Y-77745000D02*
X131295000Y-77745000D01*
G75*
G02*
X131145000Y-77595000I0J150000D01*
G01*
X131145000Y-76245000D01*
G75*
G02*
X131295000Y-76095000I150000J0D01*
G01*
X131595000Y-76095000D01*
G75*
G02*
X131745000Y-76245000I0J-150000D01*
G01*
X131745000Y-77595000D01*
G75*
G02*
X131595000Y-77745000I-150000J0D01*
G01*
G37*
%TD.AperFunction*%
%TO.P,U4,4*%
%TO.N,GND*%
%TA.AperFunction,SMDPad,CuDef*%
G36*
G01*
X132865000Y-77745000D02*
X132565000Y-77745000D01*
G75*
G02*
X132415000Y-77595000I0J150000D01*
G01*
X132415000Y-76245000D01*
G75*
G02*
X132565000Y-76095000I150000J0D01*
G01*
X132865000Y-76095000D01*
G75*
G02*
X133015000Y-76245000I0J-150000D01*
G01*
X133015000Y-77595000D01*
G75*
G02*
X132865000Y-77745000I-150000J0D01*
G01*
G37*
%TD.AperFunction*%
%TO.P,U4,5*%
%TA.AperFunction,SMDPad,CuDef*%
G36*
G01*
X132865000Y-72495000D02*
X132565000Y-72495000D01*
G75*
G02*
X132415000Y-72345000I0J150000D01*
G01*
X132415000Y-70995000D01*
G75*
G02*
X132565000Y-70845000I150000J0D01*
G01*
X132865000Y-70845000D01*
G75*
G02*
X133015000Y-70995000I0J-150000D01*
G01*
X133015000Y-72345000D01*
G75*
G02*
X132865000Y-72495000I-150000J0D01*
G01*
G37*
%TD.AperFunction*%
%TO.P,U4,6*%
%TA.AperFunction,SMDPad,CuDef*%
G36*
G01*
X131595000Y-72495000D02*
X131295000Y-72495000D01*
G75*
G02*
X131145000Y-72345000I0J150000D01*
G01*
X131145000Y-70995000D01*
G75*
G02*
X131295000Y-70845000I150000J0D01*
G01*
X131595000Y-70845000D01*
G75*
G02*
X131745000Y-70995000I0J-150000D01*
G01*
X131745000Y-72345000D01*
G75*
G02*
X131595000Y-72495000I-150000J0D01*
G01*
G37*
%TD.AperFunction*%
%TO.P,U4,7*%
%TA.AperFunction,SMDPad,CuDef*%
G36*
G01*
X130325000Y-72495000D02*
X130025000Y-72495000D01*
G75*
G02*
X129875000Y-72345000I0J150000D01*
G01*
X129875000Y-70995000D01*
G75*
G02*
X130025000Y-70845000I150000J0D01*
G01*
X130325000Y-70845000D01*
G75*
G02*
X130475000Y-70995000I0J-150000D01*
G01*
X130475000Y-72345000D01*
G75*
G02*
X130325000Y-72495000I-150000J0D01*
G01*
G37*
%TD.AperFunction*%
%TO.P,U4,8*%
%TA.AperFunction,SMDPad,CuDef*%
G36*
G01*
X129055000Y-72495000D02*
X128755000Y-72495000D01*
G75*
G02*
X128605000Y-72345000I0J150000D01*
G01*
X128605000Y-70995000D01*
G75*
G02*
X128755000Y-70845000I150000J0D01*
G01*
X129055000Y-70845000D01*
G75*
G02*
X129205000Y-70995000I0J-150000D01*
G01*
X129205000Y-72345000D01*
G75*
G02*
X129055000Y-72495000I-150000J0D01*
G01*
G37*
%TD.AperFunction*%
%TD*%
D22*
%TO.P,U2,4*%
%TO.N,Net-(J1-PadT)*%
X138430000Y-126135000D03*
%TO.P,U2,3*%
%TO.N,Net-(J1-PadG)*%
X135890000Y-126135000D03*
%TO.P,U2,2*%
%TO.N,GND*%
X135890000Y-116435000D03*
%TO.P,U2,1*%
%TO.N,Net-(R9-Pad1)*%
X138430000Y-116435000D03*
%TD*%
%TO.P,U3,1*%
%TO.N,Net-(R10-Pad1)*%
X147955000Y-116435000D03*
%TO.P,U3,2*%
%TO.N,GND*%
X145415000Y-116435000D03*
%TO.P,U3,3*%
%TO.N,Net-(J1-PadG)*%
X145415000Y-126135000D03*
%TO.P,U3,4*%
%TO.N,Net-(J1-PadS)*%
X147955000Y-126135000D03*
%TD*%
%TO.P,D7,2*%
%TO.N,Net-(D7-Pad2)*%
%TA.AperFunction,SMDPad,CuDef*%
G36*
G01*
X133606250Y-112045000D02*
X133093750Y-112045000D01*
G75*
G02*
X132875000Y-111826250I0J218750D01*
G01*
X132875000Y-111388750D01*
G75*
G02*
X133093750Y-111170000I218750J0D01*
G01*
X133606250Y-111170000D01*
G75*
G02*
X133825000Y-111388750I0J-218750D01*
G01*
X133825000Y-111826250D01*
G75*
G02*
X133606250Y-112045000I-218750J0D01*
G01*
G37*
%TD.AperFunction*%
%TO.P,D7,1*%
%TO.N,GND*%
%TA.AperFunction,SMDPad,CuDef*%
G36*
G01*
X133606250Y-113620000D02*
X133093750Y-113620000D01*
G75*
G02*
X132875000Y-113401250I0J218750D01*
G01*
X132875000Y-112963750D01*
G75*
G02*
X133093750Y-112745000I218750J0D01*
G01*
X133606250Y-112745000D01*
G75*
G02*
X133825000Y-112963750I0J-218750D01*
G01*
X133825000Y-113401250D01*
G75*
G02*
X133606250Y-113620000I-218750J0D01*
G01*
G37*
%TD.AperFunction*%
%TD*%
%TO.P,D8,1*%
%TO.N,GND*%
%TA.AperFunction,SMDPad,CuDef*%
G36*
G01*
X143131250Y-113620000D02*
X142618750Y-113620000D01*
G75*
G02*
X142400000Y-113401250I0J218750D01*
G01*
X142400000Y-112963750D01*
G75*
G02*
X142618750Y-112745000I218750J0D01*
G01*
X143131250Y-112745000D01*
G75*
G02*
X143350000Y-112963750I0J-218750D01*
G01*
X143350000Y-113401250D01*
G75*
G02*
X143131250Y-113620000I-218750J0D01*
G01*
G37*
%TD.AperFunction*%
%TO.P,D8,2*%
%TO.N,Net-(D8-Pad2)*%
%TA.AperFunction,SMDPad,CuDef*%
G36*
G01*
X143131250Y-112045000D02*
X142618750Y-112045000D01*
G75*
G02*
X142400000Y-111826250I0J218750D01*
G01*
X142400000Y-111388750D01*
G75*
G02*
X142618750Y-111170000I218750J0D01*
G01*
X143131250Y-111170000D01*
G75*
G02*
X143350000Y-111388750I0J-218750D01*
G01*
X143350000Y-111826250D01*
G75*
G02*
X143131250Y-112045000I-218750J0D01*
G01*
G37*
%TD.AperFunction*%
%TD*%
%TO.P,R32,1*%
%TO.N,Net-(D7-Pad2)*%
%TA.AperFunction,SMDPad,CuDef*%
G36*
G01*
X134980000Y-111170000D02*
X135530000Y-111170000D01*
G75*
G02*
X135730000Y-111370000I0J-200000D01*
G01*
X135730000Y-111770000D01*
G75*
G02*
X135530000Y-111970000I-200000J0D01*
G01*
X134980000Y-111970000D01*
G75*
G02*
X134780000Y-111770000I0J200000D01*
G01*
X134780000Y-111370000D01*
G75*
G02*
X134980000Y-111170000I200000J0D01*
G01*
G37*
%TD.AperFunction*%
%TO.P,R32,2*%
%TO.N,FS1*%
%TA.AperFunction,SMDPad,CuDef*%
G36*
G01*
X134980000Y-112820000D02*
X135530000Y-112820000D01*
G75*
G02*
X135730000Y-113020000I0J-200000D01*
G01*
X135730000Y-113420000D01*
G75*
G02*
X135530000Y-113620000I-200000J0D01*
G01*
X134980000Y-113620000D01*
G75*
G02*
X134780000Y-113420000I0J200000D01*
G01*
X134780000Y-113020000D01*
G75*
G02*
X134980000Y-112820000I200000J0D01*
G01*
G37*
%TD.AperFunction*%
%TD*%
%TO.P,R33,2*%
%TO.N,FS2*%
%TA.AperFunction,SMDPad,CuDef*%
G36*
G01*
X144505000Y-112820000D02*
X145055000Y-112820000D01*
G75*
G02*
X145255000Y-113020000I0J-200000D01*
G01*
X145255000Y-113420000D01*
G75*
G02*
X145055000Y-113620000I-200000J0D01*
G01*
X144505000Y-113620000D01*
G75*
G02*
X144305000Y-113420000I0J200000D01*
G01*
X144305000Y-113020000D01*
G75*
G02*
X144505000Y-112820000I200000J0D01*
G01*
G37*
%TD.AperFunction*%
%TO.P,R33,1*%
%TO.N,Net-(D8-Pad2)*%
%TA.AperFunction,SMDPad,CuDef*%
G36*
G01*
X144505000Y-111170000D02*
X145055000Y-111170000D01*
G75*
G02*
X145255000Y-111370000I0J-200000D01*
G01*
X145255000Y-111770000D01*
G75*
G02*
X145055000Y-111970000I-200000J0D01*
G01*
X144505000Y-111970000D01*
G75*
G02*
X144305000Y-111770000I0J200000D01*
G01*
X144305000Y-111370000D01*
G75*
G02*
X144505000Y-111170000I200000J0D01*
G01*
G37*
%TD.AperFunction*%
%TD*%
%TO.P,J13,1*%
%TO.N,TEMP_SEN*%
%TA.AperFunction,ComponentPad*%
G36*
G01*
X127115000Y-101180000D02*
X125615000Y-101180000D01*
G75*
G02*
X125365000Y-100930000I0J250000D01*
G01*
X125365000Y-99730000D01*
G75*
G02*
X125615000Y-99480000I250000J0D01*
G01*
X127115000Y-99480000D01*
G75*
G02*
X127365000Y-99730000I0J-250000D01*
G01*
X127365000Y-100930000D01*
G75*
G02*
X127115000Y-101180000I-250000J0D01*
G01*
G37*
%TD.AperFunction*%
D12*
%TO.P,J13,2*%
%TO.N,+5V*%
X126365000Y-97830000D03*
%TD*%
D20*
%TO.P,TP1,1*%
%TO.N,+5V*%
X134112000Y-94996000D03*
%TD*%
D23*
%TO.P,L1,1*%
%TO.N,+5V*%
X142875000Y-81910000D03*
%TO.P,L1,2*%
%TO.N,Net-(D6-Pad1)*%
X142875000Y-90810000D03*
%TD*%
%TO.P,R17,2*%
%TO.N,GND*%
%TA.AperFunction,SMDPad,CuDef*%
G36*
G01*
X158759998Y-122185000D02*
X160010002Y-122185000D01*
G75*
G02*
X160260000Y-122434998I0J-249998D01*
G01*
X160260000Y-123060002D01*
G75*
G02*
X160010002Y-123310000I-249998J0D01*
G01*
X158759998Y-123310000D01*
G75*
G02*
X158510000Y-123060002I0J249998D01*
G01*
X158510000Y-122434998D01*
G75*
G02*
X158759998Y-122185000I249998J0D01*
G01*
G37*
%TD.AperFunction*%
%TO.P,R17,1*%
%TO.N,Net-(Q4-Pad2)*%
%TA.AperFunction,SMDPad,CuDef*%
G36*
G01*
X158759998Y-119260000D02*
X160010002Y-119260000D01*
G75*
G02*
X160260000Y-119509998I0J-249998D01*
G01*
X160260000Y-120135002D01*
G75*
G02*
X160010002Y-120385000I-249998J0D01*
G01*
X158759998Y-120385000D01*
G75*
G02*
X158510000Y-120135002I0J249998D01*
G01*
X158510000Y-119509998D01*
G75*
G02*
X158759998Y-119260000I249998J0D01*
G01*
G37*
%TD.AperFunction*%
%TD*%
%TO.P,R18,1*%
%TO.N,Net-(Q5-Pad2)*%
%TA.AperFunction,SMDPad,CuDef*%
G36*
G01*
X158759998Y-112275000D02*
X160010002Y-112275000D01*
G75*
G02*
X160260000Y-112524998I0J-249998D01*
G01*
X160260000Y-113150002D01*
G75*
G02*
X160010002Y-113400000I-249998J0D01*
G01*
X158759998Y-113400000D01*
G75*
G02*
X158510000Y-113150002I0J249998D01*
G01*
X158510000Y-112524998D01*
G75*
G02*
X158759998Y-112275000I249998J0D01*
G01*
G37*
%TD.AperFunction*%
%TO.P,R18,2*%
%TO.N,GND*%
%TA.AperFunction,SMDPad,CuDef*%
G36*
G01*
X158759998Y-115200000D02*
X160010002Y-115200000D01*
G75*
G02*
X160260000Y-115449998I0J-249998D01*
G01*
X160260000Y-116075002D01*
G75*
G02*
X160010002Y-116325000I-249998J0D01*
G01*
X158759998Y-116325000D01*
G75*
G02*
X158510000Y-116075002I0J249998D01*
G01*
X158510000Y-115449998D01*
G75*
G02*
X158759998Y-115200000I249998J0D01*
G01*
G37*
%TD.AperFunction*%
%TD*%
%TO.P,R23,1*%
%TO.N,Net-(Q8-Pad2)*%
%TA.AperFunction,SMDPad,CuDef*%
G36*
G01*
X158759998Y-101480000D02*
X160010002Y-101480000D01*
G75*
G02*
X160260000Y-101729998I0J-249998D01*
G01*
X160260000Y-102355002D01*
G75*
G02*
X160010002Y-102605000I-249998J0D01*
G01*
X158759998Y-102605000D01*
G75*
G02*
X158510000Y-102355002I0J249998D01*
G01*
X158510000Y-101729998D01*
G75*
G02*
X158759998Y-101480000I249998J0D01*
G01*
G37*
%TD.AperFunction*%
%TO.P,R23,2*%
%TO.N,GND*%
%TA.AperFunction,SMDPad,CuDef*%
G36*
G01*
X158759998Y-104405000D02*
X160010002Y-104405000D01*
G75*
G02*
X160260000Y-104654998I0J-249998D01*
G01*
X160260000Y-105280002D01*
G75*
G02*
X160010002Y-105530000I-249998J0D01*
G01*
X158759998Y-105530000D01*
G75*
G02*
X158510000Y-105280002I0J249998D01*
G01*
X158510000Y-104654998D01*
G75*
G02*
X158759998Y-104405000I249998J0D01*
G01*
G37*
%TD.AperFunction*%
%TD*%
%TO.P,R24,2*%
%TO.N,GND*%
%TA.AperFunction,SMDPad,CuDef*%
G36*
G01*
X158759998Y-97420000D02*
X160010002Y-97420000D01*
G75*
G02*
X160260000Y-97669998I0J-249998D01*
G01*
X160260000Y-98295002D01*
G75*
G02*
X160010002Y-98545000I-249998J0D01*
G01*
X158759998Y-98545000D01*
G75*
G02*
X158510000Y-98295002I0J249998D01*
G01*
X158510000Y-97669998D01*
G75*
G02*
X158759998Y-97420000I249998J0D01*
G01*
G37*
%TD.AperFunction*%
%TO.P,R24,1*%
%TO.N,Net-(Q9-Pad2)*%
%TA.AperFunction,SMDPad,CuDef*%
G36*
G01*
X158759998Y-94495000D02*
X160010002Y-94495000D01*
G75*
G02*
X160260000Y-94744998I0J-249998D01*
G01*
X160260000Y-95370002D01*
G75*
G02*
X160010002Y-95620000I-249998J0D01*
G01*
X158759998Y-95620000D01*
G75*
G02*
X158510000Y-95370002I0J249998D01*
G01*
X158510000Y-94744998D01*
G75*
G02*
X158759998Y-94495000I249998J0D01*
G01*
G37*
%TD.AperFunction*%
%TD*%
%TO.P,R30,2*%
%TO.N,GND*%
%TA.AperFunction,SMDPad,CuDef*%
G36*
G01*
X158378998Y-86625000D02*
X159629002Y-86625000D01*
G75*
G02*
X159879000Y-86874998I0J-249998D01*
G01*
X159879000Y-87500002D01*
G75*
G02*
X159629002Y-87750000I-249998J0D01*
G01*
X158378998Y-87750000D01*
G75*
G02*
X158129000Y-87500002I0J249998D01*
G01*
X158129000Y-86874998D01*
G75*
G02*
X158378998Y-86625000I249998J0D01*
G01*
G37*
%TD.AperFunction*%
%TO.P,R30,1*%
%TO.N,Net-(Q12-Pad2)*%
%TA.AperFunction,SMDPad,CuDef*%
G36*
G01*
X158378998Y-83700000D02*
X159629002Y-83700000D01*
G75*
G02*
X159879000Y-83949998I0J-249998D01*
G01*
X159879000Y-84575002D01*
G75*
G02*
X159629002Y-84825000I-249998J0D01*
G01*
X158378998Y-84825000D01*
G75*
G02*
X158129000Y-84575002I0J249998D01*
G01*
X158129000Y-83949998D01*
G75*
G02*
X158378998Y-83700000I249998J0D01*
G01*
G37*
%TD.AperFunction*%
%TD*%
%TO.P,R31,1*%
%TO.N,Net-(Q13-Pad2)*%
%TA.AperFunction,SMDPad,CuDef*%
G36*
G01*
X158378998Y-76715000D02*
X159629002Y-76715000D01*
G75*
G02*
X159879000Y-76964998I0J-249998D01*
G01*
X159879000Y-77590002D01*
G75*
G02*
X159629002Y-77840000I-249998J0D01*
G01*
X158378998Y-77840000D01*
G75*
G02*
X158129000Y-77590002I0J249998D01*
G01*
X158129000Y-76964998D01*
G75*
G02*
X158378998Y-76715000I249998J0D01*
G01*
G37*
%TD.AperFunction*%
%TO.P,R31,2*%
%TO.N,GND*%
%TA.AperFunction,SMDPad,CuDef*%
G36*
G01*
X158378998Y-79640000D02*
X159629002Y-79640000D01*
G75*
G02*
X159879000Y-79889998I0J-249998D01*
G01*
X159879000Y-80515002D01*
G75*
G02*
X159629002Y-80765000I-249998J0D01*
G01*
X158378998Y-80765000D01*
G75*
G02*
X158129000Y-80515002I0J249998D01*
G01*
X158129000Y-79889998D01*
G75*
G02*
X158378998Y-79640000I249998J0D01*
G01*
G37*
%TD.AperFunction*%
%TD*%
D24*
%TO.P,J9,1*%
%TO.N,+5V*%
X148336000Y-105156000D03*
D25*
%TO.P,J9,2*%
%TO.N,GND*%
X148336000Y-102616000D03*
%TO.P,J9,3*%
%TO.N,Net-(J9-Pad3)*%
X148336000Y-100076000D03*
%TD*%
D11*
%TO.P,J3,*%
%TO.N,*%
X107124000Y-119888000D03*
X101124000Y-119888000D03*
D10*
%TO.P,J3,T*%
%TO.N,TX*%
X108124000Y-123388000D03*
%TO.P,J3,S*%
%TO.N,GND*%
X101124000Y-123388000D03*
%TO.P,J3,R*%
%TO.N,LOAD_OUT*%
X103124000Y-116388000D03*
%TD*%
D20*
%TO.P,TP2,1*%
%TO.N,RX*%
X117357001Y-107705001D03*
%TD*%
%TO.P,TP3,1*%
%TO.N,TX*%
X122428000Y-123952000D03*
%TD*%
%TO.P,TP6,1*%
%TO.N,+24V*%
X116840000Y-88900000D03*
%TD*%
%TO.P,D9,1*%
%TO.N,GND*%
%TA.AperFunction,SMDPad,CuDef*%
G36*
G01*
X104104749Y-94808001D02*
X104617249Y-94808001D01*
G75*
G02*
X104835999Y-95026751I0J-218750D01*
G01*
X104835999Y-95464251D01*
G75*
G02*
X104617249Y-95683001I-218750J0D01*
G01*
X104104749Y-95683001D01*
G75*
G02*
X103885999Y-95464251I0J218750D01*
G01*
X103885999Y-95026751D01*
G75*
G02*
X104104749Y-94808001I218750J0D01*
G01*
G37*
%TD.AperFunction*%
%TO.P,D9,2*%
%TO.N,Net-(D9-Pad2)*%
%TA.AperFunction,SMDPad,CuDef*%
G36*
G01*
X104104749Y-96383001D02*
X104617249Y-96383001D01*
G75*
G02*
X104835999Y-96601751I0J-218750D01*
G01*
X104835999Y-97039251D01*
G75*
G02*
X104617249Y-97258001I-218750J0D01*
G01*
X104104749Y-97258001D01*
G75*
G02*
X103885999Y-97039251I0J218750D01*
G01*
X103885999Y-96601751D01*
G75*
G02*
X104104749Y-96383001I218750J0D01*
G01*
G37*
%TD.AperFunction*%
%TD*%
%TO.P,R6,1*%
%TO.N,Net-(D9-Pad2)*%
%TA.AperFunction,SMDPad,CuDef*%
G36*
G01*
X105897000Y-94787000D02*
X106447000Y-94787000D01*
G75*
G02*
X106647000Y-94987000I0J-200000D01*
G01*
X106647000Y-95387000D01*
G75*
G02*
X106447000Y-95587000I-200000J0D01*
G01*
X105897000Y-95587000D01*
G75*
G02*
X105697000Y-95387000I0J200000D01*
G01*
X105697000Y-94987000D01*
G75*
G02*
X105897000Y-94787000I200000J0D01*
G01*
G37*
%TD.AperFunction*%
%TO.P,R6,2*%
%TO.N,LOAD_IN*%
%TA.AperFunction,SMDPad,CuDef*%
G36*
G01*
X105897000Y-96437000D02*
X106447000Y-96437000D01*
G75*
G02*
X106647000Y-96637000I0J-200000D01*
G01*
X106647000Y-97037000D01*
G75*
G02*
X106447000Y-97237000I-200000J0D01*
G01*
X105897000Y-97237000D01*
G75*
G02*
X105697000Y-97037000I0J200000D01*
G01*
X105697000Y-96637000D01*
G75*
G02*
X105897000Y-96437000I200000J0D01*
G01*
G37*
%TD.AperFunction*%
%TD*%
%TO.P,D10,2*%
%TO.N,Net-(D10-Pad2)*%
%TA.AperFunction,SMDPad,CuDef*%
G36*
G01*
X115064250Y-109886000D02*
X114551750Y-109886000D01*
G75*
G02*
X114333000Y-109667250I0J218750D01*
G01*
X114333000Y-109229750D01*
G75*
G02*
X114551750Y-109011000I218750J0D01*
G01*
X115064250Y-109011000D01*
G75*
G02*
X115283000Y-109229750I0J-218750D01*
G01*
X115283000Y-109667250D01*
G75*
G02*
X115064250Y-109886000I-218750J0D01*
G01*
G37*
%TD.AperFunction*%
%TO.P,D10,1*%
%TO.N,RX*%
%TA.AperFunction,SMDPad,CuDef*%
G36*
G01*
X115064250Y-111461000D02*
X114551750Y-111461000D01*
G75*
G02*
X114333000Y-111242250I0J218750D01*
G01*
X114333000Y-110804750D01*
G75*
G02*
X114551750Y-110586000I218750J0D01*
G01*
X115064250Y-110586000D01*
G75*
G02*
X115283000Y-110804750I0J-218750D01*
G01*
X115283000Y-111242250D01*
G75*
G02*
X115064250Y-111461000I-218750J0D01*
G01*
G37*
%TD.AperFunction*%
%TD*%
%TO.P,D11,1*%
%TO.N,TX*%
%TA.AperFunction,SMDPad,CuDef*%
G36*
G01*
X114551750Y-122219000D02*
X115064250Y-122219000D01*
G75*
G02*
X115283000Y-122437750I0J-218750D01*
G01*
X115283000Y-122875250D01*
G75*
G02*
X115064250Y-123094000I-218750J0D01*
G01*
X114551750Y-123094000D01*
G75*
G02*
X114333000Y-122875250I0J218750D01*
G01*
X114333000Y-122437750D01*
G75*
G02*
X114551750Y-122219000I218750J0D01*
G01*
G37*
%TD.AperFunction*%
%TO.P,D11,2*%
%TO.N,Net-(D11-Pad2)*%
%TA.AperFunction,SMDPad,CuDef*%
G36*
G01*
X114551750Y-123794000D02*
X115064250Y-123794000D01*
G75*
G02*
X115283000Y-124012750I0J-218750D01*
G01*
X115283000Y-124450250D01*
G75*
G02*
X115064250Y-124669000I-218750J0D01*
G01*
X114551750Y-124669000D01*
G75*
G02*
X114333000Y-124450250I0J218750D01*
G01*
X114333000Y-124012750D01*
G75*
G02*
X114551750Y-123794000I218750J0D01*
G01*
G37*
%TD.AperFunction*%
%TD*%
%TO.P,R8,2*%
%TO.N,+5V*%
%TA.AperFunction,SMDPad,CuDef*%
G36*
G01*
X116655000Y-110476000D02*
X117025000Y-110476000D01*
G75*
G02*
X117160000Y-110611000I0J-135000D01*
G01*
X117160000Y-110881000D01*
G75*
G02*
X117025000Y-111016000I-135000J0D01*
G01*
X116655000Y-111016000D01*
G75*
G02*
X116520000Y-110881000I0J135000D01*
G01*
X116520000Y-110611000D01*
G75*
G02*
X116655000Y-110476000I135000J0D01*
G01*
G37*
%TD.AperFunction*%
%TO.P,R8,1*%
%TO.N,Net-(D10-Pad2)*%
%TA.AperFunction,SMDPad,CuDef*%
G36*
G01*
X116655000Y-109456000D02*
X117025000Y-109456000D01*
G75*
G02*
X117160000Y-109591000I0J-135000D01*
G01*
X117160000Y-109861000D01*
G75*
G02*
X117025000Y-109996000I-135000J0D01*
G01*
X116655000Y-109996000D01*
G75*
G02*
X116520000Y-109861000I0J135000D01*
G01*
X116520000Y-109591000D01*
G75*
G02*
X116655000Y-109456000I135000J0D01*
G01*
G37*
%TD.AperFunction*%
%TD*%
%TO.P,R34,1*%
%TO.N,Net-(D11-Pad2)*%
%TA.AperFunction,SMDPad,CuDef*%
G36*
G01*
X117025000Y-124224000D02*
X116655000Y-124224000D01*
G75*
G02*
X116520000Y-124089000I0J135000D01*
G01*
X116520000Y-123819000D01*
G75*
G02*
X116655000Y-123684000I135000J0D01*
G01*
X117025000Y-123684000D01*
G75*
G02*
X117160000Y-123819000I0J-135000D01*
G01*
X117160000Y-124089000D01*
G75*
G02*
X117025000Y-124224000I-135000J0D01*
G01*
G37*
%TD.AperFunction*%
%TO.P,R34,2*%
%TO.N,+5V*%
%TA.AperFunction,SMDPad,CuDef*%
G36*
G01*
X117025000Y-123204000D02*
X116655000Y-123204000D01*
G75*
G02*
X116520000Y-123069000I0J135000D01*
G01*
X116520000Y-122799000D01*
G75*
G02*
X116655000Y-122664000I135000J0D01*
G01*
X117025000Y-122664000D01*
G75*
G02*
X117160000Y-122799000I0J-135000D01*
G01*
X117160000Y-123069000D01*
G75*
G02*
X117025000Y-123204000I-135000J0D01*
G01*
G37*
%TD.AperFunction*%
%TD*%
D26*
%TO.N,+5V*%
X150495000Y-84455000D03*
D27*
X147955000Y-94615000D03*
D26*
X118872000Y-117348000D03*
X119380000Y-121920000D03*
%TO.N,GND*%
X134620000Y-88900000D03*
X132715000Y-68580000D03*
X131445000Y-68580000D03*
X130175000Y-68580000D03*
X128905000Y-68580000D03*
X134620000Y-82550000D03*
X128270000Y-90805000D03*
X149860000Y-76200000D03*
D27*
X157480000Y-78740000D03*
X156845000Y-84455000D03*
X161290000Y-85090000D03*
X158115000Y-100330000D03*
X161290000Y-96520000D03*
X157480000Y-116205000D03*
X157480000Y-118745000D03*
X140970000Y-113030000D03*
X136525000Y-119380000D03*
X117729000Y-114173000D03*
X118999000Y-110998000D03*
X142240000Y-96520000D03*
D26*
X105156000Y-93472000D03*
D27*
%TO.N,Net-(J1-PadG)*%
X140335000Y-129540000D03*
X142240000Y-128270000D03*
%TO.N,C_LED_CTRL*%
X133985000Y-102870000D03*
X133350000Y-107950000D03*
%TD*%
D28*
%TO.N,+5V*%
X138815000Y-99650000D02*
X138815000Y-100932500D01*
X137590000Y-98425000D02*
X138815000Y-99650000D01*
X136995000Y-97830000D02*
X137590000Y-98425000D01*
X126365000Y-97830000D02*
X136995000Y-97830000D01*
D29*
X134007500Y-77492500D02*
X138475000Y-73025000D01*
X133179990Y-78320010D02*
X134007500Y-77492500D01*
X132264688Y-78320010D02*
X133179990Y-78320010D01*
X131445000Y-77500322D02*
X132264688Y-78320010D01*
X131445000Y-76920000D02*
X131445000Y-77500322D01*
X132069999Y-79430001D02*
X133179990Y-78320010D01*
X132069999Y-85524999D02*
X132069999Y-79430001D01*
X132270000Y-85725000D02*
X132069999Y-85524999D01*
X150495000Y-84455000D02*
X150495000Y-84455000D01*
D30*
X131445000Y-77677098D02*
X131445000Y-76920000D01*
X132212912Y-78445010D02*
X131445000Y-77677098D01*
X134104990Y-78445010D02*
X132212912Y-78445010D01*
X138475000Y-74075000D02*
X134104990Y-78445010D01*
X138475000Y-73025000D02*
X138475000Y-74075000D01*
X131944999Y-78712923D02*
X132212912Y-78445010D01*
X131944999Y-85399999D02*
X131944999Y-78712923D01*
X132270000Y-85725000D02*
X131944999Y-85399999D01*
X138475000Y-77010000D02*
X142875000Y-81410000D01*
X138475000Y-73025000D02*
X138475000Y-77010000D01*
X142875000Y-81410000D02*
X147450000Y-81410000D01*
D31*
X141400000Y-94615000D02*
X137590000Y-98425000D01*
X147955000Y-94615000D02*
X141400000Y-94615000D01*
X137541000Y-98425000D02*
X137590000Y-98425000D01*
X134112000Y-94996000D02*
X137541000Y-98425000D01*
D32*
X146950000Y-81910000D02*
X147450000Y-81410000D01*
X142875000Y-81910000D02*
X146950000Y-81910000D01*
X147950000Y-81910000D02*
X149098000Y-83058000D01*
X146950000Y-81910000D02*
X147950000Y-81910000D01*
D30*
X149098000Y-83058000D02*
X150495000Y-84455000D01*
X147450000Y-81410000D02*
X149098000Y-83058000D01*
D28*
X149961011Y-96621011D02*
X147955000Y-94615000D01*
X149961011Y-103530989D02*
X149961011Y-96621011D01*
X148336000Y-105156000D02*
X149961011Y-103530989D01*
X123174000Y-115458000D02*
X121792000Y-116840000D01*
X123174000Y-114808000D02*
X123174000Y-115458000D01*
X121792000Y-116840000D02*
X119888000Y-116840000D01*
X119888000Y-116840000D02*
X119380000Y-116840000D01*
X119380000Y-116840000D02*
X118872000Y-117348000D01*
X119380000Y-138136000D02*
X119420000Y-138176000D01*
X119380000Y-121920000D02*
X119380000Y-138136000D01*
X118366000Y-122934000D02*
X119380000Y-121920000D01*
X116840000Y-122934000D02*
X118366000Y-122934000D01*
X120039544Y-109922990D02*
X123174000Y-113057446D01*
X123174000Y-113057446D02*
X123174000Y-114808000D01*
X117663010Y-109922990D02*
X120039544Y-109922990D01*
X116840000Y-110746000D02*
X117663010Y-109922990D01*
%TO.N,GND*%
X139315000Y-99650000D02*
X139315000Y-100932500D01*
X140540000Y-98425000D02*
X139315000Y-99650000D01*
D29*
X128905000Y-71670000D02*
X130175000Y-71670000D01*
X130175000Y-71670000D02*
X131445000Y-71670000D01*
X131445000Y-71670000D02*
X132715000Y-71670000D01*
X134620000Y-88900000D02*
X134620000Y-88900000D01*
X132715000Y-68580000D02*
X132715000Y-68580000D01*
X131445000Y-68580000D02*
X131445000Y-68580000D01*
X130175000Y-68580000D02*
X130175000Y-68580000D01*
X128905000Y-68580000D02*
X128905000Y-68580000D01*
X133095000Y-80645000D02*
X133095000Y-81025000D01*
X133095000Y-81025000D02*
X134620000Y-82550000D01*
X134620000Y-82550000D02*
X134620000Y-82550000D01*
X123825000Y-88897500D02*
X126362500Y-88897500D01*
X126362500Y-88897500D02*
X128270000Y-90805000D01*
X128270000Y-90805000D02*
X128270000Y-90805000D01*
D31*
X145542000Y-97561500D02*
X145694500Y-97561500D01*
D30*
X126280000Y-74295000D02*
X128905000Y-71670000D01*
X123780000Y-74295000D02*
X126280000Y-74295000D01*
X128905000Y-71670000D02*
X132715000Y-71670000D01*
X128905000Y-71670000D02*
X128905000Y-68580000D01*
X130175000Y-71670000D02*
X130175000Y-68580000D01*
X131445000Y-71670000D02*
X131445000Y-68580000D01*
X132715000Y-71670000D02*
X132715000Y-68580000D01*
X132715000Y-76920000D02*
X132715000Y-71670000D01*
X133502500Y-88900000D02*
X132232500Y-87630000D01*
X134620000Y-88900000D02*
X133502500Y-88900000D01*
X133145009Y-81075009D02*
X133145009Y-80645000D01*
X134620000Y-82550000D02*
X133145009Y-81075009D01*
D32*
X159510000Y-80325000D02*
X159385000Y-80200000D01*
X162830000Y-80325000D02*
X159510000Y-80325000D01*
X162705000Y-86550000D02*
X162830000Y-86675000D01*
X160845000Y-86550000D02*
X160845000Y-85535000D01*
X159385000Y-86550000D02*
X160845000Y-86550000D01*
X160845000Y-86550000D02*
X162705000Y-86550000D01*
X160845000Y-85535000D02*
X161290000Y-85090000D01*
X161290000Y-85090000D02*
X161290000Y-85090000D01*
D30*
X147275000Y-73025000D02*
X149860000Y-75610000D01*
X149860000Y-75610000D02*
X149860000Y-76200000D01*
X149860000Y-76200000D02*
X149860000Y-76200000D01*
D32*
X159385000Y-80200000D02*
X158940000Y-80200000D01*
X158940000Y-80200000D02*
X157480000Y-78740000D01*
X157480000Y-78740000D02*
X157480000Y-78740000D01*
X155092500Y-83185000D02*
X155575000Y-83185000D01*
X155575000Y-83185000D02*
X156845000Y-84455000D01*
X156845000Y-84455000D02*
X156845000Y-84455000D01*
D31*
X123825000Y-96645000D02*
X121920000Y-98550000D01*
X123825000Y-88897500D02*
X123825000Y-96645000D01*
D32*
X157480000Y-78740000D02*
X157480000Y-78740000D01*
X156845000Y-84455000D02*
X156845000Y-84455000D01*
X161290000Y-85090000D02*
X161290000Y-85090000D01*
X159510000Y-98105000D02*
X159385000Y-97980000D01*
X157480000Y-100965000D02*
X158115000Y-100330000D01*
X160970000Y-96840000D02*
X161290000Y-96520000D01*
X160970000Y-98105000D02*
X160970000Y-96840000D01*
X162830000Y-98105000D02*
X160970000Y-98105000D01*
X160970000Y-98105000D02*
X159510000Y-98105000D01*
D28*
X133350000Y-113895000D02*
X135890000Y-116435000D01*
X133350000Y-113182500D02*
X133350000Y-113895000D01*
X142875000Y-113895000D02*
X145415000Y-116435000D01*
X142875000Y-113182500D02*
X142875000Y-113895000D01*
X139315000Y-102620000D02*
X139065000Y-102870000D01*
X139315000Y-100932500D02*
X139315000Y-102620000D01*
D32*
X159510000Y-115885000D02*
X159385000Y-115760000D01*
X162830000Y-115885000D02*
X159510000Y-115885000D01*
X157925000Y-115760000D02*
X157480000Y-116205000D01*
X159385000Y-115760000D02*
X157925000Y-115760000D01*
X156845000Y-119380000D02*
X157480000Y-118745000D01*
X155727500Y-119380000D02*
X156845000Y-119380000D01*
D28*
X141122500Y-113182500D02*
X140970000Y-113030000D01*
X142875000Y-113182500D02*
X141122500Y-113182500D01*
X135890000Y-118745000D02*
X136525000Y-119380000D01*
X135890000Y-116435000D02*
X135890000Y-118745000D01*
X118239000Y-113663000D02*
X117729000Y-114173000D01*
X118999000Y-113663000D02*
X118239000Y-113663000D01*
X119634000Y-111633000D02*
X118999000Y-110998000D01*
X119759000Y-111633000D02*
X119634000Y-111633000D01*
D31*
X140540000Y-98220000D02*
X142240000Y-96520000D01*
X140540000Y-98425000D02*
X140540000Y-98220000D01*
D32*
X157353000Y-102935500D02*
X157353000Y-100965000D01*
X159385000Y-104967500D02*
X157353000Y-102935500D01*
X157353000Y-100965000D02*
X157480000Y-100965000D01*
X155092500Y-100965000D02*
X157353000Y-100965000D01*
X159897500Y-104455000D02*
X159385000Y-104967500D01*
X162830000Y-104455000D02*
X159897500Y-104455000D01*
X162317500Y-122747500D02*
X162830000Y-122235000D01*
X159385000Y-122747500D02*
X162317500Y-122747500D01*
X159385000Y-121920000D02*
X156845000Y-119380000D01*
X159385000Y-122747500D02*
X159385000Y-121920000D01*
D28*
X142593990Y-96873990D02*
X142240000Y-96520000D01*
X144854490Y-96873990D02*
X142593990Y-96873990D01*
X145542000Y-97561500D02*
X144854490Y-96873990D01*
X147560502Y-97561500D02*
X145542000Y-97561500D01*
X149511001Y-101440999D02*
X149511001Y-99511999D01*
X149511001Y-99511999D02*
X147560502Y-97561500D01*
X148336000Y-102616000D02*
X149511001Y-101440999D01*
X101124000Y-129699000D02*
X106045000Y-134620000D01*
X101124000Y-123388000D02*
X101124000Y-129699000D01*
X100048999Y-111255001D02*
X101124000Y-110180000D01*
X100048999Y-120404001D02*
X100048999Y-111255001D01*
X100949001Y-120963001D02*
X100607999Y-120963001D01*
X101124000Y-121138000D02*
X100949001Y-120963001D01*
X100607999Y-120963001D02*
X100048999Y-120404001D01*
X101124000Y-123388000D02*
X101124000Y-121138000D01*
X104360999Y-95245501D02*
X104360999Y-94267001D01*
X104360999Y-94267001D02*
X105156000Y-93472000D01*
X159385000Y-86550000D02*
X159322000Y-86550000D01*
X159004000Y-86868000D02*
X159004000Y-87187500D01*
X159322000Y-86550000D02*
X159004000Y-86868000D01*
D29*
%TO.N,+24V*%
X123822500Y-83820000D02*
X123825000Y-83822500D01*
X117902500Y-83820000D02*
X123822500Y-83820000D01*
X114980000Y-80897500D02*
X117902500Y-83820000D01*
X114980000Y-74295000D02*
X114980000Y-80897500D01*
D30*
X128905000Y-78742500D02*
X123825000Y-83822500D01*
X128905000Y-76920000D02*
X128905000Y-78742500D01*
D29*
X158115000Y-74295000D02*
X151324990Y-67504990D01*
X151324990Y-67504990D02*
X121770010Y-67504990D01*
X121770010Y-67504990D02*
X114980000Y-74295000D01*
X179375010Y-76251010D02*
X179375010Y-78157734D01*
X177816744Y-79716000D02*
X177800000Y-79716000D01*
X179375010Y-78157734D02*
X177816744Y-79716000D01*
X177419000Y-74295000D02*
X179375010Y-76251010D01*
X177419000Y-74295000D02*
X158115000Y-74295000D01*
X177816744Y-88352000D02*
X177800000Y-88352000D01*
X179375010Y-86793734D02*
X177816744Y-88352000D01*
X179375010Y-81291010D02*
X179375010Y-86793734D01*
X177800000Y-79716000D02*
X179375010Y-81291010D01*
X177816744Y-97496000D02*
X177800000Y-97496000D01*
X179375010Y-95937734D02*
X177816744Y-97496000D01*
X179375010Y-89927010D02*
X179375010Y-95937734D01*
X177800000Y-88352000D02*
X179375010Y-89927010D01*
X177816744Y-106132000D02*
X177800000Y-106132000D01*
X179375010Y-104573734D02*
X177816744Y-106132000D01*
X179375010Y-99071010D02*
X179375010Y-104573734D01*
X177800000Y-97496000D02*
X179375010Y-99071010D01*
X177816744Y-115276000D02*
X177800000Y-115276000D01*
X179375010Y-113717734D02*
X177816744Y-115276000D01*
X179375010Y-107707010D02*
X179375010Y-113717734D01*
X177800000Y-106132000D02*
X179375010Y-107707010D01*
X177816744Y-123912000D02*
X177800000Y-123912000D01*
X179375010Y-122353734D02*
X177816744Y-123912000D01*
X179375010Y-116851010D02*
X179375010Y-122353734D01*
X177800000Y-115276000D02*
X179375010Y-116851010D01*
D31*
X116840000Y-84882500D02*
X117902500Y-83820000D01*
X116840000Y-88900000D02*
X116840000Y-84882500D01*
D28*
%TO.N,Net-(D1-Pad2)*%
X145504500Y-95949000D02*
X145542000Y-95986500D01*
X143637000Y-95949000D02*
X145504500Y-95949000D01*
D32*
%TO.N,Net-(D2-Pad2)*%
X154115000Y-119342500D02*
X154152500Y-119380000D01*
X154115000Y-117475000D02*
X154115000Y-119342500D01*
D28*
%TO.N,Net-(D3-Pad2)*%
X153517500Y-99097500D02*
X153480000Y-99060000D01*
X153517500Y-100965000D02*
X153517500Y-99097500D01*
D32*
%TO.N,Net-(D4-Pad2)*%
X153480000Y-83147500D02*
X153517500Y-83185000D01*
X153480000Y-81280000D02*
X153480000Y-83147500D01*
D30*
%TO.N,Net-(D5-Pad2)*%
X130657500Y-85762500D02*
X130620000Y-85725000D01*
X130657500Y-87630000D02*
X130657500Y-85762500D01*
%TO.N,Net-(D6-Pad1)*%
X130175000Y-80265000D02*
X129795000Y-80645000D01*
X130175000Y-76920000D02*
X130175000Y-80265000D01*
X129795000Y-82170000D02*
X128905000Y-83060000D01*
X129795000Y-80645000D02*
X129795000Y-82170000D01*
X128905000Y-88265000D02*
X131950000Y-91310000D01*
X128905000Y-83060000D02*
X128905000Y-88265000D01*
X131950000Y-91310000D02*
X142875000Y-91310000D01*
D29*
%TO.N,Net-(FB1-Pad2)*%
X111760000Y-83820000D02*
X115777500Y-83820000D01*
D28*
%TO.N,Net-(J1-PadT)*%
X138430000Y-126135000D02*
X141510999Y-129215999D01*
X141510999Y-130075999D02*
X144540000Y-133105000D01*
X141510999Y-129215999D02*
X141510999Y-130075999D01*
%TO.N,Net-(J1-PadS)*%
X147955000Y-126135000D02*
X147955000Y-139225002D01*
X147575002Y-139605000D02*
X147955000Y-139225002D01*
X145140000Y-139605000D02*
X147575002Y-139605000D01*
X140315001Y-140580001D02*
X139540000Y-139805000D01*
X144164999Y-140580001D02*
X140315001Y-140580001D01*
X145140000Y-139605000D02*
X144164999Y-140580001D01*
%TO.N,Net-(J1-PadG)*%
X139940000Y-130185000D02*
X135890000Y-126135000D01*
X139940000Y-132605000D02*
X139940000Y-130185000D01*
X139940000Y-129935000D02*
X140335000Y-129540000D01*
X139940000Y-130185000D02*
X139940000Y-129935000D01*
X143280000Y-128270000D02*
X145415000Y-126135000D01*
X142240000Y-128270000D02*
X143280000Y-128270000D01*
%TO.N,RX*%
X108124000Y-110180000D02*
X113496500Y-104807500D01*
X117357001Y-107705001D02*
X114459500Y-104807500D01*
X114459500Y-104807500D02*
X137815000Y-104807500D01*
X113496500Y-104807500D02*
X114459500Y-104807500D01*
X115307505Y-107705001D02*
X117357001Y-107705001D01*
X114007990Y-109004516D02*
X115307505Y-107705001D01*
X114007990Y-110223490D02*
X114007990Y-109004516D01*
X114808000Y-111023500D02*
X114007990Y-110223490D01*
D31*
%TO.N,LOAD_IN*%
X120779000Y-113463000D02*
X121174000Y-113858000D01*
X120779000Y-111633000D02*
X120779000Y-113463000D01*
D28*
X104064000Y-104120000D02*
X137127500Y-104120000D01*
X103124000Y-103180000D02*
X104064000Y-104120000D01*
X106172000Y-100132000D02*
X103124000Y-103180000D01*
X106172000Y-96837000D02*
X106172000Y-100132000D01*
X103124000Y-108515002D02*
X103124000Y-103180000D01*
X107206499Y-112597501D02*
X103124000Y-108515002D01*
X116510499Y-112597501D02*
X107206499Y-112597501D01*
X118227001Y-110880999D02*
X116510499Y-112597501D01*
X118227001Y-110372999D02*
X118227001Y-110880999D01*
X119838999Y-110372999D02*
X118227001Y-110372999D01*
X120779000Y-111313000D02*
X119838999Y-110372999D01*
X120779000Y-111633000D02*
X120779000Y-111313000D01*
D31*
%TO.N,LOAD_OUT*%
X120099000Y-114683000D02*
X121174000Y-115758000D01*
X118999000Y-114683000D02*
X120099000Y-114683000D01*
D28*
X117294000Y-116388000D02*
X103124000Y-116388000D01*
X118999000Y-114683000D02*
X117294000Y-116388000D01*
%TO.N,TX*%
X138038012Y-105545010D02*
X138315000Y-105268022D01*
X138315000Y-105268022D02*
X138315000Y-104807500D01*
X134829988Y-105545010D02*
X138038012Y-105545010D01*
X119179999Y-121194999D02*
X134829988Y-105545010D01*
X108124000Y-123388000D02*
X110317001Y-121194999D01*
X120378105Y-121194999D02*
X119162999Y-121194999D01*
X122428000Y-123244894D02*
X120378105Y-121194999D01*
X122428000Y-123952000D02*
X122428000Y-123244894D01*
X119162999Y-121194999D02*
X119179999Y-121194999D01*
X114808000Y-122656500D02*
X114808000Y-121412000D01*
X115025001Y-121194999D02*
X119162999Y-121194999D01*
X114808000Y-121412000D02*
X115025001Y-121194999D01*
X110317001Y-121194999D02*
X115025001Y-121194999D01*
%TO.N,Net-(J9-Pad3)*%
X143766000Y-100076000D02*
X143764000Y-100074000D01*
X146812000Y-100076000D02*
X143766000Y-100076000D01*
X146812000Y-100076000D02*
X148336000Y-100076000D01*
%TO.N,C_LED_CTRL*%
X135235000Y-101620000D02*
X133985000Y-102870000D01*
X137127500Y-101620000D02*
X135235000Y-101620000D01*
X130810000Y-110490000D02*
X130810000Y-131739002D01*
X133350000Y-107950000D02*
X130810000Y-110490000D01*
X125389002Y-138176000D02*
X124420000Y-138176000D01*
X130810000Y-132755002D02*
X125389002Y-138176000D01*
X130810000Y-131739002D02*
X130810000Y-132755002D01*
D32*
%TO.N,Net-(Q2-Pad3)*%
X167195000Y-120335000D02*
X167005000Y-120525000D01*
X169180000Y-120335000D02*
X167195000Y-120335000D01*
X165590000Y-120525000D02*
X164830000Y-121285000D01*
X167005000Y-120525000D02*
X165590000Y-120525000D01*
%TO.N,Net-(Q2-Pad1)*%
X163070000Y-120095000D02*
X162830000Y-120335000D01*
X163070000Y-118110000D02*
X163070000Y-120095000D01*
%TO.N,Net-(Q3-Pad1)*%
X163070000Y-113745000D02*
X162830000Y-113985000D01*
X163070000Y-111760000D02*
X163070000Y-113745000D01*
%TO.N,Net-(Q3-Pad3)*%
X167450000Y-113985000D02*
X167005000Y-113540000D01*
X169180000Y-113985000D02*
X167450000Y-113985000D01*
X165610000Y-114935000D02*
X167005000Y-113540000D01*
X164830000Y-114935000D02*
X165610000Y-114935000D01*
%TO.N,Net-(Q4-Pad2)*%
X169180000Y-122235000D02*
X164145000Y-122235000D01*
X163929999Y-122019999D02*
X163929999Y-121674997D01*
X163929999Y-121674997D02*
X163440003Y-121185001D01*
X164145000Y-122235000D02*
X163929999Y-122019999D01*
X161097500Y-118110000D02*
X159385000Y-119822500D01*
X162050000Y-118110000D02*
X161097500Y-118110000D01*
X162019999Y-121185001D02*
X161929999Y-121095001D01*
X163440003Y-121185001D02*
X162019999Y-121185001D01*
X161929999Y-118230001D02*
X162050000Y-118110000D01*
X161929999Y-121095001D02*
X161929999Y-118230001D01*
%TO.N,Net-(Q5-Pad2)*%
X170279999Y-114785001D02*
X170279999Y-112494999D01*
X169180000Y-115885000D02*
X170279999Y-114785001D01*
X162050000Y-111632670D02*
X162050000Y-111760000D01*
X162692680Y-110989990D02*
X162050000Y-111632670D01*
X168774990Y-110989990D02*
X162692680Y-110989990D01*
X170279999Y-112494999D02*
X168774990Y-110989990D01*
X162050000Y-111760000D02*
X161735000Y-111760000D01*
X160623500Y-112871500D02*
X159419000Y-112871500D01*
X161735000Y-111760000D02*
X160623500Y-112871500D01*
X159419000Y-112871500D02*
X159385000Y-112837500D01*
%TO.N,Net-(Q6-Pad1)*%
X162830000Y-101360000D02*
X162435000Y-100965000D01*
X162830000Y-102555000D02*
X162830000Y-101360000D01*
%TO.N,Net-(Q6-Pad3)*%
X167195000Y-102555000D02*
X167005000Y-102745000D01*
X169180000Y-102555000D02*
X167195000Y-102555000D01*
X165590000Y-102745000D02*
X164830000Y-103505000D01*
X167005000Y-102745000D02*
X165590000Y-102745000D01*
%TO.N,Net-(Q7-Pad1)*%
X162435000Y-95810000D02*
X162830000Y-96205000D01*
X162435000Y-93980000D02*
X162435000Y-95810000D01*
%TO.N,Net-(Q7-Pad3)*%
X167195000Y-96205000D02*
X167005000Y-96395000D01*
X169180000Y-96205000D02*
X167195000Y-96205000D01*
X166245000Y-97155000D02*
X167005000Y-96395000D01*
X164830000Y-97155000D02*
X166245000Y-97155000D01*
%TO.N,Net-(Q8-Pad2)*%
X162812320Y-100194990D02*
X163830000Y-101212670D01*
X161865010Y-100194990D02*
X162812320Y-100194990D01*
X161415000Y-100645000D02*
X161865010Y-100194990D01*
X161415000Y-100965000D02*
X161415000Y-100645000D01*
X163830000Y-104165002D02*
X164439998Y-104775000D01*
X163830000Y-101212670D02*
X163830000Y-104165002D01*
X168860000Y-104775000D02*
X169180000Y-104455000D01*
X164439998Y-104775000D02*
X168860000Y-104775000D01*
X160337500Y-102042500D02*
X161415000Y-100965000D01*
X159385000Y-102042500D02*
X160337500Y-102042500D01*
%TO.N,Net-(Q9-Pad2)*%
X170279999Y-97005001D02*
X170279999Y-95349999D01*
X169180000Y-98105000D02*
X170279999Y-97005001D01*
X161865010Y-93209990D02*
X161415000Y-93660000D01*
X161415000Y-93660000D02*
X161415000Y-93980000D01*
X168139990Y-93209990D02*
X161865010Y-93209990D01*
X170279999Y-95349999D02*
X168139990Y-93209990D01*
X159385000Y-95057500D02*
X160466500Y-95057500D01*
X161415000Y-94109000D02*
X161415000Y-93980000D01*
X160466500Y-95057500D02*
X161415000Y-94109000D01*
%TO.N,Net-(Q10-Pad1)*%
X161800000Y-83745000D02*
X162830000Y-84775000D01*
X161800000Y-83185000D02*
X161800000Y-83745000D01*
%TO.N,Net-(Q10-Pad3)*%
X167195000Y-84775000D02*
X167005000Y-84965000D01*
X169180000Y-84775000D02*
X167195000Y-84775000D01*
X166245000Y-85725000D02*
X167005000Y-84965000D01*
X164830000Y-85725000D02*
X166245000Y-85725000D01*
%TO.N,Net-(Q11-Pad1)*%
X161800000Y-77395000D02*
X162830000Y-78425000D01*
X161800000Y-77395000D02*
X161800000Y-76835000D01*
%TO.N,Net-(Q11-Pad3)*%
X166245000Y-79375000D02*
X167005000Y-78615000D01*
X164830000Y-79375000D02*
X166245000Y-79375000D01*
X168990000Y-78615000D02*
X169180000Y-78425000D01*
X167005000Y-78615000D02*
X168990000Y-78615000D01*
%TO.N,Net-(Q12-Pad2)*%
X169180000Y-86675000D02*
X170180000Y-85675000D01*
X168479992Y-82414990D02*
X161422680Y-82414990D01*
X170180000Y-84114998D02*
X168479992Y-82414990D01*
X170180000Y-85675000D02*
X170180000Y-84114998D01*
X159702500Y-84262500D02*
X160780000Y-83185000D01*
X159004000Y-84262500D02*
X159702500Y-84262500D01*
X160780000Y-83057670D02*
X161422680Y-82414990D01*
X160780000Y-83185000D02*
X160780000Y-83057670D01*
%TO.N,Net-(Q13-Pad2)*%
X169180000Y-80325000D02*
X170180000Y-79325000D01*
X160780000Y-76072670D02*
X160780000Y-76200000D01*
X161422680Y-75429990D02*
X160780000Y-76072670D01*
X167844992Y-75429990D02*
X161422680Y-75429990D01*
X170180000Y-77764998D02*
X167844992Y-75429990D01*
X170180000Y-79325000D02*
X170180000Y-77764998D01*
X159446500Y-76835000D02*
X159004000Y-77277500D01*
X160780000Y-76835000D02*
X159446500Y-76835000D01*
X160780000Y-76072670D02*
X160780000Y-76835000D01*
D28*
%TO.N,INDICATOR*%
X143637000Y-98985500D02*
X141002500Y-101620000D01*
X143637000Y-97599000D02*
X143637000Y-98985500D01*
%TO.N,CHN_0_CTRL*%
X144145000Y-107950000D02*
X146685000Y-107950000D01*
X153035000Y-114300000D02*
X156210000Y-114300000D01*
X142875000Y-106680000D02*
X144145000Y-107950000D01*
X142875000Y-105031978D02*
X142875000Y-106680000D01*
X146685000Y-107950000D02*
X153035000Y-114300000D01*
X141463022Y-103620000D02*
X142875000Y-105031978D01*
X141002500Y-103620000D02*
X141463022Y-103620000D01*
D32*
X155765000Y-114745000D02*
X156210000Y-114300000D01*
X155765000Y-117475000D02*
X155765000Y-114745000D01*
X167005000Y-112520000D02*
X165610000Y-112520000D01*
X165610000Y-112520000D02*
X163830000Y-114300000D01*
X155900010Y-117339990D02*
X155765000Y-117475000D01*
X163035012Y-117339990D02*
X155900010Y-117339990D01*
X163830000Y-116545002D02*
X163035012Y-117339990D01*
X163830000Y-114300000D02*
X163830000Y-116545002D01*
X166789998Y-119505000D02*
X163830000Y-116545002D01*
X167005000Y-119505000D02*
X166789998Y-119505000D01*
D28*
%TO.N,CHN_1_CTRL*%
X154329990Y-104750010D02*
X154329990Y-99860010D01*
X151765000Y-107315000D02*
X154329990Y-104750010D01*
X144146410Y-107315000D02*
X151765000Y-107315000D01*
X154329990Y-99860010D02*
X155130000Y-99060000D01*
X143510000Y-106678590D02*
X144146410Y-107315000D01*
X143510000Y-104775000D02*
X143510000Y-106678590D01*
X141855000Y-103120000D02*
X143510000Y-104775000D01*
X141002500Y-103120000D02*
X141855000Y-103120000D01*
D32*
X167005000Y-95375000D02*
X164975000Y-95375000D01*
X163730001Y-98865001D02*
X163535002Y-99060000D01*
X163730001Y-96619999D02*
X163730001Y-98865001D01*
X164975000Y-95375000D02*
X163730001Y-96619999D01*
X164340000Y-99060000D02*
X161925000Y-99060000D01*
X167005000Y-101725000D02*
X164340000Y-99060000D01*
X163535002Y-99060000D02*
X161925000Y-99060000D01*
X156210000Y-97980000D02*
X155130000Y-99060000D01*
X156210000Y-95885000D02*
X156210000Y-97980000D01*
X157290000Y-99060000D02*
X156210000Y-97980000D01*
X161925000Y-99060000D02*
X157290000Y-99060000D01*
%TO.N,CHN_2_CTRL*%
X167005000Y-77595000D02*
X164975000Y-77595000D01*
X164975000Y-77595000D02*
X163830000Y-78740000D01*
X163830000Y-80985002D02*
X163535002Y-81280000D01*
X163830000Y-78740000D02*
X163830000Y-80985002D01*
X163535002Y-81280000D02*
X158115000Y-81280000D01*
X155575000Y-78740000D02*
X155575000Y-78105000D01*
X158115000Y-81280000D02*
X155575000Y-78740000D01*
D28*
X141991410Y-102620000D02*
X141002500Y-102620000D01*
X144145000Y-106045000D02*
X144145000Y-104773590D01*
X151130000Y-105410000D02*
X149860000Y-106680000D01*
X153035000Y-98287522D02*
X151130000Y-100192522D01*
X144145000Y-104773590D02*
X141991410Y-102620000D01*
X153035000Y-85725000D02*
X153035000Y-98287522D01*
X144780000Y-106680000D02*
X144145000Y-106045000D01*
X149860000Y-106680000D02*
X144780000Y-106680000D01*
X151130000Y-100192522D02*
X151130000Y-105410000D01*
X154280010Y-84479990D02*
X153035000Y-85725000D01*
X154280010Y-82129990D02*
X154280010Y-84479990D01*
X155130000Y-81280000D02*
X154280010Y-82129990D01*
D32*
X157480000Y-81280000D02*
X158115000Y-81280000D01*
X155130000Y-81280000D02*
X157480000Y-81280000D01*
X164949998Y-83945000D02*
X163929999Y-84964999D01*
X167005000Y-83945000D02*
X164949998Y-83945000D01*
X163929999Y-84964999D02*
X163929999Y-87530001D01*
X163929999Y-87530001D02*
X162560000Y-88900000D01*
X162560000Y-88900000D02*
X157988000Y-88900000D01*
X157595001Y-88507001D02*
X157595001Y-83427001D01*
X157988000Y-88900000D02*
X157595001Y-88507001D01*
X155448000Y-81280000D02*
X155130000Y-81280000D01*
X157595001Y-83427001D02*
X155448000Y-81280000D01*
D28*
%TO.N,Net-(R9-Pad1)*%
X138430000Y-114175000D02*
X138430000Y-116435000D01*
%TO.N,FS1*%
X135320000Y-113155000D02*
X135255000Y-113220000D01*
X138430000Y-113155000D02*
X135320000Y-113155000D01*
X138430000Y-111125000D02*
X138430000Y-113155000D01*
X139815000Y-109740000D02*
X139815000Y-104807500D01*
X138430000Y-111125000D02*
X139815000Y-109740000D01*
%TO.N,Net-(R10-Pad1)*%
X147955000Y-114175000D02*
X147955000Y-116435000D01*
%TO.N,FS2*%
X147890000Y-113220000D02*
X147955000Y-113155000D01*
X144780000Y-113220000D02*
X147890000Y-113220000D01*
X144780000Y-113220000D02*
X146050000Y-111950000D01*
X146050000Y-111622522D02*
X141742478Y-107315000D01*
X146050000Y-111950000D02*
X146050000Y-111622522D01*
X141742478Y-107315000D02*
X140970000Y-107315000D01*
X140315000Y-106660000D02*
X140315000Y-104807500D01*
X140970000Y-107315000D02*
X140315000Y-106660000D01*
X146547522Y-111125000D02*
X146050000Y-111622522D01*
X147955000Y-111125000D02*
X146547522Y-111125000D01*
%TO.N,TEMP_SEN*%
X126365000Y-100330000D02*
X127635000Y-99060000D01*
X127635000Y-99060000D02*
X135890000Y-99060000D01*
X135890000Y-99060000D02*
X136525000Y-99695000D01*
X136525000Y-99695000D02*
X137160000Y-99695000D01*
X137815000Y-100350000D02*
X137815000Y-100932500D01*
X137160000Y-99695000D02*
X137815000Y-100350000D01*
X125605000Y-99570000D02*
X126365000Y-100330000D01*
X121920000Y-99570000D02*
X125605000Y-99570000D01*
%TO.N,PROGRAM*%
X142738000Y-102120000D02*
X141002500Y-102120000D01*
X143764000Y-101094000D02*
X142738000Y-102120000D01*
%TO.N,Net-(D7-Pad2)*%
X135217500Y-111607500D02*
X135255000Y-111570000D01*
X133350000Y-111607500D02*
X135217500Y-111607500D01*
%TO.N,Net-(D8-Pad2)*%
X144742500Y-111607500D02*
X144780000Y-111570000D01*
X142875000Y-111607500D02*
X144742500Y-111607500D01*
D32*
%TO.N,Net-(J4-Pad1)*%
X177673000Y-121285000D02*
X177800000Y-121412000D01*
X171180000Y-121285000D02*
X177673000Y-121285000D01*
%TO.N,Net-(J5-Pad1)*%
X175641000Y-114935000D02*
X177800000Y-112776000D01*
X171180000Y-114935000D02*
X175641000Y-114935000D01*
%TO.N,Net-(J6-Pad1)*%
X177673000Y-103505000D02*
X177800000Y-103632000D01*
X171180000Y-103505000D02*
X177673000Y-103505000D01*
%TO.N,Net-(J7-Pad1)*%
X175641000Y-97155000D02*
X177800000Y-94996000D01*
X171180000Y-97155000D02*
X175641000Y-97155000D01*
%TO.N,Net-(J10-Pad1)*%
X177673000Y-85725000D02*
X177800000Y-85852000D01*
X171180000Y-85725000D02*
X177673000Y-85725000D01*
%TO.N,Net-(J11-Pad1)*%
X175641000Y-79375000D02*
X177800000Y-77216000D01*
X171180000Y-79375000D02*
X175641000Y-79375000D01*
D28*
%TO.N,Net-(D9-Pad2)*%
X105994500Y-95187000D02*
X104360999Y-96820501D01*
X106172000Y-95187000D02*
X105994500Y-95187000D01*
%TO.N,Net-(D10-Pad2)*%
X115085500Y-109726000D02*
X114808000Y-109448500D01*
X116840000Y-109726000D02*
X115085500Y-109726000D01*
%TO.N,Net-(D11-Pad2)*%
X115085500Y-123954000D02*
X114808000Y-124231500D01*
X116840000Y-123954000D02*
X115085500Y-123954000D01*
%TD*%
M02*
