%TF.GenerationSoftware,KiCad,Pcbnew,5.1.10-88a1d61d58~88~ubuntu20.04.1*%
%TF.CreationDate,2021-07-08T16:26:14-06:00*%
%TF.ProjectId,ring_light_controller,72696e67-5f6c-4696-9768-745f636f6e74,1*%
%TF.SameCoordinates,Original*%
%TF.FileFunction,Soldermask,Top*%
%TF.FilePolarity,Negative*%
%FSLAX46Y46*%
G04 Gerber Fmt 4.6, Leading zero omitted, Abs format (unit mm)*
G04 Created by KiCad (PCBNEW 5.1.10-88a1d61d58~88~ubuntu20.04.1) date 2021-07-08 16:26:14*
%MOMM*%
%LPD*%
G01*
G04 APERTURE LIST*
%ADD10R,0.900000X1.200000*%
%ADD11C,0.900000*%
%ADD12C,10.600000*%
%ADD13R,2.200000X1.500000*%
%ADD14C,1.300000*%
%ADD15O,1.950000X1.700000*%
%ADD16C,1.200000*%
%ADD17O,2.000000X1.700000*%
%ADD18R,3.500000X3.500000*%
%ADD19R,1.000000X1.000000*%
%ADD20O,1.000000X1.000000*%
%ADD21O,1.700000X1.950000*%
%ADD22R,5.400000X2.900000*%
%ADD23R,0.900000X0.800000*%
%ADD24C,1.000000*%
%ADD25R,2.600000X2.600000*%
%ADD26R,1.470000X1.410000*%
G04 APERTURE END LIST*
%TO.C,C1*%
G36*
G01*
X137015000Y-99075001D02*
X137015000Y-97774999D01*
G75*
G02*
X137264999Y-97525000I249999J0D01*
G01*
X137915001Y-97525000D01*
G75*
G02*
X138165000Y-97774999I0J-249999D01*
G01*
X138165000Y-99075001D01*
G75*
G02*
X137915001Y-99325000I-249999J0D01*
G01*
X137264999Y-99325000D01*
G75*
G02*
X137015000Y-99075001I0J249999D01*
G01*
G37*
G36*
G01*
X139965000Y-99075001D02*
X139965000Y-97774999D01*
G75*
G02*
X140214999Y-97525000I249999J0D01*
G01*
X140865001Y-97525000D01*
G75*
G02*
X141115000Y-97774999I0J-249999D01*
G01*
X141115000Y-99075001D01*
G75*
G02*
X140865001Y-99325000I-249999J0D01*
G01*
X140214999Y-99325000D01*
G75*
G02*
X139965000Y-99075001I0J249999D01*
G01*
G37*
%TD*%
%TO.C,C2*%
G36*
G01*
X136175000Y-73825001D02*
X136175000Y-72224999D01*
G75*
G02*
X136424999Y-71975000I249999J0D01*
G01*
X140525001Y-71975000D01*
G75*
G02*
X140775000Y-72224999I0J-249999D01*
G01*
X140775000Y-73825001D01*
G75*
G02*
X140525001Y-74075000I-249999J0D01*
G01*
X136424999Y-74075000D01*
G75*
G02*
X136175000Y-73825001I0J249999D01*
G01*
G37*
G36*
G01*
X144975000Y-73825001D02*
X144975000Y-72224999D01*
G75*
G02*
X145224999Y-71975000I249999J0D01*
G01*
X149325001Y-71975000D01*
G75*
G02*
X149575000Y-72224999I0J-249999D01*
G01*
X149575000Y-73825001D01*
G75*
G02*
X149325001Y-74075000I-249999J0D01*
G01*
X145224999Y-74075000D01*
G75*
G02*
X144975000Y-73825001I0J249999D01*
G01*
G37*
%TD*%
%TO.C,C3*%
G36*
G01*
X123275000Y-82160000D02*
X124375000Y-82160000D01*
G75*
G02*
X124625000Y-82410000I0J-250000D01*
G01*
X124625000Y-85235000D01*
G75*
G02*
X124375000Y-85485000I-250000J0D01*
G01*
X123275000Y-85485000D01*
G75*
G02*
X123025000Y-85235000I0J250000D01*
G01*
X123025000Y-82410000D01*
G75*
G02*
X123275000Y-82160000I250000J0D01*
G01*
G37*
G36*
G01*
X123275000Y-87235000D02*
X124375000Y-87235000D01*
G75*
G02*
X124625000Y-87485000I0J-250000D01*
G01*
X124625000Y-90310000D01*
G75*
G02*
X124375000Y-90560000I-250000J0D01*
G01*
X123275000Y-90560000D01*
G75*
G02*
X123025000Y-90310000I0J250000D01*
G01*
X123025000Y-87485000D01*
G75*
G02*
X123275000Y-87235000I250000J0D01*
G01*
G37*
%TD*%
%TO.C,C4*%
G36*
G01*
X121480000Y-75095001D02*
X121480000Y-73494999D01*
G75*
G02*
X121729999Y-73245000I249999J0D01*
G01*
X125830001Y-73245000D01*
G75*
G02*
X126080000Y-73494999I0J-249999D01*
G01*
X126080000Y-75095001D01*
G75*
G02*
X125830001Y-75345000I-249999J0D01*
G01*
X121729999Y-75345000D01*
G75*
G02*
X121480000Y-75095001I0J249999D01*
G01*
G37*
G36*
G01*
X112680000Y-75095001D02*
X112680000Y-73494999D01*
G75*
G02*
X112929999Y-73245000I249999J0D01*
G01*
X117030001Y-73245000D01*
G75*
G02*
X117280000Y-73494999I0J-249999D01*
G01*
X117280000Y-75095001D01*
G75*
G02*
X117030001Y-75345000I-249999J0D01*
G01*
X112929999Y-75345000D01*
G75*
G02*
X112680000Y-75095001I0J249999D01*
G01*
G37*
%TD*%
%TO.C,D1*%
G36*
G01*
X146306250Y-97440000D02*
X145793750Y-97440000D01*
G75*
G02*
X145575000Y-97221250I0J218750D01*
G01*
X145575000Y-96783750D01*
G75*
G02*
X145793750Y-96565000I218750J0D01*
G01*
X146306250Y-96565000D01*
G75*
G02*
X146525000Y-96783750I0J-218750D01*
G01*
X146525000Y-97221250D01*
G75*
G02*
X146306250Y-97440000I-218750J0D01*
G01*
G37*
G36*
G01*
X146306250Y-99015000D02*
X145793750Y-99015000D01*
G75*
G02*
X145575000Y-98796250I0J218750D01*
G01*
X145575000Y-98358750D01*
G75*
G02*
X145793750Y-98140000I218750J0D01*
G01*
X146306250Y-98140000D01*
G75*
G02*
X146525000Y-98358750I0J-218750D01*
G01*
X146525000Y-98796250D01*
G75*
G02*
X146306250Y-99015000I-218750J0D01*
G01*
G37*
%TD*%
%TO.C,D2*%
G36*
G01*
X156165000Y-119123750D02*
X156165000Y-119636250D01*
G75*
G02*
X155946250Y-119855000I-218750J0D01*
G01*
X155508750Y-119855000D01*
G75*
G02*
X155290000Y-119636250I0J218750D01*
G01*
X155290000Y-119123750D01*
G75*
G02*
X155508750Y-118905000I218750J0D01*
G01*
X155946250Y-118905000D01*
G75*
G02*
X156165000Y-119123750I0J-218750D01*
G01*
G37*
G36*
G01*
X154590000Y-119123750D02*
X154590000Y-119636250D01*
G75*
G02*
X154371250Y-119855000I-218750J0D01*
G01*
X153933750Y-119855000D01*
G75*
G02*
X153715000Y-119636250I0J218750D01*
G01*
X153715000Y-119123750D01*
G75*
G02*
X153933750Y-118905000I218750J0D01*
G01*
X154371250Y-118905000D01*
G75*
G02*
X154590000Y-119123750I0J-218750D01*
G01*
G37*
%TD*%
%TO.C,D3*%
G36*
G01*
X155530000Y-100708750D02*
X155530000Y-101221250D01*
G75*
G02*
X155311250Y-101440000I-218750J0D01*
G01*
X154873750Y-101440000D01*
G75*
G02*
X154655000Y-101221250I0J218750D01*
G01*
X154655000Y-100708750D01*
G75*
G02*
X154873750Y-100490000I218750J0D01*
G01*
X155311250Y-100490000D01*
G75*
G02*
X155530000Y-100708750I0J-218750D01*
G01*
G37*
G36*
G01*
X153955000Y-100708750D02*
X153955000Y-101221250D01*
G75*
G02*
X153736250Y-101440000I-218750J0D01*
G01*
X153298750Y-101440000D01*
G75*
G02*
X153080000Y-101221250I0J218750D01*
G01*
X153080000Y-100708750D01*
G75*
G02*
X153298750Y-100490000I218750J0D01*
G01*
X153736250Y-100490000D01*
G75*
G02*
X153955000Y-100708750I0J-218750D01*
G01*
G37*
%TD*%
%TO.C,D4*%
G36*
G01*
X153955000Y-82928750D02*
X153955000Y-83441250D01*
G75*
G02*
X153736250Y-83660000I-218750J0D01*
G01*
X153298750Y-83660000D01*
G75*
G02*
X153080000Y-83441250I0J218750D01*
G01*
X153080000Y-82928750D01*
G75*
G02*
X153298750Y-82710000I218750J0D01*
G01*
X153736250Y-82710000D01*
G75*
G02*
X153955000Y-82928750I0J-218750D01*
G01*
G37*
G36*
G01*
X155530000Y-82928750D02*
X155530000Y-83441250D01*
G75*
G02*
X155311250Y-83660000I-218750J0D01*
G01*
X154873750Y-83660000D01*
G75*
G02*
X154655000Y-83441250I0J218750D01*
G01*
X154655000Y-82928750D01*
G75*
G02*
X154873750Y-82710000I218750J0D01*
G01*
X155311250Y-82710000D01*
G75*
G02*
X155530000Y-82928750I0J-218750D01*
G01*
G37*
%TD*%
%TO.C,D5*%
G36*
G01*
X132670000Y-87373750D02*
X132670000Y-87886250D01*
G75*
G02*
X132451250Y-88105000I-218750J0D01*
G01*
X132013750Y-88105000D01*
G75*
G02*
X131795000Y-87886250I0J218750D01*
G01*
X131795000Y-87373750D01*
G75*
G02*
X132013750Y-87155000I218750J0D01*
G01*
X132451250Y-87155000D01*
G75*
G02*
X132670000Y-87373750I0J-218750D01*
G01*
G37*
G36*
G01*
X131095000Y-87373750D02*
X131095000Y-87886250D01*
G75*
G02*
X130876250Y-88105000I-218750J0D01*
G01*
X130438750Y-88105000D01*
G75*
G02*
X130220000Y-87886250I0J218750D01*
G01*
X130220000Y-87373750D01*
G75*
G02*
X130438750Y-87155000I218750J0D01*
G01*
X130876250Y-87155000D01*
G75*
G02*
X131095000Y-87373750I0J-218750D01*
G01*
G37*
%TD*%
D10*
%TO.C,D6*%
X129795000Y-80645000D03*
X133095000Y-80645000D03*
%TD*%
%TO.C,FB1*%
G36*
G01*
X118340000Y-83438750D02*
X118340000Y-84201250D01*
G75*
G02*
X118121250Y-84420000I-218750J0D01*
G01*
X117683750Y-84420000D01*
G75*
G02*
X117465000Y-84201250I0J218750D01*
G01*
X117465000Y-83438750D01*
G75*
G02*
X117683750Y-83220000I218750J0D01*
G01*
X118121250Y-83220000D01*
G75*
G02*
X118340000Y-83438750I0J-218750D01*
G01*
G37*
G36*
G01*
X116215000Y-83438750D02*
X116215000Y-84201250D01*
G75*
G02*
X115996250Y-84420000I-218750J0D01*
G01*
X115558750Y-84420000D01*
G75*
G02*
X115340000Y-84201250I0J218750D01*
G01*
X115340000Y-83438750D01*
G75*
G02*
X115558750Y-83220000I218750J0D01*
G01*
X115996250Y-83220000D01*
G75*
G02*
X116215000Y-83438750I0J-218750D01*
G01*
G37*
%TD*%
D11*
%TO.C,H1*%
X176800749Y-131809251D03*
X173990000Y-130645000D03*
X171179251Y-131809251D03*
X170015000Y-134620000D03*
X171179251Y-137430749D03*
X173990000Y-138595000D03*
X176800749Y-137430749D03*
X177965000Y-134620000D03*
D12*
X173990000Y-134620000D03*
%TD*%
%TO.C,H2*%
X173990000Y-66040000D03*
D11*
X177965000Y-66040000D03*
X176800749Y-68850749D03*
X173990000Y-70015000D03*
X171179251Y-68850749D03*
X170015000Y-66040000D03*
X171179251Y-63229251D03*
X173990000Y-62065000D03*
X176800749Y-63229251D03*
%TD*%
%TO.C,H3*%
X108855749Y-63229251D03*
X106045000Y-62065000D03*
X103234251Y-63229251D03*
X102070000Y-66040000D03*
X103234251Y-68850749D03*
X106045000Y-70015000D03*
X108855749Y-68850749D03*
X110020000Y-66040000D03*
D12*
X106045000Y-66040000D03*
%TD*%
%TO.C,H4*%
X106045000Y-134620000D03*
D11*
X110020000Y-134620000D03*
X108855749Y-137430749D03*
X106045000Y-138595000D03*
X103234251Y-137430749D03*
X102070000Y-134620000D03*
X103234251Y-131809251D03*
X106045000Y-130645000D03*
X108855749Y-131809251D03*
%TD*%
D13*
%TO.C,J1*%
X145140000Y-139605000D03*
X139540000Y-139805000D03*
X139940000Y-132605000D03*
X144540000Y-133105000D03*
D14*
X142240000Y-139605000D03*
X142240000Y-134605000D03*
%TD*%
%TO.C,J2*%
G36*
G01*
X102780000Y-102655000D02*
X104230000Y-102655000D01*
G75*
G02*
X104480000Y-102905000I0J-250000D01*
G01*
X104480000Y-104105000D01*
G75*
G02*
X104230000Y-104355000I-250000J0D01*
G01*
X102780000Y-104355000D01*
G75*
G02*
X102530000Y-104105000I0J250000D01*
G01*
X102530000Y-102905000D01*
G75*
G02*
X102780000Y-102655000I250000J0D01*
G01*
G37*
D15*
X103505000Y-106005000D03*
X103505000Y-108505000D03*
D16*
X101505000Y-101905000D03*
%TD*%
%TO.C,J3*%
X101505000Y-113375000D03*
D15*
X103505000Y-119975000D03*
X103505000Y-117475000D03*
G36*
G01*
X102780000Y-114125000D02*
X104230000Y-114125000D01*
G75*
G02*
X104480000Y-114375000I0J-250000D01*
G01*
X104480000Y-115575000D01*
G75*
G02*
X104230000Y-115825000I-250000J0D01*
G01*
X102780000Y-115825000D01*
G75*
G02*
X102530000Y-115575000I0J250000D01*
G01*
X102530000Y-114375000D01*
G75*
G02*
X102780000Y-114125000I250000J0D01*
G01*
G37*
%TD*%
D16*
%TO.C,J4*%
X178530000Y-125425000D03*
D17*
X176530000Y-121325000D03*
G36*
G01*
X177280000Y-124675000D02*
X175780000Y-124675000D01*
G75*
G02*
X175530000Y-124425000I0J250000D01*
G01*
X175530000Y-123225000D01*
G75*
G02*
X175780000Y-122975000I250000J0D01*
G01*
X177280000Y-122975000D01*
G75*
G02*
X177530000Y-123225000I0J-250000D01*
G01*
X177530000Y-124425000D01*
G75*
G02*
X177280000Y-124675000I-250000J0D01*
G01*
G37*
%TD*%
%TO.C,J5*%
G36*
G01*
X177280000Y-115785000D02*
X175780000Y-115785000D01*
G75*
G02*
X175530000Y-115535000I0J250000D01*
G01*
X175530000Y-114335000D01*
G75*
G02*
X175780000Y-114085000I250000J0D01*
G01*
X177280000Y-114085000D01*
G75*
G02*
X177530000Y-114335000I0J-250000D01*
G01*
X177530000Y-115535000D01*
G75*
G02*
X177280000Y-115785000I-250000J0D01*
G01*
G37*
X176530000Y-112435000D03*
D16*
X178530000Y-116535000D03*
%TD*%
%TO.C,J6*%
G36*
G01*
X177280000Y-106895000D02*
X175780000Y-106895000D01*
G75*
G02*
X175530000Y-106645000I0J250000D01*
G01*
X175530000Y-105445000D01*
G75*
G02*
X175780000Y-105195000I250000J0D01*
G01*
X177280000Y-105195000D01*
G75*
G02*
X177530000Y-105445000I0J-250000D01*
G01*
X177530000Y-106645000D01*
G75*
G02*
X177280000Y-106895000I-250000J0D01*
G01*
G37*
D17*
X176530000Y-103545000D03*
D16*
X178530000Y-107645000D03*
%TD*%
%TO.C,J7*%
X178530000Y-98755000D03*
D17*
X176530000Y-94655000D03*
G36*
G01*
X177280000Y-98005000D02*
X175780000Y-98005000D01*
G75*
G02*
X175530000Y-97755000I0J250000D01*
G01*
X175530000Y-96555000D01*
G75*
G02*
X175780000Y-96305000I250000J0D01*
G01*
X177280000Y-96305000D01*
G75*
G02*
X177530000Y-96555000I0J-250000D01*
G01*
X177530000Y-97755000D01*
G75*
G02*
X177280000Y-98005000I-250000J0D01*
G01*
G37*
%TD*%
D18*
%TO.C,J8*%
X111760000Y-83820000D03*
G36*
G01*
X104260000Y-84820000D02*
X104260000Y-82820000D01*
G75*
G02*
X105010000Y-82070000I750000J0D01*
G01*
X106510000Y-82070000D01*
G75*
G02*
X107260000Y-82820000I0J-750000D01*
G01*
X107260000Y-84820000D01*
G75*
G02*
X106510000Y-85570000I-750000J0D01*
G01*
X105010000Y-85570000D01*
G75*
G02*
X104260000Y-84820000I0J750000D01*
G01*
G37*
G36*
G01*
X107010000Y-89395000D02*
X107010000Y-87645000D01*
G75*
G02*
X107885000Y-86770000I875000J0D01*
G01*
X109635000Y-86770000D01*
G75*
G02*
X110510000Y-87645000I0J-875000D01*
G01*
X110510000Y-89395000D01*
G75*
G02*
X109635000Y-90270000I-875000J0D01*
G01*
X107885000Y-90270000D01*
G75*
G02*
X107010000Y-89395000I0J875000D01*
G01*
G37*
%TD*%
D19*
%TO.C,J9*%
X147320000Y-104775000D03*
D20*
X147320000Y-103505000D03*
X147320000Y-102235000D03*
%TD*%
D16*
%TO.C,J10*%
X178530000Y-89865000D03*
D17*
X176530000Y-85765000D03*
G36*
G01*
X177280000Y-89115000D02*
X175780000Y-89115000D01*
G75*
G02*
X175530000Y-88865000I0J250000D01*
G01*
X175530000Y-87665000D01*
G75*
G02*
X175780000Y-87415000I250000J0D01*
G01*
X177280000Y-87415000D01*
G75*
G02*
X177530000Y-87665000I0J-250000D01*
G01*
X177530000Y-88865000D01*
G75*
G02*
X177280000Y-89115000I-250000J0D01*
G01*
G37*
%TD*%
%TO.C,J11*%
G36*
G01*
X177280000Y-80225000D02*
X175780000Y-80225000D01*
G75*
G02*
X175530000Y-79975000I0J250000D01*
G01*
X175530000Y-78775000D01*
G75*
G02*
X175780000Y-78525000I250000J0D01*
G01*
X177280000Y-78525000D01*
G75*
G02*
X177530000Y-78775000I0J-250000D01*
G01*
X177530000Y-79975000D01*
G75*
G02*
X177280000Y-80225000I-250000J0D01*
G01*
G37*
X176530000Y-76875000D03*
D16*
X178530000Y-80975000D03*
%TD*%
%TO.C,J12*%
G36*
G01*
X118570000Y-137885000D02*
X118570000Y-136435000D01*
G75*
G02*
X118820000Y-136185000I250000J0D01*
G01*
X120020000Y-136185000D01*
G75*
G02*
X120270000Y-136435000I0J-250000D01*
G01*
X120270000Y-137885000D01*
G75*
G02*
X120020000Y-138135000I-250000J0D01*
G01*
X118820000Y-138135000D01*
G75*
G02*
X118570000Y-137885000I0J250000D01*
G01*
G37*
D21*
X121920000Y-137160000D03*
X124420000Y-137160000D03*
D16*
X117820000Y-139160000D03*
%TD*%
D22*
%TO.C,L1*%
X142875000Y-81410000D03*
X142875000Y-91310000D03*
%TD*%
D23*
%TO.C,Q1*%
X112030000Y-110810000D03*
X112030000Y-112710000D03*
X114030000Y-111760000D03*
%TD*%
%TO.C,Q2*%
X164830000Y-121285000D03*
X162830000Y-122235000D03*
X162830000Y-120335000D03*
%TD*%
%TO.C,Q3*%
X162830000Y-113985000D03*
X162830000Y-115885000D03*
X164830000Y-114935000D03*
%TD*%
%TO.C,Q4*%
X171180000Y-121285000D03*
X169180000Y-122235000D03*
X169180000Y-120335000D03*
%TD*%
%TO.C,Q5*%
X171180000Y-114935000D03*
X169180000Y-115885000D03*
X169180000Y-113985000D03*
%TD*%
%TO.C,Q6*%
X162830000Y-102555000D03*
X162830000Y-104455000D03*
X164830000Y-103505000D03*
%TD*%
%TO.C,Q7*%
X162830000Y-96205000D03*
X162830000Y-98105000D03*
X164830000Y-97155000D03*
%TD*%
%TO.C,Q8*%
X169180000Y-102555000D03*
X169180000Y-104455000D03*
X171180000Y-103505000D03*
%TD*%
%TO.C,Q9*%
X171180000Y-97155000D03*
X169180000Y-98105000D03*
X169180000Y-96205000D03*
%TD*%
%TO.C,Q10*%
X162830000Y-84775000D03*
X162830000Y-86675000D03*
X164830000Y-85725000D03*
%TD*%
%TO.C,Q11*%
X162830000Y-78425000D03*
X162830000Y-80325000D03*
X164830000Y-79375000D03*
%TD*%
%TO.C,Q12*%
X171180000Y-85725000D03*
X169180000Y-86675000D03*
X169180000Y-84775000D03*
%TD*%
%TO.C,Q13*%
X171180000Y-79375000D03*
X169180000Y-80325000D03*
X169180000Y-78425000D03*
%TD*%
%TO.C,R1*%
G36*
G01*
X143870000Y-98215000D02*
X144420000Y-98215000D01*
G75*
G02*
X144620000Y-98415000I0J-200000D01*
G01*
X144620000Y-98815000D01*
G75*
G02*
X144420000Y-99015000I-200000J0D01*
G01*
X143870000Y-99015000D01*
G75*
G02*
X143670000Y-98815000I0J200000D01*
G01*
X143670000Y-98415000D01*
G75*
G02*
X143870000Y-98215000I200000J0D01*
G01*
G37*
G36*
G01*
X143870000Y-96565000D02*
X144420000Y-96565000D01*
G75*
G02*
X144620000Y-96765000I0J-200000D01*
G01*
X144620000Y-97165000D01*
G75*
G02*
X144420000Y-97365000I-200000J0D01*
G01*
X143870000Y-97365000D01*
G75*
G02*
X143670000Y-97165000I0J200000D01*
G01*
X143670000Y-96765000D01*
G75*
G02*
X143870000Y-96565000I200000J0D01*
G01*
G37*
%TD*%
%TO.C,R2*%
G36*
G01*
X155365000Y-117750000D02*
X155365000Y-117200000D01*
G75*
G02*
X155565000Y-117000000I200000J0D01*
G01*
X155965000Y-117000000D01*
G75*
G02*
X156165000Y-117200000I0J-200000D01*
G01*
X156165000Y-117750000D01*
G75*
G02*
X155965000Y-117950000I-200000J0D01*
G01*
X155565000Y-117950000D01*
G75*
G02*
X155365000Y-117750000I0J200000D01*
G01*
G37*
G36*
G01*
X153715000Y-117750000D02*
X153715000Y-117200000D01*
G75*
G02*
X153915000Y-117000000I200000J0D01*
G01*
X154315000Y-117000000D01*
G75*
G02*
X154515000Y-117200000I0J-200000D01*
G01*
X154515000Y-117750000D01*
G75*
G02*
X154315000Y-117950000I-200000J0D01*
G01*
X153915000Y-117950000D01*
G75*
G02*
X153715000Y-117750000I0J200000D01*
G01*
G37*
%TD*%
%TO.C,R3*%
G36*
G01*
X153080000Y-99335000D02*
X153080000Y-98785000D01*
G75*
G02*
X153280000Y-98585000I200000J0D01*
G01*
X153680000Y-98585000D01*
G75*
G02*
X153880000Y-98785000I0J-200000D01*
G01*
X153880000Y-99335000D01*
G75*
G02*
X153680000Y-99535000I-200000J0D01*
G01*
X153280000Y-99535000D01*
G75*
G02*
X153080000Y-99335000I0J200000D01*
G01*
G37*
G36*
G01*
X154730000Y-99335000D02*
X154730000Y-98785000D01*
G75*
G02*
X154930000Y-98585000I200000J0D01*
G01*
X155330000Y-98585000D01*
G75*
G02*
X155530000Y-98785000I0J-200000D01*
G01*
X155530000Y-99335000D01*
G75*
G02*
X155330000Y-99535000I-200000J0D01*
G01*
X154930000Y-99535000D01*
G75*
G02*
X154730000Y-99335000I0J200000D01*
G01*
G37*
%TD*%
%TO.C,R4*%
G36*
G01*
X154730000Y-81555000D02*
X154730000Y-81005000D01*
G75*
G02*
X154930000Y-80805000I200000J0D01*
G01*
X155330000Y-80805000D01*
G75*
G02*
X155530000Y-81005000I0J-200000D01*
G01*
X155530000Y-81555000D01*
G75*
G02*
X155330000Y-81755000I-200000J0D01*
G01*
X154930000Y-81755000D01*
G75*
G02*
X154730000Y-81555000I0J200000D01*
G01*
G37*
G36*
G01*
X153080000Y-81555000D02*
X153080000Y-81005000D01*
G75*
G02*
X153280000Y-80805000I200000J0D01*
G01*
X153680000Y-80805000D01*
G75*
G02*
X153880000Y-81005000I0J-200000D01*
G01*
X153880000Y-81555000D01*
G75*
G02*
X153680000Y-81755000I-200000J0D01*
G01*
X153280000Y-81755000D01*
G75*
G02*
X153080000Y-81555000I0J200000D01*
G01*
G37*
%TD*%
%TO.C,R5*%
G36*
G01*
X130220000Y-86000000D02*
X130220000Y-85450000D01*
G75*
G02*
X130420000Y-85250000I200000J0D01*
G01*
X130820000Y-85250000D01*
G75*
G02*
X131020000Y-85450000I0J-200000D01*
G01*
X131020000Y-86000000D01*
G75*
G02*
X130820000Y-86200000I-200000J0D01*
G01*
X130420000Y-86200000D01*
G75*
G02*
X130220000Y-86000000I0J200000D01*
G01*
G37*
G36*
G01*
X131870000Y-86000000D02*
X131870000Y-85450000D01*
G75*
G02*
X132070000Y-85250000I200000J0D01*
G01*
X132470000Y-85250000D01*
G75*
G02*
X132670000Y-85450000I0J-200000D01*
G01*
X132670000Y-86000000D01*
G75*
G02*
X132470000Y-86200000I-200000J0D01*
G01*
X132070000Y-86200000D01*
G75*
G02*
X131870000Y-86000000I0J200000D01*
G01*
G37*
%TD*%
%TO.C,R7*%
G36*
G01*
X111365000Y-108770000D02*
X111365000Y-108400000D01*
G75*
G02*
X111500000Y-108265000I135000J0D01*
G01*
X111770000Y-108265000D01*
G75*
G02*
X111905000Y-108400000I0J-135000D01*
G01*
X111905000Y-108770000D01*
G75*
G02*
X111770000Y-108905000I-135000J0D01*
G01*
X111500000Y-108905000D01*
G75*
G02*
X111365000Y-108770000I0J135000D01*
G01*
G37*
G36*
G01*
X110345000Y-108770000D02*
X110345000Y-108400000D01*
G75*
G02*
X110480000Y-108265000I135000J0D01*
G01*
X110750000Y-108265000D01*
G75*
G02*
X110885000Y-108400000I0J-135000D01*
G01*
X110885000Y-108770000D01*
G75*
G02*
X110750000Y-108905000I-135000J0D01*
G01*
X110480000Y-108905000D01*
G75*
G02*
X110345000Y-108770000I0J135000D01*
G01*
G37*
%TD*%
%TO.C,R9*%
G36*
G01*
X138615000Y-114445000D02*
X138245000Y-114445000D01*
G75*
G02*
X138110000Y-114310000I0J135000D01*
G01*
X138110000Y-114040000D01*
G75*
G02*
X138245000Y-113905000I135000J0D01*
G01*
X138615000Y-113905000D01*
G75*
G02*
X138750000Y-114040000I0J-135000D01*
G01*
X138750000Y-114310000D01*
G75*
G02*
X138615000Y-114445000I-135000J0D01*
G01*
G37*
G36*
G01*
X138615000Y-113425000D02*
X138245000Y-113425000D01*
G75*
G02*
X138110000Y-113290000I0J135000D01*
G01*
X138110000Y-113020000D01*
G75*
G02*
X138245000Y-112885000I135000J0D01*
G01*
X138615000Y-112885000D01*
G75*
G02*
X138750000Y-113020000I0J-135000D01*
G01*
X138750000Y-113290000D01*
G75*
G02*
X138615000Y-113425000I-135000J0D01*
G01*
G37*
%TD*%
%TO.C,R10*%
G36*
G01*
X148140000Y-114445000D02*
X147770000Y-114445000D01*
G75*
G02*
X147635000Y-114310000I0J135000D01*
G01*
X147635000Y-114040000D01*
G75*
G02*
X147770000Y-113905000I135000J0D01*
G01*
X148140000Y-113905000D01*
G75*
G02*
X148275000Y-114040000I0J-135000D01*
G01*
X148275000Y-114310000D01*
G75*
G02*
X148140000Y-114445000I-135000J0D01*
G01*
G37*
G36*
G01*
X148140000Y-113425000D02*
X147770000Y-113425000D01*
G75*
G02*
X147635000Y-113290000I0J135000D01*
G01*
X147635000Y-113020000D01*
G75*
G02*
X147770000Y-112885000I135000J0D01*
G01*
X148140000Y-112885000D01*
G75*
G02*
X148275000Y-113020000I0J-135000D01*
G01*
X148275000Y-113290000D01*
G75*
G02*
X148140000Y-113425000I-135000J0D01*
G01*
G37*
%TD*%
%TO.C,R11*%
G36*
G01*
X109670000Y-111365000D02*
X110040000Y-111365000D01*
G75*
G02*
X110175000Y-111500000I0J-135000D01*
G01*
X110175000Y-111770000D01*
G75*
G02*
X110040000Y-111905000I-135000J0D01*
G01*
X109670000Y-111905000D01*
G75*
G02*
X109535000Y-111770000I0J135000D01*
G01*
X109535000Y-111500000D01*
G75*
G02*
X109670000Y-111365000I135000J0D01*
G01*
G37*
G36*
G01*
X109670000Y-110345000D02*
X110040000Y-110345000D01*
G75*
G02*
X110175000Y-110480000I0J-135000D01*
G01*
X110175000Y-110750000D01*
G75*
G02*
X110040000Y-110885000I-135000J0D01*
G01*
X109670000Y-110885000D01*
G75*
G02*
X109535000Y-110750000I0J135000D01*
G01*
X109535000Y-110480000D01*
G75*
G02*
X109670000Y-110345000I135000J0D01*
G01*
G37*
%TD*%
%TO.C,R12*%
G36*
G01*
X121735000Y-99300000D02*
X122105000Y-99300000D01*
G75*
G02*
X122240000Y-99435000I0J-135000D01*
G01*
X122240000Y-99705000D01*
G75*
G02*
X122105000Y-99840000I-135000J0D01*
G01*
X121735000Y-99840000D01*
G75*
G02*
X121600000Y-99705000I0J135000D01*
G01*
X121600000Y-99435000D01*
G75*
G02*
X121735000Y-99300000I135000J0D01*
G01*
G37*
G36*
G01*
X121735000Y-98280000D02*
X122105000Y-98280000D01*
G75*
G02*
X122240000Y-98415000I0J-135000D01*
G01*
X122240000Y-98685000D01*
G75*
G02*
X122105000Y-98820000I-135000J0D01*
G01*
X121735000Y-98820000D01*
G75*
G02*
X121600000Y-98685000I0J135000D01*
G01*
X121600000Y-98415000D01*
G75*
G02*
X121735000Y-98280000I135000J0D01*
G01*
G37*
%TD*%
%TO.C,R13*%
G36*
G01*
X166820000Y-119235000D02*
X167190000Y-119235000D01*
G75*
G02*
X167325000Y-119370000I0J-135000D01*
G01*
X167325000Y-119640000D01*
G75*
G02*
X167190000Y-119775000I-135000J0D01*
G01*
X166820000Y-119775000D01*
G75*
G02*
X166685000Y-119640000I0J135000D01*
G01*
X166685000Y-119370000D01*
G75*
G02*
X166820000Y-119235000I135000J0D01*
G01*
G37*
G36*
G01*
X166820000Y-120255000D02*
X167190000Y-120255000D01*
G75*
G02*
X167325000Y-120390000I0J-135000D01*
G01*
X167325000Y-120660000D01*
G75*
G02*
X167190000Y-120795000I-135000J0D01*
G01*
X166820000Y-120795000D01*
G75*
G02*
X166685000Y-120660000I0J135000D01*
G01*
X166685000Y-120390000D01*
G75*
G02*
X166820000Y-120255000I135000J0D01*
G01*
G37*
%TD*%
%TO.C,R14*%
G36*
G01*
X166820000Y-112250000D02*
X167190000Y-112250000D01*
G75*
G02*
X167325000Y-112385000I0J-135000D01*
G01*
X167325000Y-112655000D01*
G75*
G02*
X167190000Y-112790000I-135000J0D01*
G01*
X166820000Y-112790000D01*
G75*
G02*
X166685000Y-112655000I0J135000D01*
G01*
X166685000Y-112385000D01*
G75*
G02*
X166820000Y-112250000I135000J0D01*
G01*
G37*
G36*
G01*
X166820000Y-113270000D02*
X167190000Y-113270000D01*
G75*
G02*
X167325000Y-113405000I0J-135000D01*
G01*
X167325000Y-113675000D01*
G75*
G02*
X167190000Y-113810000I-135000J0D01*
G01*
X166820000Y-113810000D01*
G75*
G02*
X166685000Y-113675000I0J135000D01*
G01*
X166685000Y-113405000D01*
G75*
G02*
X166820000Y-113270000I135000J0D01*
G01*
G37*
%TD*%
%TO.C,R15*%
G36*
G01*
X162800000Y-118295000D02*
X162800000Y-117925000D01*
G75*
G02*
X162935000Y-117790000I135000J0D01*
G01*
X163205000Y-117790000D01*
G75*
G02*
X163340000Y-117925000I0J-135000D01*
G01*
X163340000Y-118295000D01*
G75*
G02*
X163205000Y-118430000I-135000J0D01*
G01*
X162935000Y-118430000D01*
G75*
G02*
X162800000Y-118295000I0J135000D01*
G01*
G37*
G36*
G01*
X161780000Y-118295000D02*
X161780000Y-117925000D01*
G75*
G02*
X161915000Y-117790000I135000J0D01*
G01*
X162185000Y-117790000D01*
G75*
G02*
X162320000Y-117925000I0J-135000D01*
G01*
X162320000Y-118295000D01*
G75*
G02*
X162185000Y-118430000I-135000J0D01*
G01*
X161915000Y-118430000D01*
G75*
G02*
X161780000Y-118295000I0J135000D01*
G01*
G37*
%TD*%
%TO.C,R16*%
G36*
G01*
X162800000Y-111945000D02*
X162800000Y-111575000D01*
G75*
G02*
X162935000Y-111440000I135000J0D01*
G01*
X163205000Y-111440000D01*
G75*
G02*
X163340000Y-111575000I0J-135000D01*
G01*
X163340000Y-111945000D01*
G75*
G02*
X163205000Y-112080000I-135000J0D01*
G01*
X162935000Y-112080000D01*
G75*
G02*
X162800000Y-111945000I0J135000D01*
G01*
G37*
G36*
G01*
X161780000Y-111945000D02*
X161780000Y-111575000D01*
G75*
G02*
X161915000Y-111440000I135000J0D01*
G01*
X162185000Y-111440000D01*
G75*
G02*
X162320000Y-111575000I0J-135000D01*
G01*
X162320000Y-111945000D01*
G75*
G02*
X162185000Y-112080000I-135000J0D01*
G01*
X161915000Y-112080000D01*
G75*
G02*
X161780000Y-111945000I0J135000D01*
G01*
G37*
%TD*%
%TO.C,R17*%
G36*
G01*
X159110000Y-120060000D02*
X159660000Y-120060000D01*
G75*
G02*
X159860000Y-120260000I0J-200000D01*
G01*
X159860000Y-120660000D01*
G75*
G02*
X159660000Y-120860000I-200000J0D01*
G01*
X159110000Y-120860000D01*
G75*
G02*
X158910000Y-120660000I0J200000D01*
G01*
X158910000Y-120260000D01*
G75*
G02*
X159110000Y-120060000I200000J0D01*
G01*
G37*
G36*
G01*
X159110000Y-121710000D02*
X159660000Y-121710000D01*
G75*
G02*
X159860000Y-121910000I0J-200000D01*
G01*
X159860000Y-122310000D01*
G75*
G02*
X159660000Y-122510000I-200000J0D01*
G01*
X159110000Y-122510000D01*
G75*
G02*
X158910000Y-122310000I0J200000D01*
G01*
X158910000Y-121910000D01*
G75*
G02*
X159110000Y-121710000I200000J0D01*
G01*
G37*
%TD*%
%TO.C,R18*%
G36*
G01*
X159110000Y-113710000D02*
X159660000Y-113710000D01*
G75*
G02*
X159860000Y-113910000I0J-200000D01*
G01*
X159860000Y-114310000D01*
G75*
G02*
X159660000Y-114510000I-200000J0D01*
G01*
X159110000Y-114510000D01*
G75*
G02*
X158910000Y-114310000I0J200000D01*
G01*
X158910000Y-113910000D01*
G75*
G02*
X159110000Y-113710000I200000J0D01*
G01*
G37*
G36*
G01*
X159110000Y-115360000D02*
X159660000Y-115360000D01*
G75*
G02*
X159860000Y-115560000I0J-200000D01*
G01*
X159860000Y-115960000D01*
G75*
G02*
X159660000Y-116160000I-200000J0D01*
G01*
X159110000Y-116160000D01*
G75*
G02*
X158910000Y-115960000I0J200000D01*
G01*
X158910000Y-115560000D01*
G75*
G02*
X159110000Y-115360000I200000J0D01*
G01*
G37*
%TD*%
%TO.C,R19*%
G36*
G01*
X166820000Y-101455000D02*
X167190000Y-101455000D01*
G75*
G02*
X167325000Y-101590000I0J-135000D01*
G01*
X167325000Y-101860000D01*
G75*
G02*
X167190000Y-101995000I-135000J0D01*
G01*
X166820000Y-101995000D01*
G75*
G02*
X166685000Y-101860000I0J135000D01*
G01*
X166685000Y-101590000D01*
G75*
G02*
X166820000Y-101455000I135000J0D01*
G01*
G37*
G36*
G01*
X166820000Y-102475000D02*
X167190000Y-102475000D01*
G75*
G02*
X167325000Y-102610000I0J-135000D01*
G01*
X167325000Y-102880000D01*
G75*
G02*
X167190000Y-103015000I-135000J0D01*
G01*
X166820000Y-103015000D01*
G75*
G02*
X166685000Y-102880000I0J135000D01*
G01*
X166685000Y-102610000D01*
G75*
G02*
X166820000Y-102475000I135000J0D01*
G01*
G37*
%TD*%
%TO.C,R20*%
G36*
G01*
X166820000Y-95105000D02*
X167190000Y-95105000D01*
G75*
G02*
X167325000Y-95240000I0J-135000D01*
G01*
X167325000Y-95510000D01*
G75*
G02*
X167190000Y-95645000I-135000J0D01*
G01*
X166820000Y-95645000D01*
G75*
G02*
X166685000Y-95510000I0J135000D01*
G01*
X166685000Y-95240000D01*
G75*
G02*
X166820000Y-95105000I135000J0D01*
G01*
G37*
G36*
G01*
X166820000Y-96125000D02*
X167190000Y-96125000D01*
G75*
G02*
X167325000Y-96260000I0J-135000D01*
G01*
X167325000Y-96530000D01*
G75*
G02*
X167190000Y-96665000I-135000J0D01*
G01*
X166820000Y-96665000D01*
G75*
G02*
X166685000Y-96530000I0J135000D01*
G01*
X166685000Y-96260000D01*
G75*
G02*
X166820000Y-96125000I135000J0D01*
G01*
G37*
%TD*%
%TO.C,R21*%
G36*
G01*
X162165000Y-101150000D02*
X162165000Y-100780000D01*
G75*
G02*
X162300000Y-100645000I135000J0D01*
G01*
X162570000Y-100645000D01*
G75*
G02*
X162705000Y-100780000I0J-135000D01*
G01*
X162705000Y-101150000D01*
G75*
G02*
X162570000Y-101285000I-135000J0D01*
G01*
X162300000Y-101285000D01*
G75*
G02*
X162165000Y-101150000I0J135000D01*
G01*
G37*
G36*
G01*
X161145000Y-101150000D02*
X161145000Y-100780000D01*
G75*
G02*
X161280000Y-100645000I135000J0D01*
G01*
X161550000Y-100645000D01*
G75*
G02*
X161685000Y-100780000I0J-135000D01*
G01*
X161685000Y-101150000D01*
G75*
G02*
X161550000Y-101285000I-135000J0D01*
G01*
X161280000Y-101285000D01*
G75*
G02*
X161145000Y-101150000I0J135000D01*
G01*
G37*
%TD*%
%TO.C,R22*%
G36*
G01*
X162165000Y-94165000D02*
X162165000Y-93795000D01*
G75*
G02*
X162300000Y-93660000I135000J0D01*
G01*
X162570000Y-93660000D01*
G75*
G02*
X162705000Y-93795000I0J-135000D01*
G01*
X162705000Y-94165000D01*
G75*
G02*
X162570000Y-94300000I-135000J0D01*
G01*
X162300000Y-94300000D01*
G75*
G02*
X162165000Y-94165000I0J135000D01*
G01*
G37*
G36*
G01*
X161145000Y-94165000D02*
X161145000Y-93795000D01*
G75*
G02*
X161280000Y-93660000I135000J0D01*
G01*
X161550000Y-93660000D01*
G75*
G02*
X161685000Y-93795000I0J-135000D01*
G01*
X161685000Y-94165000D01*
G75*
G02*
X161550000Y-94300000I-135000J0D01*
G01*
X161280000Y-94300000D01*
G75*
G02*
X161145000Y-94165000I0J135000D01*
G01*
G37*
%TD*%
%TO.C,R23*%
G36*
G01*
X159110000Y-102280000D02*
X159660000Y-102280000D01*
G75*
G02*
X159860000Y-102480000I0J-200000D01*
G01*
X159860000Y-102880000D01*
G75*
G02*
X159660000Y-103080000I-200000J0D01*
G01*
X159110000Y-103080000D01*
G75*
G02*
X158910000Y-102880000I0J200000D01*
G01*
X158910000Y-102480000D01*
G75*
G02*
X159110000Y-102280000I200000J0D01*
G01*
G37*
G36*
G01*
X159110000Y-103930000D02*
X159660000Y-103930000D01*
G75*
G02*
X159860000Y-104130000I0J-200000D01*
G01*
X159860000Y-104530000D01*
G75*
G02*
X159660000Y-104730000I-200000J0D01*
G01*
X159110000Y-104730000D01*
G75*
G02*
X158910000Y-104530000I0J200000D01*
G01*
X158910000Y-104130000D01*
G75*
G02*
X159110000Y-103930000I200000J0D01*
G01*
G37*
%TD*%
%TO.C,R24*%
G36*
G01*
X159110000Y-95930000D02*
X159660000Y-95930000D01*
G75*
G02*
X159860000Y-96130000I0J-200000D01*
G01*
X159860000Y-96530000D01*
G75*
G02*
X159660000Y-96730000I-200000J0D01*
G01*
X159110000Y-96730000D01*
G75*
G02*
X158910000Y-96530000I0J200000D01*
G01*
X158910000Y-96130000D01*
G75*
G02*
X159110000Y-95930000I200000J0D01*
G01*
G37*
G36*
G01*
X159110000Y-97580000D02*
X159660000Y-97580000D01*
G75*
G02*
X159860000Y-97780000I0J-200000D01*
G01*
X159860000Y-98180000D01*
G75*
G02*
X159660000Y-98380000I-200000J0D01*
G01*
X159110000Y-98380000D01*
G75*
G02*
X158910000Y-98180000I0J200000D01*
G01*
X158910000Y-97780000D01*
G75*
G02*
X159110000Y-97580000I200000J0D01*
G01*
G37*
%TD*%
%TO.C,R25*%
G36*
G01*
X166820000Y-84695000D02*
X167190000Y-84695000D01*
G75*
G02*
X167325000Y-84830000I0J-135000D01*
G01*
X167325000Y-85100000D01*
G75*
G02*
X167190000Y-85235000I-135000J0D01*
G01*
X166820000Y-85235000D01*
G75*
G02*
X166685000Y-85100000I0J135000D01*
G01*
X166685000Y-84830000D01*
G75*
G02*
X166820000Y-84695000I135000J0D01*
G01*
G37*
G36*
G01*
X166820000Y-83675000D02*
X167190000Y-83675000D01*
G75*
G02*
X167325000Y-83810000I0J-135000D01*
G01*
X167325000Y-84080000D01*
G75*
G02*
X167190000Y-84215000I-135000J0D01*
G01*
X166820000Y-84215000D01*
G75*
G02*
X166685000Y-84080000I0J135000D01*
G01*
X166685000Y-83810000D01*
G75*
G02*
X166820000Y-83675000I135000J0D01*
G01*
G37*
%TD*%
%TO.C,R26*%
G36*
G01*
X166820000Y-77325000D02*
X167190000Y-77325000D01*
G75*
G02*
X167325000Y-77460000I0J-135000D01*
G01*
X167325000Y-77730000D01*
G75*
G02*
X167190000Y-77865000I-135000J0D01*
G01*
X166820000Y-77865000D01*
G75*
G02*
X166685000Y-77730000I0J135000D01*
G01*
X166685000Y-77460000D01*
G75*
G02*
X166820000Y-77325000I135000J0D01*
G01*
G37*
G36*
G01*
X166820000Y-78345000D02*
X167190000Y-78345000D01*
G75*
G02*
X167325000Y-78480000I0J-135000D01*
G01*
X167325000Y-78750000D01*
G75*
G02*
X167190000Y-78885000I-135000J0D01*
G01*
X166820000Y-78885000D01*
G75*
G02*
X166685000Y-78750000I0J135000D01*
G01*
X166685000Y-78480000D01*
G75*
G02*
X166820000Y-78345000I135000J0D01*
G01*
G37*
%TD*%
%TO.C,R27*%
G36*
G01*
X144595000Y-102090000D02*
X144965000Y-102090000D01*
G75*
G02*
X145100000Y-102225000I0J-135000D01*
G01*
X145100000Y-102495000D01*
G75*
G02*
X144965000Y-102630000I-135000J0D01*
G01*
X144595000Y-102630000D01*
G75*
G02*
X144460000Y-102495000I0J135000D01*
G01*
X144460000Y-102225000D01*
G75*
G02*
X144595000Y-102090000I135000J0D01*
G01*
G37*
G36*
G01*
X144595000Y-103110000D02*
X144965000Y-103110000D01*
G75*
G02*
X145100000Y-103245000I0J-135000D01*
G01*
X145100000Y-103515000D01*
G75*
G02*
X144965000Y-103650000I-135000J0D01*
G01*
X144595000Y-103650000D01*
G75*
G02*
X144460000Y-103515000I0J135000D01*
G01*
X144460000Y-103245000D01*
G75*
G02*
X144595000Y-103110000I135000J0D01*
G01*
G37*
%TD*%
%TO.C,R28*%
G36*
G01*
X160510000Y-83370000D02*
X160510000Y-83000000D01*
G75*
G02*
X160645000Y-82865000I135000J0D01*
G01*
X160915000Y-82865000D01*
G75*
G02*
X161050000Y-83000000I0J-135000D01*
G01*
X161050000Y-83370000D01*
G75*
G02*
X160915000Y-83505000I-135000J0D01*
G01*
X160645000Y-83505000D01*
G75*
G02*
X160510000Y-83370000I0J135000D01*
G01*
G37*
G36*
G01*
X161530000Y-83370000D02*
X161530000Y-83000000D01*
G75*
G02*
X161665000Y-82865000I135000J0D01*
G01*
X161935000Y-82865000D01*
G75*
G02*
X162070000Y-83000000I0J-135000D01*
G01*
X162070000Y-83370000D01*
G75*
G02*
X161935000Y-83505000I-135000J0D01*
G01*
X161665000Y-83505000D01*
G75*
G02*
X161530000Y-83370000I0J135000D01*
G01*
G37*
%TD*%
%TO.C,R29*%
G36*
G01*
X161530000Y-77020000D02*
X161530000Y-76650000D01*
G75*
G02*
X161665000Y-76515000I135000J0D01*
G01*
X161935000Y-76515000D01*
G75*
G02*
X162070000Y-76650000I0J-135000D01*
G01*
X162070000Y-77020000D01*
G75*
G02*
X161935000Y-77155000I-135000J0D01*
G01*
X161665000Y-77155000D01*
G75*
G02*
X161530000Y-77020000I0J135000D01*
G01*
G37*
G36*
G01*
X160510000Y-77020000D02*
X160510000Y-76650000D01*
G75*
G02*
X160645000Y-76515000I135000J0D01*
G01*
X160915000Y-76515000D01*
G75*
G02*
X161050000Y-76650000I0J-135000D01*
G01*
X161050000Y-77020000D01*
G75*
G02*
X160915000Y-77155000I-135000J0D01*
G01*
X160645000Y-77155000D01*
G75*
G02*
X160510000Y-77020000I0J135000D01*
G01*
G37*
%TD*%
%TO.C,R30*%
G36*
G01*
X159110000Y-86150000D02*
X159660000Y-86150000D01*
G75*
G02*
X159860000Y-86350000I0J-200000D01*
G01*
X159860000Y-86750000D01*
G75*
G02*
X159660000Y-86950000I-200000J0D01*
G01*
X159110000Y-86950000D01*
G75*
G02*
X158910000Y-86750000I0J200000D01*
G01*
X158910000Y-86350000D01*
G75*
G02*
X159110000Y-86150000I200000J0D01*
G01*
G37*
G36*
G01*
X159110000Y-84500000D02*
X159660000Y-84500000D01*
G75*
G02*
X159860000Y-84700000I0J-200000D01*
G01*
X159860000Y-85100000D01*
G75*
G02*
X159660000Y-85300000I-200000J0D01*
G01*
X159110000Y-85300000D01*
G75*
G02*
X158910000Y-85100000I0J200000D01*
G01*
X158910000Y-84700000D01*
G75*
G02*
X159110000Y-84500000I200000J0D01*
G01*
G37*
%TD*%
%TO.C,R31*%
G36*
G01*
X159110000Y-79800000D02*
X159660000Y-79800000D01*
G75*
G02*
X159860000Y-80000000I0J-200000D01*
G01*
X159860000Y-80400000D01*
G75*
G02*
X159660000Y-80600000I-200000J0D01*
G01*
X159110000Y-80600000D01*
G75*
G02*
X158910000Y-80400000I0J200000D01*
G01*
X158910000Y-80000000D01*
G75*
G02*
X159110000Y-79800000I200000J0D01*
G01*
G37*
G36*
G01*
X159110000Y-78150000D02*
X159660000Y-78150000D01*
G75*
G02*
X159860000Y-78350000I0J-200000D01*
G01*
X159860000Y-78750000D01*
G75*
G02*
X159660000Y-78950000I-200000J0D01*
G01*
X159110000Y-78950000D01*
G75*
G02*
X158910000Y-78750000I0J200000D01*
G01*
X158910000Y-78350000D01*
G75*
G02*
X159110000Y-78150000I200000J0D01*
G01*
G37*
%TD*%
D24*
%TO.C,TP4*%
X138430000Y-111125000D03*
%TD*%
%TO.C,TP5*%
X147955000Y-111125000D03*
%TD*%
%TO.C,TP10*%
X156210000Y-114300000D03*
%TD*%
%TO.C,TP12*%
X156210000Y-95885000D03*
%TD*%
%TO.C,TP14*%
X155575000Y-78105000D03*
%TD*%
%TO.C,U1*%
G36*
G01*
X140252500Y-100520000D02*
X140377500Y-100520000D01*
G75*
G02*
X140440000Y-100582500I0J-62500D01*
G01*
X140440000Y-101282500D01*
G75*
G02*
X140377500Y-101345000I-62500J0D01*
G01*
X140252500Y-101345000D01*
G75*
G02*
X140190000Y-101282500I0J62500D01*
G01*
X140190000Y-100582500D01*
G75*
G02*
X140252500Y-100520000I62500J0D01*
G01*
G37*
G36*
G01*
X139752500Y-100520000D02*
X139877500Y-100520000D01*
G75*
G02*
X139940000Y-100582500I0J-62500D01*
G01*
X139940000Y-101282500D01*
G75*
G02*
X139877500Y-101345000I-62500J0D01*
G01*
X139752500Y-101345000D01*
G75*
G02*
X139690000Y-101282500I0J62500D01*
G01*
X139690000Y-100582500D01*
G75*
G02*
X139752500Y-100520000I62500J0D01*
G01*
G37*
G36*
G01*
X139252500Y-100520000D02*
X139377500Y-100520000D01*
G75*
G02*
X139440000Y-100582500I0J-62500D01*
G01*
X139440000Y-101282500D01*
G75*
G02*
X139377500Y-101345000I-62500J0D01*
G01*
X139252500Y-101345000D01*
G75*
G02*
X139190000Y-101282500I0J62500D01*
G01*
X139190000Y-100582500D01*
G75*
G02*
X139252500Y-100520000I62500J0D01*
G01*
G37*
G36*
G01*
X138752500Y-100520000D02*
X138877500Y-100520000D01*
G75*
G02*
X138940000Y-100582500I0J-62500D01*
G01*
X138940000Y-101282500D01*
G75*
G02*
X138877500Y-101345000I-62500J0D01*
G01*
X138752500Y-101345000D01*
G75*
G02*
X138690000Y-101282500I0J62500D01*
G01*
X138690000Y-100582500D01*
G75*
G02*
X138752500Y-100520000I62500J0D01*
G01*
G37*
G36*
G01*
X138252500Y-100520000D02*
X138377500Y-100520000D01*
G75*
G02*
X138440000Y-100582500I0J-62500D01*
G01*
X138440000Y-101282500D01*
G75*
G02*
X138377500Y-101345000I-62500J0D01*
G01*
X138252500Y-101345000D01*
G75*
G02*
X138190000Y-101282500I0J62500D01*
G01*
X138190000Y-100582500D01*
G75*
G02*
X138252500Y-100520000I62500J0D01*
G01*
G37*
G36*
G01*
X137752500Y-100520000D02*
X137877500Y-100520000D01*
G75*
G02*
X137940000Y-100582500I0J-62500D01*
G01*
X137940000Y-101282500D01*
G75*
G02*
X137877500Y-101345000I-62500J0D01*
G01*
X137752500Y-101345000D01*
G75*
G02*
X137690000Y-101282500I0J62500D01*
G01*
X137690000Y-100582500D01*
G75*
G02*
X137752500Y-100520000I62500J0D01*
G01*
G37*
G36*
G01*
X136777500Y-101495000D02*
X137477500Y-101495000D01*
G75*
G02*
X137540000Y-101557500I0J-62500D01*
G01*
X137540000Y-101682500D01*
G75*
G02*
X137477500Y-101745000I-62500J0D01*
G01*
X136777500Y-101745000D01*
G75*
G02*
X136715000Y-101682500I0J62500D01*
G01*
X136715000Y-101557500D01*
G75*
G02*
X136777500Y-101495000I62500J0D01*
G01*
G37*
G36*
G01*
X136777500Y-101995000D02*
X137477500Y-101995000D01*
G75*
G02*
X137540000Y-102057500I0J-62500D01*
G01*
X137540000Y-102182500D01*
G75*
G02*
X137477500Y-102245000I-62500J0D01*
G01*
X136777500Y-102245000D01*
G75*
G02*
X136715000Y-102182500I0J62500D01*
G01*
X136715000Y-102057500D01*
G75*
G02*
X136777500Y-101995000I62500J0D01*
G01*
G37*
G36*
G01*
X136777500Y-102495000D02*
X137477500Y-102495000D01*
G75*
G02*
X137540000Y-102557500I0J-62500D01*
G01*
X137540000Y-102682500D01*
G75*
G02*
X137477500Y-102745000I-62500J0D01*
G01*
X136777500Y-102745000D01*
G75*
G02*
X136715000Y-102682500I0J62500D01*
G01*
X136715000Y-102557500D01*
G75*
G02*
X136777500Y-102495000I62500J0D01*
G01*
G37*
G36*
G01*
X136777500Y-102995000D02*
X137477500Y-102995000D01*
G75*
G02*
X137540000Y-103057500I0J-62500D01*
G01*
X137540000Y-103182500D01*
G75*
G02*
X137477500Y-103245000I-62500J0D01*
G01*
X136777500Y-103245000D01*
G75*
G02*
X136715000Y-103182500I0J62500D01*
G01*
X136715000Y-103057500D01*
G75*
G02*
X136777500Y-102995000I62500J0D01*
G01*
G37*
G36*
G01*
X136777500Y-103495000D02*
X137477500Y-103495000D01*
G75*
G02*
X137540000Y-103557500I0J-62500D01*
G01*
X137540000Y-103682500D01*
G75*
G02*
X137477500Y-103745000I-62500J0D01*
G01*
X136777500Y-103745000D01*
G75*
G02*
X136715000Y-103682500I0J62500D01*
G01*
X136715000Y-103557500D01*
G75*
G02*
X136777500Y-103495000I62500J0D01*
G01*
G37*
G36*
G01*
X136777500Y-103995000D02*
X137477500Y-103995000D01*
G75*
G02*
X137540000Y-104057500I0J-62500D01*
G01*
X137540000Y-104182500D01*
G75*
G02*
X137477500Y-104245000I-62500J0D01*
G01*
X136777500Y-104245000D01*
G75*
G02*
X136715000Y-104182500I0J62500D01*
G01*
X136715000Y-104057500D01*
G75*
G02*
X136777500Y-103995000I62500J0D01*
G01*
G37*
G36*
G01*
X137752500Y-104395000D02*
X137877500Y-104395000D01*
G75*
G02*
X137940000Y-104457500I0J-62500D01*
G01*
X137940000Y-105157500D01*
G75*
G02*
X137877500Y-105220000I-62500J0D01*
G01*
X137752500Y-105220000D01*
G75*
G02*
X137690000Y-105157500I0J62500D01*
G01*
X137690000Y-104457500D01*
G75*
G02*
X137752500Y-104395000I62500J0D01*
G01*
G37*
G36*
G01*
X138252500Y-104395000D02*
X138377500Y-104395000D01*
G75*
G02*
X138440000Y-104457500I0J-62500D01*
G01*
X138440000Y-105157500D01*
G75*
G02*
X138377500Y-105220000I-62500J0D01*
G01*
X138252500Y-105220000D01*
G75*
G02*
X138190000Y-105157500I0J62500D01*
G01*
X138190000Y-104457500D01*
G75*
G02*
X138252500Y-104395000I62500J0D01*
G01*
G37*
G36*
G01*
X138752500Y-104395000D02*
X138877500Y-104395000D01*
G75*
G02*
X138940000Y-104457500I0J-62500D01*
G01*
X138940000Y-105157500D01*
G75*
G02*
X138877500Y-105220000I-62500J0D01*
G01*
X138752500Y-105220000D01*
G75*
G02*
X138690000Y-105157500I0J62500D01*
G01*
X138690000Y-104457500D01*
G75*
G02*
X138752500Y-104395000I62500J0D01*
G01*
G37*
G36*
G01*
X139252500Y-104395000D02*
X139377500Y-104395000D01*
G75*
G02*
X139440000Y-104457500I0J-62500D01*
G01*
X139440000Y-105157500D01*
G75*
G02*
X139377500Y-105220000I-62500J0D01*
G01*
X139252500Y-105220000D01*
G75*
G02*
X139190000Y-105157500I0J62500D01*
G01*
X139190000Y-104457500D01*
G75*
G02*
X139252500Y-104395000I62500J0D01*
G01*
G37*
G36*
G01*
X139752500Y-104395000D02*
X139877500Y-104395000D01*
G75*
G02*
X139940000Y-104457500I0J-62500D01*
G01*
X139940000Y-105157500D01*
G75*
G02*
X139877500Y-105220000I-62500J0D01*
G01*
X139752500Y-105220000D01*
G75*
G02*
X139690000Y-105157500I0J62500D01*
G01*
X139690000Y-104457500D01*
G75*
G02*
X139752500Y-104395000I62500J0D01*
G01*
G37*
G36*
G01*
X140252500Y-104395000D02*
X140377500Y-104395000D01*
G75*
G02*
X140440000Y-104457500I0J-62500D01*
G01*
X140440000Y-105157500D01*
G75*
G02*
X140377500Y-105220000I-62500J0D01*
G01*
X140252500Y-105220000D01*
G75*
G02*
X140190000Y-105157500I0J62500D01*
G01*
X140190000Y-104457500D01*
G75*
G02*
X140252500Y-104395000I62500J0D01*
G01*
G37*
G36*
G01*
X140652500Y-103995000D02*
X141352500Y-103995000D01*
G75*
G02*
X141415000Y-104057500I0J-62500D01*
G01*
X141415000Y-104182500D01*
G75*
G02*
X141352500Y-104245000I-62500J0D01*
G01*
X140652500Y-104245000D01*
G75*
G02*
X140590000Y-104182500I0J62500D01*
G01*
X140590000Y-104057500D01*
G75*
G02*
X140652500Y-103995000I62500J0D01*
G01*
G37*
G36*
G01*
X140652500Y-103495000D02*
X141352500Y-103495000D01*
G75*
G02*
X141415000Y-103557500I0J-62500D01*
G01*
X141415000Y-103682500D01*
G75*
G02*
X141352500Y-103745000I-62500J0D01*
G01*
X140652500Y-103745000D01*
G75*
G02*
X140590000Y-103682500I0J62500D01*
G01*
X140590000Y-103557500D01*
G75*
G02*
X140652500Y-103495000I62500J0D01*
G01*
G37*
G36*
G01*
X140652500Y-102995000D02*
X141352500Y-102995000D01*
G75*
G02*
X141415000Y-103057500I0J-62500D01*
G01*
X141415000Y-103182500D01*
G75*
G02*
X141352500Y-103245000I-62500J0D01*
G01*
X140652500Y-103245000D01*
G75*
G02*
X140590000Y-103182500I0J62500D01*
G01*
X140590000Y-103057500D01*
G75*
G02*
X140652500Y-102995000I62500J0D01*
G01*
G37*
G36*
G01*
X140652500Y-102495000D02*
X141352500Y-102495000D01*
G75*
G02*
X141415000Y-102557500I0J-62500D01*
G01*
X141415000Y-102682500D01*
G75*
G02*
X141352500Y-102745000I-62500J0D01*
G01*
X140652500Y-102745000D01*
G75*
G02*
X140590000Y-102682500I0J62500D01*
G01*
X140590000Y-102557500D01*
G75*
G02*
X140652500Y-102495000I62500J0D01*
G01*
G37*
G36*
G01*
X140652500Y-101995000D02*
X141352500Y-101995000D01*
G75*
G02*
X141415000Y-102057500I0J-62500D01*
G01*
X141415000Y-102182500D01*
G75*
G02*
X141352500Y-102245000I-62500J0D01*
G01*
X140652500Y-102245000D01*
G75*
G02*
X140590000Y-102182500I0J62500D01*
G01*
X140590000Y-102057500D01*
G75*
G02*
X140652500Y-101995000I62500J0D01*
G01*
G37*
G36*
G01*
X140652500Y-101495000D02*
X141352500Y-101495000D01*
G75*
G02*
X141415000Y-101557500I0J-62500D01*
G01*
X141415000Y-101682500D01*
G75*
G02*
X141352500Y-101745000I-62500J0D01*
G01*
X140652500Y-101745000D01*
G75*
G02*
X140590000Y-101682500I0J62500D01*
G01*
X140590000Y-101557500D01*
G75*
G02*
X140652500Y-101495000I62500J0D01*
G01*
G37*
D25*
X139065000Y-102870000D03*
%TD*%
%TO.C,U4*%
G36*
G01*
X129055000Y-77745000D02*
X128755000Y-77745000D01*
G75*
G02*
X128605000Y-77595000I0J150000D01*
G01*
X128605000Y-76245000D01*
G75*
G02*
X128755000Y-76095000I150000J0D01*
G01*
X129055000Y-76095000D01*
G75*
G02*
X129205000Y-76245000I0J-150000D01*
G01*
X129205000Y-77595000D01*
G75*
G02*
X129055000Y-77745000I-150000J0D01*
G01*
G37*
G36*
G01*
X130325000Y-77745000D02*
X130025000Y-77745000D01*
G75*
G02*
X129875000Y-77595000I0J150000D01*
G01*
X129875000Y-76245000D01*
G75*
G02*
X130025000Y-76095000I150000J0D01*
G01*
X130325000Y-76095000D01*
G75*
G02*
X130475000Y-76245000I0J-150000D01*
G01*
X130475000Y-77595000D01*
G75*
G02*
X130325000Y-77745000I-150000J0D01*
G01*
G37*
G36*
G01*
X131595000Y-77745000D02*
X131295000Y-77745000D01*
G75*
G02*
X131145000Y-77595000I0J150000D01*
G01*
X131145000Y-76245000D01*
G75*
G02*
X131295000Y-76095000I150000J0D01*
G01*
X131595000Y-76095000D01*
G75*
G02*
X131745000Y-76245000I0J-150000D01*
G01*
X131745000Y-77595000D01*
G75*
G02*
X131595000Y-77745000I-150000J0D01*
G01*
G37*
G36*
G01*
X132865000Y-77745000D02*
X132565000Y-77745000D01*
G75*
G02*
X132415000Y-77595000I0J150000D01*
G01*
X132415000Y-76245000D01*
G75*
G02*
X132565000Y-76095000I150000J0D01*
G01*
X132865000Y-76095000D01*
G75*
G02*
X133015000Y-76245000I0J-150000D01*
G01*
X133015000Y-77595000D01*
G75*
G02*
X132865000Y-77745000I-150000J0D01*
G01*
G37*
G36*
G01*
X132865000Y-72495000D02*
X132565000Y-72495000D01*
G75*
G02*
X132415000Y-72345000I0J150000D01*
G01*
X132415000Y-70995000D01*
G75*
G02*
X132565000Y-70845000I150000J0D01*
G01*
X132865000Y-70845000D01*
G75*
G02*
X133015000Y-70995000I0J-150000D01*
G01*
X133015000Y-72345000D01*
G75*
G02*
X132865000Y-72495000I-150000J0D01*
G01*
G37*
G36*
G01*
X131595000Y-72495000D02*
X131295000Y-72495000D01*
G75*
G02*
X131145000Y-72345000I0J150000D01*
G01*
X131145000Y-70995000D01*
G75*
G02*
X131295000Y-70845000I150000J0D01*
G01*
X131595000Y-70845000D01*
G75*
G02*
X131745000Y-70995000I0J-150000D01*
G01*
X131745000Y-72345000D01*
G75*
G02*
X131595000Y-72495000I-150000J0D01*
G01*
G37*
G36*
G01*
X130325000Y-72495000D02*
X130025000Y-72495000D01*
G75*
G02*
X129875000Y-72345000I0J150000D01*
G01*
X129875000Y-70995000D01*
G75*
G02*
X130025000Y-70845000I150000J0D01*
G01*
X130325000Y-70845000D01*
G75*
G02*
X130475000Y-70995000I0J-150000D01*
G01*
X130475000Y-72345000D01*
G75*
G02*
X130325000Y-72495000I-150000J0D01*
G01*
G37*
G36*
G01*
X129055000Y-72495000D02*
X128755000Y-72495000D01*
G75*
G02*
X128605000Y-72345000I0J150000D01*
G01*
X128605000Y-70995000D01*
G75*
G02*
X128755000Y-70845000I150000J0D01*
G01*
X129055000Y-70845000D01*
G75*
G02*
X129205000Y-70995000I0J-150000D01*
G01*
X129205000Y-72345000D01*
G75*
G02*
X129055000Y-72495000I-150000J0D01*
G01*
G37*
%TD*%
D26*
%TO.C,U2*%
X138430000Y-126135000D03*
X135890000Y-126135000D03*
X135890000Y-116435000D03*
X138430000Y-116435000D03*
%TD*%
%TO.C,U3*%
X147955000Y-116435000D03*
X145415000Y-116435000D03*
X145415000Y-126135000D03*
X147955000Y-126135000D03*
%TD*%
%TO.C,D7*%
G36*
G01*
X133606250Y-112045000D02*
X133093750Y-112045000D01*
G75*
G02*
X132875000Y-111826250I0J218750D01*
G01*
X132875000Y-111388750D01*
G75*
G02*
X133093750Y-111170000I218750J0D01*
G01*
X133606250Y-111170000D01*
G75*
G02*
X133825000Y-111388750I0J-218750D01*
G01*
X133825000Y-111826250D01*
G75*
G02*
X133606250Y-112045000I-218750J0D01*
G01*
G37*
G36*
G01*
X133606250Y-113620000D02*
X133093750Y-113620000D01*
G75*
G02*
X132875000Y-113401250I0J218750D01*
G01*
X132875000Y-112963750D01*
G75*
G02*
X133093750Y-112745000I218750J0D01*
G01*
X133606250Y-112745000D01*
G75*
G02*
X133825000Y-112963750I0J-218750D01*
G01*
X133825000Y-113401250D01*
G75*
G02*
X133606250Y-113620000I-218750J0D01*
G01*
G37*
%TD*%
%TO.C,D8*%
G36*
G01*
X143131250Y-113620000D02*
X142618750Y-113620000D01*
G75*
G02*
X142400000Y-113401250I0J218750D01*
G01*
X142400000Y-112963750D01*
G75*
G02*
X142618750Y-112745000I218750J0D01*
G01*
X143131250Y-112745000D01*
G75*
G02*
X143350000Y-112963750I0J-218750D01*
G01*
X143350000Y-113401250D01*
G75*
G02*
X143131250Y-113620000I-218750J0D01*
G01*
G37*
G36*
G01*
X143131250Y-112045000D02*
X142618750Y-112045000D01*
G75*
G02*
X142400000Y-111826250I0J218750D01*
G01*
X142400000Y-111388750D01*
G75*
G02*
X142618750Y-111170000I218750J0D01*
G01*
X143131250Y-111170000D01*
G75*
G02*
X143350000Y-111388750I0J-218750D01*
G01*
X143350000Y-111826250D01*
G75*
G02*
X143131250Y-112045000I-218750J0D01*
G01*
G37*
%TD*%
%TO.C,R32*%
G36*
G01*
X134980000Y-111170000D02*
X135530000Y-111170000D01*
G75*
G02*
X135730000Y-111370000I0J-200000D01*
G01*
X135730000Y-111770000D01*
G75*
G02*
X135530000Y-111970000I-200000J0D01*
G01*
X134980000Y-111970000D01*
G75*
G02*
X134780000Y-111770000I0J200000D01*
G01*
X134780000Y-111370000D01*
G75*
G02*
X134980000Y-111170000I200000J0D01*
G01*
G37*
G36*
G01*
X134980000Y-112820000D02*
X135530000Y-112820000D01*
G75*
G02*
X135730000Y-113020000I0J-200000D01*
G01*
X135730000Y-113420000D01*
G75*
G02*
X135530000Y-113620000I-200000J0D01*
G01*
X134980000Y-113620000D01*
G75*
G02*
X134780000Y-113420000I0J200000D01*
G01*
X134780000Y-113020000D01*
G75*
G02*
X134980000Y-112820000I200000J0D01*
G01*
G37*
%TD*%
%TO.C,R33*%
G36*
G01*
X144505000Y-112820000D02*
X145055000Y-112820000D01*
G75*
G02*
X145255000Y-113020000I0J-200000D01*
G01*
X145255000Y-113420000D01*
G75*
G02*
X145055000Y-113620000I-200000J0D01*
G01*
X144505000Y-113620000D01*
G75*
G02*
X144305000Y-113420000I0J200000D01*
G01*
X144305000Y-113020000D01*
G75*
G02*
X144505000Y-112820000I200000J0D01*
G01*
G37*
G36*
G01*
X144505000Y-111170000D02*
X145055000Y-111170000D01*
G75*
G02*
X145255000Y-111370000I0J-200000D01*
G01*
X145255000Y-111770000D01*
G75*
G02*
X145055000Y-111970000I-200000J0D01*
G01*
X144505000Y-111970000D01*
G75*
G02*
X144305000Y-111770000I0J200000D01*
G01*
X144305000Y-111370000D01*
G75*
G02*
X144505000Y-111170000I200000J0D01*
G01*
G37*
%TD*%
%TO.C,J13*%
G36*
G01*
X127115000Y-101180000D02*
X125615000Y-101180000D01*
G75*
G02*
X125365000Y-100930000I0J250000D01*
G01*
X125365000Y-99730000D01*
G75*
G02*
X125615000Y-99480000I250000J0D01*
G01*
X127115000Y-99480000D01*
G75*
G02*
X127365000Y-99730000I0J-250000D01*
G01*
X127365000Y-100930000D01*
G75*
G02*
X127115000Y-101180000I-250000J0D01*
G01*
G37*
D17*
X126365000Y-97830000D03*
D16*
X128365000Y-101930000D03*
%TD*%
D24*
%TO.C,TP1*%
X134112000Y-94996000D03*
%TD*%
M02*
