%TF.GenerationSoftware,KiCad,Pcbnew,5.1.10-88a1d61d58~88~ubuntu20.04.1*%
%TF.CreationDate,2021-07-08T16:26:14-06:00*%
%TF.ProjectId,ring_light_controller,72696e67-5f6c-4696-9768-745f636f6e74,1*%
%TF.SameCoordinates,Original*%
%TF.FileFunction,Soldermask,Bot*%
%TF.FilePolarity,Negative*%
%FSLAX46Y46*%
G04 Gerber Fmt 4.6, Leading zero omitted, Abs format (unit mm)*
G04 Created by KiCad (PCBNEW 5.1.10-88a1d61d58~88~ubuntu20.04.1) date 2021-07-08 16:26:14*
%MOMM*%
%LPD*%
G01*
G04 APERTURE LIST*
%ADD10C,0.900000*%
%ADD11C,10.600000*%
%ADD12C,1.300000*%
%ADD13O,1.950000X1.700000*%
%ADD14C,1.200000*%
%ADD15O,2.000000X1.700000*%
%ADD16R,3.500000X3.500000*%
%ADD17R,1.000000X1.000000*%
%ADD18O,1.000000X1.000000*%
%ADD19O,1.700000X1.950000*%
G04 APERTURE END LIST*
D10*
%TO.C,H1*%
X176800749Y-131809251D03*
X173990000Y-130645000D03*
X171179251Y-131809251D03*
X170015000Y-134620000D03*
X171179251Y-137430749D03*
X173990000Y-138595000D03*
X176800749Y-137430749D03*
X177965000Y-134620000D03*
D11*
X173990000Y-134620000D03*
%TD*%
%TO.C,H2*%
X173990000Y-66040000D03*
D10*
X177965000Y-66040000D03*
X176800749Y-68850749D03*
X173990000Y-70015000D03*
X171179251Y-68850749D03*
X170015000Y-66040000D03*
X171179251Y-63229251D03*
X173990000Y-62065000D03*
X176800749Y-63229251D03*
%TD*%
%TO.C,H3*%
X108855749Y-63229251D03*
X106045000Y-62065000D03*
X103234251Y-63229251D03*
X102070000Y-66040000D03*
X103234251Y-68850749D03*
X106045000Y-70015000D03*
X108855749Y-68850749D03*
X110020000Y-66040000D03*
D11*
X106045000Y-66040000D03*
%TD*%
%TO.C,H4*%
X106045000Y-134620000D03*
D10*
X110020000Y-134620000D03*
X108855749Y-137430749D03*
X106045000Y-138595000D03*
X103234251Y-137430749D03*
X102070000Y-134620000D03*
X103234251Y-131809251D03*
X106045000Y-130645000D03*
X108855749Y-131809251D03*
%TD*%
D12*
%TO.C,J1*%
X142240000Y-139605000D03*
X142240000Y-134605000D03*
%TD*%
%TO.C,J2*%
G36*
G01*
X102780000Y-102655000D02*
X104230000Y-102655000D01*
G75*
G02*
X104480000Y-102905000I0J-250000D01*
G01*
X104480000Y-104105000D01*
G75*
G02*
X104230000Y-104355000I-250000J0D01*
G01*
X102780000Y-104355000D01*
G75*
G02*
X102530000Y-104105000I0J250000D01*
G01*
X102530000Y-102905000D01*
G75*
G02*
X102780000Y-102655000I250000J0D01*
G01*
G37*
D13*
X103505000Y-106005000D03*
X103505000Y-108505000D03*
D14*
X101505000Y-101905000D03*
%TD*%
%TO.C,J3*%
X101505000Y-113375000D03*
D13*
X103505000Y-119975000D03*
X103505000Y-117475000D03*
G36*
G01*
X102780000Y-114125000D02*
X104230000Y-114125000D01*
G75*
G02*
X104480000Y-114375000I0J-250000D01*
G01*
X104480000Y-115575000D01*
G75*
G02*
X104230000Y-115825000I-250000J0D01*
G01*
X102780000Y-115825000D01*
G75*
G02*
X102530000Y-115575000I0J250000D01*
G01*
X102530000Y-114375000D01*
G75*
G02*
X102780000Y-114125000I250000J0D01*
G01*
G37*
%TD*%
D14*
%TO.C,J4*%
X178530000Y-125425000D03*
D15*
X176530000Y-121325000D03*
G36*
G01*
X177280000Y-124675000D02*
X175780000Y-124675000D01*
G75*
G02*
X175530000Y-124425000I0J250000D01*
G01*
X175530000Y-123225000D01*
G75*
G02*
X175780000Y-122975000I250000J0D01*
G01*
X177280000Y-122975000D01*
G75*
G02*
X177530000Y-123225000I0J-250000D01*
G01*
X177530000Y-124425000D01*
G75*
G02*
X177280000Y-124675000I-250000J0D01*
G01*
G37*
%TD*%
%TO.C,J5*%
G36*
G01*
X177280000Y-115785000D02*
X175780000Y-115785000D01*
G75*
G02*
X175530000Y-115535000I0J250000D01*
G01*
X175530000Y-114335000D01*
G75*
G02*
X175780000Y-114085000I250000J0D01*
G01*
X177280000Y-114085000D01*
G75*
G02*
X177530000Y-114335000I0J-250000D01*
G01*
X177530000Y-115535000D01*
G75*
G02*
X177280000Y-115785000I-250000J0D01*
G01*
G37*
X176530000Y-112435000D03*
D14*
X178530000Y-116535000D03*
%TD*%
%TO.C,J6*%
G36*
G01*
X177280000Y-106895000D02*
X175780000Y-106895000D01*
G75*
G02*
X175530000Y-106645000I0J250000D01*
G01*
X175530000Y-105445000D01*
G75*
G02*
X175780000Y-105195000I250000J0D01*
G01*
X177280000Y-105195000D01*
G75*
G02*
X177530000Y-105445000I0J-250000D01*
G01*
X177530000Y-106645000D01*
G75*
G02*
X177280000Y-106895000I-250000J0D01*
G01*
G37*
D15*
X176530000Y-103545000D03*
D14*
X178530000Y-107645000D03*
%TD*%
%TO.C,J7*%
X178530000Y-98755000D03*
D15*
X176530000Y-94655000D03*
G36*
G01*
X177280000Y-98005000D02*
X175780000Y-98005000D01*
G75*
G02*
X175530000Y-97755000I0J250000D01*
G01*
X175530000Y-96555000D01*
G75*
G02*
X175780000Y-96305000I250000J0D01*
G01*
X177280000Y-96305000D01*
G75*
G02*
X177530000Y-96555000I0J-250000D01*
G01*
X177530000Y-97755000D01*
G75*
G02*
X177280000Y-98005000I-250000J0D01*
G01*
G37*
%TD*%
D16*
%TO.C,J8*%
X111760000Y-83820000D03*
G36*
G01*
X104260000Y-84820000D02*
X104260000Y-82820000D01*
G75*
G02*
X105010000Y-82070000I750000J0D01*
G01*
X106510000Y-82070000D01*
G75*
G02*
X107260000Y-82820000I0J-750000D01*
G01*
X107260000Y-84820000D01*
G75*
G02*
X106510000Y-85570000I-750000J0D01*
G01*
X105010000Y-85570000D01*
G75*
G02*
X104260000Y-84820000I0J750000D01*
G01*
G37*
G36*
G01*
X107010000Y-89395000D02*
X107010000Y-87645000D01*
G75*
G02*
X107885000Y-86770000I875000J0D01*
G01*
X109635000Y-86770000D01*
G75*
G02*
X110510000Y-87645000I0J-875000D01*
G01*
X110510000Y-89395000D01*
G75*
G02*
X109635000Y-90270000I-875000J0D01*
G01*
X107885000Y-90270000D01*
G75*
G02*
X107010000Y-89395000I0J875000D01*
G01*
G37*
%TD*%
D17*
%TO.C,J9*%
X147320000Y-104775000D03*
D18*
X147320000Y-103505000D03*
X147320000Y-102235000D03*
%TD*%
D14*
%TO.C,J10*%
X178530000Y-89865000D03*
D15*
X176530000Y-85765000D03*
G36*
G01*
X177280000Y-89115000D02*
X175780000Y-89115000D01*
G75*
G02*
X175530000Y-88865000I0J250000D01*
G01*
X175530000Y-87665000D01*
G75*
G02*
X175780000Y-87415000I250000J0D01*
G01*
X177280000Y-87415000D01*
G75*
G02*
X177530000Y-87665000I0J-250000D01*
G01*
X177530000Y-88865000D01*
G75*
G02*
X177280000Y-89115000I-250000J0D01*
G01*
G37*
%TD*%
%TO.C,J11*%
G36*
G01*
X177280000Y-80225000D02*
X175780000Y-80225000D01*
G75*
G02*
X175530000Y-79975000I0J250000D01*
G01*
X175530000Y-78775000D01*
G75*
G02*
X175780000Y-78525000I250000J0D01*
G01*
X177280000Y-78525000D01*
G75*
G02*
X177530000Y-78775000I0J-250000D01*
G01*
X177530000Y-79975000D01*
G75*
G02*
X177280000Y-80225000I-250000J0D01*
G01*
G37*
X176530000Y-76875000D03*
D14*
X178530000Y-80975000D03*
%TD*%
%TO.C,J12*%
G36*
G01*
X118570000Y-137885000D02*
X118570000Y-136435000D01*
G75*
G02*
X118820000Y-136185000I250000J0D01*
G01*
X120020000Y-136185000D01*
G75*
G02*
X120270000Y-136435000I0J-250000D01*
G01*
X120270000Y-137885000D01*
G75*
G02*
X120020000Y-138135000I-250000J0D01*
G01*
X118820000Y-138135000D01*
G75*
G02*
X118570000Y-137885000I0J250000D01*
G01*
G37*
D19*
X121920000Y-137160000D03*
X124420000Y-137160000D03*
D14*
X117820000Y-139160000D03*
%TD*%
%TO.C,J13*%
G36*
G01*
X127115000Y-101180000D02*
X125615000Y-101180000D01*
G75*
G02*
X125365000Y-100930000I0J250000D01*
G01*
X125365000Y-99730000D01*
G75*
G02*
X125615000Y-99480000I250000J0D01*
G01*
X127115000Y-99480000D01*
G75*
G02*
X127365000Y-99730000I0J-250000D01*
G01*
X127365000Y-100930000D01*
G75*
G02*
X127115000Y-101180000I-250000J0D01*
G01*
G37*
D15*
X126365000Y-97830000D03*
D14*
X128365000Y-101930000D03*
%TD*%
M02*
